<svg xmlns="http://www.w3.org/2000/svg" width="900" height="320" viewBox="0 0 900 320" role="img" aria-labelledby="title desc">
<title id="title">Unsorry proofs over time</title>
<desc id="desc">Cumulative kernel-verified proofs over time, by the hour each proof was merged.</desc>
<rect width="900" height="100%" rx="18" fill="#ffffff"/>
<rect x="0.5" y="0.5" width="899" height="319" rx="18" fill="none" stroke="#e2e8f0"/>
<text x="32" y="44" font-family="Inter, system-ui, sans-serif" font-size="28" font-weight="700" fill="#334155">Unsorry — Proofs Over Time</text>
<text x="32" y="72" font-family="Inter, system-ui, sans-serif" font-size="13" fill="#64748b">2054 cumulative kernel-verified proofs · merged, hourly</text>
<line x1="52" y1="272.0" x2="872" y2="272.0" stroke="#f1f5f9"/>
<text x="44" y="276.0" text-anchor="end" font-family="Inter, system-ui, sans-serif" font-size="11" fill="#94a3b8">0</text>
<line x1="52" y1="226.5" x2="872" y2="226.5" stroke="#f1f5f9"/>
<text x="44" y="230.5" text-anchor="end" font-family="Inter, system-ui, sans-serif" font-size="11" fill="#94a3b8">514</text>
<line x1="52" y1="181.0" x2="872" y2="181.0" stroke="#f1f5f9"/>
<text x="44" y="185.0" text-anchor="end" font-family="Inter, system-ui, sans-serif" font-size="11" fill="#94a3b8">1027</text>
<line x1="52" y1="135.5" x2="872" y2="135.5" stroke="#f1f5f9"/>
<text x="44" y="139.5" text-anchor="end" font-family="Inter, system-ui, sans-serif" font-size="11" fill="#94a3b8">1540</text>
<line x1="52" y1="90.0" x2="872" y2="90.0" stroke="#f1f5f9"/>
<text x="44" y="94.0" text-anchor="end" font-family="Inter, system-ui, sans-serif" font-size="11" fill="#94a3b8">2054</text>
<polygon points="52.0,272.0 52.0,271.9 55.1,271.7 92.2,270.8 95.3,270.6 98.4,270.5 107.7,270.4 126.3,270.3 166.5,270.2 169.6,269.4 172.7,269.3 182.0,269.2 185.1,269.1 188.2,269.0 191.2,268.7 197.4,268.6 200.5,268.2 209.8,267.8 222.2,267.7 225.3,267.4 228.4,267.2 253.1,267.1 259.3,267.0 274.8,266.9 277.9,266.9 281.0,266.7 293.4,266.6 296.5,266.1 299.5,265.6 302.6,264.5 305.7,264.3 327.4,264.2 336.7,264.1 342.9,264.0 346.0,263.9 349.1,263.5 352.2,263.4 355.2,263.3 358.3,263.1 361.4,262.8 373.8,262.3 380.0,262.3 392.4,262.2 395.5,261.7 398.6,261.6 401.7,261.5 407.8,261.4 410.9,259.6 414.0,257.8 417.1,257.2 420.2,256.8 423.3,256.6 426.4,256.1 429.5,255.5 432.6,255.1 435.7,254.8 438.8,254.6 445.0,254.4 448.1,253.7 451.2,252.9 454.3,252.2 457.4,251.8 463.5,251.6 469.7,251.5 472.8,250.9 475.9,250.5 479.0,249.2 482.1,248.5 485.2,247.8 488.3,247.1 491.4,246.3 494.5,245.5 497.6,244.6 500.7,243.6 503.8,242.8 506.9,242.0 510.0,241.4 513.1,240.8 516.2,240.1 519.2,239.7 522.3,239.3 525.4,238.9 528.5,238.7 531.6,238.5 537.8,238.4 540.9,236.6 544.0,235.4 547.1,235.1 550.2,235.1 556.4,234.9 559.5,234.6 571.8,234.5 578.0,234.3 587.3,234.3 590.4,232.2 593.5,230.3 596.6,229.7 599.7,228.1 602.8,226.9 605.9,226.1 609.0,225.7 612.1,224.9 615.2,224.5 618.3,224.3 621.4,224.0 624.5,223.8 643.0,222.4 646.1,220.6 649.2,220.3 652.3,220.1 655.4,220.0 677.1,219.9 704.9,218.0 708.0,216.6 711.1,214.9 714.2,212.5 717.3,212.0 720.4,211.2 723.5,209.8 726.6,208.7 729.7,206.3 732.8,202.8 735.8,199.3 738.9,195.3 742.0,191.0 745.1,187.3 748.2,185.0 751.3,182.2 754.4,178.2 757.5,174.7 760.6,172.4 763.7,170.0 766.8,166.6 769.9,164.5 773.0,162.4 776.1,160.5 779.2,159.1 782.3,157.3 785.4,156.1 788.5,154.9 791.5,153.8 794.6,150.6 797.7,148.0 800.8,146.6 803.9,146.2 807.0,145.4 810.1,144.1 813.2,142.9 816.3,140.8 819.4,139.4 822.5,138.2 825.6,138.0 828.7,137.5 831.8,136.5 834.9,133.9 838.0,129.8 841.1,125.4 844.2,121.1 847.2,117.6 850.3,113.4 853.4,109.0 856.5,104.4 859.6,100.3 862.7,97.3 865.8,94.9 868.9,92.1 872.0,90.0 872.0,272.0" fill="#e0f2fe" opacity="0.55"/>
<polyline points="52.0,271.9 55.1,271.7 92.2,270.8 95.3,270.6 98.4,270.5 107.7,270.4 126.3,270.3 166.5,270.2 169.6,269.4 172.7,269.3 182.0,269.2 185.1,269.1 188.2,269.0 191.2,268.7 197.4,268.6 200.5,268.2 209.8,267.8 222.2,267.7 225.3,267.4 228.4,267.2 253.1,267.1 259.3,267.0 274.8,266.9 277.9,266.9 281.0,266.7 293.4,266.6 296.5,266.1 299.5,265.6 302.6,264.5 305.7,264.3 327.4,264.2 336.7,264.1 342.9,264.0 346.0,263.9 349.1,263.5 352.2,263.4 355.2,263.3 358.3,263.1 361.4,262.8 373.8,262.3 380.0,262.3 392.4,262.2 395.5,261.7 398.6,261.6 401.7,261.5 407.8,261.4 410.9,259.6 414.0,257.8 417.1,257.2 420.2,256.8 423.3,256.6 426.4,256.1 429.5,255.5 432.6,255.1 435.7,254.8 438.8,254.6 445.0,254.4 448.1,253.7 451.2,252.9 454.3,252.2 457.4,251.8 463.5,251.6 469.7,251.5 472.8,250.9 475.9,250.5 479.0,249.2 482.1,248.5 485.2,247.8 488.3,247.1 491.4,246.3 494.5,245.5 497.6,244.6 500.7,243.6 503.8,242.8 506.9,242.0 510.0,241.4 513.1,240.8 516.2,240.1 519.2,239.7 522.3,239.3 525.4,238.9 528.5,238.7 531.6,238.5 537.8,238.4 540.9,236.6 544.0,235.4 547.1,235.1 550.2,235.1 556.4,234.9 559.5,234.6 571.8,234.5 578.0,234.3 587.3,234.3 590.4,232.2 593.5,230.3 596.6,229.7 599.7,228.1 602.8,226.9 605.9,226.1 609.0,225.7 612.1,224.9 615.2,224.5 618.3,224.3 621.4,224.0 624.5,223.8 643.0,222.4 646.1,220.6 649.2,220.3 652.3,220.1 655.4,220.0 677.1,219.9 704.9,218.0 708.0,216.6 711.1,214.9 714.2,212.5 717.3,212.0 720.4,211.2 723.5,209.8 726.6,208.7 729.7,206.3 732.8,202.8 735.8,199.3 738.9,195.3 742.0,191.0 745.1,187.3 748.2,185.0 751.3,182.2 754.4,178.2 757.5,174.7 760.6,172.4 763.7,170.0 766.8,166.6 769.9,164.5 773.0,162.4 776.1,160.5 779.2,159.1 782.3,157.3 785.4,156.1 788.5,154.9 791.5,153.8 794.6,150.6 797.7,148.0 800.8,146.6 803.9,146.2 807.0,145.4 810.1,144.1 813.2,142.9 816.3,140.8 819.4,139.4 822.5,138.2 825.6,138.0 828.7,137.5 831.8,136.5 834.9,133.9 838.0,129.8 841.1,125.4 844.2,121.1 847.2,117.6 850.3,113.4 853.4,109.0 856.5,104.4 859.6,100.3 862.7,97.3 865.8,94.9 868.9,92.1 872.0,90.0" fill="none" stroke="#38bdf8" stroke-width="2.5" stroke-linejoin="round" stroke-linecap="round"/>
<circle cx="872.0" cy="90.0" r="4" fill="#0ea5e9"/>
<text x="866.0" y="80.0" text-anchor="end" font-family="Inter, system-ui, sans-serif" font-size="13" font-weight="700" fill="#334155">2054</text>
<text x="52.0" y="294" text-anchor="middle" font-family="Inter, system-ui, sans-serif" font-size="11" fill="#94a3b8">Jun 10 05:00</text>
<text x="537.8" y="294" text-anchor="middle" font-family="Inter, system-ui, sans-serif" font-size="11" fill="#94a3b8">Jun 16 18:00</text>
<text x="872.0" y="294" text-anchor="middle" font-family="Inter, system-ui, sans-serif" font-size="11" fill="#94a3b8">Jun 21 06:00</text>
</svg>
