<svg xmlns="http://www.w3.org/2000/svg" width="900" height="320" viewBox="0 0 900 320" role="img" aria-labelledby="title desc">
<title id="title">Unsorry proofs over time</title>
<desc id="desc">Cumulative kernel-verified proofs over time, by the hour each proof was merged.</desc>
<rect width="900" height="100%" rx="18" fill="#ffffff"/>
<rect x="0.5" y="0.5" width="899" height="319" rx="18" fill="none" stroke="#e2e8f0"/>
<text x="32" y="44" font-family="Inter, system-ui, sans-serif" font-size="28" font-weight="700" fill="#334155">Unsorry — Proofs Over Time</text>
<text x="32" y="72" font-family="Inter, system-ui, sans-serif" font-size="13" fill="#64748b">1789 cumulative kernel-verified proofs · merged, hourly</text>
<line x1="52" y1="272.0" x2="872" y2="272.0" stroke="#f1f5f9"/>
<text x="44" y="276.0" text-anchor="end" font-family="Inter, system-ui, sans-serif" font-size="11" fill="#94a3b8">0</text>
<line x1="52" y1="226.5" x2="872" y2="226.5" stroke="#f1f5f9"/>
<text x="44" y="230.5" text-anchor="end" font-family="Inter, system-ui, sans-serif" font-size="11" fill="#94a3b8">447</text>
<line x1="52" y1="181.1" x2="872" y2="181.1" stroke="#f1f5f9"/>
<text x="44" y="185.1" text-anchor="end" font-family="Inter, system-ui, sans-serif" font-size="11" fill="#94a3b8">894</text>
<line x1="52" y1="135.5" x2="872" y2="135.5" stroke="#f1f5f9"/>
<text x="44" y="139.5" text-anchor="end" font-family="Inter, system-ui, sans-serif" font-size="11" fill="#94a3b8">1342</text>
<line x1="52" y1="90.0" x2="872" y2="90.0" stroke="#f1f5f9"/>
<text x="44" y="94.0" text-anchor="end" font-family="Inter, system-ui, sans-serif" font-size="11" fill="#94a3b8">1789</text>
<polygon points="52.0,272.0 52.0,271.9 55.2,271.7 93.3,270.7 96.5,270.4 99.7,270.3 109.2,270.2 128.3,270.1 169.6,270.0 172.8,269.0 176.0,268.9 185.5,268.7 188.7,268.6 191.8,268.5 195.0,268.2 201.4,268.1 204.6,267.6 214.1,267.2 226.8,267.0 230.0,266.7 233.2,266.5 258.6,266.4 264.9,266.3 280.8,266.2 284.0,266.1 287.2,265.9 299.9,265.8 303.1,265.2 306.3,264.7 309.4,263.4 312.6,263.1 334.9,263.0 344.4,262.9 350.8,262.8 353.9,262.7 357.1,262.2 360.3,262.1 363.5,262.0 366.7,261.7 369.8,261.4 382.5,260.9 388.9,260.8 401.6,260.7 404.8,260.2 408.0,260.1 411.1,259.9 417.5,259.8 420.7,257.8 423.9,255.7 427.0,255.0 430.2,254.5 433.4,254.3 436.6,253.8 439.8,253.1 442.9,252.6 446.1,252.3 449.3,252.1 455.6,251.8 458.8,250.9 462.0,250.1 465.2,249.3 468.4,248.8 474.7,248.6 481.1,248.5 484.2,247.8 487.4,247.3 490.6,245.9 493.8,245.0 497.0,244.2 500.1,243.4 503.3,242.5 506.5,241.6 509.7,240.6 512.9,239.4 516.0,238.4 519.2,237.5 522.4,236.9 525.6,236.2 528.7,235.4 531.9,235.0 535.1,234.5 538.3,234.0 541.5,233.7 544.6,233.5 551.0,233.4 554.2,231.4 557.3,230.0 560.5,229.7 563.7,229.6 570.1,229.4 573.2,229.1 586.0,229.0 592.3,228.8 601.8,228.7 605.0,226.3 608.2,224.1 611.4,223.5 614.6,221.6 617.7,220.2 620.9,219.3 624.1,218.8 627.3,217.9 630.4,217.5 633.6,217.3 636.8,216.9 640.0,216.7 659.1,215.0 662.2,213.0 665.4,212.7 668.6,212.4 671.8,212.3 694.0,212.2 722.6,210.0 725.8,208.4 729.0,206.5 732.2,203.6 735.3,203.1 738.5,202.2 741.7,200.6 744.9,199.4 748.0,196.6 751.2,192.5 754.4,188.6 757.6,183.9 760.8,179.0 763.9,174.7 767.1,172.1 770.3,168.9 773.5,164.3 776.7,160.3 779.8,157.7 783.0,154.9 786.2,151.0 789.4,148.6 792.5,146.2 795.7,144.0 798.9,142.4 802.1,140.3 805.3,138.9 808.4,137.5 811.6,136.3 814.8,132.6 818.0,129.7 821.1,128.0 824.3,127.5 827.5,126.6 830.7,125.1 833.9,123.8 837.0,121.3 840.2,119.8 843.4,118.4 846.6,118.2 849.8,117.6 852.9,116.5 856.1,113.5 859.3,108.7 862.5,103.7 865.6,98.7 868.8,94.7 872.0,90.0 872.0,272.0" fill="#e0f2fe" opacity="0.55"/>
<polyline points="52.0,271.9 55.2,271.7 93.3,270.7 96.5,270.4 99.7,270.3 109.2,270.2 128.3,270.1 169.6,270.0 172.8,269.0 176.0,268.9 185.5,268.7 188.7,268.6 191.8,268.5 195.0,268.2 201.4,268.1 204.6,267.6 214.1,267.2 226.8,267.0 230.0,266.7 233.2,266.5 258.6,266.4 264.9,266.3 280.8,266.2 284.0,266.1 287.2,265.9 299.9,265.8 303.1,265.2 306.3,264.7 309.4,263.4 312.6,263.1 334.9,263.0 344.4,262.9 350.8,262.8 353.9,262.7 357.1,262.2 360.3,262.1 363.5,262.0 366.7,261.7 369.8,261.4 382.5,260.9 388.9,260.8 401.6,260.7 404.8,260.2 408.0,260.1 411.1,259.9 417.5,259.8 420.7,257.8 423.9,255.7 427.0,255.0 430.2,254.5 433.4,254.3 436.6,253.8 439.8,253.1 442.9,252.6 446.1,252.3 449.3,252.1 455.6,251.8 458.8,250.9 462.0,250.1 465.2,249.3 468.4,248.8 474.7,248.6 481.1,248.5 484.2,247.8 487.4,247.3 490.6,245.9 493.8,245.0 497.0,244.2 500.1,243.4 503.3,242.5 506.5,241.6 509.7,240.6 512.9,239.4 516.0,238.4 519.2,237.5 522.4,236.9 525.6,236.2 528.7,235.4 531.9,235.0 535.1,234.5 538.3,234.0 541.5,233.7 544.6,233.5 551.0,233.4 554.2,231.4 557.3,230.0 560.5,229.7 563.7,229.6 570.1,229.4 573.2,229.1 586.0,229.0 592.3,228.8 601.8,228.7 605.0,226.3 608.2,224.1 611.4,223.5 614.6,221.6 617.7,220.2 620.9,219.3 624.1,218.8 627.3,217.9 630.4,217.5 633.6,217.3 636.8,216.9 640.0,216.7 659.1,215.0 662.2,213.0 665.4,212.7 668.6,212.4 671.8,212.3 694.0,212.2 722.6,210.0 725.8,208.4 729.0,206.5 732.2,203.6 735.3,203.1 738.5,202.2 741.7,200.6 744.9,199.4 748.0,196.6 751.2,192.5 754.4,188.6 757.6,183.9 760.8,179.0 763.9,174.7 767.1,172.1 770.3,168.9 773.5,164.3 776.7,160.3 779.8,157.7 783.0,154.9 786.2,151.0 789.4,148.6 792.5,146.2 795.7,144.0 798.9,142.4 802.1,140.3 805.3,138.9 808.4,137.5 811.6,136.3 814.8,132.6 818.0,129.7 821.1,128.0 824.3,127.5 827.5,126.6 830.7,125.1 833.9,123.8 837.0,121.3 840.2,119.8 843.4,118.4 846.6,118.2 849.8,117.6 852.9,116.5 856.1,113.5 859.3,108.7 862.5,103.7 865.6,98.7 868.8,94.7 872.0,90.0" fill="none" stroke="#38bdf8" stroke-width="2.5" stroke-linejoin="round" stroke-linecap="round"/>
<circle cx="872.0" cy="90.0" r="4" fill="#0ea5e9"/>
<text x="866.0" y="80.0" text-anchor="end" font-family="Inter, system-ui, sans-serif" font-size="13" font-weight="700" fill="#334155">1789</text>
<text x="52.0" y="294" text-anchor="middle" font-family="Inter, system-ui, sans-serif" font-size="11" fill="#94a3b8">Jun 10 05:00</text>
<text x="535.1" y="294" text-anchor="middle" font-family="Inter, system-ui, sans-serif" font-size="11" fill="#94a3b8">Jun 16 13:00</text>
<text x="872.0" y="294" text-anchor="middle" font-family="Inter, system-ui, sans-serif" font-size="11" fill="#94a3b8">Jun 20 23:00</text>
</svg>
