<svg xmlns="http://www.w3.org/2000/svg" width="900" height="320" viewBox="0 0 900 320" role="img" aria-labelledby="title desc">
<title id="title">Unsorry proofs over time</title>
<desc id="desc">Cumulative kernel-verified proofs over time, by the hour each proof was merged.</desc>
<rect width="900" height="100%" rx="18" fill="#ffffff"/>
<rect x="0.5" y="0.5" width="899" height="319" rx="18" fill="none" stroke="#e2e8f0"/>
<text x="32" y="44" font-family="Inter, system-ui, sans-serif" font-size="28" font-weight="700" fill="#334155">Unsorry — Proofs Over Time</text>
<text x="32" y="72" font-family="Inter, system-ui, sans-serif" font-size="13" fill="#64748b">2312 cumulative kernel-verified proofs · merged, hourly</text>
<line x1="52" y1="272.0" x2="872" y2="272.0" stroke="#f1f5f9"/>
<text x="44" y="276.0" text-anchor="end" font-family="Inter, system-ui, sans-serif" font-size="11" fill="#94a3b8">0</text>
<line x1="52" y1="226.5" x2="872" y2="226.5" stroke="#f1f5f9"/>
<text x="44" y="230.5" text-anchor="end" font-family="Inter, system-ui, sans-serif" font-size="11" fill="#94a3b8">578</text>
<line x1="52" y1="181.0" x2="872" y2="181.0" stroke="#f1f5f9"/>
<text x="44" y="185.0" text-anchor="end" font-family="Inter, system-ui, sans-serif" font-size="11" fill="#94a3b8">1156</text>
<line x1="52" y1="135.5" x2="872" y2="135.5" stroke="#f1f5f9"/>
<text x="44" y="139.5" text-anchor="end" font-family="Inter, system-ui, sans-serif" font-size="11" fill="#94a3b8">1734</text>
<line x1="52" y1="90.0" x2="872" y2="90.0" stroke="#f1f5f9"/>
<text x="44" y="94.0" text-anchor="end" font-family="Inter, system-ui, sans-serif" font-size="11" fill="#94a3b8">2312</text>
<polygon points="52.0,272.0 52.0,271.9 55.0,271.8 90.8,271.0 93.7,270.7 96.7,270.7 105.7,270.6 123.6,270.5 162.3,270.4 165.3,269.7 168.3,269.6 177.2,269.5 180.2,269.4 183.2,269.3 186.2,269.1 192.1,269.0 195.1,268.6 204.1,268.3 216.0,268.1 219.0,267.9 222.0,267.7 245.8,267.7 251.8,267.6 266.7,267.5 269.7,267.4 272.7,267.3 284.6,267.2 287.6,266.7 290.5,266.3 293.5,265.3 296.5,265.2 317.4,265.1 326.3,265.0 332.3,264.9 335.3,264.8 338.3,264.4 341.2,264.4 344.2,264.3 347.2,264.0 350.2,263.8 362.1,263.4 368.1,263.3 380.0,263.3 383.0,262.9 386.0,262.8 388.9,262.6 394.9,262.6 397.9,261.0 400.9,259.4 403.9,258.9 406.8,258.5 409.8,258.3 412.8,257.9 415.8,257.4 418.8,257.0 421.7,256.7 424.7,256.6 430.7,256.3 433.7,255.7 436.7,255.1 439.6,254.4 442.6,254.1 448.6,253.9 454.5,253.8 457.5,253.3 460.5,252.9 463.5,251.8 466.5,251.1 469.5,250.5 472.4,249.9 475.4,249.2 478.4,248.5 481.4,247.7 484.4,246.8 487.3,246.0 490.3,245.3 493.3,244.8 496.3,244.3 499.3,243.7 502.3,243.3 505.2,243.0 508.2,242.6 511.2,242.4 514.2,242.2 520.1,242.2 523.1,240.6 526.1,239.5 529.1,239.3 532.1,239.2 538.0,239.0 541.0,238.8 552.9,238.7 558.9,238.5 567.9,238.5 570.8,236.7 573.8,234.9 576.8,234.5 579.8,233.0 582.8,231.9 585.7,231.2 588.7,230.8 591.7,230.1 594.7,229.8 597.7,229.6 600.7,229.3 603.6,229.2 621.5,227.9 624.5,226.3 627.5,226.1 630.5,225.9 633.5,225.8 654.3,225.7 681.2,224.1 684.1,222.8 687.1,221.3 690.1,219.1 693.1,218.7 696.1,218.0 699.1,216.7 702.0,215.8 705.0,213.7 708.0,210.5 711.0,207.4 714.0,203.8 716.9,200.1 719.9,196.7 722.9,194.7 725.9,192.3 728.9,188.6 731.9,185.6 734.8,183.5 737.8,181.4 740.8,178.4 743.8,176.5 746.8,174.6 749.7,173.0 752.7,171.7 755.7,170.1 758.7,169.0 761.7,167.9 764.7,167.0 767.6,164.2 770.6,161.9 773.6,160.6 776.6,160.2 779.6,159.5 782.5,158.3 785.5,157.3 788.5,155.4 791.5,154.2 794.5,153.1 797.5,153.0 800.4,152.5 803.4,151.6 806.4,149.4 809.4,145.7 812.4,141.8 815.3,137.9 818.3,134.8 821.3,131.1 824.3,127.2 827.3,123.1 830.3,119.4 833.2,116.8 836.2,114.6 839.2,112.2 842.2,109.8 845.2,108.3 848.1,106.4 851.1,105.0 854.1,102.9 857.1,100.2 860.1,96.8 863.1,94.1 866.0,91.7 869.0,90.1 872.0,90.0 872.0,272.0" fill="#e0f2fe" opacity="0.55"/>
<polyline points="52.0,271.9 55.0,271.8 90.8,271.0 93.7,270.7 96.7,270.7 105.7,270.6 123.6,270.5 162.3,270.4 165.3,269.7 168.3,269.6 177.2,269.5 180.2,269.4 183.2,269.3 186.2,269.1 192.1,269.0 195.1,268.6 204.1,268.3 216.0,268.1 219.0,267.9 222.0,267.7 245.8,267.7 251.8,267.6 266.7,267.5 269.7,267.4 272.7,267.3 284.6,267.2 287.6,266.7 290.5,266.3 293.5,265.3 296.5,265.2 317.4,265.1 326.3,265.0 332.3,264.9 335.3,264.8 338.3,264.4 341.2,264.4 344.2,264.3 347.2,264.0 350.2,263.8 362.1,263.4 368.1,263.3 380.0,263.3 383.0,262.9 386.0,262.8 388.9,262.6 394.9,262.6 397.9,261.0 400.9,259.4 403.9,258.9 406.8,258.5 409.8,258.3 412.8,257.9 415.8,257.4 418.8,257.0 421.7,256.7 424.7,256.6 430.7,256.3 433.7,255.7 436.7,255.1 439.6,254.4 442.6,254.1 448.6,253.9 454.5,253.8 457.5,253.3 460.5,252.9 463.5,251.8 466.5,251.1 469.5,250.5 472.4,249.9 475.4,249.2 478.4,248.5 481.4,247.7 484.4,246.8 487.3,246.0 490.3,245.3 493.3,244.8 496.3,244.3 499.3,243.7 502.3,243.3 505.2,243.0 508.2,242.6 511.2,242.4 514.2,242.2 520.1,242.2 523.1,240.6 526.1,239.5 529.1,239.3 532.1,239.2 538.0,239.0 541.0,238.8 552.9,238.7 558.9,238.5 567.9,238.5 570.8,236.7 573.8,234.9 576.8,234.5 579.8,233.0 582.8,231.9 585.7,231.2 588.7,230.8 591.7,230.1 594.7,229.8 597.7,229.6 600.7,229.3 603.6,229.2 621.5,227.9 624.5,226.3 627.5,226.1 630.5,225.9 633.5,225.8 654.3,225.7 681.2,224.1 684.1,222.8 687.1,221.3 690.1,219.1 693.1,218.7 696.1,218.0 699.1,216.7 702.0,215.8 705.0,213.7 708.0,210.5 711.0,207.4 714.0,203.8 716.9,200.1 719.9,196.7 722.9,194.7 725.9,192.3 728.9,188.6 731.9,185.6 734.8,183.5 737.8,181.4 740.8,178.4 743.8,176.5 746.8,174.6 749.7,173.0 752.7,171.7 755.7,170.1 758.7,169.0 761.7,167.9 764.7,167.0 767.6,164.2 770.6,161.9 773.6,160.6 776.6,160.2 779.6,159.5 782.5,158.3 785.5,157.3 788.5,155.4 791.5,154.2 794.5,153.1 797.5,153.0 800.4,152.5 803.4,151.6 806.4,149.4 809.4,145.7 812.4,141.8 815.3,137.9 818.3,134.8 821.3,131.1 824.3,127.2 827.3,123.1 830.3,119.4 833.2,116.8 836.2,114.6 839.2,112.2 842.2,109.8 845.2,108.3 848.1,106.4 851.1,105.0 854.1,102.9 857.1,100.2 860.1,96.8 863.1,94.1 866.0,91.7 869.0,90.1 872.0,90.0" fill="none" stroke="#38bdf8" stroke-width="2.5" stroke-linejoin="round" stroke-linecap="round"/>
<circle cx="872.0" cy="90.0" r="4" fill="#0ea5e9"/>
<text x="866.0" y="80.0" text-anchor="end" font-family="Inter, system-ui, sans-serif" font-size="13" font-weight="700" fill="#334155">2312</text>
<text x="52.0" y="294" text-anchor="middle" font-family="Inter, system-ui, sans-serif" font-size="11" fill="#94a3b8">Jun 10 05:00</text>
<text x="538.0" y="294" text-anchor="middle" font-family="Inter, system-ui, sans-serif" font-size="11" fill="#94a3b8">Jun 17 00:00</text>
<text x="872.0" y="294" text-anchor="middle" font-family="Inter, system-ui, sans-serif" font-size="11" fill="#94a3b8">Jun 21 16:00</text>
</svg>
