<svg xmlns="http://www.w3.org/2000/svg" width="900" height="320" viewBox="0 0 900 320" role="img" aria-labelledby="title desc">
<title id="title">Unsorry proofs over time</title>
<desc id="desc">Cumulative kernel-verified proofs over time, by the hour each proof was merged.</desc>
<rect width="900" height="100%" rx="18" fill="#ffffff"/>
<rect x="0.5" y="0.5" width="899" height="319" rx="18" fill="none" stroke="#e2e8f0"/>
<text x="32" y="44" font-family="Inter, system-ui, sans-serif" font-size="28" font-weight="700" fill="#334155">Unsorry — Proofs Over Time</text>
<text x="32" y="72" font-family="Inter, system-ui, sans-serif" font-size="13" fill="#64748b">2223 cumulative kernel-verified proofs · merged, hourly</text>
<line x1="52" y1="272.0" x2="872" y2="272.0" stroke="#f1f5f9"/>
<text x="44" y="276.0" text-anchor="end" font-family="Inter, system-ui, sans-serif" font-size="11" fill="#94a3b8">0</text>
<line x1="52" y1="226.5" x2="872" y2="226.5" stroke="#f1f5f9"/>
<text x="44" y="230.5" text-anchor="end" font-family="Inter, system-ui, sans-serif" font-size="11" fill="#94a3b8">556</text>
<line x1="52" y1="181.0" x2="872" y2="181.0" stroke="#f1f5f9"/>
<text x="44" y="185.0" text-anchor="end" font-family="Inter, system-ui, sans-serif" font-size="11" fill="#94a3b8">1112</text>
<line x1="52" y1="135.5" x2="872" y2="135.5" stroke="#f1f5f9"/>
<text x="44" y="139.5" text-anchor="end" font-family="Inter, system-ui, sans-serif" font-size="11" fill="#94a3b8">1667</text>
<line x1="52" y1="90.0" x2="872" y2="90.0" stroke="#f1f5f9"/>
<text x="44" y="94.0" text-anchor="end" font-family="Inter, system-ui, sans-serif" font-size="11" fill="#94a3b8">2223</text>
<polygon points="52.0,272.0 52.0,271.9 55.0,271.8 91.3,270.9 94.4,270.7 97.4,270.6 106.5,270.5 124.6,270.4 164.0,270.4 167.0,269.6 170.0,269.5 179.1,269.4 182.1,269.3 185.1,269.2 188.2,269.0 194.2,268.9 197.2,268.5 206.3,268.2 218.4,268.0 221.4,267.7 224.5,267.6 248.7,267.5 254.7,267.4 269.9,267.3 272.9,267.3 275.9,267.1 288.0,267.0 291.0,266.5 294.1,266.1 297.1,265.0 300.1,264.9 321.3,264.8 330.4,264.7 336.4,264.6 339.5,264.5 342.5,264.1 345.5,264.1 348.5,264.0 351.6,263.7 354.6,263.5 366.7,263.1 372.7,263.0 384.8,262.9 387.9,262.5 390.9,262.4 393.9,262.3 400.0,262.2 403.0,260.5 406.0,258.9 409.0,258.3 412.1,257.9 415.1,257.8 418.1,257.3 421.2,256.8 424.2,256.4 427.2,256.1 430.2,256.0 436.3,255.7 439.3,255.1 442.3,254.4 445.4,253.7 448.4,253.3 454.4,253.2 460.5,253.1 463.5,252.5 466.5,252.1 469.6,251.0 472.6,250.3 475.6,249.6 478.6,249.0 481.7,248.3 484.7,247.5 487.7,246.7 490.7,245.8 493.8,245.0 496.8,244.2 499.8,243.8 502.8,243.2 505.9,242.5 508.9,242.2 511.9,241.8 515.0,241.4 518.0,241.2 521.0,241.1 527.1,241.0 530.1,239.3 533.1,238.2 536.1,237.9 539.2,237.9 545.2,237.7 548.2,237.5 560.3,237.4 566.4,237.2 575.5,237.1 578.5,235.2 581.5,233.4 584.5,232.9 587.6,231.5 590.6,230.3 593.6,229.6 596.6,229.2 599.7,228.4 602.7,228.1 605.7,228.0 608.8,227.6 611.8,227.5 629.9,226.2 633.0,224.5 636.0,224.3 639.0,224.0 642.0,223.9 663.2,223.9 690.5,222.1 693.5,220.8 696.5,219.3 699.5,217.0 702.6,216.6 705.6,215.8 708.6,214.5 711.6,213.5 714.7,211.3 717.7,208.1 720.7,204.9 723.7,201.1 726.8,197.2 729.8,193.7 732.8,191.6 735.8,189.1 738.9,185.3 741.9,182.1 744.9,180.0 747.9,177.8 751.0,174.7 754.0,172.7 757.0,170.7 760.0,169.0 763.1,167.7 766.1,166.0 769.1,164.9 772.1,163.8 775.2,162.8 778.2,159.8 781.2,157.5 784.3,156.2 787.3,155.7 790.3,155.0 793.3,153.8 796.4,152.7 799.4,150.7 802.4,149.5 805.4,148.4 808.5,148.2 811.5,147.7 814.5,146.8 817.5,144.4 820.6,140.6 823.6,136.6 826.6,132.6 829.6,129.3 832.7,125.5 835.7,121.4 838.7,117.2 841.7,113.3 844.8,110.5 847.8,108.3 850.8,105.8 853.8,103.3 856.9,101.7 859.9,99.7 862.9,98.3 865.9,96.1 869.0,93.3 872.0,90.0 872.0,272.0" fill="#e0f2fe" opacity="0.55"/>
<polyline points="52.0,271.9 55.0,271.8 91.3,270.9 94.4,270.7 97.4,270.6 106.5,270.5 124.6,270.4 164.0,270.4 167.0,269.6 170.0,269.5 179.1,269.4 182.1,269.3 185.1,269.2 188.2,269.0 194.2,268.9 197.2,268.5 206.3,268.2 218.4,268.0 221.4,267.7 224.5,267.6 248.7,267.5 254.7,267.4 269.9,267.3 272.9,267.3 275.9,267.1 288.0,267.0 291.0,266.5 294.1,266.1 297.1,265.0 300.1,264.9 321.3,264.8 330.4,264.7 336.4,264.6 339.5,264.5 342.5,264.1 345.5,264.1 348.5,264.0 351.6,263.7 354.6,263.5 366.7,263.1 372.7,263.0 384.8,262.9 387.9,262.5 390.9,262.4 393.9,262.3 400.0,262.2 403.0,260.5 406.0,258.9 409.0,258.3 412.1,257.9 415.1,257.8 418.1,257.3 421.2,256.8 424.2,256.4 427.2,256.1 430.2,256.0 436.3,255.7 439.3,255.1 442.3,254.4 445.4,253.7 448.4,253.3 454.4,253.2 460.5,253.1 463.5,252.5 466.5,252.1 469.6,251.0 472.6,250.3 475.6,249.6 478.6,249.0 481.7,248.3 484.7,247.5 487.7,246.7 490.7,245.8 493.8,245.0 496.8,244.2 499.8,243.8 502.8,243.2 505.9,242.5 508.9,242.2 511.9,241.8 515.0,241.4 518.0,241.2 521.0,241.1 527.1,241.0 530.1,239.3 533.1,238.2 536.1,237.9 539.2,237.9 545.2,237.7 548.2,237.5 560.3,237.4 566.4,237.2 575.5,237.1 578.5,235.2 581.5,233.4 584.5,232.9 587.6,231.5 590.6,230.3 593.6,229.6 596.6,229.2 599.7,228.4 602.7,228.1 605.7,228.0 608.8,227.6 611.8,227.5 629.9,226.2 633.0,224.5 636.0,224.3 639.0,224.0 642.0,223.9 663.2,223.9 690.5,222.1 693.5,220.8 696.5,219.3 699.5,217.0 702.6,216.6 705.6,215.8 708.6,214.5 711.6,213.5 714.7,211.3 717.7,208.1 720.7,204.9 723.7,201.1 726.8,197.2 729.8,193.7 732.8,191.6 735.8,189.1 738.9,185.3 741.9,182.1 744.9,180.0 747.9,177.8 751.0,174.7 754.0,172.7 757.0,170.7 760.0,169.0 763.1,167.7 766.1,166.0 769.1,164.9 772.1,163.8 775.2,162.8 778.2,159.8 781.2,157.5 784.3,156.2 787.3,155.7 790.3,155.0 793.3,153.8 796.4,152.7 799.4,150.7 802.4,149.5 805.4,148.4 808.5,148.2 811.5,147.7 814.5,146.8 817.5,144.4 820.6,140.6 823.6,136.6 826.6,132.6 829.6,129.3 832.7,125.5 835.7,121.4 838.7,117.2 841.7,113.3 844.8,110.5 847.8,108.3 850.8,105.8 853.8,103.3 856.9,101.7 859.9,99.7 862.9,98.3 865.9,96.1 869.0,93.3 872.0,90.0" fill="none" stroke="#38bdf8" stroke-width="2.5" stroke-linejoin="round" stroke-linecap="round"/>
<circle cx="872.0" cy="90.0" r="4" fill="#0ea5e9"/>
<text x="866.0" y="80.0" text-anchor="end" font-family="Inter, system-ui, sans-serif" font-size="13" font-weight="700" fill="#334155">2223</text>
<text x="52.0" y="294" text-anchor="middle" font-family="Inter, system-ui, sans-serif" font-size="11" fill="#94a3b8">Jun 10 05:00</text>
<text x="536.1" y="294" text-anchor="middle" font-family="Inter, system-ui, sans-serif" font-size="11" fill="#94a3b8">Jun 16 21:00</text>
<text x="872.0" y="294" text-anchor="middle" font-family="Inter, system-ui, sans-serif" font-size="11" fill="#94a3b8">Jun 21 12:00</text>
</svg>
