<svg xmlns="http://www.w3.org/2000/svg" width="900" height="320" viewBox="0 0 900 320" role="img" aria-labelledby="title desc">
<title id="title">Unsorry proofs over time</title>
<desc id="desc">Cumulative kernel-verified proofs over time, by the hour each proof was merged.</desc>
<rect width="900" height="100%" rx="18" fill="#ffffff"/>
<rect x="0.5" y="0.5" width="899" height="319" rx="18" fill="none" stroke="#e2e8f0"/>
<text x="32" y="44" font-family="Inter, system-ui, sans-serif" font-size="28" font-weight="700" fill="#334155">Unsorry — Proofs Over Time</text>
<text x="32" y="72" font-family="Inter, system-ui, sans-serif" font-size="13" fill="#64748b">1959 cumulative kernel-verified proofs · merged, hourly</text>
<line x1="52" y1="272.0" x2="872" y2="272.0" stroke="#f1f5f9"/>
<text x="44" y="276.0" text-anchor="end" font-family="Inter, system-ui, sans-serif" font-size="11" fill="#94a3b8">0</text>
<line x1="52" y1="226.5" x2="872" y2="226.5" stroke="#f1f5f9"/>
<text x="44" y="230.5" text-anchor="end" font-family="Inter, system-ui, sans-serif" font-size="11" fill="#94a3b8">490</text>
<line x1="52" y1="181.0" x2="872" y2="181.0" stroke="#f1f5f9"/>
<text x="44" y="185.0" text-anchor="end" font-family="Inter, system-ui, sans-serif" font-size="11" fill="#94a3b8">980</text>
<line x1="52" y1="135.5" x2="872" y2="135.5" stroke="#f1f5f9"/>
<text x="44" y="139.5" text-anchor="end" font-family="Inter, system-ui, sans-serif" font-size="11" fill="#94a3b8">1469</text>
<line x1="52" y1="90.0" x2="872" y2="90.0" stroke="#f1f5f9"/>
<text x="44" y="94.0" text-anchor="end" font-family="Inter, system-ui, sans-serif" font-size="11" fill="#94a3b8">1959</text>
<polygon points="52.0,272.0 52.0,271.9 55.1,271.7 92.7,270.8 95.8,270.5 98.9,270.4 108.3,270.3 127.1,270.2 167.8,270.1 170.9,269.3 174.1,269.2 183.5,269.0 186.6,268.9 189.7,268.8 192.8,268.6 199.1,268.5 202.2,268.0 211.6,267.6 224.1,267.4 227.3,267.2 230.4,267.0 255.4,266.9 261.7,266.8 277.3,266.7 280.5,266.6 283.6,266.4 296.1,266.3 299.3,265.8 302.4,265.3 305.5,264.1 308.6,263.9 330.5,263.8 339.9,263.7 346.2,263.6 349.3,263.5 352.5,263.1 355.6,263.0 358.7,262.9 361.8,262.6 365.0,262.3 377.5,261.9 383.8,261.8 396.3,261.7 399.4,261.2 402.5,261.1 405.7,260.9 411.9,260.9 415.1,259.0 418.2,257.1 421.3,256.5 424.4,256.0 427.6,255.8 430.7,255.4 433.8,254.7 437.0,254.3 440.1,254.0 443.2,253.8 449.5,253.5 452.6,252.8 455.7,252.0 458.9,251.3 462.0,250.8 468.3,250.6 474.5,250.5 477.6,249.9 480.8,249.4 483.9,248.1 487.0,247.4 490.2,246.6 493.3,245.9 496.4,245.1 499.6,244.2 502.7,243.3 505.8,242.3 508.9,241.3 512.1,240.5 515.2,239.9 518.3,239.3 521.5,238.6 524.6,238.2 527.7,237.7 530.9,237.3 534.0,237.1 537.1,236.9 543.4,236.8 546.5,234.9 549.6,233.6 552.8,233.4 555.9,233.3 562.2,233.1 565.3,232.8 577.8,232.7 584.1,232.5 593.5,232.4 596.6,230.3 599.7,228.2 602.8,227.7 606.0,226.0 609.1,224.7 612.2,223.9 615.4,223.4 618.5,222.6 621.6,222.2 624.7,222.0 627.9,221.6 631.0,221.5 649.8,220.0 652.9,218.1 656.0,217.8 659.2,217.6 662.3,217.5 684.2,217.4 712.4,215.4 715.5,213.9 718.6,212.2 721.8,209.6 724.9,209.1 728.0,208.3 731.2,206.8 734.3,205.7 737.4,203.2 740.5,199.4 743.7,195.8 746.8,191.5 749.9,187.1 753.1,183.2 756.2,180.8 759.3,177.9 762.5,173.6 765.6,170.0 768.7,167.6 771.8,165.1 775.0,161.5 778.1,159.3 781.2,157.1 784.4,155.1 787.5,153.6 790.6,151.7 793.8,150.5 796.9,149.2 800.0,148.1 803.1,144.7 806.3,142.0 809.4,140.5 812.5,140.1 815.7,139.2 818.8,137.8 821.9,136.6 825.1,134.4 828.2,133.0 831.3,131.7 834.4,131.5 837.6,131.0 840.7,129.9 843.8,127.3 847.0,122.9 850.1,118.3 853.2,113.8 856.4,110.1 859.5,105.7 862.6,101.1 865.7,96.3 868.9,92.0 872.0,90.0 872.0,272.0" fill="#e0f2fe" opacity="0.55"/>
<polyline points="52.0,271.9 55.1,271.7 92.7,270.8 95.8,270.5 98.9,270.4 108.3,270.3 127.1,270.2 167.8,270.1 170.9,269.3 174.1,269.2 183.5,269.0 186.6,268.9 189.7,268.8 192.8,268.6 199.1,268.5 202.2,268.0 211.6,267.6 224.1,267.4 227.3,267.2 230.4,267.0 255.4,266.9 261.7,266.8 277.3,266.7 280.5,266.6 283.6,266.4 296.1,266.3 299.3,265.8 302.4,265.3 305.5,264.1 308.6,263.9 330.5,263.8 339.9,263.7 346.2,263.6 349.3,263.5 352.5,263.1 355.6,263.0 358.7,262.9 361.8,262.6 365.0,262.3 377.5,261.9 383.8,261.8 396.3,261.7 399.4,261.2 402.5,261.1 405.7,260.9 411.9,260.9 415.1,259.0 418.2,257.1 421.3,256.5 424.4,256.0 427.6,255.8 430.7,255.4 433.8,254.7 437.0,254.3 440.1,254.0 443.2,253.8 449.5,253.5 452.6,252.8 455.7,252.0 458.9,251.3 462.0,250.8 468.3,250.6 474.5,250.5 477.6,249.9 480.8,249.4 483.9,248.1 487.0,247.4 490.2,246.6 493.3,245.9 496.4,245.1 499.6,244.2 502.7,243.3 505.8,242.3 508.9,241.3 512.1,240.5 515.2,239.9 518.3,239.3 521.5,238.6 524.6,238.2 527.7,237.7 530.9,237.3 534.0,237.1 537.1,236.9 543.4,236.8 546.5,234.9 549.6,233.6 552.8,233.4 555.9,233.3 562.2,233.1 565.3,232.8 577.8,232.7 584.1,232.5 593.5,232.4 596.6,230.3 599.7,228.2 602.8,227.7 606.0,226.0 609.1,224.7 612.2,223.9 615.4,223.4 618.5,222.6 621.6,222.2 624.7,222.0 627.9,221.6 631.0,221.5 649.8,220.0 652.9,218.1 656.0,217.8 659.2,217.6 662.3,217.5 684.2,217.4 712.4,215.4 715.5,213.9 718.6,212.2 721.8,209.6 724.9,209.1 728.0,208.3 731.2,206.8 734.3,205.7 737.4,203.2 740.5,199.4 743.7,195.8 746.8,191.5 749.9,187.1 753.1,183.2 756.2,180.8 759.3,177.9 762.5,173.6 765.6,170.0 768.7,167.6 771.8,165.1 775.0,161.5 778.1,159.3 781.2,157.1 784.4,155.1 787.5,153.6 790.6,151.7 793.8,150.5 796.9,149.2 800.0,148.1 803.1,144.7 806.3,142.0 809.4,140.5 812.5,140.1 815.7,139.2 818.8,137.8 821.9,136.6 825.1,134.4 828.2,133.0 831.3,131.7 834.4,131.5 837.6,131.0 840.7,129.9 843.8,127.3 847.0,122.9 850.1,118.3 853.2,113.8 856.4,110.1 859.5,105.7 862.6,101.1 865.7,96.3 868.9,92.0 872.0,90.0" fill="none" stroke="#38bdf8" stroke-width="2.5" stroke-linejoin="round" stroke-linecap="round"/>
<circle cx="872.0" cy="90.0" r="4" fill="#0ea5e9"/>
<text x="866.0" y="80.0" text-anchor="end" font-family="Inter, system-ui, sans-serif" font-size="13" font-weight="700" fill="#334155">1959</text>
<text x="52.0" y="294" text-anchor="middle" font-family="Inter, system-ui, sans-serif" font-size="11" fill="#94a3b8">Jun 10 05:00</text>
<text x="534.0" y="294" text-anchor="middle" font-family="Inter, system-ui, sans-serif" font-size="11" fill="#94a3b8">Jun 16 15:00</text>
<text x="872.0" y="294" text-anchor="middle" font-family="Inter, system-ui, sans-serif" font-size="11" fill="#94a3b8">Jun 21 03:00</text>
</svg>
