<svg xmlns="http://www.w3.org/2000/svg" width="900" height="320" viewBox="0 0 900 320" role="img" aria-labelledby="title desc">
<title id="title">Unsorry proofs over time</title>
<desc id="desc">Cumulative kernel-verified proofs over time, by the hour each proof was merged.</desc>
<rect width="900" height="100%" rx="18" fill="#ffffff"/>
<rect x="0.5" y="0.5" width="899" height="319" rx="18" fill="none" stroke="#e2e8f0"/>
<text x="32" y="44" font-family="Inter, system-ui, sans-serif" font-size="28" font-weight="700" fill="#334155">Unsorry — Proofs Over Time</text>
<text x="32" y="72" font-family="Inter, system-ui, sans-serif" font-size="13" fill="#64748b">2571 cumulative kernel-verified proofs · merged, hourly</text>
<line x1="52" y1="272.0" x2="872" y2="272.0" stroke="#f1f5f9"/>
<text x="44" y="276.0" text-anchor="end" font-family="Inter, system-ui, sans-serif" font-size="11" fill="#94a3b8">0</text>
<line x1="52" y1="226.5" x2="872" y2="226.5" stroke="#f1f5f9"/>
<text x="44" y="230.5" text-anchor="end" font-family="Inter, system-ui, sans-serif" font-size="11" fill="#94a3b8">643</text>
<line x1="52" y1="181.0" x2="872" y2="181.0" stroke="#f1f5f9"/>
<text x="44" y="185.0" text-anchor="end" font-family="Inter, system-ui, sans-serif" font-size="11" fill="#94a3b8">1286</text>
<line x1="52" y1="135.5" x2="872" y2="135.5" stroke="#f1f5f9"/>
<text x="44" y="139.5" text-anchor="end" font-family="Inter, system-ui, sans-serif" font-size="11" fill="#94a3b8">1928</text>
<line x1="52" y1="90.0" x2="872" y2="90.0" stroke="#f1f5f9"/>
<text x="44" y="94.0" text-anchor="end" font-family="Inter, system-ui, sans-serif" font-size="11" fill="#94a3b8">2571</text>
<polygon points="52.0,272.0 52.0,271.9 54.9,271.8 89.4,271.1 92.3,270.9 95.2,270.8 103.8,270.7 121.1,270.7 158.5,270.6 161.3,269.9 164.2,269.9 172.8,269.7 175.7,269.7 178.6,269.6 181.5,269.4 187.2,269.3 190.1,269.0 198.7,268.7 210.2,268.5 213.1,268.3 216.0,268.2 239.0,268.1 244.8,268.0 259.2,268.0 262.0,267.9 264.9,267.8 276.4,267.7 279.3,267.3 282.2,266.9 285.1,266.0 287.9,265.8 308.1,265.8 316.7,265.7 322.5,265.6 325.3,265.6 328.2,265.2 331.1,265.1 334.0,265.1 336.8,264.9 339.7,264.6 351.2,264.3 357.0,264.2 368.5,264.1 371.4,263.8 374.2,263.7 377.1,263.6 382.9,263.5 385.8,262.1 388.6,260.7 391.5,260.2 394.4,259.8 397.3,259.7 400.1,259.3 403.0,258.8 405.9,258.5 408.8,258.3 411.6,258.1 417.4,257.9 420.3,257.3 423.2,256.8 426.0,256.2 428.9,255.9 434.7,255.7 440.4,255.6 443.3,255.2 446.2,254.8 449.1,253.8 451.9,253.2 454.8,252.7 457.7,252.1 460.6,251.5 463.4,250.8 466.3,250.1 469.2,249.3 472.1,248.6 474.9,248.0 477.8,247.6 480.7,247.1 483.6,246.5 486.5,246.2 489.3,245.9 492.2,245.5 495.1,245.4 498.0,245.2 503.7,245.2 506.6,243.8 509.5,242.8 512.4,242.6 515.2,242.5 521.0,242.3 523.9,242.1 535.4,242.1 541.1,241.9 549.8,241.8 552.6,240.2 555.5,238.7 558.4,238.2 561.3,237.0 564.1,236.0 567.0,235.3 569.9,235.0 572.8,234.3 575.6,234.1 578.5,233.9 581.4,233.6 584.3,233.5 601.5,232.4 604.4,230.9 607.3,230.7 610.2,230.5 613.1,230.4 633.2,230.4 659.1,228.9 662.0,227.8 664.8,226.4 667.7,224.4 670.6,224.1 673.5,223.4 676.4,222.3 679.2,221.5 682.1,219.5 685.0,216.7 687.9,214.0 690.7,210.7 693.6,207.3 696.5,204.3 699.4,202.5 702.2,200.3 705.1,197.0 708.0,194.3 710.9,192.4 713.8,190.5 716.6,187.8 719.5,186.1 722.4,184.4 725.3,182.9 728.1,181.8 731.0,180.3 733.9,179.4 736.8,178.4 739.6,177.6 742.5,175.0 745.4,173.0 748.3,171.8 751.2,171.5 754.0,170.8 756.9,169.8 759.8,168.9 762.7,167.2 765.5,166.1 768.4,165.1 771.3,165.0 774.2,164.5 777.1,163.8 779.9,161.7 782.8,158.4 785.7,154.9 788.6,151.4 791.4,148.6 794.3,145.3 797.2,141.7 800.1,138.1 802.9,134.8 805.8,132.4 808.7,130.5 811.6,128.3 814.5,126.2 817.3,124.8 820.2,123.1 823.1,121.8 826.0,119.9 828.8,117.5 831.7,114.5 834.6,112.0 837.5,109.8 840.4,108.4 843.2,107.1 846.1,105.9 849.0,104.4 851.9,102.0 854.7,100.0 857.6,97.5 860.5,95.0 863.4,92.8 866.2,91.1 869.1,90.4 872.0,90.0 872.0,272.0" fill="#e0f2fe" opacity="0.55"/>
<polyline points="52.0,271.9 54.9,271.8 89.4,271.1 92.3,270.9 95.2,270.8 103.8,270.7 121.1,270.7 158.5,270.6 161.3,269.9 164.2,269.9 172.8,269.7 175.7,269.7 178.6,269.6 181.5,269.4 187.2,269.3 190.1,269.0 198.7,268.7 210.2,268.5 213.1,268.3 216.0,268.2 239.0,268.1 244.8,268.0 259.2,268.0 262.0,267.9 264.9,267.8 276.4,267.7 279.3,267.3 282.2,266.9 285.1,266.0 287.9,265.8 308.1,265.8 316.7,265.7 322.5,265.6 325.3,265.6 328.2,265.2 331.1,265.1 334.0,265.1 336.8,264.9 339.7,264.6 351.2,264.3 357.0,264.2 368.5,264.1 371.4,263.8 374.2,263.7 377.1,263.6 382.9,263.5 385.8,262.1 388.6,260.7 391.5,260.2 394.4,259.8 397.3,259.7 400.1,259.3 403.0,258.8 405.9,258.5 408.8,258.3 411.6,258.1 417.4,257.9 420.3,257.3 423.2,256.8 426.0,256.2 428.9,255.9 434.7,255.7 440.4,255.6 443.3,255.2 446.2,254.8 449.1,253.8 451.9,253.2 454.8,252.7 457.7,252.1 460.6,251.5 463.4,250.8 466.3,250.1 469.2,249.3 472.1,248.6 474.9,248.0 477.8,247.6 480.7,247.1 483.6,246.5 486.5,246.2 489.3,245.9 492.2,245.5 495.1,245.4 498.0,245.2 503.7,245.2 506.6,243.8 509.5,242.8 512.4,242.6 515.2,242.5 521.0,242.3 523.9,242.1 535.4,242.1 541.1,241.9 549.8,241.8 552.6,240.2 555.5,238.7 558.4,238.2 561.3,237.0 564.1,236.0 567.0,235.3 569.9,235.0 572.8,234.3 575.6,234.1 578.5,233.9 581.4,233.6 584.3,233.5 601.5,232.4 604.4,230.9 607.3,230.7 610.2,230.5 613.1,230.4 633.2,230.4 659.1,228.9 662.0,227.8 664.8,226.4 667.7,224.4 670.6,224.1 673.5,223.4 676.4,222.3 679.2,221.5 682.1,219.5 685.0,216.7 687.9,214.0 690.7,210.7 693.6,207.3 696.5,204.3 699.4,202.5 702.2,200.3 705.1,197.0 708.0,194.3 710.9,192.4 713.8,190.5 716.6,187.8 719.5,186.1 722.4,184.4 725.3,182.9 728.1,181.8 731.0,180.3 733.9,179.4 736.8,178.4 739.6,177.6 742.5,175.0 745.4,173.0 748.3,171.8 751.2,171.5 754.0,170.8 756.9,169.8 759.8,168.9 762.7,167.2 765.5,166.1 768.4,165.1 771.3,165.0 774.2,164.5 777.1,163.8 779.9,161.7 782.8,158.4 785.7,154.9 788.6,151.4 791.4,148.6 794.3,145.3 797.2,141.7 800.1,138.1 802.9,134.8 805.8,132.4 808.7,130.5 811.6,128.3 814.5,126.2 817.3,124.8 820.2,123.1 823.1,121.8 826.0,119.9 828.8,117.5 831.7,114.5 834.6,112.0 837.5,109.8 840.4,108.4 843.2,107.1 846.1,105.9 849.0,104.4 851.9,102.0 854.7,100.0 857.6,97.5 860.5,95.0 863.4,92.8 866.2,91.1 869.1,90.4 872.0,90.0" fill="none" stroke="#38bdf8" stroke-width="2.5" stroke-linejoin="round" stroke-linecap="round"/>
<circle cx="872.0" cy="90.0" r="4" fill="#0ea5e9"/>
<text x="866.0" y="80.0" text-anchor="end" font-family="Inter, system-ui, sans-serif" font-size="13" font-weight="700" fill="#334155">2571</text>
<text x="52.0" y="294" text-anchor="middle" font-family="Inter, system-ui, sans-serif" font-size="11" fill="#94a3b8">Jun 10 05:00</text>
<text x="552.6" y="294" text-anchor="middle" font-family="Inter, system-ui, sans-serif" font-size="11" fill="#94a3b8">Jun 17 11:00</text>
<text x="872.0" y="294" text-anchor="middle" font-family="Inter, system-ui, sans-serif" font-size="11" fill="#94a3b8">Jun 22 02:00</text>
</svg>
