<svg xmlns="http://www.w3.org/2000/svg" width="900" height="320" viewBox="0 0 900 320" role="img" aria-labelledby="title desc">
<title id="title">Unsorry proofs over time</title>
<desc id="desc">Cumulative kernel-verified proofs over time, by the hour each proof was merged.</desc>
<rect width="900" height="100%" rx="18" fill="#ffffff"/>
<rect x="0.5" y="0.5" width="899" height="319" rx="18" fill="none" stroke="#e2e8f0"/>
<text x="32" y="44" font-family="Inter, system-ui, sans-serif" font-size="28" font-weight="700" fill="#334155">Unsorry — Proofs Over Time</text>
<text x="32" y="72" font-family="Inter, system-ui, sans-serif" font-size="13" fill="#64748b">2276 cumulative kernel-verified proofs · merged, hourly</text>
<line x1="52" y1="272.0" x2="872" y2="272.0" stroke="#f1f5f9"/>
<text x="44" y="276.0" text-anchor="end" font-family="Inter, system-ui, sans-serif" font-size="11" fill="#94a3b8">0</text>
<line x1="52" y1="226.5" x2="872" y2="226.5" stroke="#f1f5f9"/>
<text x="44" y="230.5" text-anchor="end" font-family="Inter, system-ui, sans-serif" font-size="11" fill="#94a3b8">569</text>
<line x1="52" y1="181.0" x2="872" y2="181.0" stroke="#f1f5f9"/>
<text x="44" y="185.0" text-anchor="end" font-family="Inter, system-ui, sans-serif" font-size="11" fill="#94a3b8">1138</text>
<line x1="52" y1="135.5" x2="872" y2="135.5" stroke="#f1f5f9"/>
<text x="44" y="139.5" text-anchor="end" font-family="Inter, system-ui, sans-serif" font-size="11" fill="#94a3b8">1707</text>
<line x1="52" y1="90.0" x2="872" y2="90.0" stroke="#f1f5f9"/>
<text x="44" y="94.0" text-anchor="end" font-family="Inter, system-ui, sans-serif" font-size="11" fill="#94a3b8">2276</text>
<polygon points="52.0,272.0 52.0,271.9 55.0,271.8 91.0,271.0 94.1,270.7 97.1,270.6 106.1,270.6 124.1,270.5 163.1,270.4 166.1,269.7 169.1,269.6 178.2,269.4 181.2,269.4 184.2,269.3 187.2,269.0 193.2,269.0 196.2,268.6 205.2,268.2 217.2,268.1 220.2,267.8 223.2,267.7 247.2,267.6 253.2,267.5 268.3,267.4 271.3,267.4 274.3,267.2 286.3,267.1 289.3,266.6 292.3,266.2 295.3,265.2 298.3,265.0 319.3,265.0 328.3,264.9 334.3,264.8 337.3,264.7 340.4,264.3 343.4,264.2 346.4,264.2 349.4,263.9 352.4,263.7 364.4,263.3 370.4,263.2 382.4,263.1 385.4,262.7 388.4,262.6 391.4,262.5 397.4,262.4 400.4,260.8 403.4,259.2 406.4,258.6 409.4,258.2 412.4,258.1 415.4,257.7 418.4,257.1 421.5,256.7 424.5,256.5 427.5,256.3 433.5,256.1 436.5,255.4 439.5,254.8 442.5,254.2 445.5,253.8 451.5,253.6 457.5,253.5 460.5,253.0 463.5,252.6 466.5,251.4 469.5,250.8 472.5,250.2 475.5,249.5 478.5,248.8 481.5,248.1 484.5,247.3 487.5,246.4 490.5,245.6 493.5,244.9 496.5,244.4 499.5,243.9 502.5,243.2 505.6,242.9 508.6,242.5 511.6,242.1 514.6,241.9 517.6,241.8 523.6,241.7 526.6,240.1 529.6,239.0 532.6,238.7 535.6,238.7 541.6,238.5 544.6,238.3 556.6,238.2 562.6,238.0 571.6,237.9 574.6,236.1 577.6,234.3 580.6,233.9 583.6,232.4 586.7,231.3 589.7,230.6 592.7,230.2 595.7,229.5 598.7,229.1 601.7,229.0 604.7,228.7 607.7,228.5 625.7,227.2 628.7,225.6 631.7,225.4 634.7,225.1 637.7,225.1 658.7,225.0 685.8,223.3 688.8,222.0 691.8,220.5 694.8,218.3 697.8,217.9 700.8,217.1 703.8,215.9 706.8,214.9 709.8,212.7 712.8,209.5 715.8,206.4 718.8,202.8 721.8,198.9 724.8,195.6 727.8,193.5 730.8,191.0 733.8,187.3 736.8,184.2 739.8,182.1 742.8,180.0 745.8,176.9 748.8,175.0 751.9,173.1 754.9,171.4 757.9,170.1 760.9,168.4 763.9,167.4 766.9,166.3 769.9,165.3 772.9,162.4 775.9,160.1 778.9,158.8 781.9,158.4 784.9,157.7 787.9,156.5 790.9,155.5 793.9,153.6 796.9,152.4 799.9,151.3 802.9,151.1 805.9,150.6 808.9,149.7 811.9,147.4 814.9,143.7 817.9,139.7 820.9,135.8 823.9,132.6 826.9,128.9 829.9,124.9 833.0,120.8 836.0,117.0 839.0,114.3 842.0,112.2 845.0,109.7 848.0,107.3 851.0,105.7 854.0,103.8 857.0,102.3 860.0,100.2 863.0,97.4 866.0,94.1 869.0,91.3 872.0,90.0 872.0,272.0" fill="#e0f2fe" opacity="0.55"/>
<polyline points="52.0,271.9 55.0,271.8 91.0,271.0 94.1,270.7 97.1,270.6 106.1,270.6 124.1,270.5 163.1,270.4 166.1,269.7 169.1,269.6 178.2,269.4 181.2,269.4 184.2,269.3 187.2,269.0 193.2,269.0 196.2,268.6 205.2,268.2 217.2,268.1 220.2,267.8 223.2,267.7 247.2,267.6 253.2,267.5 268.3,267.4 271.3,267.4 274.3,267.2 286.3,267.1 289.3,266.6 292.3,266.2 295.3,265.2 298.3,265.0 319.3,265.0 328.3,264.9 334.3,264.8 337.3,264.7 340.4,264.3 343.4,264.2 346.4,264.2 349.4,263.9 352.4,263.7 364.4,263.3 370.4,263.2 382.4,263.1 385.4,262.7 388.4,262.6 391.4,262.5 397.4,262.4 400.4,260.8 403.4,259.2 406.4,258.6 409.4,258.2 412.4,258.1 415.4,257.7 418.4,257.1 421.5,256.7 424.5,256.5 427.5,256.3 433.5,256.1 436.5,255.4 439.5,254.8 442.5,254.2 445.5,253.8 451.5,253.6 457.5,253.5 460.5,253.0 463.5,252.6 466.5,251.4 469.5,250.8 472.5,250.2 475.5,249.5 478.5,248.8 481.5,248.1 484.5,247.3 487.5,246.4 490.5,245.6 493.5,244.9 496.5,244.4 499.5,243.9 502.5,243.2 505.6,242.9 508.6,242.5 511.6,242.1 514.6,241.9 517.6,241.8 523.6,241.7 526.6,240.1 529.6,239.0 532.6,238.7 535.6,238.7 541.6,238.5 544.6,238.3 556.6,238.2 562.6,238.0 571.6,237.9 574.6,236.1 577.6,234.3 580.6,233.9 583.6,232.4 586.7,231.3 589.7,230.6 592.7,230.2 595.7,229.5 598.7,229.1 601.7,229.0 604.7,228.7 607.7,228.5 625.7,227.2 628.7,225.6 631.7,225.4 634.7,225.1 637.7,225.1 658.7,225.0 685.8,223.3 688.8,222.0 691.8,220.5 694.8,218.3 697.8,217.9 700.8,217.1 703.8,215.9 706.8,214.9 709.8,212.7 712.8,209.5 715.8,206.4 718.8,202.8 721.8,198.9 724.8,195.6 727.8,193.5 730.8,191.0 733.8,187.3 736.8,184.2 739.8,182.1 742.8,180.0 745.8,176.9 748.8,175.0 751.9,173.1 754.9,171.4 757.9,170.1 760.9,168.4 763.9,167.4 766.9,166.3 769.9,165.3 772.9,162.4 775.9,160.1 778.9,158.8 781.9,158.4 784.9,157.7 787.9,156.5 790.9,155.5 793.9,153.6 796.9,152.4 799.9,151.3 802.9,151.1 805.9,150.6 808.9,149.7 811.9,147.4 814.9,143.7 817.9,139.7 820.9,135.8 823.9,132.6 826.9,128.9 829.9,124.9 833.0,120.8 836.0,117.0 839.0,114.3 842.0,112.2 845.0,109.7 848.0,107.3 851.0,105.7 854.0,103.8 857.0,102.3 860.0,100.2 863.0,97.4 866.0,94.1 869.0,91.3 872.0,90.0" fill="none" stroke="#38bdf8" stroke-width="2.5" stroke-linejoin="round" stroke-linecap="round"/>
<circle cx="872.0" cy="90.0" r="4" fill="#0ea5e9"/>
<text x="866.0" y="80.0" text-anchor="end" font-family="Inter, system-ui, sans-serif" font-size="13" font-weight="700" fill="#334155">2276</text>
<text x="52.0" y="294" text-anchor="middle" font-family="Inter, system-ui, sans-serif" font-size="11" fill="#94a3b8">Jun 10 05:00</text>
<text x="535.6" y="294" text-anchor="middle" font-family="Inter, system-ui, sans-serif" font-size="11" fill="#94a3b8">Jun 16 22:00</text>
<text x="872.0" y="294" text-anchor="middle" font-family="Inter, system-ui, sans-serif" font-size="11" fill="#94a3b8">Jun 21 14:00</text>
</svg>
