<svg xmlns="http://www.w3.org/2000/svg" width="900" height="320" viewBox="0 0 900 320" role="img" aria-labelledby="title desc">
<title id="title">Unsorry proofs over time</title>
<desc id="desc">Cumulative kernel-verified proofs over time, by the hour each proof was merged.</desc>
<rect width="900" height="100%" rx="18" fill="#ffffff"/>
<rect x="0.5" y="0.5" width="899" height="319" rx="18" fill="none" stroke="#e2e8f0"/>
<text x="32" y="44" font-family="Inter, system-ui, sans-serif" font-size="28" font-weight="700" fill="#334155">Unsorry — Proofs Over Time</text>
<text x="32" y="72" font-family="Inter, system-ui, sans-serif" font-size="13" fill="#64748b">2109 cumulative kernel-verified proofs · merged, hourly</text>
<line x1="52" y1="272.0" x2="872" y2="272.0" stroke="#f1f5f9"/>
<text x="44" y="276.0" text-anchor="end" font-family="Inter, system-ui, sans-serif" font-size="11" fill="#94a3b8">0</text>
<line x1="52" y1="226.5" x2="872" y2="226.5" stroke="#f1f5f9"/>
<text x="44" y="230.5" text-anchor="end" font-family="Inter, system-ui, sans-serif" font-size="11" fill="#94a3b8">527</text>
<line x1="52" y1="181.0" x2="872" y2="181.0" stroke="#f1f5f9"/>
<text x="44" y="185.0" text-anchor="end" font-family="Inter, system-ui, sans-serif" font-size="11" fill="#94a3b8">1054</text>
<line x1="52" y1="135.5" x2="872" y2="135.5" stroke="#f1f5f9"/>
<text x="44" y="139.5" text-anchor="end" font-family="Inter, system-ui, sans-serif" font-size="11" fill="#94a3b8">1582</text>
<line x1="52" y1="90.0" x2="872" y2="90.0" stroke="#f1f5f9"/>
<text x="44" y="94.0" text-anchor="end" font-family="Inter, system-ui, sans-serif" font-size="11" fill="#94a3b8">2109</text>
<polygon points="52.0,272.0 52.0,271.9 55.1,271.7 91.8,270.9 94.8,270.6 97.9,270.5 107.1,270.4 125.4,270.4 165.2,270.3 168.3,269.5 171.3,269.4 180.5,269.2 183.6,269.2 186.6,269.1 189.7,268.8 195.8,268.7 198.9,268.3 208.0,267.9 220.3,267.8 223.3,267.5 226.4,267.3 250.9,267.3 257.0,267.2 272.3,267.1 275.4,267.0 278.4,266.8 290.7,266.7 293.7,266.2 296.8,265.8 299.8,264.7 302.9,264.5 324.3,264.4 333.5,264.3 339.6,264.2 342.7,264.1 345.7,263.7 348.8,263.6 351.9,263.5 354.9,263.3 358.0,263.0 370.2,262.6 376.3,262.5 388.6,262.4 391.6,262.0 394.7,261.9 397.7,261.7 403.9,261.6 406.9,259.9 410.0,258.2 413.0,257.6 416.1,257.2 419.2,257.0 422.2,256.6 425.3,255.9 428.3,255.5 431.4,255.3 434.5,255.1 440.6,254.8 443.6,254.1 446.7,253.4 449.8,252.8 452.8,252.3 458.9,252.2 465.1,252.1 468.1,251.5 471.2,251.0 474.2,249.8 477.3,249.1 480.4,248.4 483.4,247.8 486.5,247.0 489.5,246.2 492.6,245.3 495.7,244.4 498.7,243.5 501.8,242.7 504.8,242.2 507.9,241.6 511.0,240.9 514.0,240.6 517.1,240.2 520.1,239.7 523.2,239.6 526.3,239.4 532.4,239.3 535.4,237.6 538.5,236.4 541.6,236.1 544.6,236.0 550.7,235.8 553.8,235.6 566.0,235.5 572.1,235.3 581.3,235.2 584.4,233.3 587.4,231.4 590.5,230.8 593.6,229.3 596.6,228.1 599.7,227.3 602.7,226.9 605.8,226.1 608.9,225.7 611.9,225.6 615.0,225.2 618.0,225.1 636.4,223.7 639.5,221.9 642.5,221.7 645.6,221.4 648.6,221.3 670.1,221.3 697.6,219.4 700.7,218.1 703.7,216.4 706.8,214.0 709.8,213.6 712.9,212.8 716.0,211.4 719.0,210.4 722.1,208.1 725.1,204.6 728.2,201.2 731.3,197.3 734.3,193.1 737.4,189.5 740.4,187.3 743.5,184.6 746.6,180.6 749.6,177.2 752.7,175.0 755.7,172.7 758.8,169.4 761.9,167.3 764.9,165.3 768.0,163.4 771.0,162.1 774.1,160.2 777.1,159.1 780.2,157.9 783.3,156.9 786.3,153.8 789.4,151.3 792.4,149.9 795.5,149.5 798.6,148.7 801.6,147.4 804.7,146.3 807.7,144.2 810.8,142.9 813.9,141.7 816.9,141.5 820.0,141.0 823.0,140.1 826.1,137.5 829.2,133.5 832.2,129.3 835.3,125.0 838.3,121.6 841.4,117.5 844.5,113.2 847.5,108.8 850.6,104.8 853.6,101.8 856.7,99.5 859.8,96.8 862.8,94.2 865.9,92.5 868.9,90.4 872.0,90.0 872.0,272.0" fill="#e0f2fe" opacity="0.55"/>
<polyline points="52.0,271.9 55.1,271.7 91.8,270.9 94.8,270.6 97.9,270.5 107.1,270.4 125.4,270.4 165.2,270.3 168.3,269.5 171.3,269.4 180.5,269.2 183.6,269.2 186.6,269.1 189.7,268.8 195.8,268.7 198.9,268.3 208.0,267.9 220.3,267.8 223.3,267.5 226.4,267.3 250.9,267.3 257.0,267.2 272.3,267.1 275.4,267.0 278.4,266.8 290.7,266.7 293.7,266.2 296.8,265.8 299.8,264.7 302.9,264.5 324.3,264.4 333.5,264.3 339.6,264.2 342.7,264.1 345.7,263.7 348.8,263.6 351.9,263.5 354.9,263.3 358.0,263.0 370.2,262.6 376.3,262.5 388.6,262.4 391.6,262.0 394.7,261.9 397.7,261.7 403.9,261.6 406.9,259.9 410.0,258.2 413.0,257.6 416.1,257.2 419.2,257.0 422.2,256.6 425.3,255.9 428.3,255.5 431.4,255.3 434.5,255.1 440.6,254.8 443.6,254.1 446.7,253.4 449.8,252.8 452.8,252.3 458.9,252.2 465.1,252.1 468.1,251.5 471.2,251.0 474.2,249.8 477.3,249.1 480.4,248.4 483.4,247.8 486.5,247.0 489.5,246.2 492.6,245.3 495.7,244.4 498.7,243.5 501.8,242.7 504.8,242.2 507.9,241.6 511.0,240.9 514.0,240.6 517.1,240.2 520.1,239.7 523.2,239.6 526.3,239.4 532.4,239.3 535.4,237.6 538.5,236.4 541.6,236.1 544.6,236.0 550.7,235.8 553.8,235.6 566.0,235.5 572.1,235.3 581.3,235.2 584.4,233.3 587.4,231.4 590.5,230.8 593.6,229.3 596.6,228.1 599.7,227.3 602.7,226.9 605.8,226.1 608.9,225.7 611.9,225.6 615.0,225.2 618.0,225.1 636.4,223.7 639.5,221.9 642.5,221.7 645.6,221.4 648.6,221.3 670.1,221.3 697.6,219.4 700.7,218.1 703.7,216.4 706.8,214.0 709.8,213.6 712.9,212.8 716.0,211.4 719.0,210.4 722.1,208.1 725.1,204.6 728.2,201.2 731.3,197.3 734.3,193.1 737.4,189.5 740.4,187.3 743.5,184.6 746.6,180.6 749.6,177.2 752.7,175.0 755.7,172.7 758.8,169.4 761.9,167.3 764.9,165.3 768.0,163.4 771.0,162.1 774.1,160.2 777.1,159.1 780.2,157.9 783.3,156.9 786.3,153.8 789.4,151.3 792.4,149.9 795.5,149.5 798.6,148.7 801.6,147.4 804.7,146.3 807.7,144.2 810.8,142.9 813.9,141.7 816.9,141.5 820.0,141.0 823.0,140.1 826.1,137.5 829.2,133.5 832.2,129.3 835.3,125.0 838.3,121.6 841.4,117.5 844.5,113.2 847.5,108.8 850.6,104.8 853.6,101.8 856.7,99.5 859.8,96.8 862.8,94.2 865.9,92.5 868.9,90.4 872.0,90.0" fill="none" stroke="#38bdf8" stroke-width="2.5" stroke-linejoin="round" stroke-linecap="round"/>
<circle cx="872.0" cy="90.0" r="4" fill="#0ea5e9"/>
<text x="866.0" y="80.0" text-anchor="end" font-family="Inter, system-ui, sans-serif" font-size="13" font-weight="700" fill="#334155">2109</text>
<text x="52.0" y="294" text-anchor="middle" font-family="Inter, system-ui, sans-serif" font-size="11" fill="#94a3b8">Jun 10 05:00</text>
<text x="535.4" y="294" text-anchor="middle" font-family="Inter, system-ui, sans-serif" font-size="11" fill="#94a3b8">Jun 16 19:00</text>
<text x="872.0" y="294" text-anchor="middle" font-family="Inter, system-ui, sans-serif" font-size="11" fill="#94a3b8">Jun 21 09:00</text>
</svg>
