<svg xmlns="http://www.w3.org/2000/svg" width="900" height="320" viewBox="0 0 900 320" role="img" aria-labelledby="title desc">
<title id="title">unsorry proofs over time</title>
<desc id="desc">Cumulative kernel-verified proofs over time, by the hour each proof was merged.</desc>
<rect width="900" height="100%" rx="18" fill="#ffffff"/>
<rect x="0.5" y="0.5" width="899" height="319" rx="18" fill="none" stroke="#e2e8f0"/>
<text x="32" y="44" font-family="Inter, system-ui, sans-serif" font-size="28" font-weight="700" fill="#334155">unsorry — Proofs Over Time</text>
<text x="32" y="72" font-family="Inter, system-ui, sans-serif" font-size="13" fill="#64748b">2772 cumulative kernel-verified proofs · merged, hourly</text>
<line x1="52" y1="272.0" x2="872" y2="272.0" stroke="#f1f5f9"/>
<text x="44" y="276.0" text-anchor="end" font-family="Inter, system-ui, sans-serif" font-size="11" fill="#94a3b8">0</text>
<line x1="52" y1="226.5" x2="872" y2="226.5" stroke="#f1f5f9"/>
<text x="44" y="230.5" text-anchor="end" font-family="Inter, system-ui, sans-serif" font-size="11" fill="#94a3b8">693</text>
<line x1="52" y1="181.0" x2="872" y2="181.0" stroke="#f1f5f9"/>
<text x="44" y="185.0" text-anchor="end" font-family="Inter, system-ui, sans-serif" font-size="11" fill="#94a3b8">1386</text>
<line x1="52" y1="135.5" x2="872" y2="135.5" stroke="#f1f5f9"/>
<text x="44" y="139.5" text-anchor="end" font-family="Inter, system-ui, sans-serif" font-size="11" fill="#94a3b8">2079</text>
<line x1="52" y1="90.0" x2="872" y2="90.0" stroke="#f1f5f9"/>
<text x="44" y="94.0" text-anchor="end" font-family="Inter, system-ui, sans-serif" font-size="11" fill="#94a3b8">2772</text>
<polygon points="52.0,272.0 52.0,271.9 54.7,271.8 87.2,271.1 89.9,270.9 92.6,270.9 100.7,270.8 117.0,270.8 152.1,270.7 154.8,270.1 157.5,270.0 165.7,269.9 168.4,269.8 171.1,269.8 173.8,269.6 179.2,269.5 181.9,269.2 190.0,268.9 200.8,268.8 203.6,268.6 206.3,268.5 227.9,268.4 233.3,268.3 246.9,268.3 249.6,268.2 252.3,268.1 263.1,268.0 265.8,267.6 268.5,267.3 271.2,266.4 273.9,266.3 292.9,266.2 301.0,266.2 306.4,266.1 309.1,266.0 311.8,265.7 314.5,265.6 317.2,265.6 319.9,265.4 322.6,265.2 333.5,264.8 338.9,264.8 349.7,264.7 352.4,264.4 355.1,264.3 357.8,264.2 363.2,264.1 365.9,262.8 368.6,261.5 371.3,261.0 374.0,260.7 376.8,260.6 379.5,260.2 382.2,259.8 384.9,259.5 387.6,259.3 390.3,259.1 395.7,258.9 398.4,258.4 401.1,257.9 403.8,257.4 406.5,257.0 411.9,256.9 417.3,256.8 420.1,256.4 422.8,256.0 425.5,255.1 428.2,254.6 430.9,254.1 433.6,253.6 436.3,253.0 439.0,252.4 441.7,251.7 444.4,251.0 447.1,250.3 449.8,249.7 452.5,249.3 455.2,248.9 457.9,248.4 460.6,248.1 463.4,247.8 466.1,247.4 468.8,247.3 471.5,247.2 476.9,247.1 479.6,245.8 482.3,244.9 485.0,244.7 487.7,244.6 493.1,244.5 495.8,244.3 506.7,244.2 512.1,244.1 520.2,244.0 522.9,242.5 525.6,241.1 528.3,240.7 531.0,239.5 533.7,238.6 536.4,238.0 539.1,237.7 541.8,237.1 544.5,236.8 547.2,236.7 550.0,236.4 552.7,236.3 568.9,235.2 571.6,233.9 574.3,233.7 577.0,233.5 579.7,233.5 598.7,233.4 623.0,232.0 625.7,231.0 628.4,229.7 631.1,227.9 633.8,227.6 636.6,227.0 639.3,225.9 642.0,225.1 644.7,223.3 647.4,220.7 650.1,218.2 652.8,215.1 655.5,212.0 658.2,209.2 660.9,207.5 663.6,205.5 666.3,202.5 669.0,199.9 671.7,198.2 674.4,196.4 677.1,193.9 679.9,192.4 682.6,190.8 685.3,189.4 688.0,188.4 690.7,187.0 693.4,186.1 696.1,185.2 698.8,184.4 701.5,182.1 704.2,180.1 706.9,179.1 709.6,178.8 712.3,178.2 715.0,177.2 717.7,176.3 720.4,174.8 723.2,173.8 725.9,172.9 728.6,172.7 731.3,172.3 734.0,171.6 736.7,169.7 739.4,166.6 742.1,163.4 744.8,160.2 747.5,157.6 750.2,154.5 752.9,151.2 755.6,147.8 758.3,144.8 761.0,142.5 763.7,140.8 766.5,138.7 769.2,136.7 771.9,135.4 774.6,133.9 777.3,132.7 780.0,131.0 782.7,128.7 785.4,125.9 788.1,123.6 790.8,121.6 793.5,120.3 796.2,119.1 798.9,117.9 801.6,116.6 804.3,114.4 807.0,112.5 809.8,110.2 812.5,107.8 815.2,105.8 817.9,104.2 820.6,103.6 823.3,102.7 826.0,101.8 828.7,101.6 831.4,101.5 834.1,101.0 836.8,100.8 839.5,100.8 842.2,100.4 844.9,100.3 853.1,100.2 855.8,100.2 858.5,99.8 861.2,97.1 863.9,94.8 866.6,92.8 869.3,90.5 872.0,90.0 872.0,272.0" fill="#e0f2fe" opacity="0.55"/>
<polyline points="52.0,271.9 54.7,271.8 87.2,271.1 89.9,270.9 92.6,270.9 100.7,270.8 117.0,270.8 152.1,270.7 154.8,270.1 157.5,270.0 165.7,269.9 168.4,269.8 171.1,269.8 173.8,269.6 179.2,269.5 181.9,269.2 190.0,268.9 200.8,268.8 203.6,268.6 206.3,268.5 227.9,268.4 233.3,268.3 246.9,268.3 249.6,268.2 252.3,268.1 263.1,268.0 265.8,267.6 268.5,267.3 271.2,266.4 273.9,266.3 292.9,266.2 301.0,266.2 306.4,266.1 309.1,266.0 311.8,265.7 314.5,265.6 317.2,265.6 319.9,265.4 322.6,265.2 333.5,264.8 338.9,264.8 349.7,264.7 352.4,264.4 355.1,264.3 357.8,264.2 363.2,264.1 365.9,262.8 368.6,261.5 371.3,261.0 374.0,260.7 376.8,260.6 379.5,260.2 382.2,259.8 384.9,259.5 387.6,259.3 390.3,259.1 395.7,258.9 398.4,258.4 401.1,257.9 403.8,257.4 406.5,257.0 411.9,256.9 417.3,256.8 420.1,256.4 422.8,256.0 425.5,255.1 428.2,254.6 430.9,254.1 433.6,253.6 436.3,253.0 439.0,252.4 441.7,251.7 444.4,251.0 447.1,250.3 449.8,249.7 452.5,249.3 455.2,248.9 457.9,248.4 460.6,248.1 463.4,247.8 466.1,247.4 468.8,247.3 471.5,247.2 476.9,247.1 479.6,245.8 482.3,244.9 485.0,244.7 487.7,244.6 493.1,244.5 495.8,244.3 506.7,244.2 512.1,244.1 520.2,244.0 522.9,242.5 525.6,241.1 528.3,240.7 531.0,239.5 533.7,238.6 536.4,238.0 539.1,237.7 541.8,237.1 544.5,236.8 547.2,236.7 550.0,236.4 552.7,236.3 568.9,235.2 571.6,233.9 574.3,233.7 577.0,233.5 579.7,233.5 598.7,233.4 623.0,232.0 625.7,231.0 628.4,229.7 631.1,227.9 633.8,227.6 636.6,227.0 639.3,225.9 642.0,225.1 644.7,223.3 647.4,220.7 650.1,218.2 652.8,215.1 655.5,212.0 658.2,209.2 660.9,207.5 663.6,205.5 666.3,202.5 669.0,199.9 671.7,198.2 674.4,196.4 677.1,193.9 679.9,192.4 682.6,190.8 685.3,189.4 688.0,188.4 690.7,187.0 693.4,186.1 696.1,185.2 698.8,184.4 701.5,182.1 704.2,180.1 706.9,179.1 709.6,178.8 712.3,178.2 715.0,177.2 717.7,176.3 720.4,174.8 723.2,173.8 725.9,172.9 728.6,172.7 731.3,172.3 734.0,171.6 736.7,169.7 739.4,166.6 742.1,163.4 744.8,160.2 747.5,157.6 750.2,154.5 752.9,151.2 755.6,147.8 758.3,144.8 761.0,142.5 763.7,140.8 766.5,138.7 769.2,136.7 771.9,135.4 774.6,133.9 777.3,132.7 780.0,131.0 782.7,128.7 785.4,125.9 788.1,123.6 790.8,121.6 793.5,120.3 796.2,119.1 798.9,117.9 801.6,116.6 804.3,114.4 807.0,112.5 809.8,110.2 812.5,107.8 815.2,105.8 817.9,104.2 820.6,103.6 823.3,102.7 826.0,101.8 828.7,101.6 831.4,101.5 834.1,101.0 836.8,100.8 839.5,100.8 842.2,100.4 844.9,100.3 853.1,100.2 855.8,100.2 858.5,99.8 861.2,97.1 863.9,94.8 866.6,92.8 869.3,90.5 872.0,90.0" fill="none" stroke="#38bdf8" stroke-width="2.5" stroke-linejoin="round" stroke-linecap="round"/>
<circle cx="872.0" cy="90.0" r="4" fill="#0ea5e9"/>
<text x="866.0" y="80.0" text-anchor="end" font-family="Inter, system-ui, sans-serif" font-size="13" font-weight="700" fill="#334155">2772</text>
<text x="52.0" y="294" text-anchor="middle" font-family="Inter, system-ui, sans-serif" font-size="11" fill="#94a3b8">Jun 10 05:00</text>
<text x="544.5" y="294" text-anchor="middle" font-family="Inter, system-ui, sans-serif" font-size="11" fill="#94a3b8">Jun 17 19:00</text>
<text x="872.0" y="294" text-anchor="middle" font-family="Inter, system-ui, sans-serif" font-size="11" fill="#94a3b8">Jun 22 20:00</text>
</svg>
