<svg xmlns="http://www.w3.org/2000/svg" width="900" height="320" viewBox="0 0 900 320" role="img" aria-labelledby="title desc">
<title id="title">Unsorry proofs over time</title>
<desc id="desc">Cumulative kernel-verified proofs over time, by the hour each proof was merged.</desc>
<rect width="900" height="100%" rx="18" fill="#ffffff"/>
<rect x="0.5" y="0.5" width="899" height="319" rx="18" fill="none" stroke="#e2e8f0"/>
<text x="32" y="44" font-family="Inter, system-ui, sans-serif" font-size="28" font-weight="700" fill="#334155">Unsorry — Proofs Over Time</text>
<text x="32" y="72" font-family="Inter, system-ui, sans-serif" font-size="13" fill="#64748b">1934 cumulative kernel-verified proofs · merged, hourly</text>
<line x1="52" y1="272.0" x2="872" y2="272.0" stroke="#f1f5f9"/>
<text x="44" y="276.0" text-anchor="end" font-family="Inter, system-ui, sans-serif" font-size="11" fill="#94a3b8">0</text>
<line x1="52" y1="226.5" x2="872" y2="226.5" stroke="#f1f5f9"/>
<text x="44" y="230.5" text-anchor="end" font-family="Inter, system-ui, sans-serif" font-size="11" fill="#94a3b8">484</text>
<line x1="52" y1="181.0" x2="872" y2="181.0" stroke="#f1f5f9"/>
<text x="44" y="185.0" text-anchor="end" font-family="Inter, system-ui, sans-serif" font-size="11" fill="#94a3b8">967</text>
<line x1="52" y1="135.5" x2="872" y2="135.5" stroke="#f1f5f9"/>
<text x="44" y="139.5" text-anchor="end" font-family="Inter, system-ui, sans-serif" font-size="11" fill="#94a3b8">1450</text>
<line x1="52" y1="90.0" x2="872" y2="90.0" stroke="#f1f5f9"/>
<text x="44" y="94.0" text-anchor="end" font-family="Inter, system-ui, sans-serif" font-size="11" fill="#94a3b8">1934</text>
<polygon points="52.0,272.0 52.0,271.9 55.1,271.7 92.8,270.8 96.0,270.5 99.1,270.4 108.6,270.3 127.4,270.2 168.2,270.1 171.4,269.3 174.5,269.2 184.0,269.0 187.1,268.9 190.2,268.8 193.4,268.5 199.7,268.4 202.8,268.0 212.2,267.6 224.8,267.4 227.9,267.1 231.1,266.9 256.2,266.8 262.5,266.7 278.2,266.6 281.3,266.5 284.5,266.4 297.1,266.3 300.2,265.7 303.3,265.2 306.5,264.0 309.6,263.8 331.6,263.7 341.0,263.6 347.3,263.5 350.5,263.4 353.6,263.0 356.8,262.9 359.9,262.8 363.0,262.5 366.2,262.2 378.7,261.7 385.0,261.6 397.6,261.6 400.7,261.1 403.9,261.0 407.0,260.8 413.3,260.7 416.4,258.8 419.6,256.9 422.7,256.3 425.9,255.8 429.0,255.6 432.2,255.2 435.3,254.5 438.4,254.0 441.6,253.7 444.7,253.6 451.0,253.3 454.1,252.5 457.3,251.8 460.4,251.0 463.6,250.5 469.9,250.4 476.1,250.3 479.3,249.6 482.4,249.1 485.6,247.8 488.7,247.1 491.8,246.3 495.0,245.6 498.1,244.7 501.3,243.9 504.4,242.9 507.6,241.9 510.7,240.9 513.8,240.1 517.0,239.5 520.1,238.9 523.3,238.1 526.4,237.7 529.5,237.3 532.7,236.8 535.8,236.6 539.0,236.4 545.3,236.3 548.4,234.5 551.5,233.1 554.7,232.9 557.8,232.8 564.1,232.6 567.2,232.3 579.8,232.2 586.1,232.0 595.5,231.9 598.7,229.7 601.8,227.7 605.0,227.1 608.1,225.4 611.2,224.1 614.4,223.3 617.5,222.8 620.7,221.9 623.8,221.6 626.9,221.4 630.1,221.0 633.2,220.8 652.1,219.3 655.2,217.4 658.4,217.1 661.5,216.9 664.6,216.8 686.6,216.7 714.9,214.7 718.1,213.2 721.2,211.4 724.3,208.8 727.5,208.3 730.6,207.4 733.8,205.9 736.9,204.8 740.0,202.3 743.2,198.5 746.3,194.8 749.5,190.5 752.6,186.0 755.8,182.0 758.9,179.6 762.0,176.7 765.2,172.3 768.3,168.7 771.5,166.2 774.6,163.7 777.7,160.1 780.9,157.9 784.0,155.6 787.2,153.6 790.3,152.1 793.5,150.1 796.6,148.9 799.7,147.6 802.9,146.5 806.0,143.1 809.2,140.3 812.3,138.8 815.4,138.4 818.6,137.5 821.7,136.1 824.9,134.9 828.0,132.6 831.2,131.2 834.3,129.9 837.4,129.7 840.6,129.1 843.7,128.1 846.9,125.4 850.0,121.0 853.1,116.3 856.3,111.7 859.4,108.0 862.6,103.6 865.7,98.8 868.9,94.0 872.0,90.0 872.0,272.0" fill="#e0f2fe" opacity="0.55"/>
<polyline points="52.0,271.9 55.1,271.7 92.8,270.8 96.0,270.5 99.1,270.4 108.6,270.3 127.4,270.2 168.2,270.1 171.4,269.3 174.5,269.2 184.0,269.0 187.1,268.9 190.2,268.8 193.4,268.5 199.7,268.4 202.8,268.0 212.2,267.6 224.8,267.4 227.9,267.1 231.1,266.9 256.2,266.8 262.5,266.7 278.2,266.6 281.3,266.5 284.5,266.4 297.1,266.3 300.2,265.7 303.3,265.2 306.5,264.0 309.6,263.8 331.6,263.7 341.0,263.6 347.3,263.5 350.5,263.4 353.6,263.0 356.8,262.9 359.9,262.8 363.0,262.5 366.2,262.2 378.7,261.7 385.0,261.6 397.6,261.6 400.7,261.1 403.9,261.0 407.0,260.8 413.3,260.7 416.4,258.8 419.6,256.9 422.7,256.3 425.9,255.8 429.0,255.6 432.2,255.2 435.3,254.5 438.4,254.0 441.6,253.7 444.7,253.6 451.0,253.3 454.1,252.5 457.3,251.8 460.4,251.0 463.6,250.5 469.9,250.4 476.1,250.3 479.3,249.6 482.4,249.1 485.6,247.8 488.7,247.1 491.8,246.3 495.0,245.6 498.1,244.7 501.3,243.9 504.4,242.9 507.6,241.9 510.7,240.9 513.8,240.1 517.0,239.5 520.1,238.9 523.3,238.1 526.4,237.7 529.5,237.3 532.7,236.8 535.8,236.6 539.0,236.4 545.3,236.3 548.4,234.5 551.5,233.1 554.7,232.9 557.8,232.8 564.1,232.6 567.2,232.3 579.8,232.2 586.1,232.0 595.5,231.9 598.7,229.7 601.8,227.7 605.0,227.1 608.1,225.4 611.2,224.1 614.4,223.3 617.5,222.8 620.7,221.9 623.8,221.6 626.9,221.4 630.1,221.0 633.2,220.8 652.1,219.3 655.2,217.4 658.4,217.1 661.5,216.9 664.6,216.8 686.6,216.7 714.9,214.7 718.1,213.2 721.2,211.4 724.3,208.8 727.5,208.3 730.6,207.4 733.8,205.9 736.9,204.8 740.0,202.3 743.2,198.5 746.3,194.8 749.5,190.5 752.6,186.0 755.8,182.0 758.9,179.6 762.0,176.7 765.2,172.3 768.3,168.7 771.5,166.2 774.6,163.7 777.7,160.1 780.9,157.9 784.0,155.6 787.2,153.6 790.3,152.1 793.5,150.1 796.6,148.9 799.7,147.6 802.9,146.5 806.0,143.1 809.2,140.3 812.3,138.8 815.4,138.4 818.6,137.5 821.7,136.1 824.9,134.9 828.0,132.6 831.2,131.2 834.3,129.9 837.4,129.7 840.6,129.1 843.7,128.1 846.9,125.4 850.0,121.0 853.1,116.3 856.3,111.7 859.4,108.0 862.6,103.6 865.7,98.8 868.9,94.0 872.0,90.0" fill="none" stroke="#38bdf8" stroke-width="2.5" stroke-linejoin="round" stroke-linecap="round"/>
<circle cx="872.0" cy="90.0" r="4" fill="#0ea5e9"/>
<text x="866.0" y="80.0" text-anchor="end" font-family="Inter, system-ui, sans-serif" font-size="13" font-weight="700" fill="#334155">1934</text>
<text x="52.0" y="294" text-anchor="middle" font-family="Inter, system-ui, sans-serif" font-size="11" fill="#94a3b8">Jun 10 05:00</text>
<text x="535.8" y="294" text-anchor="middle" font-family="Inter, system-ui, sans-serif" font-size="11" fill="#94a3b8">Jun 16 15:00</text>
<text x="872.0" y="294" text-anchor="middle" font-family="Inter, system-ui, sans-serif" font-size="11" fill="#94a3b8">Jun 21 02:00</text>
</svg>
