<svg xmlns="http://www.w3.org/2000/svg" width="900" height="320" viewBox="0 0 900 320" role="img" aria-labelledby="title desc">
<title id="title">Unsorry proofs over time</title>
<desc id="desc">Cumulative kernel-verified proofs over time, by the hour each proof was merged.</desc>
<rect width="900" height="100%" rx="18" fill="#ffffff"/>
<rect x="0.5" y="0.5" width="899" height="319" rx="18" fill="none" stroke="#e2e8f0"/>
<text x="32" y="44" font-family="Inter, system-ui, sans-serif" font-size="28" font-weight="700" fill="#334155">Unsorry — Proofs Over Time</text>
<text x="32" y="72" font-family="Inter, system-ui, sans-serif" font-size="13" fill="#64748b">2584 cumulative kernel-verified proofs · merged, hourly</text>
<line x1="52" y1="272.0" x2="872" y2="272.0" stroke="#f1f5f9"/>
<text x="44" y="276.0" text-anchor="end" font-family="Inter, system-ui, sans-serif" font-size="11" fill="#94a3b8">0</text>
<line x1="52" y1="226.5" x2="872" y2="226.5" stroke="#f1f5f9"/>
<text x="44" y="230.5" text-anchor="end" font-family="Inter, system-ui, sans-serif" font-size="11" fill="#94a3b8">646</text>
<line x1="52" y1="181.0" x2="872" y2="181.0" stroke="#f1f5f9"/>
<text x="44" y="185.0" text-anchor="end" font-family="Inter, system-ui, sans-serif" font-size="11" fill="#94a3b8">1292</text>
<line x1="52" y1="135.5" x2="872" y2="135.5" stroke="#f1f5f9"/>
<text x="44" y="139.5" text-anchor="end" font-family="Inter, system-ui, sans-serif" font-size="11" fill="#94a3b8">1938</text>
<line x1="52" y1="90.0" x2="872" y2="90.0" stroke="#f1f5f9"/>
<text x="44" y="94.0" text-anchor="end" font-family="Inter, system-ui, sans-serif" font-size="11" fill="#94a3b8">2584</text>
<polygon points="52.0,272.0 52.0,271.9 54.9,271.8 89.3,271.1 92.1,270.9 95.0,270.8 103.6,270.7 120.8,270.7 158.1,270.6 161.0,270.0 163.8,269.9 172.4,269.7 175.3,269.7 178.2,269.6 181.0,269.4 186.8,269.3 189.6,269.0 198.2,268.7 209.7,268.5 212.6,268.3 215.4,268.2 238.4,268.1 244.1,268.1 258.4,268.0 261.3,267.9 264.2,267.8 275.6,267.7 278.5,267.3 281.4,266.9 284.2,266.0 287.1,265.9 307.2,265.8 315.8,265.7 321.5,265.7 324.4,265.6 327.2,265.2 330.1,265.2 333.0,265.1 335.8,264.9 338.7,264.7 350.2,264.3 355.9,264.3 367.4,264.2 370.3,263.8 373.1,263.8 376.0,263.6 381.7,263.5 384.6,262.1 387.5,260.7 390.3,260.2 393.2,259.9 396.1,259.7 398.9,259.4 401.8,258.9 404.7,258.5 407.5,258.3 410.4,258.2 416.1,258.0 419.0,257.4 421.9,256.9 424.7,256.3 427.6,255.9 433.3,255.8 439.1,255.7 441.9,255.2 444.8,254.9 447.7,253.9 450.5,253.3 453.4,252.8 456.3,252.2 459.1,251.6 462.0,250.9 464.9,250.2 467.7,249.5 470.6,248.8 473.5,248.1 476.3,247.7 479.2,247.2 482.1,246.6 484.9,246.4 487.8,246.0 490.7,245.7 493.5,245.5 496.4,245.4 502.1,245.3 505.0,243.9 507.9,242.9 510.7,242.7 513.6,242.6 519.3,242.5 522.2,242.3 533.7,242.2 539.4,242.1 548.0,242.0 550.9,240.4 553.7,238.8 556.6,238.4 559.5,237.1 562.3,236.1 565.2,235.5 568.1,235.2 571.0,234.5 573.8,234.2 576.7,234.1 579.6,233.8 582.4,233.7 599.6,232.6 602.5,231.1 605.4,230.9 608.2,230.7 611.1,230.7 631.2,230.6 657.0,229.1 659.8,228.0 662.7,226.6 665.6,224.7 668.4,224.3 671.3,223.7 674.2,222.6 677.0,221.7 679.9,219.8 682.8,217.0 685.6,214.2 688.5,211.0 691.4,207.6 694.2,204.7 697.1,202.8 700.0,200.7 702.8,197.4 705.7,194.7 708.6,192.8 711.4,190.9 714.3,188.3 717.2,186.6 720.0,184.9 722.9,183.4 725.8,182.3 728.6,180.8 731.5,179.9 734.4,178.9 737.2,178.0 740.1,175.5 743.0,173.5 745.8,172.3 748.7,172.0 751.6,171.4 754.4,170.3 757.3,169.4 760.2,167.7 763.0,166.6 765.9,165.6 768.8,165.5 771.7,165.1 774.5,164.3 777.4,162.3 780.3,159.0 783.1,155.5 786.0,152.1 788.9,149.2 791.7,145.9 794.6,142.4 797.5,138.8 800.3,135.5 803.2,133.1 806.1,131.2 808.9,129.0 811.8,126.9 814.7,125.5 817.5,123.8 820.4,122.5 823.3,120.7 826.1,118.2 829.0,115.3 831.9,112.8 834.7,110.6 837.6,109.2 840.5,108.0 843.3,106.7 846.2,105.3 849.1,102.9 851.9,100.8 854.8,98.4 857.7,95.8 860.5,93.7 863.4,92.0 866.3,91.3 869.1,90.4 872.0,90.0 872.0,272.0" fill="#e0f2fe" opacity="0.55"/>
<polyline points="52.0,271.9 54.9,271.8 89.3,271.1 92.1,270.9 95.0,270.8 103.6,270.7 120.8,270.7 158.1,270.6 161.0,270.0 163.8,269.9 172.4,269.7 175.3,269.7 178.2,269.6 181.0,269.4 186.8,269.3 189.6,269.0 198.2,268.7 209.7,268.5 212.6,268.3 215.4,268.2 238.4,268.1 244.1,268.1 258.4,268.0 261.3,267.9 264.2,267.8 275.6,267.7 278.5,267.3 281.4,266.9 284.2,266.0 287.1,265.9 307.2,265.8 315.8,265.7 321.5,265.7 324.4,265.6 327.2,265.2 330.1,265.2 333.0,265.1 335.8,264.9 338.7,264.7 350.2,264.3 355.9,264.3 367.4,264.2 370.3,263.8 373.1,263.8 376.0,263.6 381.7,263.5 384.6,262.1 387.5,260.7 390.3,260.2 393.2,259.9 396.1,259.7 398.9,259.4 401.8,258.9 404.7,258.5 407.5,258.3 410.4,258.2 416.1,258.0 419.0,257.4 421.9,256.9 424.7,256.3 427.6,255.9 433.3,255.8 439.1,255.7 441.9,255.2 444.8,254.9 447.7,253.9 450.5,253.3 453.4,252.8 456.3,252.2 459.1,251.6 462.0,250.9 464.9,250.2 467.7,249.5 470.6,248.8 473.5,248.1 476.3,247.7 479.2,247.2 482.1,246.6 484.9,246.4 487.8,246.0 490.7,245.7 493.5,245.5 496.4,245.4 502.1,245.3 505.0,243.9 507.9,242.9 510.7,242.7 513.6,242.6 519.3,242.5 522.2,242.3 533.7,242.2 539.4,242.1 548.0,242.0 550.9,240.4 553.7,238.8 556.6,238.4 559.5,237.1 562.3,236.1 565.2,235.5 568.1,235.2 571.0,234.5 573.8,234.2 576.7,234.1 579.6,233.8 582.4,233.7 599.6,232.6 602.5,231.1 605.4,230.9 608.2,230.7 611.1,230.7 631.2,230.6 657.0,229.1 659.8,228.0 662.7,226.6 665.6,224.7 668.4,224.3 671.3,223.7 674.2,222.6 677.0,221.7 679.9,219.8 682.8,217.0 685.6,214.2 688.5,211.0 691.4,207.6 694.2,204.7 697.1,202.8 700.0,200.7 702.8,197.4 705.7,194.7 708.6,192.8 711.4,190.9 714.3,188.3 717.2,186.6 720.0,184.9 722.9,183.4 725.8,182.3 728.6,180.8 731.5,179.9 734.4,178.9 737.2,178.0 740.1,175.5 743.0,173.5 745.8,172.3 748.7,172.0 751.6,171.4 754.4,170.3 757.3,169.4 760.2,167.7 763.0,166.6 765.9,165.6 768.8,165.5 771.7,165.1 774.5,164.3 777.4,162.3 780.3,159.0 783.1,155.5 786.0,152.1 788.9,149.2 791.7,145.9 794.6,142.4 797.5,138.8 800.3,135.5 803.2,133.1 806.1,131.2 808.9,129.0 811.8,126.9 814.7,125.5 817.5,123.8 820.4,122.5 823.3,120.7 826.1,118.2 829.0,115.3 831.9,112.8 834.7,110.6 837.6,109.2 840.5,108.0 843.3,106.7 846.2,105.3 849.1,102.9 851.9,100.8 854.8,98.4 857.7,95.8 860.5,93.7 863.4,92.0 866.3,91.3 869.1,90.4 872.0,90.0" fill="none" stroke="#38bdf8" stroke-width="2.5" stroke-linejoin="round" stroke-linecap="round"/>
<circle cx="872.0" cy="90.0" r="4" fill="#0ea5e9"/>
<text x="866.0" y="80.0" text-anchor="end" font-family="Inter, system-ui, sans-serif" font-size="13" font-weight="700" fill="#334155">2584</text>
<text x="52.0" y="294" text-anchor="middle" font-family="Inter, system-ui, sans-serif" font-size="11" fill="#94a3b8">Jun 10 05:00</text>
<text x="550.9" y="294" text-anchor="middle" font-family="Inter, system-ui, sans-serif" font-size="11" fill="#94a3b8">Jun 17 11:00</text>
<text x="872.0" y="294" text-anchor="middle" font-family="Inter, system-ui, sans-serif" font-size="11" fill="#94a3b8">Jun 22 03:00</text>
</svg>
