<svg xmlns="http://www.w3.org/2000/svg" width="900" height="320" viewBox="0 0 900 320" role="img" aria-labelledby="title desc">
<title id="title">unsorry proofs over time</title>
<desc id="desc">Cumulative kernel-verified proofs over time, by the hour each proof was merged.</desc>
<rect width="900" height="100%" rx="18" fill="#ffffff"/>
<rect x="0.5" y="0.5" width="899" height="319" rx="18" fill="none" stroke="#e2e8f0"/>
<text x="32" y="44" font-family="Inter, system-ui, sans-serif" font-size="28" font-weight="700" fill="#334155">unsorry — Proofs Over Time</text>
<text x="32" y="72" font-family="Inter, system-ui, sans-serif" font-size="13" fill="#64748b">2760 cumulative kernel-verified proofs · merged, hourly</text>
<line x1="52" y1="272.0" x2="872" y2="272.0" stroke="#f1f5f9"/>
<text x="44" y="276.0" text-anchor="end" font-family="Inter, system-ui, sans-serif" font-size="11" fill="#94a3b8">0</text>
<line x1="52" y1="226.5" x2="872" y2="226.5" stroke="#f1f5f9"/>
<text x="44" y="230.5" text-anchor="end" font-family="Inter, system-ui, sans-serif" font-size="11" fill="#94a3b8">690</text>
<line x1="52" y1="181.0" x2="872" y2="181.0" stroke="#f1f5f9"/>
<text x="44" y="185.0" text-anchor="end" font-family="Inter, system-ui, sans-serif" font-size="11" fill="#94a3b8">1380</text>
<line x1="52" y1="135.5" x2="872" y2="135.5" stroke="#f1f5f9"/>
<text x="44" y="139.5" text-anchor="end" font-family="Inter, system-ui, sans-serif" font-size="11" fill="#94a3b8">2070</text>
<line x1="52" y1="90.0" x2="872" y2="90.0" stroke="#f1f5f9"/>
<text x="44" y="94.0" text-anchor="end" font-family="Inter, system-ui, sans-serif" font-size="11" fill="#94a3b8">2760</text>
<polygon points="52.0,272.0 52.0,271.9 54.7,271.8 87.3,271.1 90.0,270.9 92.7,270.9 100.9,270.8 117.2,270.7 152.5,270.7 155.2,270.1 157.9,270.0 166.0,269.9 168.8,269.8 171.5,269.8 174.2,269.6 179.6,269.5 182.3,269.2 190.5,268.9 201.3,268.8 204.1,268.6 206.8,268.4 228.5,268.4 233.9,268.3 247.5,268.2 250.2,268.2 252.9,268.0 263.8,268.0 266.5,267.6 269.2,267.3 271.9,266.4 274.6,266.3 293.7,266.2 301.8,266.1 307.2,266.1 309.9,266.0 312.7,265.7 315.4,265.6 318.1,265.5 320.8,265.3 323.5,265.1 334.4,264.8 339.8,264.7 350.7,264.7 353.4,264.4 356.1,264.3 358.8,264.2 364.3,264.1 367.0,262.8 369.7,261.4 372.4,261.0 375.1,260.7 377.8,260.5 380.5,260.2 383.3,259.7 386.0,259.4 388.7,259.2 391.4,259.1 396.8,258.9 399.5,258.4 402.3,257.8 405.0,257.3 407.7,257.0 413.1,256.8 418.6,256.8 421.3,256.3 424.0,256.0 426.7,255.1 429.4,254.5 432.1,254.0 434.8,253.5 437.6,252.9 440.3,252.3 443.0,251.6 445.7,250.9 448.4,250.2 451.1,249.6 453.9,249.2 456.6,248.8 459.3,248.3 462.0,248.0 464.7,247.7 467.4,247.3 470.1,247.2 472.9,247.1 478.3,247.0 481.0,245.7 483.7,244.8 486.4,244.6 489.2,244.5 494.6,244.4 497.3,244.2 508.2,244.1 513.6,244.0 521.7,243.9 524.5,242.4 527.2,240.9 529.9,240.5 532.6,239.4 535.3,238.4 538.0,237.8 540.7,237.5 543.5,236.9 546.2,236.7 548.9,236.5 551.6,236.3 554.3,236.1 570.6,235.1 573.3,233.8 576.0,233.6 578.8,233.4 581.5,233.3 600.5,233.2 624.9,231.8 627.6,230.8 630.3,229.5 633.1,227.7 635.8,227.4 638.5,226.8 641.2,225.7 643.9,224.9 646.6,223.1 649.4,220.5 652.1,217.9 654.8,214.9 657.5,211.7 660.2,209.0 662.9,207.2 665.6,205.2 668.4,202.2 671.1,199.6 673.8,197.9 676.5,196.1 679.2,193.6 681.9,192.0 684.6,190.4 687.4,189.0 690.1,188.0 692.8,186.6 695.5,185.7 698.2,184.8 700.9,184.0 703.7,181.7 706.4,179.7 709.1,178.7 711.8,178.4 714.5,177.8 717.2,176.8 719.9,175.9 722.7,174.3 725.4,173.4 728.1,172.4 730.8,172.3 733.5,171.9 736.2,171.2 739.0,169.3 741.7,166.2 744.4,162.9 747.1,159.7 749.8,157.1 752.5,154.0 755.2,150.7 758.0,147.3 760.7,144.2 763.4,142.0 766.1,140.2 768.8,138.1 771.5,136.2 774.3,134.8 777.0,133.3 779.7,132.1 782.4,130.4 785.1,128.0 787.8,125.3 790.5,123.0 793.3,120.9 796.0,119.6 798.7,118.4 801.4,117.2 804.1,115.9 806.8,113.7 809.5,111.8 812.3,109.5 815.0,107.1 817.7,105.1 820.4,103.5 823.1,102.9 825.8,101.9 828.6,101.0 831.3,100.9 834.0,100.7 836.7,100.3 839.4,100.1 842.1,100.0 844.8,99.7 847.6,99.6 855.7,99.5 858.4,99.4 861.1,99.0 863.9,96.3 866.6,94.0 869.3,92.0 872.0,90.0 872.0,272.0" fill="#e0f2fe" opacity="0.55"/>
<polyline points="52.0,271.9 54.7,271.8 87.3,271.1 90.0,270.9 92.7,270.9 100.9,270.8 117.2,270.7 152.5,270.7 155.2,270.1 157.9,270.0 166.0,269.9 168.8,269.8 171.5,269.8 174.2,269.6 179.6,269.5 182.3,269.2 190.5,268.9 201.3,268.8 204.1,268.6 206.8,268.4 228.5,268.4 233.9,268.3 247.5,268.2 250.2,268.2 252.9,268.0 263.8,268.0 266.5,267.6 269.2,267.3 271.9,266.4 274.6,266.3 293.7,266.2 301.8,266.1 307.2,266.1 309.9,266.0 312.7,265.7 315.4,265.6 318.1,265.5 320.8,265.3 323.5,265.1 334.4,264.8 339.8,264.7 350.7,264.7 353.4,264.4 356.1,264.3 358.8,264.2 364.3,264.1 367.0,262.8 369.7,261.4 372.4,261.0 375.1,260.7 377.8,260.5 380.5,260.2 383.3,259.7 386.0,259.4 388.7,259.2 391.4,259.1 396.8,258.9 399.5,258.4 402.3,257.8 405.0,257.3 407.7,257.0 413.1,256.8 418.6,256.8 421.3,256.3 424.0,256.0 426.7,255.1 429.4,254.5 432.1,254.0 434.8,253.5 437.6,252.9 440.3,252.3 443.0,251.6 445.7,250.9 448.4,250.2 451.1,249.6 453.9,249.2 456.6,248.8 459.3,248.3 462.0,248.0 464.7,247.7 467.4,247.3 470.1,247.2 472.9,247.1 478.3,247.0 481.0,245.7 483.7,244.8 486.4,244.6 489.2,244.5 494.6,244.4 497.3,244.2 508.2,244.1 513.6,244.0 521.7,243.9 524.5,242.4 527.2,240.9 529.9,240.5 532.6,239.4 535.3,238.4 538.0,237.8 540.7,237.5 543.5,236.9 546.2,236.7 548.9,236.5 551.6,236.3 554.3,236.1 570.6,235.1 573.3,233.8 576.0,233.6 578.8,233.4 581.5,233.3 600.5,233.2 624.9,231.8 627.6,230.8 630.3,229.5 633.1,227.7 635.8,227.4 638.5,226.8 641.2,225.7 643.9,224.9 646.6,223.1 649.4,220.5 652.1,217.9 654.8,214.9 657.5,211.7 660.2,209.0 662.9,207.2 665.6,205.2 668.4,202.2 671.1,199.6 673.8,197.9 676.5,196.1 679.2,193.6 681.9,192.0 684.6,190.4 687.4,189.0 690.1,188.0 692.8,186.6 695.5,185.7 698.2,184.8 700.9,184.0 703.7,181.7 706.4,179.7 709.1,178.7 711.8,178.4 714.5,177.8 717.2,176.8 719.9,175.9 722.7,174.3 725.4,173.4 728.1,172.4 730.8,172.3 733.5,171.9 736.2,171.2 739.0,169.3 741.7,166.2 744.4,162.9 747.1,159.7 749.8,157.1 752.5,154.0 755.2,150.7 758.0,147.3 760.7,144.2 763.4,142.0 766.1,140.2 768.8,138.1 771.5,136.2 774.3,134.8 777.0,133.3 779.7,132.1 782.4,130.4 785.1,128.0 787.8,125.3 790.5,123.0 793.3,120.9 796.0,119.6 798.7,118.4 801.4,117.2 804.1,115.9 806.8,113.7 809.5,111.8 812.3,109.5 815.0,107.1 817.7,105.1 820.4,103.5 823.1,102.9 825.8,101.9 828.6,101.0 831.3,100.9 834.0,100.7 836.7,100.3 839.4,100.1 842.1,100.0 844.8,99.7 847.6,99.6 855.7,99.5 858.4,99.4 861.1,99.0 863.9,96.3 866.6,94.0 869.3,92.0 872.0,90.0" fill="none" stroke="#38bdf8" stroke-width="2.5" stroke-linejoin="round" stroke-linecap="round"/>
<circle cx="872.0" cy="90.0" r="4" fill="#0ea5e9"/>
<text x="866.0" y="80.0" text-anchor="end" font-family="Inter, system-ui, sans-serif" font-size="13" font-weight="700" fill="#334155">2760</text>
<text x="52.0" y="294" text-anchor="middle" font-family="Inter, system-ui, sans-serif" font-size="11" fill="#94a3b8">Jun 10 05:00</text>
<text x="543.5" y="294" text-anchor="middle" font-family="Inter, system-ui, sans-serif" font-size="11" fill="#94a3b8">Jun 17 18:00</text>
<text x="872.0" y="294" text-anchor="middle" font-family="Inter, system-ui, sans-serif" font-size="11" fill="#94a3b8">Jun 22 19:00</text>
</svg>
