<svg xmlns="http://www.w3.org/2000/svg" width="900" height="320" viewBox="0 0 900 320" role="img" aria-labelledby="title desc">
<title id="title">unsorry proofs over time</title>
<desc id="desc">Cumulative kernel-verified proofs over time, by the hour each proof was merged.</desc>
<rect width="900" height="100%" rx="18" fill="#ffffff"/>
<rect x="0.5" y="0.5" width="899" height="319" rx="18" fill="none" stroke="#e2e8f0"/>
<text x="32" y="44" font-family="Inter, system-ui, sans-serif" font-size="28" font-weight="700" fill="#334155">unsorry — Proofs Over Time</text>
<text x="32" y="72" font-family="Inter, system-ui, sans-serif" font-size="13" fill="#64748b">2801 cumulative kernel-verified proofs · merged, hourly</text>
<line x1="52" y1="272.0" x2="872" y2="272.0" stroke="#f1f5f9"/>
<text x="44" y="276.0" text-anchor="end" font-family="Inter, system-ui, sans-serif" font-size="11" fill="#94a3b8">0</text>
<line x1="52" y1="226.5" x2="872" y2="226.5" stroke="#f1f5f9"/>
<text x="44" y="230.5" text-anchor="end" font-family="Inter, system-ui, sans-serif" font-size="11" fill="#94a3b8">700</text>
<line x1="52" y1="181.0" x2="872" y2="181.0" stroke="#f1f5f9"/>
<text x="44" y="185.0" text-anchor="end" font-family="Inter, system-ui, sans-serif" font-size="11" fill="#94a3b8">1400</text>
<line x1="52" y1="135.5" x2="872" y2="135.5" stroke="#f1f5f9"/>
<text x="44" y="139.5" text-anchor="end" font-family="Inter, system-ui, sans-serif" font-size="11" fill="#94a3b8">2101</text>
<line x1="52" y1="90.0" x2="872" y2="90.0" stroke="#f1f5f9"/>
<text x="44" y="94.0" text-anchor="end" font-family="Inter, system-ui, sans-serif" font-size="11" fill="#94a3b8">2801</text>
<polygon points="52.0,272.0 52.0,271.9 54.7,271.8 87.1,271.2 89.8,271.0 92.5,270.9 100.6,270.8 116.7,270.8 151.8,270.7 154.5,270.1 157.2,270.1 165.3,269.9 168.0,269.9 170.7,269.8 173.4,269.6 178.8,269.5 181.5,269.2 189.6,268.9 200.4,268.8 203.1,268.6 205.8,268.5 227.3,268.4 232.7,268.4 246.2,268.3 248.9,268.2 251.6,268.1 262.4,268.0 265.1,267.6 267.8,267.3 270.5,266.5 273.2,266.3 292.1,266.3 300.2,266.2 305.6,266.2 308.2,266.1 310.9,265.8 313.6,265.7 316.3,265.6 319.0,265.4 321.7,265.2 332.5,264.9 337.9,264.9 348.7,264.8 351.4,264.5 354.1,264.4 356.8,264.3 362.2,264.2 364.9,262.9 367.6,261.6 370.3,261.1 373.0,260.8 375.7,260.7 378.4,260.4 381.1,259.9 383.8,259.6 386.5,259.4 389.2,259.3 394.6,259.1 397.3,258.5 400.0,258.0 402.7,257.5 405.4,257.2 410.8,257.1 416.1,257.0 418.8,256.5 421.5,256.2 424.2,255.3 426.9,254.8 429.6,254.3 432.3,253.7 435.0,253.2 437.7,252.6 440.4,251.9 443.1,251.2 445.8,250.6 448.5,250.0 451.2,249.6 453.9,249.1 456.6,248.6 459.3,248.3 462.0,248.0 464.7,247.7 467.4,247.6 470.1,247.4 475.5,247.4 478.2,246.1 480.9,245.2 483.6,245.0 486.3,244.9 491.7,244.8 494.4,244.6 505.2,244.5 510.6,244.4 518.6,244.3 521.3,242.8 524.0,241.4 526.7,241.0 529.4,239.8 532.1,238.9 534.8,238.3 537.5,238.0 540.2,237.4 542.9,237.2 545.6,237.0 548.3,236.8 551.0,236.7 567.2,235.6 569.9,234.3 572.6,234.1 575.3,233.9 578.0,233.9 596.9,233.8 621.1,232.4 623.8,231.4 626.5,230.2 629.2,228.3 631.9,228.0 634.6,227.4 637.3,226.4 640.0,225.6 642.7,223.9 645.4,221.3 648.1,218.7 650.8,215.7 653.5,212.6 656.2,209.9 658.9,208.2 661.6,206.2 664.3,203.2 667.0,200.7 669.7,199.0 672.4,197.2 675.1,194.7 677.8,193.2 680.5,191.6 683.2,190.3 685.9,189.2 688.6,187.9 691.3,187.0 694.0,186.1 696.7,185.3 699.4,183.0 702.1,181.1 704.8,180.1 707.5,179.7 710.2,179.1 712.9,178.2 715.6,177.3 718.2,175.8 720.9,174.8 723.6,173.9 726.3,173.8 729.0,173.4 731.7,172.7 734.4,170.8 737.1,167.7 739.8,164.5 742.5,161.3 745.2,158.7 747.9,155.7 750.6,152.4 753.3,149.1 756.0,146.1 758.7,143.9 761.4,142.1 764.1,140.1 766.8,138.1 769.5,136.8 772.2,135.3 774.9,134.1 777.6,132.4 780.3,130.2 783.0,127.4 785.7,125.2 788.4,123.1 791.1,121.8 793.8,120.7 796.5,119.5 799.2,118.2 801.9,116.0 804.6,114.1 807.3,111.8 810.0,109.5 812.7,107.5 815.4,106.0 818.1,105.3 820.8,104.4 823.4,103.5 826.1,103.4 828.8,103.3 831.5,102.8 834.2,102.6 836.9,102.5 839.6,102.2 842.3,102.1 850.4,102.0 853.1,102.0 855.8,101.6 858.5,98.9 861.2,96.6 863.9,94.6 866.6,92.3 869.3,90.3 872.0,90.0 872.0,272.0" fill="#e0f2fe" opacity="0.55"/>
<polyline points="52.0,271.9 54.7,271.8 87.1,271.2 89.8,271.0 92.5,270.9 100.6,270.8 116.7,270.8 151.8,270.7 154.5,270.1 157.2,270.1 165.3,269.9 168.0,269.9 170.7,269.8 173.4,269.6 178.8,269.5 181.5,269.2 189.6,268.9 200.4,268.8 203.1,268.6 205.8,268.5 227.3,268.4 232.7,268.4 246.2,268.3 248.9,268.2 251.6,268.1 262.4,268.0 265.1,267.6 267.8,267.3 270.5,266.5 273.2,266.3 292.1,266.3 300.2,266.2 305.6,266.2 308.2,266.1 310.9,265.8 313.6,265.7 316.3,265.6 319.0,265.4 321.7,265.2 332.5,264.9 337.9,264.9 348.7,264.8 351.4,264.5 354.1,264.4 356.8,264.3 362.2,264.2 364.9,262.9 367.6,261.6 370.3,261.1 373.0,260.8 375.7,260.7 378.4,260.4 381.1,259.9 383.8,259.6 386.5,259.4 389.2,259.3 394.6,259.1 397.3,258.5 400.0,258.0 402.7,257.5 405.4,257.2 410.8,257.1 416.1,257.0 418.8,256.5 421.5,256.2 424.2,255.3 426.9,254.8 429.6,254.3 432.3,253.7 435.0,253.2 437.7,252.6 440.4,251.9 443.1,251.2 445.8,250.6 448.5,250.0 451.2,249.6 453.9,249.1 456.6,248.6 459.3,248.3 462.0,248.0 464.7,247.7 467.4,247.6 470.1,247.4 475.5,247.4 478.2,246.1 480.9,245.2 483.6,245.0 486.3,244.9 491.7,244.8 494.4,244.6 505.2,244.5 510.6,244.4 518.6,244.3 521.3,242.8 524.0,241.4 526.7,241.0 529.4,239.8 532.1,238.9 534.8,238.3 537.5,238.0 540.2,237.4 542.9,237.2 545.6,237.0 548.3,236.8 551.0,236.7 567.2,235.6 569.9,234.3 572.6,234.1 575.3,233.9 578.0,233.9 596.9,233.8 621.1,232.4 623.8,231.4 626.5,230.2 629.2,228.3 631.9,228.0 634.6,227.4 637.3,226.4 640.0,225.6 642.7,223.9 645.4,221.3 648.1,218.7 650.8,215.7 653.5,212.6 656.2,209.9 658.9,208.2 661.6,206.2 664.3,203.2 667.0,200.7 669.7,199.0 672.4,197.2 675.1,194.7 677.8,193.2 680.5,191.6 683.2,190.3 685.9,189.2 688.6,187.9 691.3,187.0 694.0,186.1 696.7,185.3 699.4,183.0 702.1,181.1 704.8,180.1 707.5,179.7 710.2,179.1 712.9,178.2 715.6,177.3 718.2,175.8 720.9,174.8 723.6,173.9 726.3,173.8 729.0,173.4 731.7,172.7 734.4,170.8 737.1,167.7 739.8,164.5 742.5,161.3 745.2,158.7 747.9,155.7 750.6,152.4 753.3,149.1 756.0,146.1 758.7,143.9 761.4,142.1 764.1,140.1 766.8,138.1 769.5,136.8 772.2,135.3 774.9,134.1 777.6,132.4 780.3,130.2 783.0,127.4 785.7,125.2 788.4,123.1 791.1,121.8 793.8,120.7 796.5,119.5 799.2,118.2 801.9,116.0 804.6,114.1 807.3,111.8 810.0,109.5 812.7,107.5 815.4,106.0 818.1,105.3 820.8,104.4 823.4,103.5 826.1,103.4 828.8,103.3 831.5,102.8 834.2,102.6 836.9,102.5 839.6,102.2 842.3,102.1 850.4,102.0 853.1,102.0 855.8,101.6 858.5,98.9 861.2,96.6 863.9,94.6 866.6,92.3 869.3,90.3 872.0,90.0" fill="none" stroke="#38bdf8" stroke-width="2.5" stroke-linejoin="round" stroke-linecap="round"/>
<circle cx="872.0" cy="90.0" r="4" fill="#0ea5e9"/>
<text x="866.0" y="80.0" text-anchor="end" font-family="Inter, system-ui, sans-serif" font-size="13" font-weight="700" fill="#334155">2801</text>
<text x="52.0" y="294" text-anchor="middle" font-family="Inter, system-ui, sans-serif" font-size="11" fill="#94a3b8">Jun 10 05:00</text>
<text x="542.9" y="294" text-anchor="middle" font-family="Inter, system-ui, sans-serif" font-size="11" fill="#94a3b8">Jun 17 19:00</text>
<text x="872.0" y="294" text-anchor="middle" font-family="Inter, system-ui, sans-serif" font-size="11" fill="#94a3b8">Jun 22 21:00</text>
</svg>
