<svg xmlns="http://www.w3.org/2000/svg" width="900" height="320" viewBox="0 0 900 320" role="img" aria-labelledby="title desc">
<title id="title">Unsorry proofs over time</title>
<desc id="desc">Cumulative kernel-verified proofs over time, by the hour each proof was merged.</desc>
<rect width="900" height="100%" rx="18" fill="#ffffff"/>
<rect x="0.5" y="0.5" width="899" height="319" rx="18" fill="none" stroke="#e2e8f0"/>
<text x="32" y="44" font-family="Inter, system-ui, sans-serif" font-size="28" font-weight="700" fill="#334155">Unsorry — Proofs Over Time</text>
<text x="32" y="72" font-family="Inter, system-ui, sans-serif" font-size="13" fill="#64748b">2295 cumulative kernel-verified proofs · merged, hourly</text>
<line x1="52" y1="272.0" x2="872" y2="272.0" stroke="#f1f5f9"/>
<text x="44" y="276.0" text-anchor="end" font-family="Inter, system-ui, sans-serif" font-size="11" fill="#94a3b8">0</text>
<line x1="52" y1="226.5" x2="872" y2="226.5" stroke="#f1f5f9"/>
<text x="44" y="230.5" text-anchor="end" font-family="Inter, system-ui, sans-serif" font-size="11" fill="#94a3b8">574</text>
<line x1="52" y1="181.0" x2="872" y2="181.0" stroke="#f1f5f9"/>
<text x="44" y="185.0" text-anchor="end" font-family="Inter, system-ui, sans-serif" font-size="11" fill="#94a3b8">1148</text>
<line x1="52" y1="135.5" x2="872" y2="135.5" stroke="#f1f5f9"/>
<text x="44" y="139.5" text-anchor="end" font-family="Inter, system-ui, sans-serif" font-size="11" fill="#94a3b8">1721</text>
<line x1="52" y1="90.0" x2="872" y2="90.0" stroke="#f1f5f9"/>
<text x="44" y="94.0" text-anchor="end" font-family="Inter, system-ui, sans-serif" font-size="11" fill="#94a3b8">2295</text>
<polygon points="52.0,272.0 52.0,271.9 55.0,271.8 90.9,271.0 93.9,270.7 96.9,270.7 105.9,270.6 123.8,270.5 162.7,270.4 165.7,269.7 168.7,269.6 177.7,269.5 180.7,269.4 183.7,269.3 186.7,269.1 192.7,269.0 195.6,268.6 204.6,268.3 216.6,268.1 219.6,267.9 222.6,267.7 246.5,267.6 252.5,267.6 267.5,267.5 270.5,267.4 273.5,267.2 285.4,267.2 288.4,266.7 291.4,266.3 294.4,265.3 297.4,265.1 318.4,265.0 327.3,264.9 333.3,264.9 336.3,264.8 339.3,264.4 342.3,264.3 345.3,264.2 348.3,264.0 351.3,263.8 363.2,263.4 369.2,263.3 381.2,263.2 384.2,262.8 387.2,262.7 390.2,262.6 396.2,262.5 399.2,260.9 402.1,259.3 405.1,258.8 408.1,258.4 411.1,258.2 414.1,257.8 417.1,257.2 420.1,256.9 423.1,256.6 426.1,256.5 432.1,256.2 435.1,255.6 438.1,254.9 441.1,254.3 444.0,253.9 450.0,253.8 456.0,253.7 459.0,253.1 462.0,252.7 465.0,251.6 468.0,251.0 471.0,250.4 474.0,249.7 477.0,249.0 480.0,248.3 482.9,247.5 485.9,246.6 488.9,245.8 491.9,245.1 494.9,244.6 497.9,244.1 500.9,243.5 503.9,243.1 506.9,242.7 509.9,242.3 512.9,242.2 515.9,242.0 521.9,241.9 524.8,240.4 527.8,239.2 530.8,239.0 533.8,238.9 539.8,238.8 542.8,238.5 554.8,238.5 560.8,238.3 569.7,238.2 572.7,236.4 575.7,234.6 578.7,234.2 581.7,232.7 584.7,231.6 587.7,230.9 590.7,230.5 593.7,229.8 596.7,229.5 599.7,229.3 602.7,229.0 605.6,228.9 623.6,227.6 626.6,226.0 629.6,225.8 632.6,225.5 635.6,225.4 656.5,225.4 683.5,223.7 686.5,222.4 689.4,220.9 692.4,218.7 695.4,218.3 698.4,217.6 701.4,216.3 704.4,215.4 707.4,213.2 710.4,210.1 713.4,207.0 716.4,203.3 719.4,199.5 722.4,196.2 725.4,194.1 728.4,191.7 731.3,188.0 734.3,184.9 737.3,182.9 740.3,180.7 743.3,177.7 746.3,175.8 749.3,173.9 752.3,172.2 755.3,171.0 758.3,169.3 761.3,168.3 764.3,167.2 767.3,166.2 770.2,163.4 773.2,161.1 776.2,159.8 779.2,159.4 782.2,158.7 785.2,157.5 788.2,156.5 791.2,154.6 794.2,153.4 797.2,152.3 800.2,152.1 803.2,151.6 806.2,150.7 809.2,148.4 812.1,144.7 815.1,140.8 818.1,136.9 821.1,133.8 824.1,130.0 827.1,126.1 830.1,122.0 833.1,118.3 836.1,115.6 839.1,113.5 842.1,111.0 845.1,108.6 848.1,107.1 851.1,105.1 854.0,103.7 857.0,101.7 860.0,98.9 863.0,95.6 866.0,92.8 869.0,90.3 872.0,90.0 872.0,272.0" fill="#e0f2fe" opacity="0.55"/>
<polyline points="52.0,271.9 55.0,271.8 90.9,271.0 93.9,270.7 96.9,270.7 105.9,270.6 123.8,270.5 162.7,270.4 165.7,269.7 168.7,269.6 177.7,269.5 180.7,269.4 183.7,269.3 186.7,269.1 192.7,269.0 195.6,268.6 204.6,268.3 216.6,268.1 219.6,267.9 222.6,267.7 246.5,267.6 252.5,267.6 267.5,267.5 270.5,267.4 273.5,267.2 285.4,267.2 288.4,266.7 291.4,266.3 294.4,265.3 297.4,265.1 318.4,265.0 327.3,264.9 333.3,264.9 336.3,264.8 339.3,264.4 342.3,264.3 345.3,264.2 348.3,264.0 351.3,263.8 363.2,263.4 369.2,263.3 381.2,263.2 384.2,262.8 387.2,262.7 390.2,262.6 396.2,262.5 399.2,260.9 402.1,259.3 405.1,258.8 408.1,258.4 411.1,258.2 414.1,257.8 417.1,257.2 420.1,256.9 423.1,256.6 426.1,256.5 432.1,256.2 435.1,255.6 438.1,254.9 441.1,254.3 444.0,253.9 450.0,253.8 456.0,253.7 459.0,253.1 462.0,252.7 465.0,251.6 468.0,251.0 471.0,250.4 474.0,249.7 477.0,249.0 480.0,248.3 482.9,247.5 485.9,246.6 488.9,245.8 491.9,245.1 494.9,244.6 497.9,244.1 500.9,243.5 503.9,243.1 506.9,242.7 509.9,242.3 512.9,242.2 515.9,242.0 521.9,241.9 524.8,240.4 527.8,239.2 530.8,239.0 533.8,238.9 539.8,238.8 542.8,238.5 554.8,238.5 560.8,238.3 569.7,238.2 572.7,236.4 575.7,234.6 578.7,234.2 581.7,232.7 584.7,231.6 587.7,230.9 590.7,230.5 593.7,229.8 596.7,229.5 599.7,229.3 602.7,229.0 605.6,228.9 623.6,227.6 626.6,226.0 629.6,225.8 632.6,225.5 635.6,225.4 656.5,225.4 683.5,223.7 686.5,222.4 689.4,220.9 692.4,218.7 695.4,218.3 698.4,217.6 701.4,216.3 704.4,215.4 707.4,213.2 710.4,210.1 713.4,207.0 716.4,203.3 719.4,199.5 722.4,196.2 725.4,194.1 728.4,191.7 731.3,188.0 734.3,184.9 737.3,182.9 740.3,180.7 743.3,177.7 746.3,175.8 749.3,173.9 752.3,172.2 755.3,171.0 758.3,169.3 761.3,168.3 764.3,167.2 767.3,166.2 770.2,163.4 773.2,161.1 776.2,159.8 779.2,159.4 782.2,158.7 785.2,157.5 788.2,156.5 791.2,154.6 794.2,153.4 797.2,152.3 800.2,152.1 803.2,151.6 806.2,150.7 809.2,148.4 812.1,144.7 815.1,140.8 818.1,136.9 821.1,133.8 824.1,130.0 827.1,126.1 830.1,122.0 833.1,118.3 836.1,115.6 839.1,113.5 842.1,111.0 845.1,108.6 848.1,107.1 851.1,105.1 854.0,103.7 857.0,101.7 860.0,98.9 863.0,95.6 866.0,92.8 869.0,90.3 872.0,90.0" fill="none" stroke="#38bdf8" stroke-width="2.5" stroke-linejoin="round" stroke-linecap="round"/>
<circle cx="872.0" cy="90.0" r="4" fill="#0ea5e9"/>
<text x="866.0" y="80.0" text-anchor="end" font-family="Inter, system-ui, sans-serif" font-size="13" font-weight="700" fill="#334155">2295</text>
<text x="52.0" y="294" text-anchor="middle" font-family="Inter, system-ui, sans-serif" font-size="11" fill="#94a3b8">Jun 10 05:00</text>
<text x="533.8" y="294" text-anchor="middle" font-family="Inter, system-ui, sans-serif" font-size="11" fill="#94a3b8">Jun 16 22:00</text>
<text x="872.0" y="294" text-anchor="middle" font-family="Inter, system-ui, sans-serif" font-size="11" fill="#94a3b8">Jun 21 15:00</text>
</svg>
