<svg xmlns="http://www.w3.org/2000/svg" width="900" height="320" viewBox="0 0 900 320" role="img" aria-labelledby="title desc">
<title id="title">unsorry proofs over time</title>
<desc id="desc">Cumulative kernel-verified proofs over time, by the hour each proof was merged.</desc>
<rect width="900" height="100%" rx="18" fill="#ffffff"/>
<rect x="0.5" y="0.5" width="899" height="319" rx="18" fill="none" stroke="#e2e8f0"/>
<text x="32" y="44" font-family="Inter, system-ui, sans-serif" font-size="28" font-weight="700" fill="#334155">unsorry — Proofs Over Time</text>
<text x="32" y="72" font-family="Inter, system-ui, sans-serif" font-size="13" fill="#64748b">2608 cumulative kernel-verified proofs · merged, hourly</text>
<line x1="52" y1="272.0" x2="872" y2="272.0" stroke="#f1f5f9"/>
<text x="44" y="276.0" text-anchor="end" font-family="Inter, system-ui, sans-serif" font-size="11" fill="#94a3b8">0</text>
<line x1="52" y1="226.5" x2="872" y2="226.5" stroke="#f1f5f9"/>
<text x="44" y="230.5" text-anchor="end" font-family="Inter, system-ui, sans-serif" font-size="11" fill="#94a3b8">652</text>
<line x1="52" y1="181.0" x2="872" y2="181.0" stroke="#f1f5f9"/>
<text x="44" y="185.0" text-anchor="end" font-family="Inter, system-ui, sans-serif" font-size="11" fill="#94a3b8">1304</text>
<line x1="52" y1="135.5" x2="872" y2="135.5" stroke="#f1f5f9"/>
<text x="44" y="139.5" text-anchor="end" font-family="Inter, system-ui, sans-serif" font-size="11" fill="#94a3b8">1956</text>
<line x1="52" y1="90.0" x2="872" y2="90.0" stroke="#f1f5f9"/>
<text x="44" y="94.0" text-anchor="end" font-family="Inter, system-ui, sans-serif" font-size="11" fill="#94a3b8">2608</text>
<polygon points="52.0,272.0 52.0,271.9 54.8,271.8 88.6,271.1 91.5,270.9 94.3,270.8 102.7,270.7 119.6,270.7 156.3,270.6 159.1,270.0 161.9,269.9 170.4,269.8 173.2,269.7 176.0,269.6 178.8,269.4 184.4,269.3 187.3,269.0 195.7,268.7 207.0,268.6 209.8,268.4 212.6,268.2 235.2,268.2 240.8,268.1 254.9,268.0 257.7,268.0 260.5,267.8 271.8,267.7 274.6,267.3 277.4,267.0 280.2,266.1 283.1,265.9 302.8,265.9 311.2,265.8 316.9,265.7 319.7,265.6 322.5,265.3 325.3,265.2 328.2,265.2 331.0,265.0 333.8,264.7 345.1,264.4 350.7,264.3 362.0,264.3 364.8,263.9 367.6,263.8 370.4,263.7 376.1,263.6 378.9,262.2 381.7,260.8 384.5,260.3 387.3,260.0 390.1,259.9 393.0,259.5 395.8,259.0 398.6,258.7 401.4,258.5 404.2,258.3 409.9,258.1 412.7,257.6 415.5,257.0 418.3,256.4 421.1,256.1 426.8,255.9 432.4,255.9 435.2,255.4 438.0,255.0 440.9,254.1 443.7,253.5 446.5,252.9 449.3,252.4 452.1,251.8 455.0,251.1 457.8,250.4 460.6,249.7 463.4,249.0 466.2,248.3 469.0,247.9 471.9,247.4 474.7,246.9 477.5,246.6 480.3,246.2 483.1,245.9 486.0,245.8 488.8,245.6 494.4,245.6 497.2,244.2 500.0,243.2 502.9,243.0 505.7,242.9 511.3,242.8 514.1,242.6 525.4,242.5 531.0,242.3 539.5,242.3 542.3,240.7 545.1,239.1 547.9,238.7 550.8,237.5 553.6,236.5 556.4,235.9 559.2,235.5 562.0,234.9 564.9,234.6 567.7,234.5 570.5,234.2 573.3,234.0 590.2,232.9 593.0,231.5 595.8,231.3 598.7,231.1 601.5,231.0 621.2,231.0 646.6,229.5 649.4,228.4 652.2,227.1 655.0,225.1 657.8,224.8 660.7,224.1 663.5,223.0 666.3,222.2 669.1,220.3 671.9,217.5 674.7,214.8 677.6,211.6 680.4,208.2 683.2,205.3 686.0,203.5 688.8,201.3 691.7,198.1 694.5,195.4 697.3,193.6 700.1,191.7 702.9,189.0 705.7,187.4 708.6,185.7 711.4,184.2 714.2,183.1 717.0,181.6 719.8,180.7 722.7,179.7 725.5,178.9 728.3,176.4 731.1,174.4 733.9,173.3 736.7,172.9 739.6,172.3 742.4,171.2 745.2,170.3 748.0,168.6 750.8,167.6 753.6,166.6 756.5,166.5 759.3,166.1 762.1,165.3 764.9,163.3 767.7,160.0 770.6,156.6 773.4,153.2 776.2,150.4 779.0,147.1 781.8,143.6 784.6,140.0 787.5,136.8 790.3,134.4 793.1,132.5 795.9,130.3 798.7,128.2 801.6,126.8 804.4,125.2 807.2,123.9 810.0,122.1 812.8,119.7 815.6,116.7 818.5,114.3 821.3,112.1 824.1,110.7 826.9,109.5 829.7,108.2 832.5,106.8 835.4,104.4 838.2,102.4 841.0,100.0 843.8,97.5 846.6,95.4 849.5,93.7 852.3,93.0 855.1,92.0 857.9,91.0 860.7,90.9 863.5,90.8 866.4,90.3 869.2,90.1 872.0,90.0 872.0,272.0" fill="#e0f2fe" opacity="0.55"/>
<polyline points="52.0,271.9 54.8,271.8 88.6,271.1 91.5,270.9 94.3,270.8 102.7,270.7 119.6,270.7 156.3,270.6 159.1,270.0 161.9,269.9 170.4,269.8 173.2,269.7 176.0,269.6 178.8,269.4 184.4,269.3 187.3,269.0 195.7,268.7 207.0,268.6 209.8,268.4 212.6,268.2 235.2,268.2 240.8,268.1 254.9,268.0 257.7,268.0 260.5,267.8 271.8,267.7 274.6,267.3 277.4,267.0 280.2,266.1 283.1,265.9 302.8,265.9 311.2,265.8 316.9,265.7 319.7,265.6 322.5,265.3 325.3,265.2 328.2,265.2 331.0,265.0 333.8,264.7 345.1,264.4 350.7,264.3 362.0,264.3 364.8,263.9 367.6,263.8 370.4,263.7 376.1,263.6 378.9,262.2 381.7,260.8 384.5,260.3 387.3,260.0 390.1,259.9 393.0,259.5 395.8,259.0 398.6,258.7 401.4,258.5 404.2,258.3 409.9,258.1 412.7,257.6 415.5,257.0 418.3,256.4 421.1,256.1 426.8,255.9 432.4,255.9 435.2,255.4 438.0,255.0 440.9,254.1 443.7,253.5 446.5,252.9 449.3,252.4 452.1,251.8 455.0,251.1 457.8,250.4 460.6,249.7 463.4,249.0 466.2,248.3 469.0,247.9 471.9,247.4 474.7,246.9 477.5,246.6 480.3,246.2 483.1,245.9 486.0,245.8 488.8,245.6 494.4,245.6 497.2,244.2 500.0,243.2 502.9,243.0 505.7,242.9 511.3,242.8 514.1,242.6 525.4,242.5 531.0,242.3 539.5,242.3 542.3,240.7 545.1,239.1 547.9,238.7 550.8,237.5 553.6,236.5 556.4,235.9 559.2,235.5 562.0,234.9 564.9,234.6 567.7,234.5 570.5,234.2 573.3,234.0 590.2,232.9 593.0,231.5 595.8,231.3 598.7,231.1 601.5,231.0 621.2,231.0 646.6,229.5 649.4,228.4 652.2,227.1 655.0,225.1 657.8,224.8 660.7,224.1 663.5,223.0 666.3,222.2 669.1,220.3 671.9,217.5 674.7,214.8 677.6,211.6 680.4,208.2 683.2,205.3 686.0,203.5 688.8,201.3 691.7,198.1 694.5,195.4 697.3,193.6 700.1,191.7 702.9,189.0 705.7,187.4 708.6,185.7 711.4,184.2 714.2,183.1 717.0,181.6 719.8,180.7 722.7,179.7 725.5,178.9 728.3,176.4 731.1,174.4 733.9,173.3 736.7,172.9 739.6,172.3 742.4,171.2 745.2,170.3 748.0,168.6 750.8,167.6 753.6,166.6 756.5,166.5 759.3,166.1 762.1,165.3 764.9,163.3 767.7,160.0 770.6,156.6 773.4,153.2 776.2,150.4 779.0,147.1 781.8,143.6 784.6,140.0 787.5,136.8 790.3,134.4 793.1,132.5 795.9,130.3 798.7,128.2 801.6,126.8 804.4,125.2 807.2,123.9 810.0,122.1 812.8,119.7 815.6,116.7 818.5,114.3 821.3,112.1 824.1,110.7 826.9,109.5 829.7,108.2 832.5,106.8 835.4,104.4 838.2,102.4 841.0,100.0 843.8,97.5 846.6,95.4 849.5,93.7 852.3,93.0 855.1,92.0 857.9,91.0 860.7,90.9 863.5,90.8 866.4,90.3 869.2,90.1 872.0,90.0" fill="none" stroke="#38bdf8" stroke-width="2.5" stroke-linejoin="round" stroke-linecap="round"/>
<circle cx="872.0" cy="90.0" r="4" fill="#0ea5e9"/>
<text x="866.0" y="80.0" text-anchor="end" font-family="Inter, system-ui, sans-serif" font-size="13" font-weight="700" fill="#334155">2608</text>
<text x="52.0" y="294" text-anchor="middle" font-family="Inter, system-ui, sans-serif" font-size="11" fill="#94a3b8">Jun 10 05:00</text>
<text x="550.8" y="294" text-anchor="middle" font-family="Inter, system-ui, sans-serif" font-size="11" fill="#94a3b8">Jun 17 14:00</text>
<text x="872.0" y="294" text-anchor="middle" font-family="Inter, system-ui, sans-serif" font-size="11" fill="#94a3b8">Jun 22 08:00</text>
</svg>
