<svg xmlns="http://www.w3.org/2000/svg" width="900" height="320" viewBox="0 0 900 320" role="img" aria-labelledby="title desc">
<title id="title">Unsorry proofs over time</title>
<desc id="desc">Cumulative kernel-verified proofs over time, by the hour each proof was merged.</desc>
<rect width="900" height="100%" rx="18" fill="#ffffff"/>
<rect x="0.5" y="0.5" width="899" height="319" rx="18" fill="none" stroke="#e2e8f0"/>
<text x="32" y="44" font-family="Inter, system-ui, sans-serif" font-size="28" font-weight="700" fill="#334155">Unsorry — Proofs Over Time</text>
<text x="32" y="72" font-family="Inter, system-ui, sans-serif" font-size="13" fill="#64748b">2302 cumulative kernel-verified proofs · merged, hourly</text>
<line x1="52" y1="272.0" x2="872" y2="272.0" stroke="#f1f5f9"/>
<text x="44" y="276.0" text-anchor="end" font-family="Inter, system-ui, sans-serif" font-size="11" fill="#94a3b8">0</text>
<line x1="52" y1="226.5" x2="872" y2="226.5" stroke="#f1f5f9"/>
<text x="44" y="230.5" text-anchor="end" font-family="Inter, system-ui, sans-serif" font-size="11" fill="#94a3b8">576</text>
<line x1="52" y1="181.0" x2="872" y2="181.0" stroke="#f1f5f9"/>
<text x="44" y="185.0" text-anchor="end" font-family="Inter, system-ui, sans-serif" font-size="11" fill="#94a3b8">1151</text>
<line x1="52" y1="135.5" x2="872" y2="135.5" stroke="#f1f5f9"/>
<text x="44" y="139.5" text-anchor="end" font-family="Inter, system-ui, sans-serif" font-size="11" fill="#94a3b8">1726</text>
<line x1="52" y1="90.0" x2="872" y2="90.0" stroke="#f1f5f9"/>
<text x="44" y="94.0" text-anchor="end" font-family="Inter, system-ui, sans-serif" font-size="11" fill="#94a3b8">2302</text>
<polygon points="52.0,272.0 52.0,271.9 55.0,271.8 90.9,271.0 93.9,270.7 96.9,270.7 105.9,270.6 123.8,270.5 162.7,270.4 165.7,269.7 168.7,269.6 177.7,269.5 180.7,269.4 183.7,269.3 186.7,269.1 192.7,269.0 195.6,268.6 204.6,268.3 216.6,268.1 219.6,267.9 222.6,267.7 246.5,267.7 252.5,267.6 267.5,267.5 270.5,267.4 273.5,267.3 285.4,267.2 288.4,266.7 291.4,266.3 294.4,265.3 297.4,265.1 318.4,265.0 327.3,265.0 333.3,264.9 336.3,264.8 339.3,264.4 342.3,264.3 345.3,264.3 348.3,264.0 351.3,263.8 363.2,263.4 369.2,263.3 381.2,263.2 384.2,262.8 387.2,262.7 390.2,262.6 396.2,262.5 399.2,260.9 402.1,259.4 405.1,258.8 408.1,258.4 411.1,258.2 414.1,257.8 417.1,257.3 420.1,256.9 423.1,256.7 426.1,256.5 432.1,256.3 435.1,255.6 438.1,255.0 441.1,254.4 444.0,254.0 450.0,253.8 456.0,253.7 459.0,253.2 462.0,252.8 465.0,251.7 468.0,251.0 471.0,250.4 474.0,249.8 477.0,249.1 480.0,248.4 482.9,247.6 485.9,246.7 488.9,245.9 491.9,245.2 494.9,244.7 497.9,244.2 500.9,243.5 503.9,243.2 506.9,242.8 509.9,242.4 512.9,242.3 515.9,242.1 521.9,242.0 524.8,240.5 527.8,239.3 530.8,239.1 533.8,239.0 539.8,238.9 542.8,238.6 554.8,238.6 560.8,238.4 569.7,238.3 572.7,236.5 575.7,234.8 578.7,234.3 581.7,232.9 584.7,231.8 587.7,231.0 590.7,230.7 593.7,229.9 596.7,229.6 599.7,229.5 602.7,229.1 605.6,229.0 623.6,227.7 626.6,226.1 629.6,225.9 632.6,225.7 635.6,225.6 656.5,225.5 683.5,223.9 686.5,222.6 689.4,221.1 692.4,218.9 695.4,218.5 698.4,217.8 701.4,216.5 704.4,215.5 707.4,213.4 710.4,210.3 713.4,207.2 716.4,203.5 719.4,199.7 722.4,196.4 725.4,194.4 728.4,191.9 731.3,188.3 734.3,185.2 737.3,183.1 740.3,181.0 743.3,178.0 746.3,176.1 749.3,174.2 752.3,172.5 755.3,171.3 758.3,169.6 761.3,168.6 764.3,167.5 767.3,166.5 770.2,163.7 773.2,161.4 776.2,160.1 779.2,159.7 782.2,159.0 785.2,157.8 788.2,156.8 791.2,154.9 794.2,153.7 797.2,152.6 800.2,152.5 803.2,152.0 806.2,151.1 809.2,148.8 812.1,145.1 815.1,141.2 818.1,137.4 821.1,134.2 824.1,130.5 827.1,126.5 830.1,122.5 833.1,118.8 836.1,116.1 839.1,114.0 842.1,111.5 845.1,109.1 848.1,107.6 851.1,105.7 854.0,104.2 857.0,102.2 860.0,99.4 863.0,96.1 866.0,93.3 869.0,90.9 872.0,90.0 872.0,272.0" fill="#e0f2fe" opacity="0.55"/>
<polyline points="52.0,271.9 55.0,271.8 90.9,271.0 93.9,270.7 96.9,270.7 105.9,270.6 123.8,270.5 162.7,270.4 165.7,269.7 168.7,269.6 177.7,269.5 180.7,269.4 183.7,269.3 186.7,269.1 192.7,269.0 195.6,268.6 204.6,268.3 216.6,268.1 219.6,267.9 222.6,267.7 246.5,267.7 252.5,267.6 267.5,267.5 270.5,267.4 273.5,267.3 285.4,267.2 288.4,266.7 291.4,266.3 294.4,265.3 297.4,265.1 318.4,265.0 327.3,265.0 333.3,264.9 336.3,264.8 339.3,264.4 342.3,264.3 345.3,264.3 348.3,264.0 351.3,263.8 363.2,263.4 369.2,263.3 381.2,263.2 384.2,262.8 387.2,262.7 390.2,262.6 396.2,262.5 399.2,260.9 402.1,259.4 405.1,258.8 408.1,258.4 411.1,258.2 414.1,257.8 417.1,257.3 420.1,256.9 423.1,256.7 426.1,256.5 432.1,256.3 435.1,255.6 438.1,255.0 441.1,254.4 444.0,254.0 450.0,253.8 456.0,253.7 459.0,253.2 462.0,252.8 465.0,251.7 468.0,251.0 471.0,250.4 474.0,249.8 477.0,249.1 480.0,248.4 482.9,247.6 485.9,246.7 488.9,245.9 491.9,245.2 494.9,244.7 497.9,244.2 500.9,243.5 503.9,243.2 506.9,242.8 509.9,242.4 512.9,242.3 515.9,242.1 521.9,242.0 524.8,240.5 527.8,239.3 530.8,239.1 533.8,239.0 539.8,238.9 542.8,238.6 554.8,238.6 560.8,238.4 569.7,238.3 572.7,236.5 575.7,234.8 578.7,234.3 581.7,232.9 584.7,231.8 587.7,231.0 590.7,230.7 593.7,229.9 596.7,229.6 599.7,229.5 602.7,229.1 605.6,229.0 623.6,227.7 626.6,226.1 629.6,225.9 632.6,225.7 635.6,225.6 656.5,225.5 683.5,223.9 686.5,222.6 689.4,221.1 692.4,218.9 695.4,218.5 698.4,217.8 701.4,216.5 704.4,215.5 707.4,213.4 710.4,210.3 713.4,207.2 716.4,203.5 719.4,199.7 722.4,196.4 725.4,194.4 728.4,191.9 731.3,188.3 734.3,185.2 737.3,183.1 740.3,181.0 743.3,178.0 746.3,176.1 749.3,174.2 752.3,172.5 755.3,171.3 758.3,169.6 761.3,168.6 764.3,167.5 767.3,166.5 770.2,163.7 773.2,161.4 776.2,160.1 779.2,159.7 782.2,159.0 785.2,157.8 788.2,156.8 791.2,154.9 794.2,153.7 797.2,152.6 800.2,152.5 803.2,152.0 806.2,151.1 809.2,148.8 812.1,145.1 815.1,141.2 818.1,137.4 821.1,134.2 824.1,130.5 827.1,126.5 830.1,122.5 833.1,118.8 836.1,116.1 839.1,114.0 842.1,111.5 845.1,109.1 848.1,107.6 851.1,105.7 854.0,104.2 857.0,102.2 860.0,99.4 863.0,96.1 866.0,93.3 869.0,90.9 872.0,90.0" fill="none" stroke="#38bdf8" stroke-width="2.5" stroke-linejoin="round" stroke-linecap="round"/>
<circle cx="872.0" cy="90.0" r="4" fill="#0ea5e9"/>
<text x="866.0" y="80.0" text-anchor="end" font-family="Inter, system-ui, sans-serif" font-size="13" font-weight="700" fill="#334155">2302</text>
<text x="52.0" y="294" text-anchor="middle" font-family="Inter, system-ui, sans-serif" font-size="11" fill="#94a3b8">Jun 10 05:00</text>
<text x="533.8" y="294" text-anchor="middle" font-family="Inter, system-ui, sans-serif" font-size="11" fill="#94a3b8">Jun 16 22:00</text>
<text x="872.0" y="294" text-anchor="middle" font-family="Inter, system-ui, sans-serif" font-size="11" fill="#94a3b8">Jun 21 15:00</text>
</svg>
