<svg xmlns="http://www.w3.org/2000/svg" width="900" height="320" viewBox="0 0 900 320" role="img" aria-labelledby="title desc">
<title id="title">unsorry proofs over time</title>
<desc id="desc">Cumulative kernel-verified proofs over time, by the hour each proof was merged.</desc>
<rect width="900" height="100%" rx="18" fill="#ffffff"/>
<rect x="0.5" y="0.5" width="899" height="319" rx="18" fill="none" stroke="#e2e8f0"/>
<text x="32" y="44" font-family="Inter, system-ui, sans-serif" font-size="28" font-weight="700" fill="#334155">unsorry — Proofs Over Time</text>
<text x="32" y="72" font-family="Inter, system-ui, sans-serif" font-size="13" fill="#64748b">2836 cumulative kernel-verified proofs · merged, hourly</text>
<line x1="52" y1="272.0" x2="872" y2="272.0" stroke="#f1f5f9"/>
<text x="44" y="276.0" text-anchor="end" font-family="Inter, system-ui, sans-serif" font-size="11" fill="#94a3b8">0</text>
<line x1="52" y1="226.5" x2="872" y2="226.5" stroke="#f1f5f9"/>
<text x="44" y="230.5" text-anchor="end" font-family="Inter, system-ui, sans-serif" font-size="11" fill="#94a3b8">709</text>
<line x1="52" y1="181.0" x2="872" y2="181.0" stroke="#f1f5f9"/>
<text x="44" y="185.0" text-anchor="end" font-family="Inter, system-ui, sans-serif" font-size="11" fill="#94a3b8">1418</text>
<line x1="52" y1="135.5" x2="872" y2="135.5" stroke="#f1f5f9"/>
<text x="44" y="139.5" text-anchor="end" font-family="Inter, system-ui, sans-serif" font-size="11" fill="#94a3b8">2127</text>
<line x1="52" y1="90.0" x2="872" y2="90.0" stroke="#f1f5f9"/>
<text x="44" y="94.0" text-anchor="end" font-family="Inter, system-ui, sans-serif" font-size="11" fill="#94a3b8">2836</text>
<polygon points="52.0,272.0 52.0,271.9 54.7,271.8 87.0,271.2 89.6,271.0 92.3,270.9 100.4,270.8 116.5,270.8 151.5,270.7 154.2,270.1 156.9,270.1 164.9,269.9 167.6,269.9 170.3,269.8 173.0,269.6 178.4,269.6 181.0,269.2 189.1,269.0 199.9,268.9 202.6,268.7 205.2,268.5 226.8,268.5 232.1,268.4 245.6,268.3 248.3,268.3 251.0,268.1 261.7,268.1 264.4,267.7 267.1,267.4 269.8,266.5 272.5,266.4 291.3,266.4 299.3,266.3 304.7,266.2 307.4,266.2 310.1,265.8 312.8,265.8 315.5,265.7 318.2,265.5 320.9,265.3 331.6,265.0 337.0,264.9 347.7,264.9 350.4,264.6 353.1,264.5 355.8,264.4 361.2,264.3 363.9,263.0 366.6,261.7 369.2,261.3 371.9,261.0 374.6,260.8 377.3,260.5 380.0,260.1 382.7,259.7 385.4,259.6 388.1,259.4 393.4,259.2 396.1,258.7 398.8,258.2 401.5,257.7 404.2,257.4 409.6,257.2 415.0,257.2 417.6,256.7 420.3,256.4 423.0,255.5 425.7,255.0 428.4,254.5 431.1,254.0 433.8,253.4 436.5,252.8 439.1,252.2 441.8,251.5 444.5,250.8 447.2,250.2 449.9,249.9 452.6,249.4 455.3,248.9 458.0,248.6 460.7,248.3 463.3,248.0 466.0,247.9 468.7,247.7 474.1,247.7 476.8,246.4 479.5,245.5 482.2,245.3 484.9,245.2 490.2,245.1 492.9,244.9 503.7,244.9 509.0,244.7 517.1,244.7 519.8,243.2 522.5,241.8 525.2,241.4 527.9,240.2 530.6,239.3 533.2,238.8 535.9,238.4 538.6,237.9 541.3,237.6 544.0,237.5 546.7,237.2 549.4,237.1 565.5,236.1 568.2,234.8 570.9,234.6 573.6,234.4 576.3,234.3 595.1,234.3 619.3,232.9 622.0,231.9 624.7,230.7 627.3,228.9 630.0,228.6 632.7,228.0 635.4,226.9 638.1,226.2 640.8,224.4 643.5,221.9 646.2,219.4 648.9,216.4 651.5,213.3 654.2,210.6 656.9,209.0 659.6,207.0 662.3,204.0 665.0,201.5 667.7,199.9 670.4,198.1 673.0,195.7 675.7,194.2 678.4,192.6 681.1,191.3 683.8,190.2 686.5,188.9 689.2,188.1 691.9,187.2 694.6,186.4 697.2,184.1 699.9,182.2 702.6,181.2 705.3,180.9 708.0,180.3 710.7,179.3 713.4,178.5 716.1,177.0 718.8,176.0 721.4,175.1 724.1,175.0 726.8,174.6 729.5,173.9 732.2,172.0 734.9,169.0 737.6,165.9 740.3,162.7 743.0,160.1 745.6,157.1 748.3,153.9 751.0,150.6 753.7,147.6 756.4,145.4 759.1,143.7 761.8,141.7 764.5,139.8 767.1,138.5 769.8,137.0 772.5,135.8 775.2,134.2 777.9,131.9 780.6,129.2 783.3,127.0 786.0,125.0 788.7,123.7 791.3,122.5 794.0,121.4 796.7,120.1 799.4,117.9 802.1,116.1 804.8,113.8 807.5,111.5 810.2,109.6 812.9,108.0 815.5,107.4 818.2,106.5 820.9,105.6 823.6,105.5 826.3,105.3 829.0,104.9 831.7,104.7 834.4,104.6 837.0,104.3 839.7,104.2 847.8,104.1 850.5,104.1 853.2,103.7 855.9,101.0 858.6,98.8 861.2,96.8 863.9,94.6 866.6,92.6 869.3,90.6 872.0,90.0 872.0,272.0" fill="#e0f2fe" opacity="0.55"/>
<polyline points="52.0,271.9 54.7,271.8 87.0,271.2 89.6,271.0 92.3,270.9 100.4,270.8 116.5,270.8 151.5,270.7 154.2,270.1 156.9,270.1 164.9,269.9 167.6,269.9 170.3,269.8 173.0,269.6 178.4,269.6 181.0,269.2 189.1,269.0 199.9,268.9 202.6,268.7 205.2,268.5 226.8,268.5 232.1,268.4 245.6,268.3 248.3,268.3 251.0,268.1 261.7,268.1 264.4,267.7 267.1,267.4 269.8,266.5 272.5,266.4 291.3,266.4 299.3,266.3 304.7,266.2 307.4,266.2 310.1,265.8 312.8,265.8 315.5,265.7 318.2,265.5 320.9,265.3 331.6,265.0 337.0,264.9 347.7,264.9 350.4,264.6 353.1,264.5 355.8,264.4 361.2,264.3 363.9,263.0 366.6,261.7 369.2,261.3 371.9,261.0 374.6,260.8 377.3,260.5 380.0,260.1 382.7,259.7 385.4,259.6 388.1,259.4 393.4,259.2 396.1,258.7 398.8,258.2 401.5,257.7 404.2,257.4 409.6,257.2 415.0,257.2 417.6,256.7 420.3,256.4 423.0,255.5 425.7,255.0 428.4,254.5 431.1,254.0 433.8,253.4 436.5,252.8 439.1,252.2 441.8,251.5 444.5,250.8 447.2,250.2 449.9,249.9 452.6,249.4 455.3,248.9 458.0,248.6 460.7,248.3 463.3,248.0 466.0,247.9 468.7,247.7 474.1,247.7 476.8,246.4 479.5,245.5 482.2,245.3 484.9,245.2 490.2,245.1 492.9,244.9 503.7,244.9 509.0,244.7 517.1,244.7 519.8,243.2 522.5,241.8 525.2,241.4 527.9,240.2 530.6,239.3 533.2,238.8 535.9,238.4 538.6,237.9 541.3,237.6 544.0,237.5 546.7,237.2 549.4,237.1 565.5,236.1 568.2,234.8 570.9,234.6 573.6,234.4 576.3,234.3 595.1,234.3 619.3,232.9 622.0,231.9 624.7,230.7 627.3,228.9 630.0,228.6 632.7,228.0 635.4,226.9 638.1,226.2 640.8,224.4 643.5,221.9 646.2,219.4 648.9,216.4 651.5,213.3 654.2,210.6 656.9,209.0 659.6,207.0 662.3,204.0 665.0,201.5 667.7,199.9 670.4,198.1 673.0,195.7 675.7,194.2 678.4,192.6 681.1,191.3 683.8,190.2 686.5,188.9 689.2,188.1 691.9,187.2 694.6,186.4 697.2,184.1 699.9,182.2 702.6,181.2 705.3,180.9 708.0,180.3 710.7,179.3 713.4,178.5 716.1,177.0 718.8,176.0 721.4,175.1 724.1,175.0 726.8,174.6 729.5,173.9 732.2,172.0 734.9,169.0 737.6,165.9 740.3,162.7 743.0,160.1 745.6,157.1 748.3,153.9 751.0,150.6 753.7,147.6 756.4,145.4 759.1,143.7 761.8,141.7 764.5,139.8 767.1,138.5 769.8,137.0 772.5,135.8 775.2,134.2 777.9,131.9 780.6,129.2 783.3,127.0 786.0,125.0 788.7,123.7 791.3,122.5 794.0,121.4 796.7,120.1 799.4,117.9 802.1,116.1 804.8,113.8 807.5,111.5 810.2,109.6 812.9,108.0 815.5,107.4 818.2,106.5 820.9,105.6 823.6,105.5 826.3,105.3 829.0,104.9 831.7,104.7 834.4,104.6 837.0,104.3 839.7,104.2 847.8,104.1 850.5,104.1 853.2,103.7 855.9,101.0 858.6,98.8 861.2,96.8 863.9,94.6 866.6,92.6 869.3,90.6 872.0,90.0" fill="none" stroke="#38bdf8" stroke-width="2.5" stroke-linejoin="round" stroke-linecap="round"/>
<circle cx="872.0" cy="90.0" r="4" fill="#0ea5e9"/>
<text x="866.0" y="80.0" text-anchor="end" font-family="Inter, system-ui, sans-serif" font-size="13" font-weight="700" fill="#334155">2836</text>
<text x="52.0" y="294" text-anchor="middle" font-family="Inter, system-ui, sans-serif" font-size="11" fill="#94a3b8">Jun 10 05:00</text>
<text x="544.0" y="294" text-anchor="middle" font-family="Inter, system-ui, sans-serif" font-size="11" fill="#94a3b8">Jun 17 20:00</text>
<text x="872.0" y="294" text-anchor="middle" font-family="Inter, system-ui, sans-serif" font-size="11" fill="#94a3b8">Jun 22 22:00</text>
</svg>
