<svg xmlns="http://www.w3.org/2000/svg" width="900" height="320" viewBox="0 0 900 320" role="img" aria-labelledby="title desc">
<title id="title">Unsorry proofs over time</title>
<desc id="desc">Cumulative kernel-verified proofs over time, by the hour each proof was merged.</desc>
<rect width="900" height="100%" rx="18" fill="#ffffff"/>
<rect x="0.5" y="0.5" width="899" height="319" rx="18" fill="none" stroke="#e2e8f0"/>
<text x="32" y="44" font-family="Inter, system-ui, sans-serif" font-size="28" font-weight="700" fill="#334155">Unsorry — Proofs Over Time</text>
<text x="32" y="72" font-family="Inter, system-ui, sans-serif" font-size="13" fill="#64748b">2330 cumulative kernel-verified proofs · merged, hourly</text>
<line x1="52" y1="272.0" x2="872" y2="272.0" stroke="#f1f5f9"/>
<text x="44" y="276.0" text-anchor="end" font-family="Inter, system-ui, sans-serif" font-size="11" fill="#94a3b8">0</text>
<line x1="52" y1="226.5" x2="872" y2="226.5" stroke="#f1f5f9"/>
<text x="44" y="230.5" text-anchor="end" font-family="Inter, system-ui, sans-serif" font-size="11" fill="#94a3b8">582</text>
<line x1="52" y1="181.0" x2="872" y2="181.0" stroke="#f1f5f9"/>
<text x="44" y="185.0" text-anchor="end" font-family="Inter, system-ui, sans-serif" font-size="11" fill="#94a3b8">1165</text>
<line x1="52" y1="135.5" x2="872" y2="135.5" stroke="#f1f5f9"/>
<text x="44" y="139.5" text-anchor="end" font-family="Inter, system-ui, sans-serif" font-size="11" fill="#94a3b8">1748</text>
<line x1="52" y1="90.0" x2="872" y2="90.0" stroke="#f1f5f9"/>
<text x="44" y="94.0" text-anchor="end" font-family="Inter, system-ui, sans-serif" font-size="11" fill="#94a3b8">2330</text>
<polygon points="52.0,272.0 52.0,271.9 55.0,271.8 90.6,271.0 93.6,270.8 96.6,270.7 105.5,270.6 123.3,270.5 161.9,270.4 164.9,269.7 167.9,269.7 176.8,269.5 179.8,269.4 182.7,269.3 185.7,269.1 191.6,269.0 194.6,268.6 203.5,268.3 215.4,268.2 218.4,267.9 221.3,267.8 245.1,267.7 251.1,267.6 265.9,267.5 268.9,267.5 271.9,267.3 283.7,267.2 286.7,266.8 289.7,266.4 292.7,265.4 295.6,265.2 316.4,265.1 325.3,265.0 331.3,265.0 334.2,264.9 337.2,264.5 340.2,264.4 343.2,264.3 346.1,264.1 349.1,263.9 361.0,263.5 366.9,263.4 378.8,263.3 381.8,262.9 384.8,262.9 387.7,262.7 393.7,262.6 396.6,261.1 399.6,259.5 402.6,259.0 405.6,258.6 408.5,258.4 411.5,258.0 414.5,257.5 417.4,257.1 420.4,256.8 423.4,256.7 429.3,256.5 432.3,255.8 435.3,255.2 438.2,254.6 441.2,254.2 447.1,254.0 453.1,254.0 456.1,253.4 459.0,253.0 462.0,251.9 465.0,251.3 467.9,250.7 470.9,250.1 473.9,249.3 476.9,248.6 479.8,247.9 482.8,247.0 485.8,246.2 488.7,245.5 491.7,245.1 494.7,244.5 497.7,243.9 500.6,243.6 503.6,243.2 506.6,242.8 509.5,242.6 512.5,242.5 518.4,242.4 521.4,240.8 524.4,239.7 527.4,239.5 530.3,239.4 536.3,239.3 539.2,239.0 551.1,239.0 557.1,238.8 566.0,238.7 569.0,236.9 571.9,235.2 574.9,234.7 577.9,233.3 580.8,232.2 583.8,231.5 586.8,231.1 589.8,230.4 592.7,230.1 595.7,230.0 598.7,229.7 601.6,229.5 619.5,228.3 622.4,226.7 625.4,226.5 628.4,226.2 631.3,226.1 652.1,226.1 678.9,224.4 681.9,223.2 684.8,221.7 687.8,219.5 690.8,219.1 693.7,218.4 696.7,217.2 699.7,216.2 702.7,214.1 705.6,211.0 708.6,207.9 711.6,204.4 714.5,200.6 717.5,197.3 720.5,195.3 723.4,192.9 726.4,189.3 729.4,186.2 732.4,184.2 735.3,182.1 738.3,179.1 741.3,177.3 744.2,175.4 747.2,173.7 750.2,172.5 753.2,170.8 756.1,169.8 759.1,168.7 762.1,167.8 765.0,165.0 768.0,162.7 771.0,161.5 774.0,161.1 776.9,160.4 779.9,159.2 782.9,158.2 785.8,156.3 788.8,155.1 791.8,154.1 794.8,153.9 797.7,153.4 800.7,152.6 803.7,150.3 806.6,146.6 809.6,142.8 812.6,139.0 815.6,135.9 818.5,132.2 821.5,128.3 824.5,124.3 827.4,120.6 830.4,118.0 833.4,115.9 836.3,113.4 839.3,111.1 842.3,109.5 845.3,107.7 848.2,106.2 851.2,104.2 854.2,101.5 857.1,98.2 860.1,95.5 863.1,93.0 866.1,91.5 869.0,90.1 872.0,90.0 872.0,272.0" fill="#e0f2fe" opacity="0.55"/>
<polyline points="52.0,271.9 55.0,271.8 90.6,271.0 93.6,270.8 96.6,270.7 105.5,270.6 123.3,270.5 161.9,270.4 164.9,269.7 167.9,269.7 176.8,269.5 179.8,269.4 182.7,269.3 185.7,269.1 191.6,269.0 194.6,268.6 203.5,268.3 215.4,268.2 218.4,267.9 221.3,267.8 245.1,267.7 251.1,267.6 265.9,267.5 268.9,267.5 271.9,267.3 283.7,267.2 286.7,266.8 289.7,266.4 292.7,265.4 295.6,265.2 316.4,265.1 325.3,265.0 331.3,265.0 334.2,264.9 337.2,264.5 340.2,264.4 343.2,264.3 346.1,264.1 349.1,263.9 361.0,263.5 366.9,263.4 378.8,263.3 381.8,262.9 384.8,262.9 387.7,262.7 393.7,262.6 396.6,261.1 399.6,259.5 402.6,259.0 405.6,258.6 408.5,258.4 411.5,258.0 414.5,257.5 417.4,257.1 420.4,256.8 423.4,256.7 429.3,256.5 432.3,255.8 435.3,255.2 438.2,254.6 441.2,254.2 447.1,254.0 453.1,254.0 456.1,253.4 459.0,253.0 462.0,251.9 465.0,251.3 467.9,250.7 470.9,250.1 473.9,249.3 476.9,248.6 479.8,247.9 482.8,247.0 485.8,246.2 488.7,245.5 491.7,245.1 494.7,244.5 497.7,243.9 500.6,243.6 503.6,243.2 506.6,242.8 509.5,242.6 512.5,242.5 518.4,242.4 521.4,240.8 524.4,239.7 527.4,239.5 530.3,239.4 536.3,239.3 539.2,239.0 551.1,239.0 557.1,238.8 566.0,238.7 569.0,236.9 571.9,235.2 574.9,234.7 577.9,233.3 580.8,232.2 583.8,231.5 586.8,231.1 589.8,230.4 592.7,230.1 595.7,230.0 598.7,229.7 601.6,229.5 619.5,228.3 622.4,226.7 625.4,226.5 628.4,226.2 631.3,226.1 652.1,226.1 678.9,224.4 681.9,223.2 684.8,221.7 687.8,219.5 690.8,219.1 693.7,218.4 696.7,217.2 699.7,216.2 702.7,214.1 705.6,211.0 708.6,207.9 711.6,204.4 714.5,200.6 717.5,197.3 720.5,195.3 723.4,192.9 726.4,189.3 729.4,186.2 732.4,184.2 735.3,182.1 738.3,179.1 741.3,177.3 744.2,175.4 747.2,173.7 750.2,172.5 753.2,170.8 756.1,169.8 759.1,168.7 762.1,167.8 765.0,165.0 768.0,162.7 771.0,161.5 774.0,161.1 776.9,160.4 779.9,159.2 782.9,158.2 785.8,156.3 788.8,155.1 791.8,154.1 794.8,153.9 797.7,153.4 800.7,152.6 803.7,150.3 806.6,146.6 809.6,142.8 812.6,139.0 815.6,135.9 818.5,132.2 821.5,128.3 824.5,124.3 827.4,120.6 830.4,118.0 833.4,115.9 836.3,113.4 839.3,111.1 842.3,109.5 845.3,107.7 848.2,106.2 851.2,104.2 854.2,101.5 857.1,98.2 860.1,95.5 863.1,93.0 866.1,91.5 869.0,90.1 872.0,90.0" fill="none" stroke="#38bdf8" stroke-width="2.5" stroke-linejoin="round" stroke-linecap="round"/>
<circle cx="872.0" cy="90.0" r="4" fill="#0ea5e9"/>
<text x="866.0" y="80.0" text-anchor="end" font-family="Inter, system-ui, sans-serif" font-size="13" font-weight="700" fill="#334155">2330</text>
<text x="52.0" y="294" text-anchor="middle" font-family="Inter, system-ui, sans-serif" font-size="11" fill="#94a3b8">Jun 10 05:00</text>
<text x="536.3" y="294" text-anchor="middle" font-family="Inter, system-ui, sans-serif" font-size="11" fill="#94a3b8">Jun 17 00:00</text>
<text x="872.0" y="294" text-anchor="middle" font-family="Inter, system-ui, sans-serif" font-size="11" fill="#94a3b8">Jun 21 17:00</text>
</svg>
