<svg xmlns="http://www.w3.org/2000/svg" width="900" height="320" viewBox="0 0 900 320" role="img" aria-labelledby="title desc">
<title id="title">Unsorry proofs over time</title>
<desc id="desc">Cumulative kernel-verified proofs over time, by the hour each proof was merged.</desc>
<rect width="900" height="100%" rx="18" fill="#ffffff"/>
<rect x="0.5" y="0.5" width="899" height="319" rx="18" fill="none" stroke="#e2e8f0"/>
<text x="32" y="44" font-family="Inter, system-ui, sans-serif" font-size="28" font-weight="700" fill="#334155">Unsorry — Proofs Over Time</text>
<text x="32" y="72" font-family="Inter, system-ui, sans-serif" font-size="13" fill="#64748b">2080 cumulative kernel-verified proofs · merged, hourly</text>
<line x1="52" y1="272.0" x2="872" y2="272.0" stroke="#f1f5f9"/>
<text x="44" y="276.0" text-anchor="end" font-family="Inter, system-ui, sans-serif" font-size="11" fill="#94a3b8">0</text>
<line x1="52" y1="226.5" x2="872" y2="226.5" stroke="#f1f5f9"/>
<text x="44" y="230.5" text-anchor="end" font-family="Inter, system-ui, sans-serif" font-size="11" fill="#94a3b8">520</text>
<line x1="52" y1="181.0" x2="872" y2="181.0" stroke="#f1f5f9"/>
<text x="44" y="185.0" text-anchor="end" font-family="Inter, system-ui, sans-serif" font-size="11" fill="#94a3b8">1040</text>
<line x1="52" y1="135.5" x2="872" y2="135.5" stroke="#f1f5f9"/>
<text x="44" y="139.5" text-anchor="end" font-family="Inter, system-ui, sans-serif" font-size="11" fill="#94a3b8">1560</text>
<line x1="52" y1="90.0" x2="872" y2="90.0" stroke="#f1f5f9"/>
<text x="44" y="94.0" text-anchor="end" font-family="Inter, system-ui, sans-serif" font-size="11" fill="#94a3b8">2080</text>
<polygon points="52.0,272.0 52.0,271.9 55.1,271.7 92.1,270.9 95.2,270.6 98.2,270.5 107.5,270.4 126.0,270.3 166.1,270.2 169.1,269.5 172.2,269.4 181.5,269.2 184.6,269.1 187.6,269.0 190.7,268.8 196.9,268.7 200.0,268.2 209.2,267.9 221.5,267.7 224.6,267.4 227.7,267.3 252.4,267.2 258.5,267.1 274.0,267.0 277.0,266.9 280.1,266.8 292.5,266.7 295.5,266.1 298.6,265.7 301.7,264.6 304.8,264.4 326.4,264.3 335.6,264.2 341.8,264.1 344.9,264.0 347.9,263.6 351.0,263.5 354.1,263.4 357.2,263.2 360.3,262.9 372.6,262.5 378.8,262.4 391.1,262.3 394.2,261.9 397.3,261.8 400.3,261.6 406.5,261.5 409.6,259.8 412.7,258.0 415.8,257.4 418.8,256.9 421.9,256.8 425.0,256.3 428.1,255.7 431.2,255.3 434.3,255.0 437.3,254.8 443.5,254.6 446.6,253.9 449.7,253.2 452.8,252.5 455.8,252.1 462.0,251.9 468.2,251.8 471.2,251.2 474.3,250.7 477.4,249.5 480.5,248.8 483.6,248.1 486.7,247.4 489.7,246.6 492.8,245.8 495.9,245.0 499.0,244.0 502.1,243.1 505.2,242.3 508.2,241.8 511.3,241.2 514.4,240.5 517.5,240.2 520.6,239.7 523.7,239.3 526.7,239.1 529.8,238.9 536.0,238.8 539.1,237.1 542.2,235.9 545.2,235.6 548.3,235.5 554.5,235.3 557.6,235.1 569.9,235.0 576.1,234.8 585.3,234.7 588.4,232.7 591.5,230.8 594.6,230.3 597.6,228.7 600.7,227.5 603.8,226.7 606.9,226.2 610.0,225.4 613.1,225.1 616.1,224.9 619.2,224.6 622.3,224.4 640.8,223.0 643.9,221.2 647.0,221.0 650.0,220.7 653.1,220.6 674.7,220.6 702.5,218.7 705.5,217.3 708.6,215.7 711.7,213.2 714.8,212.8 717.9,212.0 720.9,210.6 724.0,209.5 727.1,207.2 730.2,203.7 733.3,200.2 736.4,196.2 739.4,192.0 742.5,188.4 745.6,186.1 748.7,183.4 751.8,179.3 754.9,175.9 757.9,173.7 761.0,171.3 764.1,168.0 767.2,165.9 770.3,163.8 773.4,161.9 776.4,160.5 779.5,158.7 782.6,157.6 785.7,156.3 788.8,155.3 791.8,152.1 794.9,149.6 798.0,148.2 801.1,147.8 804.2,147.0 807.3,145.7 810.3,144.5 813.4,142.4 816.5,141.1 819.6,139.9 822.7,139.7 825.8,139.2 828.8,138.2 831.9,135.7 835.0,131.6 838.1,127.3 841.2,123.0 844.3,119.5 847.3,115.4 850.4,111.0 853.5,106.5 856.6,102.4 859.7,99.5 862.8,97.1 865.8,94.4 868.9,91.8 872.0,90.0 872.0,272.0" fill="#e0f2fe" opacity="0.55"/>
<polyline points="52.0,271.9 55.1,271.7 92.1,270.9 95.2,270.6 98.2,270.5 107.5,270.4 126.0,270.3 166.1,270.2 169.1,269.5 172.2,269.4 181.5,269.2 184.6,269.1 187.6,269.0 190.7,268.8 196.9,268.7 200.0,268.2 209.2,267.9 221.5,267.7 224.6,267.4 227.7,267.3 252.4,267.2 258.5,267.1 274.0,267.0 277.0,266.9 280.1,266.8 292.5,266.7 295.5,266.1 298.6,265.7 301.7,264.6 304.8,264.4 326.4,264.3 335.6,264.2 341.8,264.1 344.9,264.0 347.9,263.6 351.0,263.5 354.1,263.4 357.2,263.2 360.3,262.9 372.6,262.5 378.8,262.4 391.1,262.3 394.2,261.9 397.3,261.8 400.3,261.6 406.5,261.5 409.6,259.8 412.7,258.0 415.8,257.4 418.8,256.9 421.9,256.8 425.0,256.3 428.1,255.7 431.2,255.3 434.3,255.0 437.3,254.8 443.5,254.6 446.6,253.9 449.7,253.2 452.8,252.5 455.8,252.1 462.0,251.9 468.2,251.8 471.2,251.2 474.3,250.7 477.4,249.5 480.5,248.8 483.6,248.1 486.7,247.4 489.7,246.6 492.8,245.8 495.9,245.0 499.0,244.0 502.1,243.1 505.2,242.3 508.2,241.8 511.3,241.2 514.4,240.5 517.5,240.2 520.6,239.7 523.7,239.3 526.7,239.1 529.8,238.9 536.0,238.8 539.1,237.1 542.2,235.9 545.2,235.6 548.3,235.5 554.5,235.3 557.6,235.1 569.9,235.0 576.1,234.8 585.3,234.7 588.4,232.7 591.5,230.8 594.6,230.3 597.6,228.7 600.7,227.5 603.8,226.7 606.9,226.2 610.0,225.4 613.1,225.1 616.1,224.9 619.2,224.6 622.3,224.4 640.8,223.0 643.9,221.2 647.0,221.0 650.0,220.7 653.1,220.6 674.7,220.6 702.5,218.7 705.5,217.3 708.6,215.7 711.7,213.2 714.8,212.8 717.9,212.0 720.9,210.6 724.0,209.5 727.1,207.2 730.2,203.7 733.3,200.2 736.4,196.2 739.4,192.0 742.5,188.4 745.6,186.1 748.7,183.4 751.8,179.3 754.9,175.9 757.9,173.7 761.0,171.3 764.1,168.0 767.2,165.9 770.3,163.8 773.4,161.9 776.4,160.5 779.5,158.7 782.6,157.6 785.7,156.3 788.8,155.3 791.8,152.1 794.9,149.6 798.0,148.2 801.1,147.8 804.2,147.0 807.3,145.7 810.3,144.5 813.4,142.4 816.5,141.1 819.6,139.9 822.7,139.7 825.8,139.2 828.8,138.2 831.9,135.7 835.0,131.6 838.1,127.3 841.2,123.0 844.3,119.5 847.3,115.4 850.4,111.0 853.5,106.5 856.6,102.4 859.7,99.5 862.8,97.1 865.8,94.4 868.9,91.8 872.0,90.0" fill="none" stroke="#38bdf8" stroke-width="2.5" stroke-linejoin="round" stroke-linecap="round"/>
<circle cx="872.0" cy="90.0" r="4" fill="#0ea5e9"/>
<text x="866.0" y="80.0" text-anchor="end" font-family="Inter, system-ui, sans-serif" font-size="13" font-weight="700" fill="#334155">2080</text>
<text x="52.0" y="294" text-anchor="middle" font-family="Inter, system-ui, sans-serif" font-size="11" fill="#94a3b8">Jun 10 05:00</text>
<text x="536.0" y="294" text-anchor="middle" font-family="Inter, system-ui, sans-serif" font-size="11" fill="#94a3b8">Jun 16 18:00</text>
<text x="872.0" y="294" text-anchor="middle" font-family="Inter, system-ui, sans-serif" font-size="11" fill="#94a3b8">Jun 21 07:00</text>
</svg>
