<svg xmlns="http://www.w3.org/2000/svg" width="900" height="320" viewBox="0 0 900 320" role="img" aria-labelledby="title desc">
<title id="title">unsorry proofs over time</title>
<desc id="desc">Cumulative kernel-verified proofs over time, by the hour each proof was merged.</desc>
<rect width="900" height="100%" rx="18" fill="#ffffff"/>
<rect x="0.5" y="0.5" width="899" height="319" rx="18" fill="none" stroke="#e2e8f0"/>
<text x="32" y="44" font-family="Inter, system-ui, sans-serif" font-size="28" font-weight="700" fill="#334155">unsorry — Proofs Over Time</text>
<text x="32" y="72" font-family="Inter, system-ui, sans-serif" font-size="13" fill="#64748b">2783 cumulative kernel-verified proofs · merged, hourly</text>
<line x1="52" y1="272.0" x2="872" y2="272.0" stroke="#f1f5f9"/>
<text x="44" y="276.0" text-anchor="end" font-family="Inter, system-ui, sans-serif" font-size="11" fill="#94a3b8">0</text>
<line x1="52" y1="226.5" x2="872" y2="226.5" stroke="#f1f5f9"/>
<text x="44" y="230.5" text-anchor="end" font-family="Inter, system-ui, sans-serif" font-size="11" fill="#94a3b8">696</text>
<line x1="52" y1="181.0" x2="872" y2="181.0" stroke="#f1f5f9"/>
<text x="44" y="185.0" text-anchor="end" font-family="Inter, system-ui, sans-serif" font-size="11" fill="#94a3b8">1392</text>
<line x1="52" y1="135.5" x2="872" y2="135.5" stroke="#f1f5f9"/>
<text x="44" y="139.5" text-anchor="end" font-family="Inter, system-ui, sans-serif" font-size="11" fill="#94a3b8">2087</text>
<line x1="52" y1="90.0" x2="872" y2="90.0" stroke="#f1f5f9"/>
<text x="44" y="94.0" text-anchor="end" font-family="Inter, system-ui, sans-serif" font-size="11" fill="#94a3b8">2783</text>
<polygon points="52.0,272.0 52.0,271.9 54.7,271.8 87.2,271.1 89.9,271.0 92.6,270.9 100.7,270.8 117.0,270.8 152.1,270.7 154.8,270.1 157.5,270.0 165.7,269.9 168.4,269.8 171.1,269.8 173.8,269.6 179.2,269.5 181.9,269.2 190.0,268.9 200.8,268.8 203.6,268.6 206.3,268.5 227.9,268.4 233.3,268.3 246.9,268.3 249.6,268.2 252.3,268.1 263.1,268.0 265.8,267.6 268.5,267.3 271.2,266.4 273.9,266.3 292.9,266.2 301.0,266.2 306.4,266.1 309.1,266.0 311.8,265.7 314.5,265.7 317.2,265.6 319.9,265.4 322.6,265.2 333.5,264.9 338.9,264.8 349.7,264.7 352.4,264.4 355.1,264.3 357.8,264.2 363.2,264.2 365.9,262.8 368.6,261.5 371.3,261.1 374.0,260.8 376.8,260.6 379.5,260.3 382.2,259.8 384.9,259.5 387.6,259.3 390.3,259.2 395.7,259.0 398.4,258.5 401.1,257.9 403.8,257.4 406.5,257.1 411.9,257.0 417.3,256.9 420.1,256.4 422.8,256.1 425.5,255.2 428.2,254.7 430.9,254.1 433.6,253.6 436.3,253.0 439.0,252.4 441.7,251.8 444.4,251.1 447.1,250.4 449.8,249.8 452.5,249.4 455.2,249.0 457.9,248.5 460.6,248.2 463.4,247.9 466.1,247.5 468.8,247.4 471.5,247.3 476.9,247.2 479.6,245.9 482.3,245.0 485.0,244.8 487.7,244.7 493.1,244.6 495.8,244.4 506.7,244.3 512.1,244.2 520.2,244.1 522.9,242.6 525.6,241.2 528.3,240.8 531.0,239.6 533.7,238.7 536.4,238.1 539.1,237.8 541.8,237.2 544.5,236.9 547.2,236.8 550.0,236.6 552.7,236.4 568.9,235.4 571.6,234.1 574.3,233.9 577.0,233.7 579.7,233.6 598.7,233.5 623.0,232.2 625.7,231.1 628.4,229.9 631.1,228.1 633.8,227.7 636.6,227.1 639.3,226.1 642.0,225.3 644.7,223.5 647.4,220.9 650.1,218.4 652.8,215.4 655.5,212.2 658.2,209.5 660.9,207.8 663.6,205.8 666.3,202.7 669.0,200.2 671.7,198.5 674.4,196.7 677.1,194.2 679.9,192.7 682.6,191.1 685.3,189.7 688.0,188.7 690.7,187.3 693.4,186.5 696.1,185.5 698.8,184.8 701.5,182.4 704.2,180.5 706.9,179.5 709.6,179.1 712.3,178.5 715.0,177.6 717.7,176.7 720.4,175.1 723.2,174.2 725.9,173.3 728.6,173.1 731.3,172.7 734.0,172.0 736.7,170.1 739.4,167.0 742.1,163.8 744.8,160.6 747.5,158.0 750.2,154.9 752.9,151.7 755.6,148.3 758.3,145.3 761.0,143.0 763.7,141.3 766.5,139.2 769.2,137.3 771.9,136.0 774.6,134.4 777.3,133.2 780.0,131.5 782.7,129.2 785.4,126.5 788.1,124.2 790.8,122.2 793.5,120.9 796.2,119.7 798.9,118.5 801.6,117.2 804.3,115.0 807.0,113.1 809.8,110.8 812.5,108.4 815.2,106.5 817.9,104.9 820.6,104.3 823.3,103.3 826.0,102.4 828.7,102.3 831.4,102.2 834.1,101.7 836.8,101.5 839.5,101.4 842.2,101.1 844.9,101.0 853.1,100.9 855.8,100.9 858.5,100.5 861.2,97.8 863.9,95.5 866.6,93.5 869.3,91.2 872.0,90.0 872.0,272.0" fill="#e0f2fe" opacity="0.55"/>
<polyline points="52.0,271.9 54.7,271.8 87.2,271.1 89.9,271.0 92.6,270.9 100.7,270.8 117.0,270.8 152.1,270.7 154.8,270.1 157.5,270.0 165.7,269.9 168.4,269.8 171.1,269.8 173.8,269.6 179.2,269.5 181.9,269.2 190.0,268.9 200.8,268.8 203.6,268.6 206.3,268.5 227.9,268.4 233.3,268.3 246.9,268.3 249.6,268.2 252.3,268.1 263.1,268.0 265.8,267.6 268.5,267.3 271.2,266.4 273.9,266.3 292.9,266.2 301.0,266.2 306.4,266.1 309.1,266.0 311.8,265.7 314.5,265.7 317.2,265.6 319.9,265.4 322.6,265.2 333.5,264.9 338.9,264.8 349.7,264.7 352.4,264.4 355.1,264.3 357.8,264.2 363.2,264.2 365.9,262.8 368.6,261.5 371.3,261.1 374.0,260.8 376.8,260.6 379.5,260.3 382.2,259.8 384.9,259.5 387.6,259.3 390.3,259.2 395.7,259.0 398.4,258.5 401.1,257.9 403.8,257.4 406.5,257.1 411.9,257.0 417.3,256.9 420.1,256.4 422.8,256.1 425.5,255.2 428.2,254.7 430.9,254.1 433.6,253.6 436.3,253.0 439.0,252.4 441.7,251.8 444.4,251.1 447.1,250.4 449.8,249.8 452.5,249.4 455.2,249.0 457.9,248.5 460.6,248.2 463.4,247.9 466.1,247.5 468.8,247.4 471.5,247.3 476.9,247.2 479.6,245.9 482.3,245.0 485.0,244.8 487.7,244.7 493.1,244.6 495.8,244.4 506.7,244.3 512.1,244.2 520.2,244.1 522.9,242.6 525.6,241.2 528.3,240.8 531.0,239.6 533.7,238.7 536.4,238.1 539.1,237.8 541.8,237.2 544.5,236.9 547.2,236.8 550.0,236.6 552.7,236.4 568.9,235.4 571.6,234.1 574.3,233.9 577.0,233.7 579.7,233.6 598.7,233.5 623.0,232.2 625.7,231.1 628.4,229.9 631.1,228.1 633.8,227.7 636.6,227.1 639.3,226.1 642.0,225.3 644.7,223.5 647.4,220.9 650.1,218.4 652.8,215.4 655.5,212.2 658.2,209.5 660.9,207.8 663.6,205.8 666.3,202.7 669.0,200.2 671.7,198.5 674.4,196.7 677.1,194.2 679.9,192.7 682.6,191.1 685.3,189.7 688.0,188.7 690.7,187.3 693.4,186.5 696.1,185.5 698.8,184.8 701.5,182.4 704.2,180.5 706.9,179.5 709.6,179.1 712.3,178.5 715.0,177.6 717.7,176.7 720.4,175.1 723.2,174.2 725.9,173.3 728.6,173.1 731.3,172.7 734.0,172.0 736.7,170.1 739.4,167.0 742.1,163.8 744.8,160.6 747.5,158.0 750.2,154.9 752.9,151.7 755.6,148.3 758.3,145.3 761.0,143.0 763.7,141.3 766.5,139.2 769.2,137.3 771.9,136.0 774.6,134.4 777.3,133.2 780.0,131.5 782.7,129.2 785.4,126.5 788.1,124.2 790.8,122.2 793.5,120.9 796.2,119.7 798.9,118.5 801.6,117.2 804.3,115.0 807.0,113.1 809.8,110.8 812.5,108.4 815.2,106.5 817.9,104.9 820.6,104.3 823.3,103.3 826.0,102.4 828.7,102.3 831.4,102.2 834.1,101.7 836.8,101.5 839.5,101.4 842.2,101.1 844.9,101.0 853.1,100.9 855.8,100.9 858.5,100.5 861.2,97.8 863.9,95.5 866.6,93.5 869.3,91.2 872.0,90.0" fill="none" stroke="#38bdf8" stroke-width="2.5" stroke-linejoin="round" stroke-linecap="round"/>
<circle cx="872.0" cy="90.0" r="4" fill="#0ea5e9"/>
<text x="866.0" y="80.0" text-anchor="end" font-family="Inter, system-ui, sans-serif" font-size="13" font-weight="700" fill="#334155">2783</text>
<text x="52.0" y="294" text-anchor="middle" font-family="Inter, system-ui, sans-serif" font-size="11" fill="#94a3b8">Jun 10 05:00</text>
<text x="544.5" y="294" text-anchor="middle" font-family="Inter, system-ui, sans-serif" font-size="11" fill="#94a3b8">Jun 17 19:00</text>
<text x="872.0" y="294" text-anchor="middle" font-family="Inter, system-ui, sans-serif" font-size="11" fill="#94a3b8">Jun 22 20:00</text>
</svg>
