<svg xmlns="http://www.w3.org/2000/svg" width="900" height="320" viewBox="0 0 900 320" role="img" aria-labelledby="title desc">
<title id="title">Unsorry proofs over time</title>
<desc id="desc">Cumulative kernel-verified proofs over time, by the hour each proof was merged.</desc>
<rect width="900" height="100%" rx="18" fill="#ffffff"/>
<rect x="0.5" y="0.5" width="899" height="319" rx="18" fill="none" stroke="#e2e8f0"/>
<text x="32" y="44" font-family="Inter, system-ui, sans-serif" font-size="28" font-weight="700" fill="#334155">Unsorry — Proofs Over Time</text>
<text x="32" y="72" font-family="Inter, system-ui, sans-serif" font-size="13" fill="#64748b">2474 cumulative kernel-verified proofs · merged, hourly</text>
<line x1="52" y1="272.0" x2="872" y2="272.0" stroke="#f1f5f9"/>
<text x="44" y="276.0" text-anchor="end" font-family="Inter, system-ui, sans-serif" font-size="11" fill="#94a3b8">0</text>
<line x1="52" y1="226.5" x2="872" y2="226.5" stroke="#f1f5f9"/>
<text x="44" y="230.5" text-anchor="end" font-family="Inter, system-ui, sans-serif" font-size="11" fill="#94a3b8">618</text>
<line x1="52" y1="181.0" x2="872" y2="181.0" stroke="#f1f5f9"/>
<text x="44" y="185.0" text-anchor="end" font-family="Inter, system-ui, sans-serif" font-size="11" fill="#94a3b8">1237</text>
<line x1="52" y1="135.5" x2="872" y2="135.5" stroke="#f1f5f9"/>
<text x="44" y="139.5" text-anchor="end" font-family="Inter, system-ui, sans-serif" font-size="11" fill="#94a3b8">1856</text>
<line x1="52" y1="90.0" x2="872" y2="90.0" stroke="#f1f5f9"/>
<text x="44" y="94.0" text-anchor="end" font-family="Inter, system-ui, sans-serif" font-size="11" fill="#94a3b8">2474</text>
<polygon points="52.0,272.0 52.0,271.9 54.9,271.8 89.9,271.0 92.9,270.8 95.8,270.7 104.5,270.7 122.0,270.6 160.0,270.5 162.9,269.9 165.8,269.8 174.6,269.6 177.5,269.6 180.4,269.5 183.3,269.3 189.2,269.2 192.1,268.8 200.8,268.5 212.5,268.4 215.4,268.2 218.3,268.0 241.7,268.0 247.5,267.9 262.1,267.8 265.0,267.7 267.9,267.6 279.6,267.5 282.5,267.1 285.5,266.7 288.4,265.7 291.3,265.6 311.7,265.5 320.5,265.5 326.3,265.4 329.2,265.3 332.1,264.9 335.1,264.9 338.0,264.8 340.9,264.6 343.8,264.3 355.5,264.0 361.3,263.9 373.0,263.8 375.9,263.5 378.8,263.4 381.8,263.2 387.6,263.2 390.5,261.7 393.4,260.2 396.3,259.7 399.3,259.3 402.2,259.2 405.1,258.8 408.0,258.3 410.9,257.9 413.9,257.7 416.8,257.6 422.6,257.4 425.5,256.8 428.4,256.2 431.4,255.6 434.3,255.2 440.1,255.1 446.0,255.0 448.9,254.5 451.8,254.1 454.7,253.1 457.6,252.5 460.5,251.9 463.5,251.3 466.4,250.7 469.3,250.0 472.2,249.3 475.1,248.5 478.0,247.7 481.0,247.1 483.9,246.6 486.8,246.1 489.7,245.5 492.6,245.2 495.6,244.9 498.5,244.5 501.4,244.3 504.3,244.2 510.1,244.1 513.1,242.6 516.0,241.6 518.9,241.4 521.8,241.3 527.7,241.2 530.6,241.0 542.2,240.9 548.1,240.7 556.8,240.7 559.8,239.0 562.7,237.4 565.6,236.9 568.5,235.6 571.4,234.6 574.3,233.9 577.3,233.5 580.2,232.9 583.1,232.6 586.0,232.4 588.9,232.1 591.9,232.0 609.4,230.8 612.3,229.3 615.2,229.1 618.1,228.9 621.0,228.8 641.5,228.7 667.7,227.2 670.6,226.0 673.6,224.6 676.5,222.6 679.4,222.2 682.3,221.5 685.2,220.4 688.2,219.5 691.1,217.5 694.0,214.5 696.9,211.7 699.8,208.3 702.7,204.8 705.7,201.7 708.6,199.8 711.5,197.5 714.4,194.1 717.3,191.2 720.3,189.3 723.2,187.3 726.1,184.5 729.0,182.8 731.9,181.0 734.8,179.5 737.8,178.3 740.7,176.7 743.6,175.8 746.5,174.7 749.4,173.9 752.4,171.2 755.3,169.1 758.2,167.9 761.1,167.5 764.0,166.9 766.9,165.8 769.9,164.8 772.8,163.1 775.7,161.9 778.6,160.9 781.5,160.8 784.5,160.3 787.4,159.5 790.3,157.4 793.2,153.9 796.1,150.3 799.0,146.7 802.0,143.8 804.9,140.3 807.8,136.6 810.7,132.9 813.6,129.4 816.6,126.9 819.5,124.9 822.4,122.7 825.3,120.5 828.2,119.0 831.1,117.2 834.1,115.9 837.0,114.0 839.9,111.4 842.8,108.3 845.7,105.7 848.7,103.5 851.6,102.0 854.5,100.7 857.4,99.3 860.3,97.9 863.2,95.4 866.2,93.2 869.1,90.7 872.0,90.0 872.0,272.0" fill="#e0f2fe" opacity="0.55"/>
<polyline points="52.0,271.9 54.9,271.8 89.9,271.0 92.9,270.8 95.8,270.7 104.5,270.7 122.0,270.6 160.0,270.5 162.9,269.9 165.8,269.8 174.6,269.6 177.5,269.6 180.4,269.5 183.3,269.3 189.2,269.2 192.1,268.8 200.8,268.5 212.5,268.4 215.4,268.2 218.3,268.0 241.7,268.0 247.5,267.9 262.1,267.8 265.0,267.7 267.9,267.6 279.6,267.5 282.5,267.1 285.5,266.7 288.4,265.7 291.3,265.6 311.7,265.5 320.5,265.5 326.3,265.4 329.2,265.3 332.1,264.9 335.1,264.9 338.0,264.8 340.9,264.6 343.8,264.3 355.5,264.0 361.3,263.9 373.0,263.8 375.9,263.5 378.8,263.4 381.8,263.2 387.6,263.2 390.5,261.7 393.4,260.2 396.3,259.7 399.3,259.3 402.2,259.2 405.1,258.8 408.0,258.3 410.9,257.9 413.9,257.7 416.8,257.6 422.6,257.4 425.5,256.8 428.4,256.2 431.4,255.6 434.3,255.2 440.1,255.1 446.0,255.0 448.9,254.5 451.8,254.1 454.7,253.1 457.6,252.5 460.5,251.9 463.5,251.3 466.4,250.7 469.3,250.0 472.2,249.3 475.1,248.5 478.0,247.7 481.0,247.1 483.9,246.6 486.8,246.1 489.7,245.5 492.6,245.2 495.6,244.9 498.5,244.5 501.4,244.3 504.3,244.2 510.1,244.1 513.1,242.6 516.0,241.6 518.9,241.4 521.8,241.3 527.7,241.2 530.6,241.0 542.2,240.9 548.1,240.7 556.8,240.7 559.8,239.0 562.7,237.4 565.6,236.9 568.5,235.6 571.4,234.6 574.3,233.9 577.3,233.5 580.2,232.9 583.1,232.6 586.0,232.4 588.9,232.1 591.9,232.0 609.4,230.8 612.3,229.3 615.2,229.1 618.1,228.9 621.0,228.8 641.5,228.7 667.7,227.2 670.6,226.0 673.6,224.6 676.5,222.6 679.4,222.2 682.3,221.5 685.2,220.4 688.2,219.5 691.1,217.5 694.0,214.5 696.9,211.7 699.8,208.3 702.7,204.8 705.7,201.7 708.6,199.8 711.5,197.5 714.4,194.1 717.3,191.2 720.3,189.3 723.2,187.3 726.1,184.5 729.0,182.8 731.9,181.0 734.8,179.5 737.8,178.3 740.7,176.7 743.6,175.8 746.5,174.7 749.4,173.9 752.4,171.2 755.3,169.1 758.2,167.9 761.1,167.5 764.0,166.9 766.9,165.8 769.9,164.8 772.8,163.1 775.7,161.9 778.6,160.9 781.5,160.8 784.5,160.3 787.4,159.5 790.3,157.4 793.2,153.9 796.1,150.3 799.0,146.7 802.0,143.8 804.9,140.3 807.8,136.6 810.7,132.9 813.6,129.4 816.6,126.9 819.5,124.9 822.4,122.7 825.3,120.5 828.2,119.0 831.1,117.2 834.1,115.9 837.0,114.0 839.9,111.4 842.8,108.3 845.7,105.7 848.7,103.5 851.6,102.0 854.5,100.7 857.4,99.3 860.3,97.9 863.2,95.4 866.2,93.2 869.1,90.7 872.0,90.0" fill="none" stroke="#38bdf8" stroke-width="2.5" stroke-linejoin="round" stroke-linecap="round"/>
<circle cx="872.0" cy="90.0" r="4" fill="#0ea5e9"/>
<text x="866.0" y="80.0" text-anchor="end" font-family="Inter, system-ui, sans-serif" font-size="13" font-weight="700" fill="#334155">2474</text>
<text x="52.0" y="294" text-anchor="middle" font-family="Inter, system-ui, sans-serif" font-size="11" fill="#94a3b8">Jun 10 05:00</text>
<text x="548.1" y="294" text-anchor="middle" font-family="Inter, system-ui, sans-serif" font-size="11" fill="#94a3b8">Jun 17 07:00</text>
<text x="872.0" y="294" text-anchor="middle" font-family="Inter, system-ui, sans-serif" font-size="11" fill="#94a3b8">Jun 21 22:00</text>
</svg>
