<svg xmlns="http://www.w3.org/2000/svg" width="900" height="320" viewBox="0 0 900 320" role="img" aria-labelledby="title desc">
<title id="title">unsorry proofs over time</title>
<desc id="desc">Cumulative kernel-verified proofs over time, by the hour each proof was merged.</desc>
<rect width="900" height="100%" rx="18" fill="#ffffff"/>
<rect x="0.5" y="0.5" width="899" height="319" rx="18" fill="none" stroke="#e2e8f0"/>
<text x="32" y="44" font-family="Inter, system-ui, sans-serif" font-size="28" font-weight="700" fill="#334155">unsorry — Proofs Over Time</text>
<text x="32" y="72" font-family="Inter, system-ui, sans-serif" font-size="13" fill="#64748b">2613 cumulative kernel-verified proofs · merged, hourly</text>
<line x1="52" y1="272.0" x2="872" y2="272.0" stroke="#f1f5f9"/>
<text x="44" y="276.0" text-anchor="end" font-family="Inter, system-ui, sans-serif" font-size="11" fill="#94a3b8">0</text>
<line x1="52" y1="226.5" x2="872" y2="226.5" stroke="#f1f5f9"/>
<text x="44" y="230.5" text-anchor="end" font-family="Inter, system-ui, sans-serif" font-size="11" fill="#94a3b8">653</text>
<line x1="52" y1="181.0" x2="872" y2="181.0" stroke="#f1f5f9"/>
<text x="44" y="185.0" text-anchor="end" font-family="Inter, system-ui, sans-serif" font-size="11" fill="#94a3b8">1306</text>
<line x1="52" y1="135.5" x2="872" y2="135.5" stroke="#f1f5f9"/>
<text x="44" y="139.5" text-anchor="end" font-family="Inter, system-ui, sans-serif" font-size="11" fill="#94a3b8">1960</text>
<line x1="52" y1="90.0" x2="872" y2="90.0" stroke="#f1f5f9"/>
<text x="44" y="94.0" text-anchor="end" font-family="Inter, system-ui, sans-serif" font-size="11" fill="#94a3b8">2613</text>
<polygon points="52.0,272.0 52.0,271.9 54.8,271.8 88.5,271.1 91.3,270.9 94.1,270.8 102.5,270.7 119.4,270.7 155.9,270.6 158.7,270.0 161.5,269.9 169.9,269.8 172.8,269.7 175.6,269.6 178.4,269.4 184.0,269.4 186.8,269.0 195.2,268.7 206.5,268.6 209.3,268.4 212.1,268.2 234.5,268.2 240.2,268.1 254.2,268.0 257.0,268.0 259.8,267.8 271.0,267.8 273.8,267.3 276.7,267.0 279.5,266.1 282.3,265.9 301.9,265.9 310.4,265.8 316.0,265.7 318.8,265.7 321.6,265.3 324.4,265.2 327.2,265.2 330.0,265.0 332.8,264.8 344.1,264.4 349.7,264.3 360.9,264.3 363.7,263.9 366.5,263.9 369.3,263.7 374.9,263.6 377.8,262.2 380.6,260.9 383.4,260.4 386.2,260.0 389.0,259.9 391.8,259.5 394.6,259.0 397.4,258.7 400.2,258.5 403.0,258.3 408.6,258.1 411.5,257.6 414.3,257.0 417.1,256.5 419.9,256.1 425.5,256.0 431.1,255.9 433.9,255.4 436.7,255.1 439.5,254.1 442.3,253.5 445.2,253.0 448.0,252.4 450.8,251.8 453.6,251.2 456.4,250.5 459.2,249.7 462.0,249.0 464.8,248.4 467.6,248.0 470.4,247.5 473.2,246.9 476.0,246.6 478.8,246.3 481.7,246.0 484.5,245.8 487.3,245.7 492.9,245.6 495.7,244.2 498.5,243.2 501.3,243.0 504.1,243.0 509.7,242.8 512.5,242.6 523.8,242.5 529.4,242.4 537.8,242.3 540.6,240.7 543.4,239.2 546.2,238.8 549.1,237.5 551.9,236.5 554.7,235.9 557.5,235.6 560.3,234.9 563.1,234.7 565.9,234.5 568.7,234.2 571.5,234.1 588.4,233.0 591.2,231.6 594.0,231.4 596.8,231.2 599.6,231.1 619.3,231.0 644.5,229.6 647.3,228.5 650.2,227.1 653.0,225.2 655.8,224.8 658.6,224.2 661.4,223.1 664.2,222.3 667.0,220.4 669.8,217.6 672.6,214.9 675.4,211.7 678.2,208.3 681.0,205.4 683.8,203.6 686.7,201.4 689.5,198.2 692.3,195.5 695.1,193.7 697.9,191.8 700.7,189.2 703.5,187.5 706.3,185.8 709.1,184.4 711.9,183.3 714.7,181.8 717.5,180.9 720.4,179.9 723.2,179.1 726.0,176.6 728.8,174.6 731.6,173.4 734.4,173.1 737.2,172.5 740.0,171.4 742.8,170.5 745.6,168.8 748.4,167.8 751.2,166.8 754.1,166.7 756.9,166.3 759.7,165.5 762.5,163.5 765.3,160.2 768.1,156.8 770.9,153.4 773.7,150.6 776.5,147.3 779.3,143.8 782.1,140.3 784.9,137.0 787.8,134.6 790.6,132.8 793.4,130.6 796.2,128.5 799.0,127.1 801.8,125.5 804.6,124.2 807.4,122.4 810.2,120.0 813.0,117.0 815.8,114.6 818.6,112.4 821.5,111.0 824.3,109.8 827.1,108.5 829.9,107.1 832.7,104.8 835.5,102.7 838.3,100.3 841.1,97.8 843.9,95.7 846.7,94.0 849.5,93.3 852.3,92.4 855.2,91.4 858.0,91.3 860.8,91.1 863.6,90.6 866.4,90.4 869.2,90.3 872.0,90.0 872.0,272.0" fill="#e0f2fe" opacity="0.55"/>
<polyline points="52.0,271.9 54.8,271.8 88.5,271.1 91.3,270.9 94.1,270.8 102.5,270.7 119.4,270.7 155.9,270.6 158.7,270.0 161.5,269.9 169.9,269.8 172.8,269.7 175.6,269.6 178.4,269.4 184.0,269.4 186.8,269.0 195.2,268.7 206.5,268.6 209.3,268.4 212.1,268.2 234.5,268.2 240.2,268.1 254.2,268.0 257.0,268.0 259.8,267.8 271.0,267.8 273.8,267.3 276.7,267.0 279.5,266.1 282.3,265.9 301.9,265.9 310.4,265.8 316.0,265.7 318.8,265.7 321.6,265.3 324.4,265.2 327.2,265.2 330.0,265.0 332.8,264.8 344.1,264.4 349.7,264.3 360.9,264.3 363.7,263.9 366.5,263.9 369.3,263.7 374.9,263.6 377.8,262.2 380.6,260.9 383.4,260.4 386.2,260.0 389.0,259.9 391.8,259.5 394.6,259.0 397.4,258.7 400.2,258.5 403.0,258.3 408.6,258.1 411.5,257.6 414.3,257.0 417.1,256.5 419.9,256.1 425.5,256.0 431.1,255.9 433.9,255.4 436.7,255.1 439.5,254.1 442.3,253.5 445.2,253.0 448.0,252.4 450.8,251.8 453.6,251.2 456.4,250.5 459.2,249.7 462.0,249.0 464.8,248.4 467.6,248.0 470.4,247.5 473.2,246.9 476.0,246.6 478.8,246.3 481.7,246.0 484.5,245.8 487.3,245.7 492.9,245.6 495.7,244.2 498.5,243.2 501.3,243.0 504.1,243.0 509.7,242.8 512.5,242.6 523.8,242.5 529.4,242.4 537.8,242.3 540.6,240.7 543.4,239.2 546.2,238.8 549.1,237.5 551.9,236.5 554.7,235.9 557.5,235.6 560.3,234.9 563.1,234.7 565.9,234.5 568.7,234.2 571.5,234.1 588.4,233.0 591.2,231.6 594.0,231.4 596.8,231.2 599.6,231.1 619.3,231.0 644.5,229.6 647.3,228.5 650.2,227.1 653.0,225.2 655.8,224.8 658.6,224.2 661.4,223.1 664.2,222.3 667.0,220.4 669.8,217.6 672.6,214.9 675.4,211.7 678.2,208.3 681.0,205.4 683.8,203.6 686.7,201.4 689.5,198.2 692.3,195.5 695.1,193.7 697.9,191.8 700.7,189.2 703.5,187.5 706.3,185.8 709.1,184.4 711.9,183.3 714.7,181.8 717.5,180.9 720.4,179.9 723.2,179.1 726.0,176.6 728.8,174.6 731.6,173.4 734.4,173.1 737.2,172.5 740.0,171.4 742.8,170.5 745.6,168.8 748.4,167.8 751.2,166.8 754.1,166.7 756.9,166.3 759.7,165.5 762.5,163.5 765.3,160.2 768.1,156.8 770.9,153.4 773.7,150.6 776.5,147.3 779.3,143.8 782.1,140.3 784.9,137.0 787.8,134.6 790.6,132.8 793.4,130.6 796.2,128.5 799.0,127.1 801.8,125.5 804.6,124.2 807.4,122.4 810.2,120.0 813.0,117.0 815.8,114.6 818.6,112.4 821.5,111.0 824.3,109.8 827.1,108.5 829.9,107.1 832.7,104.8 835.5,102.7 838.3,100.3 841.1,97.8 843.9,95.7 846.7,94.0 849.5,93.3 852.3,92.4 855.2,91.4 858.0,91.3 860.8,91.1 863.6,90.6 866.4,90.4 869.2,90.3 872.0,90.0" fill="none" stroke="#38bdf8" stroke-width="2.5" stroke-linejoin="round" stroke-linecap="round"/>
<circle cx="872.0" cy="90.0" r="4" fill="#0ea5e9"/>
<text x="866.0" y="80.0" text-anchor="end" font-family="Inter, system-ui, sans-serif" font-size="13" font-weight="700" fill="#334155">2613</text>
<text x="52.0" y="294" text-anchor="middle" font-family="Inter, system-ui, sans-serif" font-size="11" fill="#94a3b8">Jun 10 05:00</text>
<text x="549.1" y="294" text-anchor="middle" font-family="Inter, system-ui, sans-serif" font-size="11" fill="#94a3b8">Jun 17 14:00</text>
<text x="872.0" y="294" text-anchor="middle" font-family="Inter, system-ui, sans-serif" font-size="11" fill="#94a3b8">Jun 22 09:00</text>
</svg>
