<svg xmlns="http://www.w3.org/2000/svg" width="900" height="342" viewBox="0 0 900 342" role="img" aria-labelledby="title desc">
<title id="title">Unsorry proof graph</title>
<desc id="desc">Unsorry proof graph: goals by status, with the decomposition-lineage family count.</desc>
<rect width="900" height="100%" rx="18" fill="#ffffff"/>
<rect x="0.5" y="0.5" width="899" height="341" rx="18" fill="none" stroke="#e2e8f0"/>
<text x="32" y="44" font-family="Inter, system-ui, sans-serif" font-size="28" font-weight="700" fill="#334155">Unsorry Proof Graph</text>
<text x="32" y="72" font-family="Inter, system-ui, sans-serif" font-size="13" fill="#64748b">153 goals · 104 proved · 12 decomposition families</text>
<rect x="32" y="123" width="15" height="15" rx="3" fill="#c6f6d5" stroke="#94a3b8"/>
<text x="58" y="136" font-family="Inter, system-ui, sans-serif" font-size="16" font-weight="650" fill="#334155">proved</text>
<text x="58" y="154" font-family="Inter, system-ui, sans-serif" font-size="12" fill="#64748b">104 of 153 goals · 68%</text>
<rect x="300" y="125" width="420" height="24" rx="12" fill="#f1f5f9"/>
<rect x="300" y="125" width="420" height="24" rx="12" fill="#c6f6d5"/>
<text x="740" y="143" font-family="Inter, system-ui, sans-serif" font-size="14" font-weight="700" fill="#334155">104</text>
<rect x="32" y="175" width="15" height="15" rx="3" fill="#e2e8f0" stroke="#94a3b8"/>
<text x="58" y="188" font-family="Inter, system-ui, sans-serif" font-size="16" font-weight="650" fill="#334155">open</text>
<text x="58" y="206" font-family="Inter, system-ui, sans-serif" font-size="12" fill="#64748b">35 of 153 goals · 23%</text>
<rect x="300" y="177" width="420" height="24" rx="12" fill="#f1f5f9"/>
<rect x="300" y="177" width="141" height="24" rx="12" fill="#e2e8f0"/>
<text x="740" y="195" font-family="Inter, system-ui, sans-serif" font-size="14" font-weight="700" fill="#334155">35</text>
<rect x="32" y="227" width="15" height="15" rx="3" fill="#bee3f8" stroke="#94a3b8"/>
<text x="58" y="240" font-family="Inter, system-ui, sans-serif" font-size="16" font-weight="650" fill="#334155">translated</text>
<text x="58" y="258" font-family="Inter, system-ui, sans-serif" font-size="12" fill="#64748b">10 of 153 goals · 7%</text>
<rect x="300" y="229" width="420" height="24" rx="12" fill="#f1f5f9"/>
<rect x="300" y="229" width="40" height="24" rx="12" fill="#bee3f8"/>
<text x="740" y="247" font-family="Inter, system-ui, sans-serif" font-size="14" font-weight="700" fill="#334155">10</text>
<rect x="32" y="279" width="15" height="15" rx="3" fill="#feebc8" stroke="#94a3b8"/>
<text x="58" y="292" font-family="Inter, system-ui, sans-serif" font-size="16" font-weight="650" fill="#334155">blocked</text>
<text x="58" y="310" font-family="Inter, system-ui, sans-serif" font-size="12" fill="#64748b">4 of 153 goals · 3%</text>
<rect x="300" y="281" width="420" height="24" rx="12" fill="#f1f5f9"/>
<rect x="300" y="281" width="16" height="24" rx="12" fill="#feebc8"/>
<text x="740" y="299" font-family="Inter, system-ui, sans-serif" font-size="14" font-weight="700" fill="#334155">4</text>
</svg>
