<svg xmlns="http://www.w3.org/2000/svg" width="900" height="320" viewBox="0 0 900 320" role="img" aria-labelledby="title desc">
<title id="title">unsorry proofs over time</title>
<desc id="desc">Cumulative kernel-verified proofs over time, by the hour each proof was merged.</desc>
<rect width="900" height="100%" rx="18" fill="#ffffff"/>
<rect x="0.5" y="0.5" width="899" height="319" rx="18" fill="none" stroke="#e2e8f0"/>
<text x="32" y="44" font-family="Inter, system-ui, sans-serif" font-size="28" font-weight="700" fill="#334155">unsorry — Proofs Over Time</text>
<text x="32" y="72" font-family="Inter, system-ui, sans-serif" font-size="13" fill="#64748b">2793 cumulative kernel-verified proofs · merged, hourly</text>
<line x1="52" y1="272.0" x2="872" y2="272.0" stroke="#f1f5f9"/>
<text x="44" y="276.0" text-anchor="end" font-family="Inter, system-ui, sans-serif" font-size="11" fill="#94a3b8">0</text>
<line x1="52" y1="226.5" x2="872" y2="226.5" stroke="#f1f5f9"/>
<text x="44" y="230.5" text-anchor="end" font-family="Inter, system-ui, sans-serif" font-size="11" fill="#94a3b8">698</text>
<line x1="52" y1="181.0" x2="872" y2="181.0" stroke="#f1f5f9"/>
<text x="44" y="185.0" text-anchor="end" font-family="Inter, system-ui, sans-serif" font-size="11" fill="#94a3b8">1396</text>
<line x1="52" y1="135.5" x2="872" y2="135.5" stroke="#f1f5f9"/>
<text x="44" y="139.5" text-anchor="end" font-family="Inter, system-ui, sans-serif" font-size="11" fill="#94a3b8">2095</text>
<line x1="52" y1="90.0" x2="872" y2="90.0" stroke="#f1f5f9"/>
<text x="44" y="94.0" text-anchor="end" font-family="Inter, system-ui, sans-serif" font-size="11" fill="#94a3b8">2793</text>
<polygon points="52.0,272.0 52.0,271.9 54.7,271.8 87.2,271.2 89.9,271.0 92.6,270.9 100.7,270.8 117.0,270.8 152.1,270.7 154.8,270.1 157.5,270.0 165.7,269.9 168.4,269.8 171.1,269.8 173.8,269.6 179.2,269.5 181.9,269.2 190.0,268.9 200.8,268.8 203.6,268.6 206.3,268.5 227.9,268.4 233.3,268.4 246.9,268.3 249.6,268.2 252.3,268.1 263.1,268.0 265.8,267.6 268.5,267.3 271.2,266.5 273.9,266.3 292.9,266.3 301.0,266.2 306.4,266.1 309.1,266.1 311.8,265.7 314.5,265.7 317.2,265.6 319.9,265.4 322.6,265.2 333.5,264.9 338.9,264.8 349.7,264.8 352.4,264.4 355.1,264.4 357.8,264.2 363.2,264.2 365.9,262.9 368.6,261.6 371.3,261.1 374.0,260.8 376.8,260.7 379.5,260.3 382.2,259.9 384.9,259.6 387.6,259.4 390.3,259.2 395.7,259.0 398.4,258.5 401.1,258.0 403.8,257.5 406.5,257.1 411.9,257.0 417.3,256.9 420.1,256.5 422.8,256.2 425.5,255.3 428.2,254.7 430.9,254.2 433.6,253.7 436.3,253.1 439.0,252.5 441.7,251.9 444.4,251.1 447.1,250.5 449.8,249.9 452.5,249.5 455.2,249.1 457.9,248.5 460.6,248.3 463.4,248.0 466.1,247.6 468.8,247.5 471.5,247.4 476.9,247.3 479.6,246.0 482.3,245.1 485.0,244.9 487.7,244.8 493.1,244.7 495.8,244.5 506.7,244.4 512.1,244.3 520.2,244.2 522.9,242.7 525.6,241.3 528.3,240.9 531.0,239.7 533.7,238.8 536.4,238.2 539.1,237.9 541.8,237.3 544.5,237.1 547.2,236.9 550.0,236.7 552.7,236.6 568.9,235.5 571.6,234.2 574.3,234.0 577.0,233.8 579.7,233.7 598.7,233.7 623.0,232.3 625.7,231.3 628.4,230.0 631.1,228.2 633.8,227.9 636.6,227.3 639.3,226.3 642.0,225.5 644.7,223.7 647.4,221.1 650.1,218.6 652.8,215.6 655.5,212.4 658.2,209.7 660.9,208.0 663.6,206.0 666.3,203.0 669.0,200.5 671.7,198.8 674.4,197.0 677.1,194.5 679.9,193.0 682.6,191.4 685.3,190.0 688.0,189.0 690.7,187.6 693.4,186.8 696.1,185.9 698.8,185.1 701.5,182.7 704.2,180.8 706.9,179.8 709.6,179.5 712.3,178.9 715.0,177.9 717.7,177.1 720.4,175.5 723.2,174.5 725.9,173.6 728.6,173.5 731.3,173.1 734.0,172.4 736.7,170.5 739.4,167.4 742.1,164.2 744.8,161.0 747.5,158.4 750.2,155.4 752.9,152.1 755.6,148.8 758.3,145.7 761.0,143.5 763.7,141.7 766.5,139.7 769.2,137.8 771.9,136.5 774.6,134.9 777.3,133.7 780.0,132.0 782.7,129.7 785.4,127.0 788.1,124.7 790.8,122.7 793.5,121.4 796.2,120.2 798.9,119.1 801.6,117.8 804.3,115.5 807.0,113.7 809.8,111.4 812.5,109.0 815.2,107.1 817.9,105.5 820.6,104.9 823.3,103.9 826.0,103.0 828.7,102.9 831.4,102.8 834.1,102.3 836.8,102.1 839.5,102.1 842.2,101.7 844.9,101.6 853.1,101.5 855.8,101.5 858.5,101.1 861.2,98.4 863.9,96.1 866.6,94.1 869.3,91.8 872.0,90.0 872.0,272.0" fill="#e0f2fe" opacity="0.55"/>
<polyline points="52.0,271.9 54.7,271.8 87.2,271.2 89.9,271.0 92.6,270.9 100.7,270.8 117.0,270.8 152.1,270.7 154.8,270.1 157.5,270.0 165.7,269.9 168.4,269.8 171.1,269.8 173.8,269.6 179.2,269.5 181.9,269.2 190.0,268.9 200.8,268.8 203.6,268.6 206.3,268.5 227.9,268.4 233.3,268.4 246.9,268.3 249.6,268.2 252.3,268.1 263.1,268.0 265.8,267.6 268.5,267.3 271.2,266.5 273.9,266.3 292.9,266.3 301.0,266.2 306.4,266.1 309.1,266.1 311.8,265.7 314.5,265.7 317.2,265.6 319.9,265.4 322.6,265.2 333.5,264.9 338.9,264.8 349.7,264.8 352.4,264.4 355.1,264.4 357.8,264.2 363.2,264.2 365.9,262.9 368.6,261.6 371.3,261.1 374.0,260.8 376.8,260.7 379.5,260.3 382.2,259.9 384.9,259.6 387.6,259.4 390.3,259.2 395.7,259.0 398.4,258.5 401.1,258.0 403.8,257.5 406.5,257.1 411.9,257.0 417.3,256.9 420.1,256.5 422.8,256.2 425.5,255.3 428.2,254.7 430.9,254.2 433.6,253.7 436.3,253.1 439.0,252.5 441.7,251.9 444.4,251.1 447.1,250.5 449.8,249.9 452.5,249.5 455.2,249.1 457.9,248.5 460.6,248.3 463.4,248.0 466.1,247.6 468.8,247.5 471.5,247.4 476.9,247.3 479.6,246.0 482.3,245.1 485.0,244.9 487.7,244.8 493.1,244.7 495.8,244.5 506.7,244.4 512.1,244.3 520.2,244.2 522.9,242.7 525.6,241.3 528.3,240.9 531.0,239.7 533.7,238.8 536.4,238.2 539.1,237.9 541.8,237.3 544.5,237.1 547.2,236.9 550.0,236.7 552.7,236.6 568.9,235.5 571.6,234.2 574.3,234.0 577.0,233.8 579.7,233.7 598.7,233.7 623.0,232.3 625.7,231.3 628.4,230.0 631.1,228.2 633.8,227.9 636.6,227.3 639.3,226.3 642.0,225.5 644.7,223.7 647.4,221.1 650.1,218.6 652.8,215.6 655.5,212.4 658.2,209.7 660.9,208.0 663.6,206.0 666.3,203.0 669.0,200.5 671.7,198.8 674.4,197.0 677.1,194.5 679.9,193.0 682.6,191.4 685.3,190.0 688.0,189.0 690.7,187.6 693.4,186.8 696.1,185.9 698.8,185.1 701.5,182.7 704.2,180.8 706.9,179.8 709.6,179.5 712.3,178.9 715.0,177.9 717.7,177.1 720.4,175.5 723.2,174.5 725.9,173.6 728.6,173.5 731.3,173.1 734.0,172.4 736.7,170.5 739.4,167.4 742.1,164.2 744.8,161.0 747.5,158.4 750.2,155.4 752.9,152.1 755.6,148.8 758.3,145.7 761.0,143.5 763.7,141.7 766.5,139.7 769.2,137.8 771.9,136.5 774.6,134.9 777.3,133.7 780.0,132.0 782.7,129.7 785.4,127.0 788.1,124.7 790.8,122.7 793.5,121.4 796.2,120.2 798.9,119.1 801.6,117.8 804.3,115.5 807.0,113.7 809.8,111.4 812.5,109.0 815.2,107.1 817.9,105.5 820.6,104.9 823.3,103.9 826.0,103.0 828.7,102.9 831.4,102.8 834.1,102.3 836.8,102.1 839.5,102.1 842.2,101.7 844.9,101.6 853.1,101.5 855.8,101.5 858.5,101.1 861.2,98.4 863.9,96.1 866.6,94.1 869.3,91.8 872.0,90.0" fill="none" stroke="#38bdf8" stroke-width="2.5" stroke-linejoin="round" stroke-linecap="round"/>
<circle cx="872.0" cy="90.0" r="4" fill="#0ea5e9"/>
<text x="866.0" y="80.0" text-anchor="end" font-family="Inter, system-ui, sans-serif" font-size="13" font-weight="700" fill="#334155">2793</text>
<text x="52.0" y="294" text-anchor="middle" font-family="Inter, system-ui, sans-serif" font-size="11" fill="#94a3b8">Jun 10 05:00</text>
<text x="544.5" y="294" text-anchor="middle" font-family="Inter, system-ui, sans-serif" font-size="11" fill="#94a3b8">Jun 17 19:00</text>
<text x="872.0" y="294" text-anchor="middle" font-family="Inter, system-ui, sans-serif" font-size="11" fill="#94a3b8">Jun 22 20:00</text>
</svg>
