<svg xmlns="http://www.w3.org/2000/svg" width="900" height="320" viewBox="0 0 900 320" role="img" aria-labelledby="title desc">
<title id="title">Unsorry proofs over time</title>
<desc id="desc">Cumulative kernel-verified proofs over time, by the hour each proof was merged.</desc>
<rect width="900" height="100%" rx="18" fill="#ffffff"/>
<rect x="0.5" y="0.5" width="899" height="319" rx="18" fill="none" stroke="#e2e8f0"/>
<text x="32" y="44" font-family="Inter, system-ui, sans-serif" font-size="28" font-weight="700" fill="#334155">Unsorry — Proofs Over Time</text>
<text x="32" y="72" font-family="Inter, system-ui, sans-serif" font-size="13" fill="#64748b">2006 cumulative kernel-verified proofs · merged, hourly</text>
<line x1="52" y1="272.0" x2="872" y2="272.0" stroke="#f1f5f9"/>
<text x="44" y="276.0" text-anchor="end" font-family="Inter, system-ui, sans-serif" font-size="11" fill="#94a3b8">0</text>
<line x1="52" y1="226.5" x2="872" y2="226.5" stroke="#f1f5f9"/>
<text x="44" y="230.5" text-anchor="end" font-family="Inter, system-ui, sans-serif" font-size="11" fill="#94a3b8">502</text>
<line x1="52" y1="181.0" x2="872" y2="181.0" stroke="#f1f5f9"/>
<text x="44" y="185.0" text-anchor="end" font-family="Inter, system-ui, sans-serif" font-size="11" fill="#94a3b8">1003</text>
<line x1="52" y1="135.5" x2="872" y2="135.5" stroke="#f1f5f9"/>
<text x="44" y="139.5" text-anchor="end" font-family="Inter, system-ui, sans-serif" font-size="11" fill="#94a3b8">1504</text>
<line x1="52" y1="90.0" x2="872" y2="90.0" stroke="#f1f5f9"/>
<text x="44" y="94.0" text-anchor="end" font-family="Inter, system-ui, sans-serif" font-size="11" fill="#94a3b8">2006</text>
<polygon points="52.0,272.0 52.0,271.9 55.1,271.7 92.4,270.8 95.5,270.5 98.6,270.5 107.9,270.4 126.5,270.3 166.9,270.2 170.0,269.4 173.1,269.3 182.5,269.1 185.6,269.0 188.7,268.9 191.8,268.6 198.0,268.6 201.1,268.1 210.4,267.7 222.8,267.6 225.9,267.3 229.0,267.1 253.9,267.0 260.1,266.9 275.6,266.8 278.7,266.7 281.8,266.6 294.3,266.5 297.4,265.9 300.5,265.5 303.6,264.3 306.7,264.1 328.4,264.0 337.8,263.9 344.0,263.8 347.1,263.7 350.2,263.3 353.3,263.2 356.4,263.1 359.5,262.8 362.6,262.6 375.0,262.1 381.2,262.0 393.7,261.9 396.8,261.5 399.9,261.4 403.0,261.2 409.2,261.1 412.3,259.3 415.4,257.5 418.5,256.8 421.6,256.4 424.7,256.2 427.8,255.8 430.9,255.1 434.0,254.7 437.2,254.4 440.3,254.2 446.5,253.9 449.6,253.2 452.7,252.5 455.8,251.8 458.9,251.3 465.1,251.1 471.3,251.0 474.4,250.4 477.5,250.0 480.6,248.7 483.7,248.0 486.8,247.2 490.0,246.5 493.1,245.7 496.2,244.9 499.3,244.0 502.4,243.0 505.5,242.1 508.6,241.2 511.7,240.7 514.8,240.1 517.9,239.3 521.0,239.0 524.1,238.5 527.2,238.1 530.3,237.9 533.4,237.7 539.7,237.6 542.8,235.8 545.9,234.5 549.0,234.3 552.1,234.2 558.3,234.0 561.4,233.7 573.8,233.6 580.0,233.4 589.3,233.3 592.5,231.3 595.6,229.3 598.7,228.7 601.8,227.1 604.9,225.8 608.0,225.0 611.1,224.5 614.2,223.7 617.3,223.4 620.4,223.2 623.5,222.8 626.6,222.6 645.3,221.2 648.4,219.4 651.5,219.1 654.6,218.8 657.7,218.7 679.4,218.7 707.4,216.7 710.5,215.3 713.6,213.6 716.7,211.0 719.8,210.6 722.9,209.8 726.0,208.3 729.1,207.2 732.2,204.8 735.3,201.1 738.4,197.6 741.5,193.4 744.7,189.1 747.8,185.3 750.9,182.9 754.0,180.1 757.1,175.9 760.2,172.4 763.3,170.0 766.4,167.6 769.5,164.1 772.6,161.9 775.7,159.8 778.8,157.9 781.9,156.4 785.0,154.5 788.1,153.3 791.2,152.1 794.3,151.0 797.5,147.7 800.6,145.1 803.7,143.6 806.8,143.2 809.9,142.3 813.0,141.0 816.1,139.8 819.2,137.6 822.3,136.3 825.4,135.0 828.5,134.8 831.6,134.3 834.7,133.3 837.8,130.6 840.9,126.4 844.0,121.9 847.2,117.5 850.3,113.9 853.4,109.6 856.5,105.1 859.6,100.4 862.7,96.2 865.8,93.1 868.9,90.6 872.0,90.0 872.0,272.0" fill="#e0f2fe" opacity="0.55"/>
<polyline points="52.0,271.9 55.1,271.7 92.4,270.8 95.5,270.5 98.6,270.5 107.9,270.4 126.5,270.3 166.9,270.2 170.0,269.4 173.1,269.3 182.5,269.1 185.6,269.0 188.7,268.9 191.8,268.6 198.0,268.6 201.1,268.1 210.4,267.7 222.8,267.6 225.9,267.3 229.0,267.1 253.9,267.0 260.1,266.9 275.6,266.8 278.7,266.7 281.8,266.6 294.3,266.5 297.4,265.9 300.5,265.5 303.6,264.3 306.7,264.1 328.4,264.0 337.8,263.9 344.0,263.8 347.1,263.7 350.2,263.3 353.3,263.2 356.4,263.1 359.5,262.8 362.6,262.6 375.0,262.1 381.2,262.0 393.7,261.9 396.8,261.5 399.9,261.4 403.0,261.2 409.2,261.1 412.3,259.3 415.4,257.5 418.5,256.8 421.6,256.4 424.7,256.2 427.8,255.8 430.9,255.1 434.0,254.7 437.2,254.4 440.3,254.2 446.5,253.9 449.6,253.2 452.7,252.5 455.8,251.8 458.9,251.3 465.1,251.1 471.3,251.0 474.4,250.4 477.5,250.0 480.6,248.7 483.7,248.0 486.8,247.2 490.0,246.5 493.1,245.7 496.2,244.9 499.3,244.0 502.4,243.0 505.5,242.1 508.6,241.2 511.7,240.7 514.8,240.1 517.9,239.3 521.0,239.0 524.1,238.5 527.2,238.1 530.3,237.9 533.4,237.7 539.7,237.6 542.8,235.8 545.9,234.5 549.0,234.3 552.1,234.2 558.3,234.0 561.4,233.7 573.8,233.6 580.0,233.4 589.3,233.3 592.5,231.3 595.6,229.3 598.7,228.7 601.8,227.1 604.9,225.8 608.0,225.0 611.1,224.5 614.2,223.7 617.3,223.4 620.4,223.2 623.5,222.8 626.6,222.6 645.3,221.2 648.4,219.4 651.5,219.1 654.6,218.8 657.7,218.7 679.4,218.7 707.4,216.7 710.5,215.3 713.6,213.6 716.7,211.0 719.8,210.6 722.9,209.8 726.0,208.3 729.1,207.2 732.2,204.8 735.3,201.1 738.4,197.6 741.5,193.4 744.7,189.1 747.8,185.3 750.9,182.9 754.0,180.1 757.1,175.9 760.2,172.4 763.3,170.0 766.4,167.6 769.5,164.1 772.6,161.9 775.7,159.8 778.8,157.9 781.9,156.4 785.0,154.5 788.1,153.3 791.2,152.1 794.3,151.0 797.5,147.7 800.6,145.1 803.7,143.6 806.8,143.2 809.9,142.3 813.0,141.0 816.1,139.8 819.2,137.6 822.3,136.3 825.4,135.0 828.5,134.8 831.6,134.3 834.7,133.3 837.8,130.6 840.9,126.4 844.0,121.9 847.2,117.5 850.3,113.9 853.4,109.6 856.5,105.1 859.6,100.4 862.7,96.2 865.8,93.1 868.9,90.6 872.0,90.0" fill="none" stroke="#38bdf8" stroke-width="2.5" stroke-linejoin="round" stroke-linecap="round"/>
<circle cx="872.0" cy="90.0" r="4" fill="#0ea5e9"/>
<text x="866.0" y="80.0" text-anchor="end" font-family="Inter, system-ui, sans-serif" font-size="13" font-weight="700" fill="#334155">2006</text>
<text x="52.0" y="294" text-anchor="middle" font-family="Inter, system-ui, sans-serif" font-size="11" fill="#94a3b8">Jun 10 05:00</text>
<text x="533.4" y="294" text-anchor="middle" font-family="Inter, system-ui, sans-serif" font-size="11" fill="#94a3b8">Jun 16 16:00</text>
<text x="872.0" y="294" text-anchor="middle" font-family="Inter, system-ui, sans-serif" font-size="11" fill="#94a3b8">Jun 21 05:00</text>
</svg>
