<svg xmlns="http://www.w3.org/2000/svg" width="900" height="320" viewBox="0 0 900 320" role="img" aria-labelledby="title desc">
<title id="title">unsorry proofs over time</title>
<desc id="desc">Cumulative kernel-verified proofs over time, by the hour each proof was merged.</desc>
<rect width="900" height="100%" rx="18" fill="#ffffff"/>
<rect x="0.5" y="0.5" width="899" height="319" rx="18" fill="none" stroke="#e2e8f0"/>
<text x="32" y="44" font-family="Inter, system-ui, sans-serif" font-size="28" font-weight="700" fill="#334155">unsorry — Proofs Over Time</text>
<text x="32" y="72" font-family="Inter, system-ui, sans-serif" font-size="13" fill="#64748b">2656 cumulative kernel-verified proofs · merged, hourly</text>
<line x1="52" y1="272.0" x2="872" y2="272.0" stroke="#f1f5f9"/>
<text x="44" y="276.0" text-anchor="end" font-family="Inter, system-ui, sans-serif" font-size="11" fill="#94a3b8">0</text>
<line x1="52" y1="226.5" x2="872" y2="226.5" stroke="#f1f5f9"/>
<text x="44" y="230.5" text-anchor="end" font-family="Inter, system-ui, sans-serif" font-size="11" fill="#94a3b8">664</text>
<line x1="52" y1="181.0" x2="872" y2="181.0" stroke="#f1f5f9"/>
<text x="44" y="185.0" text-anchor="end" font-family="Inter, system-ui, sans-serif" font-size="11" fill="#94a3b8">1328</text>
<line x1="52" y1="135.5" x2="872" y2="135.5" stroke="#f1f5f9"/>
<text x="44" y="139.5" text-anchor="end" font-family="Inter, system-ui, sans-serif" font-size="11" fill="#94a3b8">1992</text>
<line x1="52" y1="90.0" x2="872" y2="90.0" stroke="#f1f5f9"/>
<text x="44" y="94.0" text-anchor="end" font-family="Inter, system-ui, sans-serif" font-size="11" fill="#94a3b8">2656</text>
<polygon points="52.0,272.0 52.0,271.9 54.7,271.8 87.7,271.1 90.4,270.9 93.1,270.8 101.4,270.8 117.8,270.7 153.5,270.6 156.2,270.0 159.0,269.9 167.2,269.8 169.9,269.7 172.7,269.7 175.4,269.5 180.9,269.4 183.6,269.1 191.9,268.8 202.8,268.6 205.6,268.4 208.3,268.3 230.3,268.2 235.7,268.2 249.5,268.1 252.2,268.0 254.9,267.9 265.9,267.8 268.7,267.4 271.4,267.1 274.1,266.2 276.9,266.0 296.1,266.0 304.3,265.9 309.8,265.8 312.5,265.8 315.3,265.4 318.0,265.4 320.8,265.3 323.5,265.1 326.2,264.9 337.2,264.5 342.7,264.5 353.7,264.4 356.4,264.1 359.2,264.0 361.9,263.8 367.4,263.8 370.1,262.4 372.9,261.0 375.6,260.6 378.4,260.2 381.1,260.1 383.8,259.7 386.6,259.3 389.3,258.9 392.1,258.7 394.8,258.6 400.3,258.4 403.0,257.8 405.8,257.3 408.5,256.7 411.3,256.4 416.7,256.2 422.2,256.2 425.0,255.7 427.7,255.3 430.5,254.4 433.2,253.8 435.9,253.3 438.7,252.7 441.4,252.1 444.2,251.5 446.9,250.8 449.7,250.1 452.4,249.4 455.1,248.8 457.9,248.4 460.6,247.9 463.4,247.3 466.1,247.1 468.9,246.7 471.6,246.4 474.3,246.2 477.1,246.1 482.6,246.0 485.3,244.7 488.1,243.7 490.8,243.5 493.5,243.4 499.0,243.3 501.8,243.1 512.7,243.0 518.2,242.9 526.4,242.8 529.2,241.2 531.9,239.7 534.7,239.3 537.4,238.1 540.2,237.1 542.9,236.5 545.6,236.2 548.4,235.5 551.1,235.3 553.9,235.1 556.6,234.9 559.4,234.7 575.8,233.6 578.6,232.3 581.3,232.1 584.0,231.8 586.8,231.8 606.0,231.7 630.7,230.3 633.4,229.2 636.1,227.9 638.9,226.0 641.6,225.6 644.4,225.0 647.1,223.9 649.9,223.1 652.6,221.2 655.3,218.5 658.1,215.8 660.8,212.7 663.6,209.4 666.3,206.5 669.1,204.7 671.8,202.6 674.5,199.4 677.3,196.8 680.0,195.0 682.8,193.1 685.5,190.5 688.3,188.9 691.0,187.2 693.7,185.8 696.5,184.7 699.2,183.3 702.0,182.4 704.7,181.4 707.5,180.6 710.2,178.1 712.9,176.1 715.7,175.0 718.4,174.7 721.2,174.1 723.9,173.1 726.6,172.2 729.4,170.5 732.1,169.5 734.9,168.5 737.6,168.4 740.4,168.0 743.1,167.2 745.8,165.2 748.6,162.0 751.3,158.7 754.1,155.3 756.8,152.6 759.6,149.3 762.3,145.9 765.0,142.4 767.8,139.2 770.5,136.9 773.3,135.0 776.0,132.9 778.8,130.8 781.5,129.5 784.2,127.8 787.0,126.6 789.7,124.8 792.5,122.4 795.2,119.5 798.0,117.1 800.7,115.0 803.4,113.6 806.2,112.4 808.9,111.2 811.7,109.8 814.4,107.5 817.2,105.5 819.9,103.1 822.6,100.6 825.4,98.6 828.1,96.9 830.9,96.2 833.6,95.3 836.3,94.3 839.1,94.2 841.8,94.0 844.6,93.6 847.3,93.4 850.1,93.3 852.8,92.9 855.5,92.8 863.8,92.7 866.5,92.7 869.3,92.3 872.0,90.0 872.0,272.0" fill="#e0f2fe" opacity="0.55"/>
<polyline points="52.0,271.9 54.7,271.8 87.7,271.1 90.4,270.9 93.1,270.8 101.4,270.8 117.8,270.7 153.5,270.6 156.2,270.0 159.0,269.9 167.2,269.8 169.9,269.7 172.7,269.7 175.4,269.5 180.9,269.4 183.6,269.1 191.9,268.8 202.8,268.6 205.6,268.4 208.3,268.3 230.3,268.2 235.7,268.2 249.5,268.1 252.2,268.0 254.9,267.9 265.9,267.8 268.7,267.4 271.4,267.1 274.1,266.2 276.9,266.0 296.1,266.0 304.3,265.9 309.8,265.8 312.5,265.8 315.3,265.4 318.0,265.4 320.8,265.3 323.5,265.1 326.2,264.9 337.2,264.5 342.7,264.5 353.7,264.4 356.4,264.1 359.2,264.0 361.9,263.8 367.4,263.8 370.1,262.4 372.9,261.0 375.6,260.6 378.4,260.2 381.1,260.1 383.8,259.7 386.6,259.3 389.3,258.9 392.1,258.7 394.8,258.6 400.3,258.4 403.0,257.8 405.8,257.3 408.5,256.7 411.3,256.4 416.7,256.2 422.2,256.2 425.0,255.7 427.7,255.3 430.5,254.4 433.2,253.8 435.9,253.3 438.7,252.7 441.4,252.1 444.2,251.5 446.9,250.8 449.7,250.1 452.4,249.4 455.1,248.8 457.9,248.4 460.6,247.9 463.4,247.3 466.1,247.1 468.9,246.7 471.6,246.4 474.3,246.2 477.1,246.1 482.6,246.0 485.3,244.7 488.1,243.7 490.8,243.5 493.5,243.4 499.0,243.3 501.8,243.1 512.7,243.0 518.2,242.9 526.4,242.8 529.2,241.2 531.9,239.7 534.7,239.3 537.4,238.1 540.2,237.1 542.9,236.5 545.6,236.2 548.4,235.5 551.1,235.3 553.9,235.1 556.6,234.9 559.4,234.7 575.8,233.6 578.6,232.3 581.3,232.1 584.0,231.8 586.8,231.8 606.0,231.7 630.7,230.3 633.4,229.2 636.1,227.9 638.9,226.0 641.6,225.6 644.4,225.0 647.1,223.9 649.9,223.1 652.6,221.2 655.3,218.5 658.1,215.8 660.8,212.7 663.6,209.4 666.3,206.5 669.1,204.7 671.8,202.6 674.5,199.4 677.3,196.8 680.0,195.0 682.8,193.1 685.5,190.5 688.3,188.9 691.0,187.2 693.7,185.8 696.5,184.7 699.2,183.3 702.0,182.4 704.7,181.4 707.5,180.6 710.2,178.1 712.9,176.1 715.7,175.0 718.4,174.7 721.2,174.1 723.9,173.1 726.6,172.2 729.4,170.5 732.1,169.5 734.9,168.5 737.6,168.4 740.4,168.0 743.1,167.2 745.8,165.2 748.6,162.0 751.3,158.7 754.1,155.3 756.8,152.6 759.6,149.3 762.3,145.9 765.0,142.4 767.8,139.2 770.5,136.9 773.3,135.0 776.0,132.9 778.8,130.8 781.5,129.5 784.2,127.8 787.0,126.6 789.7,124.8 792.5,122.4 795.2,119.5 798.0,117.1 800.7,115.0 803.4,113.6 806.2,112.4 808.9,111.2 811.7,109.8 814.4,107.5 817.2,105.5 819.9,103.1 822.6,100.6 825.4,98.6 828.1,96.9 830.9,96.2 833.6,95.3 836.3,94.3 839.1,94.2 841.8,94.0 844.6,93.6 847.3,93.4 850.1,93.3 852.8,92.9 855.5,92.8 863.8,92.7 866.5,92.7 869.3,92.3 872.0,90.0" fill="none" stroke="#38bdf8" stroke-width="2.5" stroke-linejoin="round" stroke-linecap="round"/>
<circle cx="872.0" cy="90.0" r="4" fill="#0ea5e9"/>
<text x="866.0" y="80.0" text-anchor="end" font-family="Inter, system-ui, sans-serif" font-size="13" font-weight="700" fill="#334155">2656</text>
<text x="52.0" y="294" text-anchor="middle" font-family="Inter, system-ui, sans-serif" font-size="11" fill="#94a3b8">Jun 10 05:00</text>
<text x="545.6" y="294" text-anchor="middle" font-family="Inter, system-ui, sans-serif" font-size="11" fill="#94a3b8">Jun 17 17:00</text>
<text x="872.0" y="294" text-anchor="middle" font-family="Inter, system-ui, sans-serif" font-size="11" fill="#94a3b8">Jun 22 16:00</text>
</svg>
