<svg xmlns="http://www.w3.org/2000/svg" width="900" height="320" viewBox="0 0 900 320" role="img" aria-labelledby="title desc">
<title id="title">Unsorry proofs over time</title>
<desc id="desc">Cumulative kernel-verified proofs over time, by the hour each proof was merged.</desc>
<rect width="900" height="100%" rx="18" fill="#ffffff"/>
<rect x="0.5" y="0.5" width="899" height="319" rx="18" fill="none" stroke="#e2e8f0"/>
<text x="32" y="44" font-family="Inter, system-ui, sans-serif" font-size="28" font-weight="700" fill="#334155">Unsorry — Proofs Over Time</text>
<text x="32" y="72" font-family="Inter, system-ui, sans-serif" font-size="13" fill="#64748b">2124 cumulative kernel-verified proofs · merged, hourly</text>
<line x1="52" y1="272.0" x2="872" y2="272.0" stroke="#f1f5f9"/>
<text x="44" y="276.0" text-anchor="end" font-family="Inter, system-ui, sans-serif" font-size="11" fill="#94a3b8">0</text>
<line x1="52" y1="226.5" x2="872" y2="226.5" stroke="#f1f5f9"/>
<text x="44" y="230.5" text-anchor="end" font-family="Inter, system-ui, sans-serif" font-size="11" fill="#94a3b8">531</text>
<line x1="52" y1="181.0" x2="872" y2="181.0" stroke="#f1f5f9"/>
<text x="44" y="185.0" text-anchor="end" font-family="Inter, system-ui, sans-serif" font-size="11" fill="#94a3b8">1062</text>
<line x1="52" y1="135.5" x2="872" y2="135.5" stroke="#f1f5f9"/>
<text x="44" y="139.5" text-anchor="end" font-family="Inter, system-ui, sans-serif" font-size="11" fill="#94a3b8">1593</text>
<line x1="52" y1="90.0" x2="872" y2="90.0" stroke="#f1f5f9"/>
<text x="44" y="94.0" text-anchor="end" font-family="Inter, system-ui, sans-serif" font-size="11" fill="#94a3b8">2124</text>
<polygon points="52.0,272.0 52.0,271.9 55.0,271.7 91.6,270.9 94.7,270.6 97.7,270.5 106.9,270.5 125.2,270.4 164.8,270.3 167.8,269.5 170.9,269.4 180.0,269.3 183.1,269.2 186.1,269.1 189.2,268.8 195.3,268.7 198.3,268.3 207.5,268.0 219.7,267.8 222.7,267.5 225.8,267.4 250.1,267.3 256.2,267.2 271.5,267.1 274.5,267.0 277.6,266.9 289.8,266.8 292.8,266.3 295.9,265.8 298.9,264.7 302.0,264.5 323.3,264.5 332.4,264.4 338.5,264.3 341.6,264.2 344.6,263.8 347.7,263.7 350.7,263.6 353.8,263.3 356.8,263.1 369.0,262.7 375.1,262.6 387.3,262.5 390.4,262.1 393.4,262.0 396.5,261.8 402.6,261.7 405.6,260.0 408.7,258.3 411.7,257.7 414.8,257.3 417.8,257.1 420.8,256.7 423.9,256.1 426.9,255.6 430.0,255.4 433.0,255.2 439.1,254.9 442.2,254.3 445.2,253.6 448.3,252.9 451.3,252.5 457.4,252.3 463.5,252.2 466.6,251.6 469.6,251.2 472.7,250.0 475.7,249.3 478.8,248.6 481.8,247.9 484.9,247.2 487.9,246.4 491.0,245.5 494.0,244.6 497.1,243.7 500.1,243.0 503.2,242.4 506.2,241.8 509.2,241.2 512.3,240.8 515.3,240.4 518.4,240.0 521.4,239.8 524.5,239.6 530.6,239.5 533.6,237.8 536.7,236.6 539.7,236.4 542.8,236.3 548.9,236.1 551.9,235.8 564.1,235.8 570.2,235.6 579.4,235.5 582.4,233.5 585.5,231.6 588.5,231.1 591.6,229.6 594.6,228.4 597.7,227.6 600.7,227.2 603.7,226.4 606.8,226.1 609.8,225.9 612.9,225.6 615.9,225.4 634.2,224.0 637.3,222.3 640.3,222.0 643.4,221.8 646.4,221.7 667.8,221.6 695.2,219.8 698.2,218.4 701.3,216.8 704.3,214.4 707.4,214.0 710.4,213.2 713.5,211.8 716.5,210.8 719.6,208.5 722.6,205.1 725.7,201.7 728.7,197.8 731.8,193.7 734.8,190.1 737.9,187.9 740.9,185.2 744.0,181.3 747.0,177.9 750.1,175.7 753.1,173.4 756.2,170.1 759.2,168.1 762.3,166.0 765.3,164.2 768.4,162.8 771.4,161.0 774.5,159.9 777.5,158.7 780.6,157.7 783.6,154.6 786.6,152.1 789.7,150.8 792.7,150.3 795.8,149.6 798.8,148.3 801.9,147.2 804.9,145.1 808.0,143.8 811.0,142.6 814.1,142.4 817.1,141.9 820.2,141.0 823.2,138.5 826.3,134.5 829.3,130.3 832.4,126.1 835.4,122.6 838.5,118.6 841.5,114.3 844.6,110.0 847.6,105.9 850.7,103.0 853.7,100.7 856.8,98.1 859.8,95.5 862.9,93.8 865.9,91.7 869.0,90.2 872.0,90.0 872.0,272.0" fill="#e0f2fe" opacity="0.55"/>
<polyline points="52.0,271.9 55.0,271.7 91.6,270.9 94.7,270.6 97.7,270.5 106.9,270.5 125.2,270.4 164.8,270.3 167.8,269.5 170.9,269.4 180.0,269.3 183.1,269.2 186.1,269.1 189.2,268.8 195.3,268.7 198.3,268.3 207.5,268.0 219.7,267.8 222.7,267.5 225.8,267.4 250.1,267.3 256.2,267.2 271.5,267.1 274.5,267.0 277.6,266.9 289.8,266.8 292.8,266.3 295.9,265.8 298.9,264.7 302.0,264.5 323.3,264.5 332.4,264.4 338.5,264.3 341.6,264.2 344.6,263.8 347.7,263.7 350.7,263.6 353.8,263.3 356.8,263.1 369.0,262.7 375.1,262.6 387.3,262.5 390.4,262.1 393.4,262.0 396.5,261.8 402.6,261.7 405.6,260.0 408.7,258.3 411.7,257.7 414.8,257.3 417.8,257.1 420.8,256.7 423.9,256.1 426.9,255.6 430.0,255.4 433.0,255.2 439.1,254.9 442.2,254.3 445.2,253.6 448.3,252.9 451.3,252.5 457.4,252.3 463.5,252.2 466.6,251.6 469.6,251.2 472.7,250.0 475.7,249.3 478.8,248.6 481.8,247.9 484.9,247.2 487.9,246.4 491.0,245.5 494.0,244.6 497.1,243.7 500.1,243.0 503.2,242.4 506.2,241.8 509.2,241.2 512.3,240.8 515.3,240.4 518.4,240.0 521.4,239.8 524.5,239.6 530.6,239.5 533.6,237.8 536.7,236.6 539.7,236.4 542.8,236.3 548.9,236.1 551.9,235.8 564.1,235.8 570.2,235.6 579.4,235.5 582.4,233.5 585.5,231.6 588.5,231.1 591.6,229.6 594.6,228.4 597.7,227.6 600.7,227.2 603.7,226.4 606.8,226.1 609.8,225.9 612.9,225.6 615.9,225.4 634.2,224.0 637.3,222.3 640.3,222.0 643.4,221.8 646.4,221.7 667.8,221.6 695.2,219.8 698.2,218.4 701.3,216.8 704.3,214.4 707.4,214.0 710.4,213.2 713.5,211.8 716.5,210.8 719.6,208.5 722.6,205.1 725.7,201.7 728.7,197.8 731.8,193.7 734.8,190.1 737.9,187.9 740.9,185.2 744.0,181.3 747.0,177.9 750.1,175.7 753.1,173.4 756.2,170.1 759.2,168.1 762.3,166.0 765.3,164.2 768.4,162.8 771.4,161.0 774.5,159.9 777.5,158.7 780.6,157.7 783.6,154.6 786.6,152.1 789.7,150.8 792.7,150.3 795.8,149.6 798.8,148.3 801.9,147.2 804.9,145.1 808.0,143.8 811.0,142.6 814.1,142.4 817.1,141.9 820.2,141.0 823.2,138.5 826.3,134.5 829.3,130.3 832.4,126.1 835.4,122.6 838.5,118.6 841.5,114.3 844.6,110.0 847.6,105.9 850.7,103.0 853.7,100.7 856.8,98.1 859.8,95.5 862.9,93.8 865.9,91.7 869.0,90.2 872.0,90.0" fill="none" stroke="#38bdf8" stroke-width="2.5" stroke-linejoin="round" stroke-linecap="round"/>
<circle cx="872.0" cy="90.0" r="4" fill="#0ea5e9"/>
<text x="866.0" y="80.0" text-anchor="end" font-family="Inter, system-ui, sans-serif" font-size="13" font-weight="700" fill="#334155">2124</text>
<text x="52.0" y="294" text-anchor="middle" font-family="Inter, system-ui, sans-serif" font-size="11" fill="#94a3b8">Jun 10 05:00</text>
<text x="536.7" y="294" text-anchor="middle" font-family="Inter, system-ui, sans-serif" font-size="11" fill="#94a3b8">Jun 16 20:00</text>
<text x="872.0" y="294" text-anchor="middle" font-family="Inter, system-ui, sans-serif" font-size="11" fill="#94a3b8">Jun 21 10:00</text>
</svg>
