<svg xmlns="http://www.w3.org/2000/svg" width="900" height="320" viewBox="0 0 900 320" role="img" aria-labelledby="title desc">
<title id="title">Unsorry proofs over time</title>
<desc id="desc">Cumulative kernel-verified proofs over time, by the hour each proof was merged.</desc>
<rect width="900" height="100%" rx="18" fill="#ffffff"/>
<rect x="0.5" y="0.5" width="899" height="319" rx="18" fill="none" stroke="#e2e8f0"/>
<text x="32" y="44" font-family="Inter, system-ui, sans-serif" font-size="28" font-weight="700" fill="#334155">Unsorry — Proofs Over Time</text>
<text x="32" y="72" font-family="Inter, system-ui, sans-serif" font-size="13" fill="#64748b">2522 cumulative kernel-verified proofs · merged, hourly</text>
<line x1="52" y1="272.0" x2="872" y2="272.0" stroke="#f1f5f9"/>
<text x="44" y="276.0" text-anchor="end" font-family="Inter, system-ui, sans-serif" font-size="11" fill="#94a3b8">0</text>
<line x1="52" y1="226.5" x2="872" y2="226.5" stroke="#f1f5f9"/>
<text x="44" y="230.5" text-anchor="end" font-family="Inter, system-ui, sans-serif" font-size="11" fill="#94a3b8">630</text>
<line x1="52" y1="181.0" x2="872" y2="181.0" stroke="#f1f5f9"/>
<text x="44" y="185.0" text-anchor="end" font-family="Inter, system-ui, sans-serif" font-size="11" fill="#94a3b8">1261</text>
<line x1="52" y1="135.5" x2="872" y2="135.5" stroke="#f1f5f9"/>
<text x="44" y="139.5" text-anchor="end" font-family="Inter, system-ui, sans-serif" font-size="11" fill="#94a3b8">1892</text>
<line x1="52" y1="90.0" x2="872" y2="90.0" stroke="#f1f5f9"/>
<text x="44" y="94.0" text-anchor="end" font-family="Inter, system-ui, sans-serif" font-size="11" fill="#94a3b8">2522</text>
<polygon points="52.0,272.0 52.0,271.9 54.9,271.8 89.8,271.1 92.7,270.8 95.6,270.8 104.3,270.7 121.8,270.6 159.6,270.6 162.5,269.9 165.4,269.8 174.1,269.7 177.0,269.6 179.9,269.5 182.9,269.3 188.7,269.3 191.6,268.9 200.3,268.6 211.9,268.5 214.8,268.2 217.7,268.1 241.0,268.0 246.8,268.0 261.4,267.9 264.3,267.8 267.2,267.7 278.8,267.6 281.7,267.2 284.6,266.8 287.5,265.9 290.4,265.7 310.8,265.6 319.5,265.6 325.3,265.5 328.2,265.4 331.1,265.1 334.1,265.0 337.0,264.9 339.9,264.7 342.8,264.5 354.4,264.1 360.2,264.1 371.9,264.0 374.8,263.6 377.7,263.6 380.6,263.4 386.4,263.3 389.3,261.9 392.2,260.5 395.1,259.9 398.0,259.6 400.9,259.4 403.8,259.1 406.8,258.6 409.7,258.2 412.6,258.0 415.5,257.9 421.3,257.6 424.2,257.1 427.1,256.5 430.0,255.9 432.9,255.5 438.7,255.4 444.6,255.3 447.5,254.8 450.4,254.5 453.3,253.5 456.2,252.9 459.1,252.3 462.0,251.7 464.9,251.1 467.8,250.4 470.7,249.7 473.6,248.9 476.5,248.2 479.4,247.5 482.4,247.1 485.3,246.6 488.2,246.0 491.1,245.7 494.0,245.4 496.9,245.0 499.8,244.9 502.7,244.7 508.5,244.6 511.4,243.2 514.3,242.2 517.2,242.0 520.2,241.9 526.0,241.8 528.9,241.5 540.5,241.5 546.3,241.3 555.0,241.3 558.0,239.6 560.9,238.0 563.8,237.6 566.7,236.3 569.6,235.3 572.5,234.6 575.4,234.3 578.3,233.6 581.2,233.3 584.1,233.2 587.0,232.9 589.9,232.7 607.4,231.6 610.3,230.1 613.2,229.9 616.1,229.7 619.0,229.6 639.4,229.6 665.5,228.1 668.5,226.9 671.4,225.5 674.3,223.5 677.2,223.1 680.1,222.5 683.0,221.3 685.9,220.5 688.8,218.5 691.7,215.6 694.6,212.8 697.5,209.5 700.4,206.0 703.3,203.0 706.3,201.1 709.2,198.9 712.1,195.6 715.0,192.8 717.9,190.9 720.8,188.9 723.7,186.2 726.6,184.5 729.5,182.7 732.4,181.2 735.3,180.1 738.2,178.5 741.1,177.6 744.1,176.6 747.0,175.7 749.9,173.1 752.8,171.0 755.7,169.9 758.6,169.5 761.5,168.9 764.4,167.8 767.3,166.9 770.2,165.1 773.1,164.0 776.0,163.0 779.0,162.9 781.9,162.5 784.8,161.7 787.7,159.6 790.6,156.2 793.5,152.6 796.4,149.1 799.3,146.2 802.2,142.8 805.1,139.2 808.0,135.5 810.9,132.1 813.8,129.7 816.8,127.7 819.7,125.5 822.6,123.3 825.5,121.9 828.4,120.2 831.3,118.9 834.2,117.0 837.1,114.5 840.0,111.4 842.9,108.9 845.8,106.7 848.7,105.2 851.6,103.9 854.6,102.6 857.5,101.2 860.4,98.7 863.3,96.6 866.2,94.1 869.1,91.5 872.0,90.0 872.0,272.0" fill="#e0f2fe" opacity="0.55"/>
<polyline points="52.0,271.9 54.9,271.8 89.8,271.1 92.7,270.8 95.6,270.8 104.3,270.7 121.8,270.6 159.6,270.6 162.5,269.9 165.4,269.8 174.1,269.7 177.0,269.6 179.9,269.5 182.9,269.3 188.7,269.3 191.6,268.9 200.3,268.6 211.9,268.5 214.8,268.2 217.7,268.1 241.0,268.0 246.8,268.0 261.4,267.9 264.3,267.8 267.2,267.7 278.8,267.6 281.7,267.2 284.6,266.8 287.5,265.9 290.4,265.7 310.8,265.6 319.5,265.6 325.3,265.5 328.2,265.4 331.1,265.1 334.1,265.0 337.0,264.9 339.9,264.7 342.8,264.5 354.4,264.1 360.2,264.1 371.9,264.0 374.8,263.6 377.7,263.6 380.6,263.4 386.4,263.3 389.3,261.9 392.2,260.5 395.1,259.9 398.0,259.6 400.9,259.4 403.8,259.1 406.8,258.6 409.7,258.2 412.6,258.0 415.5,257.9 421.3,257.6 424.2,257.1 427.1,256.5 430.0,255.9 432.9,255.5 438.7,255.4 444.6,255.3 447.5,254.8 450.4,254.5 453.3,253.5 456.2,252.9 459.1,252.3 462.0,251.7 464.9,251.1 467.8,250.4 470.7,249.7 473.6,248.9 476.5,248.2 479.4,247.5 482.4,247.1 485.3,246.6 488.2,246.0 491.1,245.7 494.0,245.4 496.9,245.0 499.8,244.9 502.7,244.7 508.5,244.6 511.4,243.2 514.3,242.2 517.2,242.0 520.2,241.9 526.0,241.8 528.9,241.5 540.5,241.5 546.3,241.3 555.0,241.3 558.0,239.6 560.9,238.0 563.8,237.6 566.7,236.3 569.6,235.3 572.5,234.6 575.4,234.3 578.3,233.6 581.2,233.3 584.1,233.2 587.0,232.9 589.9,232.7 607.4,231.6 610.3,230.1 613.2,229.9 616.1,229.7 619.0,229.6 639.4,229.6 665.5,228.1 668.5,226.9 671.4,225.5 674.3,223.5 677.2,223.1 680.1,222.5 683.0,221.3 685.9,220.5 688.8,218.5 691.7,215.6 694.6,212.8 697.5,209.5 700.4,206.0 703.3,203.0 706.3,201.1 709.2,198.9 712.1,195.6 715.0,192.8 717.9,190.9 720.8,188.9 723.7,186.2 726.6,184.5 729.5,182.7 732.4,181.2 735.3,180.1 738.2,178.5 741.1,177.6 744.1,176.6 747.0,175.7 749.9,173.1 752.8,171.0 755.7,169.9 758.6,169.5 761.5,168.9 764.4,167.8 767.3,166.9 770.2,165.1 773.1,164.0 776.0,163.0 779.0,162.9 781.9,162.5 784.8,161.7 787.7,159.6 790.6,156.2 793.5,152.6 796.4,149.1 799.3,146.2 802.2,142.8 805.1,139.2 808.0,135.5 810.9,132.1 813.8,129.7 816.8,127.7 819.7,125.5 822.6,123.3 825.5,121.9 828.4,120.2 831.3,118.9 834.2,117.0 837.1,114.5 840.0,111.4 842.9,108.9 845.8,106.7 848.7,105.2 851.6,103.9 854.6,102.6 857.5,101.2 860.4,98.7 863.3,96.6 866.2,94.1 869.1,91.5 872.0,90.0" fill="none" stroke="#38bdf8" stroke-width="2.5" stroke-linejoin="round" stroke-linecap="round"/>
<circle cx="872.0" cy="90.0" r="4" fill="#0ea5e9"/>
<text x="866.0" y="80.0" text-anchor="end" font-family="Inter, system-ui, sans-serif" font-size="13" font-weight="700" fill="#334155">2522</text>
<text x="52.0" y="294" text-anchor="middle" font-family="Inter, system-ui, sans-serif" font-size="11" fill="#94a3b8">Jun 10 05:00</text>
<text x="546.3" y="294" text-anchor="middle" font-family="Inter, system-ui, sans-serif" font-size="11" fill="#94a3b8">Jun 17 07:00</text>
<text x="872.0" y="294" text-anchor="middle" font-family="Inter, system-ui, sans-serif" font-size="11" fill="#94a3b8">Jun 21 23:00</text>
</svg>
