<svg xmlns="http://www.w3.org/2000/svg" width="900" height="320" viewBox="0 0 900 320" role="img" aria-labelledby="title desc">
<title id="title">Unsorry proofs over time</title>
<desc id="desc">Cumulative kernel-verified proofs over time, by the hour each proof was merged.</desc>
<rect width="900" height="100%" rx="18" fill="#ffffff"/>
<rect x="0.5" y="0.5" width="899" height="319" rx="18" fill="none" stroke="#e2e8f0"/>
<text x="32" y="44" font-family="Inter, system-ui, sans-serif" font-size="28" font-weight="700" fill="#334155">Unsorry — Proofs Over Time</text>
<text x="32" y="72" font-family="Inter, system-ui, sans-serif" font-size="13" fill="#64748b">2084 cumulative kernel-verified proofs · merged, hourly</text>
<line x1="52" y1="272.0" x2="872" y2="272.0" stroke="#f1f5f9"/>
<text x="44" y="276.0" text-anchor="end" font-family="Inter, system-ui, sans-serif" font-size="11" fill="#94a3b8">0</text>
<line x1="52" y1="226.5" x2="872" y2="226.5" stroke="#f1f5f9"/>
<text x="44" y="230.5" text-anchor="end" font-family="Inter, system-ui, sans-serif" font-size="11" fill="#94a3b8">521</text>
<line x1="52" y1="181.0" x2="872" y2="181.0" stroke="#f1f5f9"/>
<text x="44" y="185.0" text-anchor="end" font-family="Inter, system-ui, sans-serif" font-size="11" fill="#94a3b8">1042</text>
<line x1="52" y1="135.5" x2="872" y2="135.5" stroke="#f1f5f9"/>
<text x="44" y="139.5" text-anchor="end" font-family="Inter, system-ui, sans-serif" font-size="11" fill="#94a3b8">1563</text>
<line x1="52" y1="90.0" x2="872" y2="90.0" stroke="#f1f5f9"/>
<text x="44" y="94.0" text-anchor="end" font-family="Inter, system-ui, sans-serif" font-size="11" fill="#94a3b8">2084</text>
<polygon points="52.0,272.0 52.0,271.9 55.1,271.7 91.9,270.9 95.0,270.6 98.1,270.5 107.3,270.4 125.7,270.3 165.6,270.3 168.7,269.5 171.8,269.4 181.0,269.2 184.1,269.1 187.1,269.0 190.2,268.8 196.3,268.7 199.4,268.2 208.6,267.9 220.9,267.7 224.0,267.5 227.1,267.3 251.6,267.2 257.8,267.1 273.1,267.0 276.2,266.9 279.3,266.8 291.6,266.7 294.6,266.1 297.7,265.7 300.8,264.6 303.8,264.4 325.3,264.3 334.5,264.2 340.7,264.1 343.8,264.1 346.8,263.6 349.9,263.5 353.0,263.4 356.0,263.2 359.1,262.9 371.4,262.5 377.5,262.4 389.8,262.3 392.9,261.9 396.0,261.8 399.0,261.6 405.2,261.5 408.3,259.8 411.3,258.0 414.4,257.4 417.5,257.0 420.5,256.8 423.6,256.4 426.7,255.8 429.8,255.3 432.8,255.1 435.9,254.9 442.0,254.6 445.1,253.9 448.2,253.2 451.3,252.5 454.3,252.1 460.5,251.9 466.6,251.8 469.7,251.2 472.7,250.8 475.8,249.6 478.9,248.9 482.0,248.2 485.0,247.5 488.1,246.7 491.2,245.9 494.2,245.0 497.3,244.1 500.4,243.2 503.5,242.4 506.5,241.9 509.6,241.3 512.7,240.6 515.7,240.2 518.8,239.8 521.9,239.3 525.0,239.2 528.0,239.0 534.2,238.9 537.2,237.2 540.3,235.9 543.4,235.7 546.5,235.6 552.6,235.4 555.7,235.1 568.0,235.1 574.1,234.9 583.3,234.8 586.4,232.8 589.5,230.9 592.5,230.3 595.6,228.8 598.7,227.5 601.7,226.8 604.8,226.3 607.9,225.5 611.0,225.2 614.0,225.0 617.1,224.7 620.2,224.5 638.6,223.1 641.7,221.3 644.7,221.1 647.8,220.8 650.9,220.7 672.4,220.6 700.0,218.8 703.1,217.4 706.2,215.8 709.2,213.3 712.3,212.9 715.4,212.1 718.4,210.7 721.5,209.6 724.6,207.3 727.7,203.8 730.7,200.4 733.8,196.4 736.9,192.2 739.9,188.5 743.0,186.2 746.1,183.5 749.2,179.5 752.2,176.1 755.3,173.8 758.4,171.5 761.4,168.2 764.5,166.1 767.6,164.0 770.7,162.1 773.7,160.7 776.8,158.9 779.9,157.8 782.9,156.5 786.0,155.5 789.1,152.4 792.1,149.8 795.2,148.4 798.3,148.0 801.4,147.2 804.4,145.9 807.5,144.8 810.6,142.7 813.6,141.4 816.7,140.1 819.8,140.0 822.9,139.4 825.9,138.5 829.0,135.9 832.1,131.8 835.1,127.6 838.2,123.3 841.3,119.8 844.4,115.7 847.4,111.3 850.5,106.9 853.6,102.8 856.6,99.8 859.7,97.4 862.8,94.7 865.9,92.1 868.9,90.3 872.0,90.0 872.0,272.0" fill="#e0f2fe" opacity="0.55"/>
<polyline points="52.0,271.9 55.1,271.7 91.9,270.9 95.0,270.6 98.1,270.5 107.3,270.4 125.7,270.3 165.6,270.3 168.7,269.5 171.8,269.4 181.0,269.2 184.1,269.1 187.1,269.0 190.2,268.8 196.3,268.7 199.4,268.2 208.6,267.9 220.9,267.7 224.0,267.5 227.1,267.3 251.6,267.2 257.8,267.1 273.1,267.0 276.2,266.9 279.3,266.8 291.6,266.7 294.6,266.1 297.7,265.7 300.8,264.6 303.8,264.4 325.3,264.3 334.5,264.2 340.7,264.1 343.8,264.1 346.8,263.6 349.9,263.5 353.0,263.4 356.0,263.2 359.1,262.9 371.4,262.5 377.5,262.4 389.8,262.3 392.9,261.9 396.0,261.8 399.0,261.6 405.2,261.5 408.3,259.8 411.3,258.0 414.4,257.4 417.5,257.0 420.5,256.8 423.6,256.4 426.7,255.8 429.8,255.3 432.8,255.1 435.9,254.9 442.0,254.6 445.1,253.9 448.2,253.2 451.3,252.5 454.3,252.1 460.5,251.9 466.6,251.8 469.7,251.2 472.7,250.8 475.8,249.6 478.9,248.9 482.0,248.2 485.0,247.5 488.1,246.7 491.2,245.9 494.2,245.0 497.3,244.1 500.4,243.2 503.5,242.4 506.5,241.9 509.6,241.3 512.7,240.6 515.7,240.2 518.8,239.8 521.9,239.3 525.0,239.2 528.0,239.0 534.2,238.9 537.2,237.2 540.3,235.9 543.4,235.7 546.5,235.6 552.6,235.4 555.7,235.1 568.0,235.1 574.1,234.9 583.3,234.8 586.4,232.8 589.5,230.9 592.5,230.3 595.6,228.8 598.7,227.5 601.7,226.8 604.8,226.3 607.9,225.5 611.0,225.2 614.0,225.0 617.1,224.7 620.2,224.5 638.6,223.1 641.7,221.3 644.7,221.1 647.8,220.8 650.9,220.7 672.4,220.6 700.0,218.8 703.1,217.4 706.2,215.8 709.2,213.3 712.3,212.9 715.4,212.1 718.4,210.7 721.5,209.6 724.6,207.3 727.7,203.8 730.7,200.4 733.8,196.4 736.9,192.2 739.9,188.5 743.0,186.2 746.1,183.5 749.2,179.5 752.2,176.1 755.3,173.8 758.4,171.5 761.4,168.2 764.5,166.1 767.6,164.0 770.7,162.1 773.7,160.7 776.8,158.9 779.9,157.8 782.9,156.5 786.0,155.5 789.1,152.4 792.1,149.8 795.2,148.4 798.3,148.0 801.4,147.2 804.4,145.9 807.5,144.8 810.6,142.7 813.6,141.4 816.7,140.1 819.8,140.0 822.9,139.4 825.9,138.5 829.0,135.9 832.1,131.8 835.1,127.6 838.2,123.3 841.3,119.8 844.4,115.7 847.4,111.3 850.5,106.9 853.6,102.8 856.6,99.8 859.7,97.4 862.8,94.7 865.9,92.1 868.9,90.3 872.0,90.0" fill="none" stroke="#38bdf8" stroke-width="2.5" stroke-linejoin="round" stroke-linecap="round"/>
<circle cx="872.0" cy="90.0" r="4" fill="#0ea5e9"/>
<text x="866.0" y="80.0" text-anchor="end" font-family="Inter, system-ui, sans-serif" font-size="13" font-weight="700" fill="#334155">2084</text>
<text x="52.0" y="294" text-anchor="middle" font-family="Inter, system-ui, sans-serif" font-size="11" fill="#94a3b8">Jun 10 05:00</text>
<text x="537.2" y="294" text-anchor="middle" font-family="Inter, system-ui, sans-serif" font-size="11" fill="#94a3b8">Jun 16 19:00</text>
<text x="872.0" y="294" text-anchor="middle" font-family="Inter, system-ui, sans-serif" font-size="11" fill="#94a3b8">Jun 21 08:00</text>
</svg>
