<svg xmlns="http://www.w3.org/2000/svg" width="900" height="320" viewBox="0 0 900 320" role="img" aria-labelledby="title desc">
<title id="title">Unsorry proofs over time</title>
<desc id="desc">Cumulative kernel-verified proofs over time, by the hour each proof was merged.</desc>
<rect width="900" height="100%" rx="18" fill="#ffffff"/>
<rect x="0.5" y="0.5" width="899" height="319" rx="18" fill="none" stroke="#e2e8f0"/>
<text x="32" y="44" font-family="Inter, system-ui, sans-serif" font-size="28" font-weight="700" fill="#334155">Unsorry — Proofs Over Time</text>
<text x="32" y="72" font-family="Inter, system-ui, sans-serif" font-size="13" fill="#64748b">1969 cumulative kernel-verified proofs · merged, hourly</text>
<line x1="52" y1="272.0" x2="872" y2="272.0" stroke="#f1f5f9"/>
<text x="44" y="276.0" text-anchor="end" font-family="Inter, system-ui, sans-serif" font-size="11" fill="#94a3b8">0</text>
<line x1="52" y1="226.5" x2="872" y2="226.5" stroke="#f1f5f9"/>
<text x="44" y="230.5" text-anchor="end" font-family="Inter, system-ui, sans-serif" font-size="11" fill="#94a3b8">492</text>
<line x1="52" y1="181.0" x2="872" y2="181.0" stroke="#f1f5f9"/>
<text x="44" y="185.0" text-anchor="end" font-family="Inter, system-ui, sans-serif" font-size="11" fill="#94a3b8">984</text>
<line x1="52" y1="135.5" x2="872" y2="135.5" stroke="#f1f5f9"/>
<text x="44" y="139.5" text-anchor="end" font-family="Inter, system-ui, sans-serif" font-size="11" fill="#94a3b8">1477</text>
<line x1="52" y1="90.0" x2="872" y2="90.0" stroke="#f1f5f9"/>
<text x="44" y="94.0" text-anchor="end" font-family="Inter, system-ui, sans-serif" font-size="11" fill="#94a3b8">1969</text>
<polygon points="52.0,272.0 52.0,271.9 55.1,271.7 92.7,270.8 95.8,270.5 98.9,270.4 108.3,270.3 127.1,270.2 167.8,270.2 170.9,269.3 174.1,269.2 183.5,269.0 186.6,268.9 189.7,268.9 192.8,268.6 199.1,268.5 202.2,268.0 211.6,267.7 224.1,267.5 227.3,267.2 230.4,267.0 255.4,266.9 261.7,266.8 277.3,266.7 280.5,266.6 283.6,266.5 296.1,266.4 299.3,265.8 302.4,265.3 305.5,264.1 308.6,264.0 330.5,263.9 339.9,263.8 346.2,263.7 349.3,263.6 352.5,263.1 355.6,263.0 358.7,262.9 361.8,262.7 365.0,262.4 377.5,261.9 383.8,261.8 396.3,261.7 399.4,261.3 402.5,261.2 405.7,261.0 411.9,260.9 415.1,259.1 418.2,257.2 421.3,256.6 424.4,256.1 427.6,255.9 430.7,255.5 433.8,254.8 437.0,254.3 440.1,254.1 443.2,253.9 449.5,253.6 452.6,252.9 455.7,252.1 458.9,251.4 462.0,250.9 468.3,250.7 474.5,250.6 477.6,250.0 480.8,249.5 483.9,248.2 487.0,247.5 490.2,246.8 493.3,246.0 496.4,245.2 499.6,244.4 502.7,243.4 505.8,242.4 508.9,241.5 512.1,240.7 515.2,240.1 518.3,239.5 521.5,238.7 524.6,238.4 527.7,237.9 530.9,237.4 534.0,237.2 537.1,237.1 543.4,237.0 546.5,235.1 549.6,233.8 552.8,233.5 555.9,233.5 562.2,233.3 565.3,233.0 577.8,232.9 584.1,232.7 593.5,232.6 596.6,230.5 599.7,228.5 602.8,227.9 606.0,226.2 609.1,225.0 612.2,224.1 615.4,223.7 618.5,222.8 621.6,222.5 624.7,222.3 627.9,221.9 631.0,221.7 649.8,220.2 652.9,218.4 656.0,218.1 659.2,217.8 662.3,217.7 684.2,217.6 712.4,215.7 715.5,214.2 718.6,212.5 721.8,209.9 724.9,209.4 728.0,208.6 731.2,207.1 734.3,206.0 737.4,203.5 740.5,199.8 743.7,196.2 746.8,192.0 749.9,187.5 753.1,183.6 756.2,181.2 759.3,178.4 762.5,174.1 765.6,170.5 768.7,168.1 771.8,165.6 775.0,162.1 778.1,159.9 781.2,157.7 784.4,155.7 787.5,154.2 790.6,152.3 793.8,151.1 796.9,149.8 800.0,148.7 803.1,145.4 806.3,142.7 809.4,141.2 812.5,140.7 815.7,139.9 818.8,138.5 821.9,137.3 825.1,135.1 828.2,133.7 831.3,132.4 834.4,132.2 837.6,131.7 840.7,130.7 843.8,128.0 847.0,123.6 850.1,119.1 853.2,114.6 856.4,110.9 859.5,106.5 862.6,101.9 865.7,97.2 868.9,92.9 872.0,90.0 872.0,272.0" fill="#e0f2fe" opacity="0.55"/>
<polyline points="52.0,271.9 55.1,271.7 92.7,270.8 95.8,270.5 98.9,270.4 108.3,270.3 127.1,270.2 167.8,270.2 170.9,269.3 174.1,269.2 183.5,269.0 186.6,268.9 189.7,268.9 192.8,268.6 199.1,268.5 202.2,268.0 211.6,267.7 224.1,267.5 227.3,267.2 230.4,267.0 255.4,266.9 261.7,266.8 277.3,266.7 280.5,266.6 283.6,266.5 296.1,266.4 299.3,265.8 302.4,265.3 305.5,264.1 308.6,264.0 330.5,263.9 339.9,263.8 346.2,263.7 349.3,263.6 352.5,263.1 355.6,263.0 358.7,262.9 361.8,262.7 365.0,262.4 377.5,261.9 383.8,261.8 396.3,261.7 399.4,261.3 402.5,261.2 405.7,261.0 411.9,260.9 415.1,259.1 418.2,257.2 421.3,256.6 424.4,256.1 427.6,255.9 430.7,255.5 433.8,254.8 437.0,254.3 440.1,254.1 443.2,253.9 449.5,253.6 452.6,252.9 455.7,252.1 458.9,251.4 462.0,250.9 468.3,250.7 474.5,250.6 477.6,250.0 480.8,249.5 483.9,248.2 487.0,247.5 490.2,246.8 493.3,246.0 496.4,245.2 499.6,244.4 502.7,243.4 505.8,242.4 508.9,241.5 512.1,240.7 515.2,240.1 518.3,239.5 521.5,238.7 524.6,238.4 527.7,237.9 530.9,237.4 534.0,237.2 537.1,237.1 543.4,237.0 546.5,235.1 549.6,233.8 552.8,233.5 555.9,233.5 562.2,233.3 565.3,233.0 577.8,232.9 584.1,232.7 593.5,232.6 596.6,230.5 599.7,228.5 602.8,227.9 606.0,226.2 609.1,225.0 612.2,224.1 615.4,223.7 618.5,222.8 621.6,222.5 624.7,222.3 627.9,221.9 631.0,221.7 649.8,220.2 652.9,218.4 656.0,218.1 659.2,217.8 662.3,217.7 684.2,217.6 712.4,215.7 715.5,214.2 718.6,212.5 721.8,209.9 724.9,209.4 728.0,208.6 731.2,207.1 734.3,206.0 737.4,203.5 740.5,199.8 743.7,196.2 746.8,192.0 749.9,187.5 753.1,183.6 756.2,181.2 759.3,178.4 762.5,174.1 765.6,170.5 768.7,168.1 771.8,165.6 775.0,162.1 778.1,159.9 781.2,157.7 784.4,155.7 787.5,154.2 790.6,152.3 793.8,151.1 796.9,149.8 800.0,148.7 803.1,145.4 806.3,142.7 809.4,141.2 812.5,140.7 815.7,139.9 818.8,138.5 821.9,137.3 825.1,135.1 828.2,133.7 831.3,132.4 834.4,132.2 837.6,131.7 840.7,130.7 843.8,128.0 847.0,123.6 850.1,119.1 853.2,114.6 856.4,110.9 859.5,106.5 862.6,101.9 865.7,97.2 868.9,92.9 872.0,90.0" fill="none" stroke="#38bdf8" stroke-width="2.5" stroke-linejoin="round" stroke-linecap="round"/>
<circle cx="872.0" cy="90.0" r="4" fill="#0ea5e9"/>
<text x="866.0" y="80.0" text-anchor="end" font-family="Inter, system-ui, sans-serif" font-size="13" font-weight="700" fill="#334155">1969</text>
<text x="52.0" y="294" text-anchor="middle" font-family="Inter, system-ui, sans-serif" font-size="11" fill="#94a3b8">Jun 10 05:00</text>
<text x="534.0" y="294" text-anchor="middle" font-family="Inter, system-ui, sans-serif" font-size="11" fill="#94a3b8">Jun 16 15:00</text>
<text x="872.0" y="294" text-anchor="middle" font-family="Inter, system-ui, sans-serif" font-size="11" fill="#94a3b8">Jun 21 03:00</text>
</svg>
