<svg xmlns="http://www.w3.org/2000/svg" width="900" height="320" viewBox="0 0 900 320" role="img" aria-labelledby="title desc">
<title id="title">Unsorry proofs over time</title>
<desc id="desc">Cumulative kernel-verified proofs over time, by the hour each proof was merged.</desc>
<rect width="900" height="100%" rx="18" fill="#ffffff"/>
<rect x="0.5" y="0.5" width="899" height="319" rx="18" fill="none" stroke="#e2e8f0"/>
<text x="32" y="44" font-family="Inter, system-ui, sans-serif" font-size="28" font-weight="700" fill="#334155">Unsorry — Proofs Over Time</text>
<text x="32" y="72" font-family="Inter, system-ui, sans-serif" font-size="13" fill="#64748b">1945 cumulative kernel-verified proofs · merged, hourly</text>
<line x1="52" y1="272.0" x2="872" y2="272.0" stroke="#f1f5f9"/>
<text x="44" y="276.0" text-anchor="end" font-family="Inter, system-ui, sans-serif" font-size="11" fill="#94a3b8">0</text>
<line x1="52" y1="226.5" x2="872" y2="226.5" stroke="#f1f5f9"/>
<text x="44" y="230.5" text-anchor="end" font-family="Inter, system-ui, sans-serif" font-size="11" fill="#94a3b8">486</text>
<line x1="52" y1="181.0" x2="872" y2="181.0" stroke="#f1f5f9"/>
<text x="44" y="185.0" text-anchor="end" font-family="Inter, system-ui, sans-serif" font-size="11" fill="#94a3b8">972</text>
<line x1="52" y1="135.5" x2="872" y2="135.5" stroke="#f1f5f9"/>
<text x="44" y="139.5" text-anchor="end" font-family="Inter, system-ui, sans-serif" font-size="11" fill="#94a3b8">1459</text>
<line x1="52" y1="90.0" x2="872" y2="90.0" stroke="#f1f5f9"/>
<text x="44" y="94.0" text-anchor="end" font-family="Inter, system-ui, sans-serif" font-size="11" fill="#94a3b8">1945</text>
<polygon points="52.0,272.0 52.0,271.9 55.1,271.7 92.7,270.8 95.8,270.5 98.9,270.4 108.3,270.3 127.1,270.2 167.8,270.1 170.9,269.3 174.1,269.2 183.5,269.0 186.6,268.9 189.7,268.8 192.8,268.5 199.1,268.4 202.2,268.0 211.6,267.6 224.1,267.4 227.3,267.1 230.4,266.9 255.4,266.9 261.7,266.8 277.3,266.7 280.5,266.6 283.6,266.4 296.1,266.3 299.3,265.7 302.4,265.3 305.5,264.0 308.6,263.9 330.5,263.8 339.9,263.7 346.2,263.6 349.3,263.5 352.5,263.0 355.6,262.9 358.7,262.8 361.8,262.5 365.0,262.3 377.5,261.8 383.8,261.7 396.3,261.6 399.4,261.1 402.5,261.1 405.7,260.9 411.9,260.8 415.1,258.9 418.2,257.0 421.3,256.4 424.4,255.9 427.6,255.7 430.7,255.3 433.8,254.6 437.0,254.1 440.1,253.8 443.2,253.7 449.5,253.4 452.6,252.6 455.7,251.9 458.9,251.1 462.0,250.7 468.3,250.5 474.5,250.4 477.6,249.7 480.8,249.3 483.9,248.0 487.0,247.2 490.2,246.5 493.3,245.7 496.4,244.9 499.6,244.0 502.7,243.1 505.8,242.1 508.9,241.1 512.1,240.3 515.2,239.7 518.3,239.1 521.5,238.3 524.6,237.9 527.7,237.5 530.9,237.0 534.0,236.8 537.1,236.6 543.4,236.5 546.5,234.7 549.6,233.4 552.8,233.1 555.9,233.0 562.2,232.8 565.3,232.5 577.8,232.4 584.1,232.2 593.5,232.1 596.6,230.0 599.7,227.9 602.8,227.4 606.0,225.7 609.1,224.4 612.2,223.5 615.4,223.1 618.5,222.2 621.6,221.8 624.7,221.7 627.9,221.3 631.0,221.1 649.8,219.6 652.9,217.7 656.0,217.4 659.2,217.2 662.3,217.1 684.2,217.0 712.4,215.0 715.5,213.5 718.6,211.7 721.8,209.1 724.9,208.7 728.0,207.8 731.2,206.3 734.3,205.2 737.4,202.7 740.5,198.9 743.7,195.3 746.8,191.0 749.9,186.5 753.1,182.5 756.2,180.1 759.3,177.2 762.5,172.9 765.6,169.3 768.7,166.8 771.8,164.3 775.0,160.7 778.1,158.5 781.2,156.2 784.4,154.3 787.5,152.8 790.6,150.8 793.8,149.6 796.9,148.3 800.0,147.2 803.1,143.8 806.3,141.1 809.4,139.6 812.5,139.1 815.7,138.3 818.8,136.9 821.9,135.7 825.1,133.4 828.2,132.0 831.3,130.7 834.4,130.5 837.6,130.0 840.7,128.9 843.8,126.2 847.0,121.8 850.1,117.2 853.2,112.6 856.4,108.9 859.5,104.5 862.6,99.8 865.7,95.1 868.9,90.7 872.0,90.0 872.0,272.0" fill="#e0f2fe" opacity="0.55"/>
<polyline points="52.0,271.9 55.1,271.7 92.7,270.8 95.8,270.5 98.9,270.4 108.3,270.3 127.1,270.2 167.8,270.1 170.9,269.3 174.1,269.2 183.5,269.0 186.6,268.9 189.7,268.8 192.8,268.5 199.1,268.4 202.2,268.0 211.6,267.6 224.1,267.4 227.3,267.1 230.4,266.9 255.4,266.9 261.7,266.8 277.3,266.7 280.5,266.6 283.6,266.4 296.1,266.3 299.3,265.7 302.4,265.3 305.5,264.0 308.6,263.9 330.5,263.8 339.9,263.7 346.2,263.6 349.3,263.5 352.5,263.0 355.6,262.9 358.7,262.8 361.8,262.5 365.0,262.3 377.5,261.8 383.8,261.7 396.3,261.6 399.4,261.1 402.5,261.1 405.7,260.9 411.9,260.8 415.1,258.9 418.2,257.0 421.3,256.4 424.4,255.9 427.6,255.7 430.7,255.3 433.8,254.6 437.0,254.1 440.1,253.8 443.2,253.7 449.5,253.4 452.6,252.6 455.7,251.9 458.9,251.1 462.0,250.7 468.3,250.5 474.5,250.4 477.6,249.7 480.8,249.3 483.9,248.0 487.0,247.2 490.2,246.5 493.3,245.7 496.4,244.9 499.6,244.0 502.7,243.1 505.8,242.1 508.9,241.1 512.1,240.3 515.2,239.7 518.3,239.1 521.5,238.3 524.6,237.9 527.7,237.5 530.9,237.0 534.0,236.8 537.1,236.6 543.4,236.5 546.5,234.7 549.6,233.4 552.8,233.1 555.9,233.0 562.2,232.8 565.3,232.5 577.8,232.4 584.1,232.2 593.5,232.1 596.6,230.0 599.7,227.9 602.8,227.4 606.0,225.7 609.1,224.4 612.2,223.5 615.4,223.1 618.5,222.2 621.6,221.8 624.7,221.7 627.9,221.3 631.0,221.1 649.8,219.6 652.9,217.7 656.0,217.4 659.2,217.2 662.3,217.1 684.2,217.0 712.4,215.0 715.5,213.5 718.6,211.7 721.8,209.1 724.9,208.7 728.0,207.8 731.2,206.3 734.3,205.2 737.4,202.7 740.5,198.9 743.7,195.3 746.8,191.0 749.9,186.5 753.1,182.5 756.2,180.1 759.3,177.2 762.5,172.9 765.6,169.3 768.7,166.8 771.8,164.3 775.0,160.7 778.1,158.5 781.2,156.2 784.4,154.3 787.5,152.8 790.6,150.8 793.8,149.6 796.9,148.3 800.0,147.2 803.1,143.8 806.3,141.1 809.4,139.6 812.5,139.1 815.7,138.3 818.8,136.9 821.9,135.7 825.1,133.4 828.2,132.0 831.3,130.7 834.4,130.5 837.6,130.0 840.7,128.9 843.8,126.2 847.0,121.8 850.1,117.2 853.2,112.6 856.4,108.9 859.5,104.5 862.6,99.8 865.7,95.1 868.9,90.7 872.0,90.0" fill="none" stroke="#38bdf8" stroke-width="2.5" stroke-linejoin="round" stroke-linecap="round"/>
<circle cx="872.0" cy="90.0" r="4" fill="#0ea5e9"/>
<text x="866.0" y="80.0" text-anchor="end" font-family="Inter, system-ui, sans-serif" font-size="13" font-weight="700" fill="#334155">1945</text>
<text x="52.0" y="294" text-anchor="middle" font-family="Inter, system-ui, sans-serif" font-size="11" fill="#94a3b8">Jun 10 05:00</text>
<text x="534.0" y="294" text-anchor="middle" font-family="Inter, system-ui, sans-serif" font-size="11" fill="#94a3b8">Jun 16 15:00</text>
<text x="872.0" y="294" text-anchor="middle" font-family="Inter, system-ui, sans-serif" font-size="11" fill="#94a3b8">Jun 21 03:00</text>
</svg>
