<svg xmlns="http://www.w3.org/2000/svg" width="900" height="320" viewBox="0 0 900 320" role="img" aria-labelledby="title desc">
<title id="title">Unsorry proofs over time</title>
<desc id="desc">Cumulative kernel-verified proofs over time, by the hour each proof was merged.</desc>
<rect width="900" height="100%" rx="18" fill="#ffffff"/>
<rect x="0.5" y="0.5" width="899" height="319" rx="18" fill="none" stroke="#e2e8f0"/>
<text x="32" y="44" font-family="Inter, system-ui, sans-serif" font-size="28" font-weight="700" fill="#334155">Unsorry — Proofs Over Time</text>
<text x="32" y="72" font-family="Inter, system-ui, sans-serif" font-size="13" fill="#64748b">1571 cumulative kernel-verified proofs · merged, hourly</text>
<line x1="52" y1="272.0" x2="872" y2="272.0" stroke="#f1f5f9"/>
<text x="44" y="276.0" text-anchor="end" font-family="Inter, system-ui, sans-serif" font-size="11" fill="#94a3b8">0</text>
<line x1="52" y1="226.5" x2="872" y2="226.5" stroke="#f1f5f9"/>
<text x="44" y="230.5" text-anchor="end" font-family="Inter, system-ui, sans-serif" font-size="11" fill="#94a3b8">393</text>
<line x1="52" y1="180.9" x2="872" y2="180.9" stroke="#f1f5f9"/>
<text x="44" y="184.9" text-anchor="end" font-family="Inter, system-ui, sans-serif" font-size="11" fill="#94a3b8">786</text>
<line x1="52" y1="135.5" x2="872" y2="135.5" stroke="#f1f5f9"/>
<text x="44" y="139.5" text-anchor="end" font-family="Inter, system-ui, sans-serif" font-size="11" fill="#94a3b8">1178</text>
<line x1="52" y1="90.0" x2="872" y2="90.0" stroke="#f1f5f9"/>
<text x="44" y="94.0" text-anchor="end" font-family="Inter, system-ui, sans-serif" font-size="11" fill="#94a3b8">1571</text>
<polygon points="52.0,272.0 52.0,271.9 55.2,271.7 94.0,270.5 97.2,270.1 100.4,270.0 110.1,269.9 129.5,269.8 171.4,269.7 174.7,268.6 177.9,268.5 187.6,268.3 190.8,268.2 194.0,268.1 197.3,267.7 203.7,267.6 207.0,267.0 216.6,266.6 229.6,266.3 232.8,266.0 236.0,265.7 261.8,265.6 268.3,265.5 284.4,265.4 287.7,265.3 290.9,265.0 303.8,264.9 307.0,264.2 310.3,263.7 313.5,262.2 316.7,261.9 339.3,261.8 349.0,261.7 355.5,261.6 358.7,261.5 361.9,260.9 365.1,260.8 368.4,260.6 371.6,260.3 374.8,260.0 387.7,259.4 394.2,259.3 407.1,259.1 410.3,258.6 413.6,258.4 416.8,258.2 423.3,258.1 426.5,255.8 429.7,253.5 432.9,252.7 436.2,252.1 439.4,251.8 442.6,251.3 445.9,250.5 449.1,249.9 452.3,249.5 455.5,249.3 462.0,248.9 465.2,248.0 468.5,247.1 471.7,246.2 474.9,245.6 481.4,245.4 487.8,245.2 491.1,244.4 494.3,243.8 497.5,242.2 500.7,241.3 504.0,240.4 507.2,239.4 510.4,238.4 513.7,237.4 516.9,236.2 520.1,234.9 523.3,233.8 526.6,232.7 529.8,232.0 533.0,231.2 536.3,230.3 539.5,229.8 542.7,229.3 545.9,228.7 549.2,228.4 552.4,228.2 558.9,228.1 562.1,225.8 565.3,224.2 568.5,223.8 571.8,223.7 578.2,223.5 581.4,223.1 594.4,223.0 600.8,222.8 610.5,222.6 613.7,220.0 617.0,217.4 620.2,216.7 623.4,214.7 626.6,213.0 629.9,212.0 633.1,211.4 636.3,210.4 639.6,209.9 642.8,209.7 646.0,209.2 649.2,209.0 668.6,207.1 671.8,204.8 675.1,204.5 678.3,204.1 681.5,204.0 704.1,203.9 733.2,201.4 736.4,199.6 739.6,197.4 742.9,194.1 746.1,193.6 749.3,192.5 752.6,190.7 755.8,189.3 759.0,186.2 762.2,181.5 765.5,177.0 768.7,171.7 771.9,166.1 775.1,161.2 778.4,158.2 781.6,154.6 784.8,149.3 788.1,144.8 791.3,141.8 794.5,138.7 797.7,134.3 801.0,131.5 804.2,128.7 807.4,126.3 810.7,124.4 813.9,122.0 817.1,120.5 820.3,118.8 823.6,117.5 826.8,113.3 830.0,109.9 833.3,108.1 836.5,107.5 839.7,106.5 842.9,104.7 846.2,103.2 849.4,100.4 852.6,98.7 855.9,97.1 859.1,96.8 862.3,96.1 865.5,94.9 868.8,91.5 872.0,90.0 872.0,272.0" fill="#e0f2fe" opacity="0.55"/>
<polyline points="52.0,271.9 55.2,271.7 94.0,270.5 97.2,270.1 100.4,270.0 110.1,269.9 129.5,269.8 171.4,269.7 174.7,268.6 177.9,268.5 187.6,268.3 190.8,268.2 194.0,268.1 197.3,267.7 203.7,267.6 207.0,267.0 216.6,266.6 229.6,266.3 232.8,266.0 236.0,265.7 261.8,265.6 268.3,265.5 284.4,265.4 287.7,265.3 290.9,265.0 303.8,264.9 307.0,264.2 310.3,263.7 313.5,262.2 316.7,261.9 339.3,261.8 349.0,261.7 355.5,261.6 358.7,261.5 361.9,260.9 365.1,260.8 368.4,260.6 371.6,260.3 374.8,260.0 387.7,259.4 394.2,259.3 407.1,259.1 410.3,258.6 413.6,258.4 416.8,258.2 423.3,258.1 426.5,255.8 429.7,253.5 432.9,252.7 436.2,252.1 439.4,251.8 442.6,251.3 445.9,250.5 449.1,249.9 452.3,249.5 455.5,249.3 462.0,248.9 465.2,248.0 468.5,247.1 471.7,246.2 474.9,245.6 481.4,245.4 487.8,245.2 491.1,244.4 494.3,243.8 497.5,242.2 500.7,241.3 504.0,240.4 507.2,239.4 510.4,238.4 513.7,237.4 516.9,236.2 520.1,234.9 523.3,233.8 526.6,232.7 529.8,232.0 533.0,231.2 536.3,230.3 539.5,229.8 542.7,229.3 545.9,228.7 549.2,228.4 552.4,228.2 558.9,228.1 562.1,225.8 565.3,224.2 568.5,223.8 571.8,223.7 578.2,223.5 581.4,223.1 594.4,223.0 600.8,222.8 610.5,222.6 613.7,220.0 617.0,217.4 620.2,216.7 623.4,214.7 626.6,213.0 629.9,212.0 633.1,211.4 636.3,210.4 639.6,209.9 642.8,209.7 646.0,209.2 649.2,209.0 668.6,207.1 671.8,204.8 675.1,204.5 678.3,204.1 681.5,204.0 704.1,203.9 733.2,201.4 736.4,199.6 739.6,197.4 742.9,194.1 746.1,193.6 749.3,192.5 752.6,190.7 755.8,189.3 759.0,186.2 762.2,181.5 765.5,177.0 768.7,171.7 771.9,166.1 775.1,161.2 778.4,158.2 781.6,154.6 784.8,149.3 788.1,144.8 791.3,141.8 794.5,138.7 797.7,134.3 801.0,131.5 804.2,128.7 807.4,126.3 810.7,124.4 813.9,122.0 817.1,120.5 820.3,118.8 823.6,117.5 826.8,113.3 830.0,109.9 833.3,108.1 836.5,107.5 839.7,106.5 842.9,104.7 846.2,103.2 849.4,100.4 852.6,98.7 855.9,97.1 859.1,96.8 862.3,96.1 865.5,94.9 868.8,91.5 872.0,90.0" fill="none" stroke="#38bdf8" stroke-width="2.5" stroke-linejoin="round" stroke-linecap="round"/>
<circle cx="872.0" cy="90.0" r="4" fill="#0ea5e9"/>
<text x="866.0" y="80.0" text-anchor="end" font-family="Inter, system-ui, sans-serif" font-size="13" font-weight="700" fill="#334155">1571</text>
<text x="52.0" y="294" text-anchor="middle" font-family="Inter, system-ui, sans-serif" font-size="11" fill="#94a3b8">Jun 10 05:00</text>
<text x="536.3" y="294" text-anchor="middle" font-family="Inter, system-ui, sans-serif" font-size="11" fill="#94a3b8">Jun 16 11:00</text>
<text x="872.0" y="294" text-anchor="middle" font-family="Inter, system-ui, sans-serif" font-size="11" fill="#94a3b8">Jun 20 19:00</text>
</svg>
