<svg xmlns="http://www.w3.org/2000/svg" width="900" height="320" viewBox="0 0 900 320" role="img" aria-labelledby="title desc">
<title id="title">Unsorry proofs over time</title>
<desc id="desc">Cumulative kernel-verified proofs over time, by the hour each proof was merged.</desc>
<rect width="900" height="100%" rx="18" fill="#ffffff"/>
<rect x="0.5" y="0.5" width="899" height="319" rx="18" fill="none" stroke="#e2e8f0"/>
<text x="32" y="44" font-family="Inter, system-ui, sans-serif" font-size="28" font-weight="700" fill="#334155">Unsorry — Proofs Over Time</text>
<text x="32" y="72" font-family="Inter, system-ui, sans-serif" font-size="13" fill="#64748b">2564 cumulative kernel-verified proofs · merged, hourly</text>
<line x1="52" y1="272.0" x2="872" y2="272.0" stroke="#f1f5f9"/>
<text x="44" y="276.0" text-anchor="end" font-family="Inter, system-ui, sans-serif" font-size="11" fill="#94a3b8">0</text>
<line x1="52" y1="226.5" x2="872" y2="226.5" stroke="#f1f5f9"/>
<text x="44" y="230.5" text-anchor="end" font-family="Inter, system-ui, sans-serif" font-size="11" fill="#94a3b8">641</text>
<line x1="52" y1="181.0" x2="872" y2="181.0" stroke="#f1f5f9"/>
<text x="44" y="185.0" text-anchor="end" font-family="Inter, system-ui, sans-serif" font-size="11" fill="#94a3b8">1282</text>
<line x1="52" y1="135.5" x2="872" y2="135.5" stroke="#f1f5f9"/>
<text x="44" y="139.5" text-anchor="end" font-family="Inter, system-ui, sans-serif" font-size="11" fill="#94a3b8">1923</text>
<line x1="52" y1="90.0" x2="872" y2="90.0" stroke="#f1f5f9"/>
<text x="44" y="94.0" text-anchor="end" font-family="Inter, system-ui, sans-serif" font-size="11" fill="#94a3b8">2564</text>
<polygon points="52.0,272.0 52.0,271.9 54.9,271.8 89.5,271.1 92.4,270.9 95.3,270.8 104.0,270.7 121.3,270.7 158.8,270.6 161.7,269.9 164.6,269.9 173.3,269.7 176.2,269.7 179.0,269.6 181.9,269.4 187.7,269.3 190.6,268.9 199.3,268.7 210.8,268.5 213.7,268.3 216.6,268.2 239.7,268.1 245.5,268.0 259.9,268.0 262.8,267.9 265.7,267.7 277.2,267.7 280.1,267.2 283.0,266.9 285.9,266.0 288.8,265.8 309.0,265.8 317.6,265.7 323.4,265.6 326.3,265.5 329.2,265.2 332.1,265.1 335.0,265.0 337.8,264.8 340.7,264.6 352.3,264.3 358.1,264.2 369.6,264.1 372.5,263.8 375.4,263.7 378.3,263.6 384.0,263.5 386.9,262.1 389.8,260.6 392.7,260.1 395.6,259.8 398.5,259.6 401.4,259.3 404.3,258.8 407.1,258.4 410.0,258.2 412.9,258.1 418.7,257.9 421.6,257.3 424.5,256.7 427.4,256.2 430.2,255.8 436.0,255.7 441.8,255.6 444.7,255.1 447.6,254.8 450.5,253.8 453.3,253.2 456.2,252.6 459.1,252.1 462.0,251.4 464.9,250.8 467.8,250.1 470.7,249.3 473.5,248.6 476.4,247.9 479.3,247.5 482.2,247.0 485.1,246.4 488.0,246.2 490.9,245.8 493.8,245.5 496.6,245.3 499.5,245.2 505.3,245.1 508.2,243.7 511.1,242.7 514.0,242.5 516.9,242.4 522.6,242.3 525.5,242.0 537.1,242.0 542.8,241.8 551.5,241.8 554.4,240.1 557.3,238.6 560.2,238.1 563.1,236.9 565.9,235.9 568.8,235.2 571.7,234.9 574.6,234.2 577.5,234.0 580.4,233.8 583.3,233.5 586.2,233.4 603.5,232.2 606.4,230.8 609.3,230.6 612.1,230.4 615.0,230.3 635.2,230.3 661.2,228.8 664.1,227.6 667.0,226.3 669.9,224.3 672.8,223.9 675.7,223.3 678.5,222.2 681.4,221.3 684.3,219.4 687.2,216.6 690.1,213.8 693.0,210.5 695.9,207.1 698.8,204.1 701.6,202.3 704.5,200.1 707.4,196.8 710.3,194.1 713.2,192.2 716.1,190.3 719.0,187.6 721.9,185.9 724.7,184.2 727.6,182.7 730.5,181.6 733.4,180.1 736.3,179.2 739.2,178.2 742.1,177.3 745.0,174.8 747.8,172.7 750.7,171.6 753.6,171.2 756.5,170.6 759.4,169.5 762.3,168.6 765.2,166.9 768.1,165.8 770.9,164.8 773.8,164.7 776.7,164.2 779.6,163.5 782.5,161.4 785.4,158.1 788.3,154.6 791.2,151.1 794.0,148.3 796.9,144.9 799.8,141.4 802.7,137.8 805.6,134.4 808.5,132.0 811.4,130.1 814.3,127.9 817.1,125.8 820.0,124.4 822.9,122.7 825.8,121.4 828.7,119.5 831.6,117.0 834.5,114.1 837.4,111.6 840.2,109.4 843.1,108.0 846.0,106.7 848.9,105.4 851.8,104.0 854.7,101.6 857.6,99.5 860.5,97.0 863.3,94.5 866.2,92.3 869.1,90.6 872.0,90.0 872.0,272.0" fill="#e0f2fe" opacity="0.55"/>
<polyline points="52.0,271.9 54.9,271.8 89.5,271.1 92.4,270.9 95.3,270.8 104.0,270.7 121.3,270.7 158.8,270.6 161.7,269.9 164.6,269.9 173.3,269.7 176.2,269.7 179.0,269.6 181.9,269.4 187.7,269.3 190.6,268.9 199.3,268.7 210.8,268.5 213.7,268.3 216.6,268.2 239.7,268.1 245.5,268.0 259.9,268.0 262.8,267.9 265.7,267.7 277.2,267.7 280.1,267.2 283.0,266.9 285.9,266.0 288.8,265.8 309.0,265.8 317.6,265.7 323.4,265.6 326.3,265.5 329.2,265.2 332.1,265.1 335.0,265.0 337.8,264.8 340.7,264.6 352.3,264.3 358.1,264.2 369.6,264.1 372.5,263.8 375.4,263.7 378.3,263.6 384.0,263.5 386.9,262.1 389.8,260.6 392.7,260.1 395.6,259.8 398.5,259.6 401.4,259.3 404.3,258.8 407.1,258.4 410.0,258.2 412.9,258.1 418.7,257.9 421.6,257.3 424.5,256.7 427.4,256.2 430.2,255.8 436.0,255.7 441.8,255.6 444.7,255.1 447.6,254.8 450.5,253.8 453.3,253.2 456.2,252.6 459.1,252.1 462.0,251.4 464.9,250.8 467.8,250.1 470.7,249.3 473.5,248.6 476.4,247.9 479.3,247.5 482.2,247.0 485.1,246.4 488.0,246.2 490.9,245.8 493.8,245.5 496.6,245.3 499.5,245.2 505.3,245.1 508.2,243.7 511.1,242.7 514.0,242.5 516.9,242.4 522.6,242.3 525.5,242.0 537.1,242.0 542.8,241.8 551.5,241.8 554.4,240.1 557.3,238.6 560.2,238.1 563.1,236.9 565.9,235.9 568.8,235.2 571.7,234.9 574.6,234.2 577.5,234.0 580.4,233.8 583.3,233.5 586.2,233.4 603.5,232.2 606.4,230.8 609.3,230.6 612.1,230.4 615.0,230.3 635.2,230.3 661.2,228.8 664.1,227.6 667.0,226.3 669.9,224.3 672.8,223.9 675.7,223.3 678.5,222.2 681.4,221.3 684.3,219.4 687.2,216.6 690.1,213.8 693.0,210.5 695.9,207.1 698.8,204.1 701.6,202.3 704.5,200.1 707.4,196.8 710.3,194.1 713.2,192.2 716.1,190.3 719.0,187.6 721.9,185.9 724.7,184.2 727.6,182.7 730.5,181.6 733.4,180.1 736.3,179.2 739.2,178.2 742.1,177.3 745.0,174.8 747.8,172.7 750.7,171.6 753.6,171.2 756.5,170.6 759.4,169.5 762.3,168.6 765.2,166.9 768.1,165.8 770.9,164.8 773.8,164.7 776.7,164.2 779.6,163.5 782.5,161.4 785.4,158.1 788.3,154.6 791.2,151.1 794.0,148.3 796.9,144.9 799.8,141.4 802.7,137.8 805.6,134.4 808.5,132.0 811.4,130.1 814.3,127.9 817.1,125.8 820.0,124.4 822.9,122.7 825.8,121.4 828.7,119.5 831.6,117.0 834.5,114.1 837.4,111.6 840.2,109.4 843.1,108.0 846.0,106.7 848.9,105.4 851.8,104.0 854.7,101.6 857.6,99.5 860.5,97.0 863.3,94.5 866.2,92.3 869.1,90.6 872.0,90.0" fill="none" stroke="#38bdf8" stroke-width="2.5" stroke-linejoin="round" stroke-linecap="round"/>
<circle cx="872.0" cy="90.0" r="4" fill="#0ea5e9"/>
<text x="866.0" y="80.0" text-anchor="end" font-family="Inter, system-ui, sans-serif" font-size="13" font-weight="700" fill="#334155">2564</text>
<text x="52.0" y="294" text-anchor="middle" font-family="Inter, system-ui, sans-serif" font-size="11" fill="#94a3b8">Jun 10 05:00</text>
<text x="551.5" y="294" text-anchor="middle" font-family="Inter, system-ui, sans-serif" font-size="11" fill="#94a3b8">Jun 17 10:00</text>
<text x="872.0" y="294" text-anchor="middle" font-family="Inter, system-ui, sans-serif" font-size="11" fill="#94a3b8">Jun 22 01:00</text>
</svg>
