<svg xmlns="http://www.w3.org/2000/svg" width="900" height="320" viewBox="0 0 900 320" role="img" aria-labelledby="title desc">
<title id="title">Unsorry proofs over time</title>
<desc id="desc">Cumulative kernel-verified proofs over time, by the hour each proof was merged.</desc>
<rect width="900" height="100%" rx="18" fill="#ffffff"/>
<rect x="0.5" y="0.5" width="899" height="319" rx="18" fill="none" stroke="#e2e8f0"/>
<text x="32" y="44" font-family="Inter, system-ui, sans-serif" font-size="28" font-weight="700" fill="#334155">Unsorry — Proofs Over Time</text>
<text x="32" y="72" font-family="Inter, system-ui, sans-serif" font-size="13" fill="#64748b">2597 cumulative kernel-verified proofs · merged, hourly</text>
<line x1="52" y1="272.0" x2="872" y2="272.0" stroke="#f1f5f9"/>
<text x="44" y="276.0" text-anchor="end" font-family="Inter, system-ui, sans-serif" font-size="11" fill="#94a3b8">0</text>
<line x1="52" y1="226.5" x2="872" y2="226.5" stroke="#f1f5f9"/>
<text x="44" y="230.5" text-anchor="end" font-family="Inter, system-ui, sans-serif" font-size="11" fill="#94a3b8">649</text>
<line x1="52" y1="181.0" x2="872" y2="181.0" stroke="#f1f5f9"/>
<text x="44" y="185.0" text-anchor="end" font-family="Inter, system-ui, sans-serif" font-size="11" fill="#94a3b8">1298</text>
<line x1="52" y1="135.5" x2="872" y2="135.5" stroke="#f1f5f9"/>
<text x="44" y="139.5" text-anchor="end" font-family="Inter, system-ui, sans-serif" font-size="11" fill="#94a3b8">1948</text>
<line x1="52" y1="90.0" x2="872" y2="90.0" stroke="#f1f5f9"/>
<text x="44" y="94.0" text-anchor="end" font-family="Inter, system-ui, sans-serif" font-size="11" fill="#94a3b8">2597</text>
<polygon points="52.0,272.0 52.0,271.9 54.8,271.8 89.0,271.1 91.9,270.9 94.7,270.8 103.2,270.7 120.3,270.7 157.3,270.6 160.2,270.0 163.0,269.9 171.6,269.8 174.4,269.7 177.3,269.6 180.1,269.4 185.8,269.3 188.7,269.0 197.2,268.7 208.6,268.6 211.4,268.4 214.3,268.2 237.1,268.1 242.8,268.1 257.0,268.0 259.8,267.9 262.7,267.8 274.1,267.7 276.9,267.3 279.8,267.0 282.6,266.0 285.5,265.9 305.4,265.8 313.9,265.8 319.6,265.7 322.5,265.6 325.3,265.3 328.2,265.2 331.0,265.1 333.9,264.9 336.7,264.7 348.1,264.4 353.8,264.3 365.2,264.2 368.0,263.9 370.9,263.8 373.7,263.7 379.4,263.6 382.3,262.2 385.1,260.8 388.0,260.3 390.8,259.9 393.7,259.8 396.5,259.5 399.4,259.0 402.2,258.6 405.1,258.4 407.9,258.3 413.6,258.1 416.4,257.5 419.3,256.9 422.1,256.4 425.0,256.0 430.7,255.9 436.4,255.8 439.2,255.3 442.1,255.0 444.9,254.0 447.8,253.4 450.6,252.9 453.5,252.3 456.3,251.7 459.2,251.0 462.0,250.3 464.8,249.6 467.7,248.9 470.5,248.2 473.4,247.8 476.2,247.3 479.1,246.8 481.9,246.5 484.8,246.1 487.6,245.8 490.5,245.6 493.3,245.5 499.0,245.4 501.9,244.0 504.7,243.1 507.6,242.8 510.4,242.8 516.1,242.6 518.9,242.4 530.3,242.4 536.0,242.2 544.6,242.1 547.4,240.5 550.3,239.0 553.1,238.6 556.0,237.3 558.8,236.3 561.7,235.7 564.5,235.3 567.3,234.7 570.2,234.4 573.0,234.3 575.9,234.0 578.7,233.9 595.8,232.8 598.7,231.4 601.5,231.1 604.4,230.9 607.2,230.9 627.1,230.8 652.8,229.3 655.6,228.2 658.5,226.9 661.3,224.9 664.2,224.6 667.0,223.9 669.8,222.8 672.7,222.0 675.5,220.1 678.4,217.3 681.2,214.5 684.1,211.3 686.9,207.9 689.8,205.0 692.6,203.2 695.5,201.0 698.3,197.8 701.2,195.1 704.0,193.2 706.9,191.3 709.7,188.7 712.6,187.0 715.4,185.3 718.2,183.8 721.1,182.7 723.9,181.2 726.8,180.3 729.6,179.4 732.5,178.5 735.3,176.0 738.2,174.0 741.0,172.8 743.9,172.5 746.7,171.9 749.6,170.8 752.4,169.9 755.3,168.2 758.1,167.2 761.0,166.2 763.8,166.0 766.7,165.6 769.5,164.8 772.3,162.8 775.2,159.5 778.0,156.1 780.9,152.7 783.7,149.8 786.6,146.6 789.4,143.1 792.3,139.5 795.1,136.2 798.0,133.8 800.8,131.9 803.7,129.7 806.5,127.6 809.4,126.2 812.2,124.5 815.1,123.3 817.9,121.5 820.8,119.0 823.6,116.1 826.4,113.6 829.3,111.4 832.1,110.0 835.0,108.8 837.8,107.5 840.7,106.1 843.5,103.7 846.4,101.7 849.2,99.3 852.1,96.7 854.9,94.6 857.8,92.9 860.6,92.2 863.5,91.3 866.3,90.3 869.2,90.1 872.0,90.0 872.0,272.0" fill="#e0f2fe" opacity="0.55"/>
<polyline points="52.0,271.9 54.8,271.8 89.0,271.1 91.9,270.9 94.7,270.8 103.2,270.7 120.3,270.7 157.3,270.6 160.2,270.0 163.0,269.9 171.6,269.8 174.4,269.7 177.3,269.6 180.1,269.4 185.8,269.3 188.7,269.0 197.2,268.7 208.6,268.6 211.4,268.4 214.3,268.2 237.1,268.1 242.8,268.1 257.0,268.0 259.8,267.9 262.7,267.8 274.1,267.7 276.9,267.3 279.8,267.0 282.6,266.0 285.5,265.9 305.4,265.8 313.9,265.8 319.6,265.7 322.5,265.6 325.3,265.3 328.2,265.2 331.0,265.1 333.9,264.9 336.7,264.7 348.1,264.4 353.8,264.3 365.2,264.2 368.0,263.9 370.9,263.8 373.7,263.7 379.4,263.6 382.3,262.2 385.1,260.8 388.0,260.3 390.8,259.9 393.7,259.8 396.5,259.5 399.4,259.0 402.2,258.6 405.1,258.4 407.9,258.3 413.6,258.1 416.4,257.5 419.3,256.9 422.1,256.4 425.0,256.0 430.7,255.9 436.4,255.8 439.2,255.3 442.1,255.0 444.9,254.0 447.8,253.4 450.6,252.9 453.5,252.3 456.3,251.7 459.2,251.0 462.0,250.3 464.8,249.6 467.7,248.9 470.5,248.2 473.4,247.8 476.2,247.3 479.1,246.8 481.9,246.5 484.8,246.1 487.6,245.8 490.5,245.6 493.3,245.5 499.0,245.4 501.9,244.0 504.7,243.1 507.6,242.8 510.4,242.8 516.1,242.6 518.9,242.4 530.3,242.4 536.0,242.2 544.6,242.1 547.4,240.5 550.3,239.0 553.1,238.6 556.0,237.3 558.8,236.3 561.7,235.7 564.5,235.3 567.3,234.7 570.2,234.4 573.0,234.3 575.9,234.0 578.7,233.9 595.8,232.8 598.7,231.4 601.5,231.1 604.4,230.9 607.2,230.9 627.1,230.8 652.8,229.3 655.6,228.2 658.5,226.9 661.3,224.9 664.2,224.6 667.0,223.9 669.8,222.8 672.7,222.0 675.5,220.1 678.4,217.3 681.2,214.5 684.1,211.3 686.9,207.9 689.8,205.0 692.6,203.2 695.5,201.0 698.3,197.8 701.2,195.1 704.0,193.2 706.9,191.3 709.7,188.7 712.6,187.0 715.4,185.3 718.2,183.8 721.1,182.7 723.9,181.2 726.8,180.3 729.6,179.4 732.5,178.5 735.3,176.0 738.2,174.0 741.0,172.8 743.9,172.5 746.7,171.9 749.6,170.8 752.4,169.9 755.3,168.2 758.1,167.2 761.0,166.2 763.8,166.0 766.7,165.6 769.5,164.8 772.3,162.8 775.2,159.5 778.0,156.1 780.9,152.7 783.7,149.8 786.6,146.6 789.4,143.1 792.3,139.5 795.1,136.2 798.0,133.8 800.8,131.9 803.7,129.7 806.5,127.6 809.4,126.2 812.2,124.5 815.1,123.3 817.9,121.5 820.8,119.0 823.6,116.1 826.4,113.6 829.3,111.4 832.1,110.0 835.0,108.8 837.8,107.5 840.7,106.1 843.5,103.7 846.4,101.7 849.2,99.3 852.1,96.7 854.9,94.6 857.8,92.9 860.6,92.2 863.5,91.3 866.3,90.3 869.2,90.1 872.0,90.0" fill="none" stroke="#38bdf8" stroke-width="2.5" stroke-linejoin="round" stroke-linecap="round"/>
<circle cx="872.0" cy="90.0" r="4" fill="#0ea5e9"/>
<text x="866.0" y="80.0" text-anchor="end" font-family="Inter, system-ui, sans-serif" font-size="13" font-weight="700" fill="#334155">2597</text>
<text x="52.0" y="294" text-anchor="middle" font-family="Inter, system-ui, sans-serif" font-size="11" fill="#94a3b8">Jun 10 05:00</text>
<text x="550.3" y="294" text-anchor="middle" font-family="Inter, system-ui, sans-serif" font-size="11" fill="#94a3b8">Jun 17 12:00</text>
<text x="872.0" y="294" text-anchor="middle" font-family="Inter, system-ui, sans-serif" font-size="11" fill="#94a3b8">Jun 22 05:00</text>
</svg>
