<svg xmlns="http://www.w3.org/2000/svg" width="900" height="320" viewBox="0 0 900 320" role="img" aria-labelledby="title desc">
<title id="title">Unsorry proofs over time</title>
<desc id="desc">Cumulative kernel-verified proofs over time, by the hour each proof was merged.</desc>
<rect width="900" height="100%" rx="18" fill="#ffffff"/>
<rect x="0.5" y="0.5" width="899" height="319" rx="18" fill="none" stroke="#e2e8f0"/>
<text x="32" y="44" font-family="Inter, system-ui, sans-serif" font-size="28" font-weight="700" fill="#334155">Unsorry — Proofs Over Time</text>
<text x="32" y="72" font-family="Inter, system-ui, sans-serif" font-size="13" fill="#64748b">2602 cumulative kernel-verified proofs · merged, hourly</text>
<line x1="52" y1="272.0" x2="872" y2="272.0" stroke="#f1f5f9"/>
<text x="44" y="276.0" text-anchor="end" font-family="Inter, system-ui, sans-serif" font-size="11" fill="#94a3b8">0</text>
<line x1="52" y1="226.5" x2="872" y2="226.5" stroke="#f1f5f9"/>
<text x="44" y="230.5" text-anchor="end" font-family="Inter, system-ui, sans-serif" font-size="11" fill="#94a3b8">650</text>
<line x1="52" y1="181.0" x2="872" y2="181.0" stroke="#f1f5f9"/>
<text x="44" y="185.0" text-anchor="end" font-family="Inter, system-ui, sans-serif" font-size="11" fill="#94a3b8">1301</text>
<line x1="52" y1="135.5" x2="872" y2="135.5" stroke="#f1f5f9"/>
<text x="44" y="139.5" text-anchor="end" font-family="Inter, system-ui, sans-serif" font-size="11" fill="#94a3b8">1952</text>
<line x1="52" y1="90.0" x2="872" y2="90.0" stroke="#f1f5f9"/>
<text x="44" y="94.0" text-anchor="end" font-family="Inter, system-ui, sans-serif" font-size="11" fill="#94a3b8">2602</text>
<polygon points="52.0,272.0 52.0,271.9 54.8,271.8 88.9,271.1 91.7,270.9 94.6,270.8 103.1,270.7 120.1,270.7 157.0,270.6 159.8,270.0 162.7,269.9 171.2,269.8 174.0,269.7 176.8,269.6 179.7,269.4 185.4,269.3 188.2,269.0 196.7,268.7 208.1,268.6 210.9,268.4 213.7,268.2 236.4,268.2 242.1,268.1 256.3,268.0 259.1,267.9 262.0,267.8 273.3,267.7 276.2,267.3 279.0,267.0 281.8,266.1 284.7,265.9 304.5,265.8 313.0,265.8 318.7,265.7 321.6,265.6 324.4,265.3 327.2,265.2 330.1,265.1 332.9,264.9 335.7,264.7 347.1,264.4 352.8,264.3 364.1,264.2 366.9,263.9 369.8,263.8 372.6,263.7 378.3,263.6 381.1,262.2 384.0,260.8 386.8,260.3 389.6,260.0 392.5,259.8 395.3,259.5 398.2,259.0 401.0,258.6 403.8,258.4 406.7,258.3 412.3,258.1 415.2,257.5 418.0,257.0 420.9,256.4 423.7,256.1 429.4,255.9 435.0,255.8 437.9,255.4 440.7,255.0 443.6,254.0 446.4,253.5 449.2,252.9 452.1,252.3 454.9,251.7 457.7,251.1 460.6,250.4 463.4,249.6 466.3,248.9 469.1,248.3 471.9,247.9 474.8,247.4 477.6,246.8 480.4,246.5 483.3,246.2 486.1,245.8 489.0,245.7 491.8,245.6 497.5,245.5 500.3,244.1 503.1,243.1 506.0,242.9 508.8,242.8 514.5,242.7 517.3,242.5 528.7,242.4 534.4,242.3 542.9,242.2 545.7,240.6 548.5,239.1 551.4,238.6 554.2,237.4 557.1,236.4 559.9,235.8 562.7,235.4 565.6,234.8 568.4,234.5 571.2,234.4 574.1,234.1 576.9,233.9 593.9,232.8 596.8,231.4 599.6,231.2 602.4,231.0 605.3,230.9 625.1,230.9 650.7,229.4 653.5,228.3 656.4,227.0 659.2,225.0 662.0,224.6 664.9,224.0 667.7,222.9 670.5,222.1 673.4,220.2 676.2,217.4 679.1,214.6 681.9,211.4 684.7,208.1 687.6,205.1 690.4,203.3 693.2,201.1 696.1,197.9 698.9,195.2 701.8,193.4 704.6,191.5 707.4,188.8 710.3,187.2 713.1,185.5 715.9,184.0 718.8,182.9 721.6,181.4 724.5,180.5 727.3,179.5 730.1,178.7 733.0,176.2 735.8,174.1 738.6,173.0 741.5,172.7 744.3,172.0 747.2,171.0 750.0,170.1 752.8,168.4 755.7,167.4 758.5,166.4 761.3,166.2 764.2,165.8 767.0,165.1 769.9,163.0 772.7,159.7 775.5,156.3 778.4,152.9 781.2,150.1 784.0,146.8 786.9,143.3 789.7,139.7 792.6,136.4 795.4,134.1 798.2,132.2 801.1,130.0 803.9,127.9 806.7,126.5 809.6,124.8 812.4,123.6 815.3,121.8 818.1,119.3 820.9,116.4 823.8,113.9 826.6,111.8 829.4,110.4 832.3,109.1 835.1,107.8 838.0,106.4 840.8,104.1 843.6,102.0 846.5,99.6 849.3,97.1 852.1,95.0 855.0,93.3 857.8,92.6 860.7,91.6 863.5,90.6 866.3,90.5 869.2,90.3 872.0,90.0 872.0,272.0" fill="#e0f2fe" opacity="0.55"/>
<polyline points="52.0,271.9 54.8,271.8 88.9,271.1 91.7,270.9 94.6,270.8 103.1,270.7 120.1,270.7 157.0,270.6 159.8,270.0 162.7,269.9 171.2,269.8 174.0,269.7 176.8,269.6 179.7,269.4 185.4,269.3 188.2,269.0 196.7,268.7 208.1,268.6 210.9,268.4 213.7,268.2 236.4,268.2 242.1,268.1 256.3,268.0 259.1,267.9 262.0,267.8 273.3,267.7 276.2,267.3 279.0,267.0 281.8,266.1 284.7,265.9 304.5,265.8 313.0,265.8 318.7,265.7 321.6,265.6 324.4,265.3 327.2,265.2 330.1,265.1 332.9,264.9 335.7,264.7 347.1,264.4 352.8,264.3 364.1,264.2 366.9,263.9 369.8,263.8 372.6,263.7 378.3,263.6 381.1,262.2 384.0,260.8 386.8,260.3 389.6,260.0 392.5,259.8 395.3,259.5 398.2,259.0 401.0,258.6 403.8,258.4 406.7,258.3 412.3,258.1 415.2,257.5 418.0,257.0 420.9,256.4 423.7,256.1 429.4,255.9 435.0,255.8 437.9,255.4 440.7,255.0 443.6,254.0 446.4,253.5 449.2,252.9 452.1,252.3 454.9,251.7 457.7,251.1 460.6,250.4 463.4,249.6 466.3,248.9 469.1,248.3 471.9,247.9 474.8,247.4 477.6,246.8 480.4,246.5 483.3,246.2 486.1,245.8 489.0,245.7 491.8,245.6 497.5,245.5 500.3,244.1 503.1,243.1 506.0,242.9 508.8,242.8 514.5,242.7 517.3,242.5 528.7,242.4 534.4,242.3 542.9,242.2 545.7,240.6 548.5,239.1 551.4,238.6 554.2,237.4 557.1,236.4 559.9,235.8 562.7,235.4 565.6,234.8 568.4,234.5 571.2,234.4 574.1,234.1 576.9,233.9 593.9,232.8 596.8,231.4 599.6,231.2 602.4,231.0 605.3,230.9 625.1,230.9 650.7,229.4 653.5,228.3 656.4,227.0 659.2,225.0 662.0,224.6 664.9,224.0 667.7,222.9 670.5,222.1 673.4,220.2 676.2,217.4 679.1,214.6 681.9,211.4 684.7,208.1 687.6,205.1 690.4,203.3 693.2,201.1 696.1,197.9 698.9,195.2 701.8,193.4 704.6,191.5 707.4,188.8 710.3,187.2 713.1,185.5 715.9,184.0 718.8,182.9 721.6,181.4 724.5,180.5 727.3,179.5 730.1,178.7 733.0,176.2 735.8,174.1 738.6,173.0 741.5,172.7 744.3,172.0 747.2,171.0 750.0,170.1 752.8,168.4 755.7,167.4 758.5,166.4 761.3,166.2 764.2,165.8 767.0,165.1 769.9,163.0 772.7,159.7 775.5,156.3 778.4,152.9 781.2,150.1 784.0,146.8 786.9,143.3 789.7,139.7 792.6,136.4 795.4,134.1 798.2,132.2 801.1,130.0 803.9,127.9 806.7,126.5 809.6,124.8 812.4,123.6 815.3,121.8 818.1,119.3 820.9,116.4 823.8,113.9 826.6,111.8 829.4,110.4 832.3,109.1 835.1,107.8 838.0,106.4 840.8,104.1 843.6,102.0 846.5,99.6 849.3,97.1 852.1,95.0 855.0,93.3 857.8,92.6 860.7,91.6 863.5,90.6 866.3,90.5 869.2,90.3 872.0,90.0" fill="none" stroke="#38bdf8" stroke-width="2.5" stroke-linejoin="round" stroke-linecap="round"/>
<circle cx="872.0" cy="90.0" r="4" fill="#0ea5e9"/>
<text x="866.0" y="80.0" text-anchor="end" font-family="Inter, system-ui, sans-serif" font-size="13" font-weight="700" fill="#334155">2602</text>
<text x="52.0" y="294" text-anchor="middle" font-family="Inter, system-ui, sans-serif" font-size="11" fill="#94a3b8">Jun 10 05:00</text>
<text x="551.4" y="294" text-anchor="middle" font-family="Inter, system-ui, sans-serif" font-size="11" fill="#94a3b8">Jun 17 13:00</text>
<text x="872.0" y="294" text-anchor="middle" font-family="Inter, system-ui, sans-serif" font-size="11" fill="#94a3b8">Jun 22 06:00</text>
</svg>
