<svg xmlns="http://www.w3.org/2000/svg" width="900" height="320" viewBox="0 0 900 320" role="img" aria-labelledby="title desc">
<title id="title">Unsorry proofs over time</title>
<desc id="desc">Cumulative kernel-verified proofs over time, by the hour each proof was merged.</desc>
<rect width="900" height="100%" rx="18" fill="#ffffff"/>
<rect x="0.5" y="0.5" width="899" height="319" rx="18" fill="none" stroke="#e2e8f0"/>
<text x="32" y="44" font-family="Inter, system-ui, sans-serif" font-size="28" font-weight="700" fill="#334155">Unsorry — Proofs Over Time</text>
<text x="32" y="72" font-family="Inter, system-ui, sans-serif" font-size="13" fill="#64748b">2381 cumulative kernel-verified proofs · merged, hourly</text>
<line x1="52" y1="272.0" x2="872" y2="272.0" stroke="#f1f5f9"/>
<text x="44" y="276.0" text-anchor="end" font-family="Inter, system-ui, sans-serif" font-size="11" fill="#94a3b8">0</text>
<line x1="52" y1="226.5" x2="872" y2="226.5" stroke="#f1f5f9"/>
<text x="44" y="230.5" text-anchor="end" font-family="Inter, system-ui, sans-serif" font-size="11" fill="#94a3b8">595</text>
<line x1="52" y1="181.0" x2="872" y2="181.0" stroke="#f1f5f9"/>
<text x="44" y="185.0" text-anchor="end" font-family="Inter, system-ui, sans-serif" font-size="11" fill="#94a3b8">1190</text>
<line x1="52" y1="135.5" x2="872" y2="135.5" stroke="#f1f5f9"/>
<text x="44" y="139.5" text-anchor="end" font-family="Inter, system-ui, sans-serif" font-size="11" fill="#94a3b8">1786</text>
<line x1="52" y1="90.0" x2="872" y2="90.0" stroke="#f1f5f9"/>
<text x="44" y="94.0" text-anchor="end" font-family="Inter, system-ui, sans-serif" font-size="11" fill="#94a3b8">2381</text>
<polygon points="52.0,272.0 52.0,271.9 54.9,271.8 90.3,271.0 93.3,270.8 96.2,270.7 105.1,270.6 122.8,270.5 161.1,270.5 164.1,269.8 167.0,269.7 175.9,269.6 178.8,269.5 181.8,269.4 184.7,269.2 190.6,269.1 193.6,268.7 202.4,268.4 214.2,268.3 217.2,268.0 220.1,267.9 243.7,267.8 249.6,267.7 264.4,267.6 267.3,267.6 270.3,267.4 282.1,267.3 285.0,266.9 288.0,266.5 290.9,265.5 293.9,265.3 314.5,265.3 323.4,265.2 329.3,265.1 332.2,265.0 335.2,264.7 338.1,264.6 341.1,264.5 344.0,264.3 347.0,264.1 358.8,263.7 364.7,263.6 376.5,263.5 379.4,263.1 382.4,263.1 385.3,262.9 391.2,262.8 394.2,261.3 397.1,259.8 400.1,259.2 403.0,258.9 406.0,258.7 408.9,258.3 411.9,257.8 414.8,257.4 417.8,257.2 420.7,257.0 426.6,256.8 429.6,256.2 432.5,255.6 435.5,255.0 438.4,254.6 444.3,254.4 450.2,254.3 453.2,253.8 456.1,253.4 459.1,252.4 462.0,251.7 464.9,251.1 467.9,250.5 470.8,249.8 473.8,249.1 476.7,248.4 479.7,247.5 482.6,246.8 485.6,246.1 488.5,245.6 491.5,245.1 494.4,244.5 497.4,244.2 500.3,243.8 503.3,243.4 506.2,243.3 509.2,243.1 515.1,243.0 518.0,241.5 521.0,240.4 523.9,240.2 526.9,240.1 532.8,240.0 535.7,239.7 547.5,239.7 553.4,239.5 562.3,239.4 565.2,237.7 568.2,236.0 571.1,235.5 574.1,234.2 577.0,233.1 580.0,232.4 582.9,232.0 585.9,231.3 588.8,231.0 591.8,230.9 594.7,230.6 597.7,230.4 615.4,229.2 618.3,227.7 621.3,227.4 624.2,227.2 627.2,227.1 647.8,227.1 674.4,225.4 677.3,224.2 680.3,222.8 683.2,220.6 686.2,220.3 689.1,219.6 692.1,218.3 695.0,217.4 698.0,215.4 700.9,212.3 703.9,209.3 706.8,205.8 709.8,202.1 712.7,198.9 715.7,196.9 718.6,194.6 721.6,191.1 724.5,188.1 727.5,186.1 730.4,184.0 733.4,181.1 736.3,179.3 739.3,177.4 742.2,175.8 745.2,174.6 748.1,173.0 751.1,172.0 754.0,170.9 757.0,170.0 759.9,167.3 762.9,165.1 765.8,163.8 768.8,163.5 771.7,162.8 774.7,161.6 777.6,160.6 780.6,158.8 783.5,157.6 786.5,156.6 789.4,156.4 792.4,156.0 795.3,155.1 798.3,152.9 801.2,149.3 804.2,145.6 807.1,141.8 810.1,138.8 813.0,135.2 816.0,131.4 818.9,127.5 821.9,123.9 824.8,121.3 827.8,119.2 830.7,116.8 833.7,114.5 836.6,113.0 839.6,111.2 842.5,109.8 845.5,107.8 848.4,105.1 851.4,101.9 854.3,99.2 857.3,96.9 860.2,95.4 863.2,94.0 866.1,92.6 869.1,91.1 872.0,90.0 872.0,272.0" fill="#e0f2fe" opacity="0.55"/>
<polyline points="52.0,271.9 54.9,271.8 90.3,271.0 93.3,270.8 96.2,270.7 105.1,270.6 122.8,270.5 161.1,270.5 164.1,269.8 167.0,269.7 175.9,269.6 178.8,269.5 181.8,269.4 184.7,269.2 190.6,269.1 193.6,268.7 202.4,268.4 214.2,268.3 217.2,268.0 220.1,267.9 243.7,267.8 249.6,267.7 264.4,267.6 267.3,267.6 270.3,267.4 282.1,267.3 285.0,266.9 288.0,266.5 290.9,265.5 293.9,265.3 314.5,265.3 323.4,265.2 329.3,265.1 332.2,265.0 335.2,264.7 338.1,264.6 341.1,264.5 344.0,264.3 347.0,264.1 358.8,263.7 364.7,263.6 376.5,263.5 379.4,263.1 382.4,263.1 385.3,262.9 391.2,262.8 394.2,261.3 397.1,259.8 400.1,259.2 403.0,258.9 406.0,258.7 408.9,258.3 411.9,257.8 414.8,257.4 417.8,257.2 420.7,257.0 426.6,256.8 429.6,256.2 432.5,255.6 435.5,255.0 438.4,254.6 444.3,254.4 450.2,254.3 453.2,253.8 456.1,253.4 459.1,252.4 462.0,251.7 464.9,251.1 467.9,250.5 470.8,249.8 473.8,249.1 476.7,248.4 479.7,247.5 482.6,246.8 485.6,246.1 488.5,245.6 491.5,245.1 494.4,244.5 497.4,244.2 500.3,243.8 503.3,243.4 506.2,243.3 509.2,243.1 515.1,243.0 518.0,241.5 521.0,240.4 523.9,240.2 526.9,240.1 532.8,240.0 535.7,239.7 547.5,239.7 553.4,239.5 562.3,239.4 565.2,237.7 568.2,236.0 571.1,235.5 574.1,234.2 577.0,233.1 580.0,232.4 582.9,232.0 585.9,231.3 588.8,231.0 591.8,230.9 594.7,230.6 597.7,230.4 615.4,229.2 618.3,227.7 621.3,227.4 624.2,227.2 627.2,227.1 647.8,227.1 674.4,225.4 677.3,224.2 680.3,222.8 683.2,220.6 686.2,220.3 689.1,219.6 692.1,218.3 695.0,217.4 698.0,215.4 700.9,212.3 703.9,209.3 706.8,205.8 709.8,202.1 712.7,198.9 715.7,196.9 718.6,194.6 721.6,191.1 724.5,188.1 727.5,186.1 730.4,184.0 733.4,181.1 736.3,179.3 739.3,177.4 742.2,175.8 745.2,174.6 748.1,173.0 751.1,172.0 754.0,170.9 757.0,170.0 759.9,167.3 762.9,165.1 765.8,163.8 768.8,163.5 771.7,162.8 774.7,161.6 777.6,160.6 780.6,158.8 783.5,157.6 786.5,156.6 789.4,156.4 792.4,156.0 795.3,155.1 798.3,152.9 801.2,149.3 804.2,145.6 807.1,141.8 810.1,138.8 813.0,135.2 816.0,131.4 818.9,127.5 821.9,123.9 824.8,121.3 827.8,119.2 830.7,116.8 833.7,114.5 836.6,113.0 839.6,111.2 842.5,109.8 845.5,107.8 848.4,105.1 851.4,101.9 854.3,99.2 857.3,96.9 860.2,95.4 863.2,94.0 866.1,92.6 869.1,91.1 872.0,90.0" fill="none" stroke="#38bdf8" stroke-width="2.5" stroke-linejoin="round" stroke-linecap="round"/>
<circle cx="872.0" cy="90.0" r="4" fill="#0ea5e9"/>
<text x="866.0" y="80.0" text-anchor="end" font-family="Inter, system-ui, sans-serif" font-size="13" font-weight="700" fill="#334155">2381</text>
<text x="52.0" y="294" text-anchor="middle" font-family="Inter, system-ui, sans-serif" font-size="11" fill="#94a3b8">Jun 10 05:00</text>
<text x="535.7" y="294" text-anchor="middle" font-family="Inter, system-ui, sans-serif" font-size="11" fill="#94a3b8">Jun 17 01:00</text>
<text x="872.0" y="294" text-anchor="middle" font-family="Inter, system-ui, sans-serif" font-size="11" fill="#94a3b8">Jun 21 19:00</text>
</svg>
