<svg xmlns="http://www.w3.org/2000/svg" width="900" height="320" viewBox="0 0 900 320" role="img" aria-labelledby="title desc">
<title id="title">Unsorry proofs over time</title>
<desc id="desc">Cumulative kernel-verified proofs over time, by the hour each proof was merged.</desc>
<rect width="900" height="100%" rx="18" fill="#ffffff"/>
<rect x="0.5" y="0.5" width="899" height="319" rx="18" fill="none" stroke="#e2e8f0"/>
<text x="32" y="44" font-family="Inter, system-ui, sans-serif" font-size="28" font-weight="700" fill="#334155">Unsorry — Proofs Over Time</text>
<text x="32" y="72" font-family="Inter, system-ui, sans-serif" font-size="13" fill="#64748b">2342 cumulative kernel-verified proofs · merged, hourly</text>
<line x1="52" y1="272.0" x2="872" y2="272.0" stroke="#f1f5f9"/>
<text x="44" y="276.0" text-anchor="end" font-family="Inter, system-ui, sans-serif" font-size="11" fill="#94a3b8">0</text>
<line x1="52" y1="226.5" x2="872" y2="226.5" stroke="#f1f5f9"/>
<text x="44" y="230.5" text-anchor="end" font-family="Inter, system-ui, sans-serif" font-size="11" fill="#94a3b8">586</text>
<line x1="52" y1="181.0" x2="872" y2="181.0" stroke="#f1f5f9"/>
<text x="44" y="185.0" text-anchor="end" font-family="Inter, system-ui, sans-serif" font-size="11" fill="#94a3b8">1171</text>
<line x1="52" y1="135.5" x2="872" y2="135.5" stroke="#f1f5f9"/>
<text x="44" y="139.5" text-anchor="end" font-family="Inter, system-ui, sans-serif" font-size="11" fill="#94a3b8">1756</text>
<line x1="52" y1="90.0" x2="872" y2="90.0" stroke="#f1f5f9"/>
<text x="44" y="94.0" text-anchor="end" font-family="Inter, system-ui, sans-serif" font-size="11" fill="#94a3b8">2342</text>
<polygon points="52.0,272.0 52.0,271.9 55.0,271.8 90.6,271.0 93.6,270.8 96.6,270.7 105.5,270.6 123.3,270.5 161.9,270.4 164.9,269.7 167.9,269.7 176.8,269.5 179.8,269.4 182.7,269.4 185.7,269.1 191.6,269.0 194.6,268.7 203.5,268.3 215.4,268.2 218.4,268.0 221.3,267.8 245.1,267.7 251.1,267.6 265.9,267.6 268.9,267.5 271.9,267.3 283.7,267.3 286.7,266.8 289.7,266.4 292.7,265.4 295.6,265.2 316.4,265.2 325.3,265.1 331.3,265.0 334.2,264.9 337.2,264.5 340.2,264.5 343.2,264.4 346.1,264.2 349.1,263.9 361.0,263.5 366.9,263.5 378.8,263.4 381.8,263.0 384.8,262.9 387.7,262.8 393.7,262.7 396.6,261.1 399.6,259.6 402.6,259.0 405.6,258.6 408.5,258.5 411.5,258.1 414.5,257.5 417.4,257.2 420.4,256.9 423.4,256.8 429.3,256.5 432.3,255.9 435.3,255.3 438.2,254.7 441.2,254.3 447.1,254.1 453.1,254.0 456.1,253.5 459.0,253.1 462.0,252.0 465.0,251.4 467.9,250.8 470.9,250.2 473.9,249.5 476.9,248.8 479.8,248.0 482.8,247.1 485.8,246.4 488.7,245.7 491.7,245.2 494.7,244.6 497.7,244.0 500.6,243.7 503.6,243.3 506.6,242.9 509.5,242.8 512.5,242.6 518.4,242.5 521.4,241.0 524.4,239.9 527.4,239.7 530.3,239.6 536.3,239.4 539.2,239.2 551.1,239.1 557.1,239.0 566.0,238.9 569.0,237.1 571.9,235.4 574.9,234.9 577.9,233.5 580.8,232.4 583.8,231.7 586.8,231.4 589.8,230.7 592.7,230.3 595.7,230.2 598.7,229.9 601.6,229.7 619.5,228.5 622.4,226.9 625.4,226.7 628.4,226.5 631.3,226.4 652.1,226.3 678.9,224.7 681.9,223.4 684.8,222.0 687.8,219.8 690.8,219.4 693.7,218.7 696.7,217.4 699.7,216.5 702.7,214.4 705.6,211.3 708.6,208.3 711.6,204.7 714.5,201.0 717.5,197.7 720.5,195.7 723.4,193.3 726.4,189.7 729.4,186.7 732.4,184.7 735.3,182.6 738.3,179.6 741.3,177.7 744.2,175.9 747.2,174.2 750.2,173.0 753.2,171.4 756.1,170.4 759.1,169.3 762.1,168.3 765.0,165.5 768.0,163.3 771.0,162.0 774.0,161.6 776.9,161.0 779.9,159.8 782.9,158.8 785.8,156.9 788.8,155.7 791.8,154.7 794.8,154.5 797.7,154.0 800.7,153.2 803.7,150.9 806.6,147.3 809.6,143.5 812.6,139.7 815.6,136.5 818.5,132.9 821.5,129.0 824.5,125.0 827.4,121.4 830.4,118.8 833.4,116.7 836.3,114.2 839.3,111.9 842.3,110.4 845.3,108.5 848.2,107.1 851.2,105.1 854.2,102.4 857.1,99.1 860.1,96.4 863.1,94.0 866.1,92.4 869.0,91.0 872.0,90.0 872.0,272.0" fill="#e0f2fe" opacity="0.55"/>
<polyline points="52.0,271.9 55.0,271.8 90.6,271.0 93.6,270.8 96.6,270.7 105.5,270.6 123.3,270.5 161.9,270.4 164.9,269.7 167.9,269.7 176.8,269.5 179.8,269.4 182.7,269.4 185.7,269.1 191.6,269.0 194.6,268.7 203.5,268.3 215.4,268.2 218.4,268.0 221.3,267.8 245.1,267.7 251.1,267.6 265.9,267.6 268.9,267.5 271.9,267.3 283.7,267.3 286.7,266.8 289.7,266.4 292.7,265.4 295.6,265.2 316.4,265.2 325.3,265.1 331.3,265.0 334.2,264.9 337.2,264.5 340.2,264.5 343.2,264.4 346.1,264.2 349.1,263.9 361.0,263.5 366.9,263.5 378.8,263.4 381.8,263.0 384.8,262.9 387.7,262.8 393.7,262.7 396.6,261.1 399.6,259.6 402.6,259.0 405.6,258.6 408.5,258.5 411.5,258.1 414.5,257.5 417.4,257.2 420.4,256.9 423.4,256.8 429.3,256.5 432.3,255.9 435.3,255.3 438.2,254.7 441.2,254.3 447.1,254.1 453.1,254.0 456.1,253.5 459.0,253.1 462.0,252.0 465.0,251.4 467.9,250.8 470.9,250.2 473.9,249.5 476.9,248.8 479.8,248.0 482.8,247.1 485.8,246.4 488.7,245.7 491.7,245.2 494.7,244.6 497.7,244.0 500.6,243.7 503.6,243.3 506.6,242.9 509.5,242.8 512.5,242.6 518.4,242.5 521.4,241.0 524.4,239.9 527.4,239.7 530.3,239.6 536.3,239.4 539.2,239.2 551.1,239.1 557.1,239.0 566.0,238.9 569.0,237.1 571.9,235.4 574.9,234.9 577.9,233.5 580.8,232.4 583.8,231.7 586.8,231.4 589.8,230.7 592.7,230.3 595.7,230.2 598.7,229.9 601.6,229.7 619.5,228.5 622.4,226.9 625.4,226.7 628.4,226.5 631.3,226.4 652.1,226.3 678.9,224.7 681.9,223.4 684.8,222.0 687.8,219.8 690.8,219.4 693.7,218.7 696.7,217.4 699.7,216.5 702.7,214.4 705.6,211.3 708.6,208.3 711.6,204.7 714.5,201.0 717.5,197.7 720.5,195.7 723.4,193.3 726.4,189.7 729.4,186.7 732.4,184.7 735.3,182.6 738.3,179.6 741.3,177.7 744.2,175.9 747.2,174.2 750.2,173.0 753.2,171.4 756.1,170.4 759.1,169.3 762.1,168.3 765.0,165.5 768.0,163.3 771.0,162.0 774.0,161.6 776.9,161.0 779.9,159.8 782.9,158.8 785.8,156.9 788.8,155.7 791.8,154.7 794.8,154.5 797.7,154.0 800.7,153.2 803.7,150.9 806.6,147.3 809.6,143.5 812.6,139.7 815.6,136.5 818.5,132.9 821.5,129.0 824.5,125.0 827.4,121.4 830.4,118.8 833.4,116.7 836.3,114.2 839.3,111.9 842.3,110.4 845.3,108.5 848.2,107.1 851.2,105.1 854.2,102.4 857.1,99.1 860.1,96.4 863.1,94.0 866.1,92.4 869.0,91.0 872.0,90.0" fill="none" stroke="#38bdf8" stroke-width="2.5" stroke-linejoin="round" stroke-linecap="round"/>
<circle cx="872.0" cy="90.0" r="4" fill="#0ea5e9"/>
<text x="866.0" y="80.0" text-anchor="end" font-family="Inter, system-ui, sans-serif" font-size="13" font-weight="700" fill="#334155">2342</text>
<text x="52.0" y="294" text-anchor="middle" font-family="Inter, system-ui, sans-serif" font-size="11" fill="#94a3b8">Jun 10 05:00</text>
<text x="536.3" y="294" text-anchor="middle" font-family="Inter, system-ui, sans-serif" font-size="11" fill="#94a3b8">Jun 17 00:00</text>
<text x="872.0" y="294" text-anchor="middle" font-family="Inter, system-ui, sans-serif" font-size="11" fill="#94a3b8">Jun 21 17:00</text>
</svg>
