<svg xmlns="http://www.w3.org/2000/svg" width="900" height="320" viewBox="0 0 900 320" role="img" aria-labelledby="title desc">
<title id="title">unsorry proofs over time</title>
<desc id="desc">Cumulative kernel-verified proofs over time, by the hour each proof was merged.</desc>
<rect width="900" height="100%" rx="18" fill="#ffffff"/>
<rect x="0.5" y="0.5" width="899" height="319" rx="18" fill="none" stroke="#e2e8f0"/>
<text x="32" y="44" font-family="Inter, system-ui, sans-serif" font-size="28" font-weight="700" fill="#334155">unsorry — Proofs Over Time</text>
<text x="32" y="72" font-family="Inter, system-ui, sans-serif" font-size="13" fill="#64748b">2747 cumulative kernel-verified proofs · merged, hourly</text>
<line x1="52" y1="272.0" x2="872" y2="272.0" stroke="#f1f5f9"/>
<text x="44" y="276.0" text-anchor="end" font-family="Inter, system-ui, sans-serif" font-size="11" fill="#94a3b8">0</text>
<line x1="52" y1="226.5" x2="872" y2="226.5" stroke="#f1f5f9"/>
<text x="44" y="230.5" text-anchor="end" font-family="Inter, system-ui, sans-serif" font-size="11" fill="#94a3b8">687</text>
<line x1="52" y1="181.0" x2="872" y2="181.0" stroke="#f1f5f9"/>
<text x="44" y="185.0" text-anchor="end" font-family="Inter, system-ui, sans-serif" font-size="11" fill="#94a3b8">1374</text>
<line x1="52" y1="135.5" x2="872" y2="135.5" stroke="#f1f5f9"/>
<text x="44" y="139.5" text-anchor="end" font-family="Inter, system-ui, sans-serif" font-size="11" fill="#94a3b8">2060</text>
<line x1="52" y1="90.0" x2="872" y2="90.0" stroke="#f1f5f9"/>
<text x="44" y="94.0" text-anchor="end" font-family="Inter, system-ui, sans-serif" font-size="11" fill="#94a3b8">2747</text>
<polygon points="52.0,272.0 52.0,271.9 54.7,271.8 87.3,271.1 90.0,270.9 92.7,270.9 100.9,270.8 117.2,270.7 152.5,270.7 155.2,270.1 157.9,270.0 166.0,269.9 168.8,269.8 171.5,269.7 174.2,269.5 179.6,269.5 182.3,269.2 190.5,268.9 201.3,268.8 204.1,268.6 206.8,268.4 228.5,268.4 233.9,268.3 247.5,268.2 250.2,268.2 252.9,268.0 263.8,268.0 266.5,267.6 269.2,267.2 271.9,266.4 274.6,266.2 293.7,266.2 301.8,266.1 307.2,266.0 309.9,266.0 312.7,265.6 315.4,265.6 318.1,265.5 320.8,265.3 323.5,265.1 334.4,264.8 339.8,264.7 350.7,264.6 353.4,264.3 356.1,264.2 358.8,264.1 364.3,264.0 367.0,262.7 369.7,261.4 372.4,260.9 375.1,260.6 377.8,260.5 380.5,260.1 383.3,259.7 386.0,259.3 388.7,259.1 391.4,259.0 396.8,258.8 399.5,258.3 402.3,257.8 405.0,257.2 407.7,256.9 413.1,256.8 418.6,256.7 421.3,256.2 424.0,255.9 426.7,255.0 429.4,254.4 432.1,253.9 434.8,253.4 437.6,252.8 440.3,252.2 443.0,251.5 445.7,250.8 448.4,250.1 451.1,249.5 453.9,249.1 456.6,248.7 459.3,248.1 462.0,247.9 464.7,247.6 467.4,247.2 470.1,247.1 472.9,247.0 478.3,246.9 481.0,245.6 483.7,244.6 486.4,244.4 489.2,244.4 494.6,244.2 497.3,244.0 508.2,244.0 513.6,243.8 521.7,243.8 524.5,242.3 527.2,240.8 529.9,240.4 532.6,239.2 535.3,238.3 538.0,237.7 540.7,237.3 543.5,236.8 546.2,236.5 548.9,236.4 551.6,236.1 554.3,236.0 570.6,234.9 573.3,233.6 576.0,233.4 578.8,233.2 581.5,233.1 600.5,233.0 624.9,231.7 627.6,230.6 630.3,229.3 633.1,227.5 635.8,227.1 638.5,226.5 641.2,225.5 643.9,224.7 646.6,222.9 649.4,220.3 652.1,217.7 654.8,214.6 657.5,211.4 660.2,208.7 662.9,206.9 665.6,204.9 668.4,201.8 671.1,199.3 673.8,197.5 676.5,195.7 679.2,193.2 681.9,191.6 684.6,190.0 687.4,188.7 690.1,187.6 692.8,186.2 695.5,185.3 698.2,184.4 700.9,183.6 703.7,181.2 706.4,179.3 709.1,178.3 711.8,177.9 714.5,177.3 717.2,176.3 719.9,175.5 722.7,173.9 725.4,172.9 728.1,172.0 730.8,171.8 733.5,171.4 736.2,170.7 739.0,168.8 741.7,165.7 744.4,162.4 747.1,159.2 749.8,156.5 752.5,153.4 755.2,150.1 758.0,146.7 760.7,143.6 763.4,141.3 766.1,139.6 768.8,137.5 771.5,135.5 774.3,134.2 777.0,132.6 779.7,131.4 782.4,129.7 785.1,127.4 787.8,124.6 790.5,122.3 793.3,120.2 796.0,118.9 798.7,117.7 801.4,116.5 804.1,115.2 806.8,112.9 809.5,111.0 812.3,108.7 815.0,106.3 817.7,104.3 820.4,102.7 823.1,102.1 825.8,101.1 828.6,100.2 831.3,100.1 834.0,99.9 836.7,99.5 839.4,99.3 842.1,99.2 844.8,98.9 847.6,98.7 855.7,98.7 858.4,98.6 861.1,98.2 863.9,95.5 866.6,93.2 869.3,91.1 872.0,90.0 872.0,272.0" fill="#e0f2fe" opacity="0.55"/>
<polyline points="52.0,271.9 54.7,271.8 87.3,271.1 90.0,270.9 92.7,270.9 100.9,270.8 117.2,270.7 152.5,270.7 155.2,270.1 157.9,270.0 166.0,269.9 168.8,269.8 171.5,269.7 174.2,269.5 179.6,269.5 182.3,269.2 190.5,268.9 201.3,268.8 204.1,268.6 206.8,268.4 228.5,268.4 233.9,268.3 247.5,268.2 250.2,268.2 252.9,268.0 263.8,268.0 266.5,267.6 269.2,267.2 271.9,266.4 274.6,266.2 293.7,266.2 301.8,266.1 307.2,266.0 309.9,266.0 312.7,265.6 315.4,265.6 318.1,265.5 320.8,265.3 323.5,265.1 334.4,264.8 339.8,264.7 350.7,264.6 353.4,264.3 356.1,264.2 358.8,264.1 364.3,264.0 367.0,262.7 369.7,261.4 372.4,260.9 375.1,260.6 377.8,260.5 380.5,260.1 383.3,259.7 386.0,259.3 388.7,259.1 391.4,259.0 396.8,258.8 399.5,258.3 402.3,257.8 405.0,257.2 407.7,256.9 413.1,256.8 418.6,256.7 421.3,256.2 424.0,255.9 426.7,255.0 429.4,254.4 432.1,253.9 434.8,253.4 437.6,252.8 440.3,252.2 443.0,251.5 445.7,250.8 448.4,250.1 451.1,249.5 453.9,249.1 456.6,248.7 459.3,248.1 462.0,247.9 464.7,247.6 467.4,247.2 470.1,247.1 472.9,247.0 478.3,246.9 481.0,245.6 483.7,244.6 486.4,244.4 489.2,244.4 494.6,244.2 497.3,244.0 508.2,244.0 513.6,243.8 521.7,243.8 524.5,242.3 527.2,240.8 529.9,240.4 532.6,239.2 535.3,238.3 538.0,237.7 540.7,237.3 543.5,236.8 546.2,236.5 548.9,236.4 551.6,236.1 554.3,236.0 570.6,234.9 573.3,233.6 576.0,233.4 578.8,233.2 581.5,233.1 600.5,233.0 624.9,231.7 627.6,230.6 630.3,229.3 633.1,227.5 635.8,227.1 638.5,226.5 641.2,225.5 643.9,224.7 646.6,222.9 649.4,220.3 652.1,217.7 654.8,214.6 657.5,211.4 660.2,208.7 662.9,206.9 665.6,204.9 668.4,201.8 671.1,199.3 673.8,197.5 676.5,195.7 679.2,193.2 681.9,191.6 684.6,190.0 687.4,188.7 690.1,187.6 692.8,186.2 695.5,185.3 698.2,184.4 700.9,183.6 703.7,181.2 706.4,179.3 709.1,178.3 711.8,177.9 714.5,177.3 717.2,176.3 719.9,175.5 722.7,173.9 725.4,172.9 728.1,172.0 730.8,171.8 733.5,171.4 736.2,170.7 739.0,168.8 741.7,165.7 744.4,162.4 747.1,159.2 749.8,156.5 752.5,153.4 755.2,150.1 758.0,146.7 760.7,143.6 763.4,141.3 766.1,139.6 768.8,137.5 771.5,135.5 774.3,134.2 777.0,132.6 779.7,131.4 782.4,129.7 785.1,127.4 787.8,124.6 790.5,122.3 793.3,120.2 796.0,118.9 798.7,117.7 801.4,116.5 804.1,115.2 806.8,112.9 809.5,111.0 812.3,108.7 815.0,106.3 817.7,104.3 820.4,102.7 823.1,102.1 825.8,101.1 828.6,100.2 831.3,100.1 834.0,99.9 836.7,99.5 839.4,99.3 842.1,99.2 844.8,98.9 847.6,98.7 855.7,98.7 858.4,98.6 861.1,98.2 863.9,95.5 866.6,93.2 869.3,91.1 872.0,90.0" fill="none" stroke="#38bdf8" stroke-width="2.5" stroke-linejoin="round" stroke-linecap="round"/>
<circle cx="872.0" cy="90.0" r="4" fill="#0ea5e9"/>
<text x="866.0" y="80.0" text-anchor="end" font-family="Inter, system-ui, sans-serif" font-size="13" font-weight="700" fill="#334155">2747</text>
<text x="52.0" y="294" text-anchor="middle" font-family="Inter, system-ui, sans-serif" font-size="11" fill="#94a3b8">Jun 10 05:00</text>
<text x="543.5" y="294" text-anchor="middle" font-family="Inter, system-ui, sans-serif" font-size="11" fill="#94a3b8">Jun 17 18:00</text>
<text x="872.0" y="294" text-anchor="middle" font-family="Inter, system-ui, sans-serif" font-size="11" fill="#94a3b8">Jun 22 19:00</text>
</svg>
