<svg xmlns="http://www.w3.org/2000/svg" width="900" height="320" viewBox="0 0 900 320" role="img" aria-labelledby="title desc">
<title id="title">Unsorry proofs over time</title>
<desc id="desc">Cumulative kernel-verified proofs over time, by the hour each proof was merged.</desc>
<rect width="900" height="100%" rx="18" fill="#ffffff"/>
<rect x="0.5" y="0.5" width="899" height="319" rx="18" fill="none" stroke="#e2e8f0"/>
<text x="32" y="44" font-family="Inter, system-ui, sans-serif" font-size="28" font-weight="700" fill="#334155">Unsorry — Proofs Over Time</text>
<text x="32" y="72" font-family="Inter, system-ui, sans-serif" font-size="13" fill="#64748b">2555 cumulative kernel-verified proofs · merged, hourly</text>
<line x1="52" y1="272.0" x2="872" y2="272.0" stroke="#f1f5f9"/>
<text x="44" y="276.0" text-anchor="end" font-family="Inter, system-ui, sans-serif" font-size="11" fill="#94a3b8">0</text>
<line x1="52" y1="226.5" x2="872" y2="226.5" stroke="#f1f5f9"/>
<text x="44" y="230.5" text-anchor="end" font-family="Inter, system-ui, sans-serif" font-size="11" fill="#94a3b8">639</text>
<line x1="52" y1="181.0" x2="872" y2="181.0" stroke="#f1f5f9"/>
<text x="44" y="185.0" text-anchor="end" font-family="Inter, system-ui, sans-serif" font-size="11" fill="#94a3b8">1278</text>
<line x1="52" y1="135.5" x2="872" y2="135.5" stroke="#f1f5f9"/>
<text x="44" y="139.5" text-anchor="end" font-family="Inter, system-ui, sans-serif" font-size="11" fill="#94a3b8">1916</text>
<line x1="52" y1="90.0" x2="872" y2="90.0" stroke="#f1f5f9"/>
<text x="44" y="94.0" text-anchor="end" font-family="Inter, system-ui, sans-serif" font-size="11" fill="#94a3b8">2555</text>
<polygon points="52.0,272.0 52.0,271.9 54.9,271.8 89.7,271.1 92.6,270.9 95.5,270.8 104.2,270.7 121.5,270.6 159.2,270.6 162.1,269.9 165.0,269.9 173.7,269.7 176.6,269.6 179.5,269.6 182.4,269.4 188.2,269.3 191.1,268.9 199.8,268.7 211.4,268.5 214.3,268.3 217.2,268.2 240.3,268.1 246.1,268.0 260.6,267.9 263.5,267.9 266.4,267.7 278.0,267.7 280.9,267.2 283.8,266.9 286.7,265.9 289.6,265.8 309.9,265.7 318.6,265.7 324.4,265.6 327.3,265.5 330.2,265.2 333.1,265.1 336.0,265.0 338.9,264.8 341.8,264.6 353.3,264.2 359.1,264.2 370.7,264.1 373.6,263.7 376.5,263.7 379.4,263.5 385.2,263.5 388.1,262.0 391.0,260.6 393.9,260.1 396.8,259.7 399.7,259.6 402.6,259.2 405.5,258.8 408.4,258.4 411.3,258.2 414.2,258.0 420.0,257.8 422.9,257.3 425.8,256.7 428.7,256.1 431.6,255.8 437.4,255.6 443.2,255.5 446.1,255.0 449.0,254.7 451.9,253.7 454.8,253.1 457.7,252.6 460.6,252.0 463.4,251.3 466.3,250.7 469.2,250.0 472.1,249.2 475.0,248.5 477.9,247.9 480.8,247.4 483.7,246.9 486.6,246.4 489.5,246.1 492.4,245.7 495.3,245.4 498.2,245.2 501.1,245.1 506.9,245.0 509.8,243.6 512.7,242.6 515.6,242.4 518.5,242.3 524.3,242.2 527.2,241.9 538.8,241.9 544.6,241.7 553.3,241.7 556.2,240.0 559.1,238.4 562.0,238.0 564.9,236.7 567.8,235.7 570.7,235.1 573.6,234.7 576.5,234.1 579.3,233.8 582.2,233.7 585.1,233.4 588.0,233.2 605.4,232.1 608.3,230.7 611.2,230.5 614.1,230.3 617.0,230.2 637.3,230.1 663.4,228.6 666.3,227.5 669.2,226.1 672.1,224.1 675.0,223.8 677.9,223.1 680.8,222.0 683.7,221.1 686.6,219.2 689.5,216.4 692.4,213.6 695.3,210.3 698.1,206.9 701.0,203.9 703.9,202.0 706.8,199.8 709.7,196.6 712.6,193.8 715.5,191.9 718.4,190.0 721.3,187.3 724.2,185.6 727.1,183.9 730.0,182.4 732.9,181.2 735.8,179.8 738.7,178.8 741.6,177.8 744.5,177.0 747.4,174.4 750.3,172.3 753.2,171.2 756.1,170.8 759.0,170.2 761.9,169.1 764.8,168.2 767.7,166.5 770.6,165.4 773.5,164.4 776.4,164.3 779.3,163.9 782.2,163.1 785.1,161.0 788.0,157.7 790.9,154.2 793.8,150.7 796.7,147.8 799.6,144.5 802.5,140.9 805.4,137.3 808.3,134.0 811.2,131.5 814.0,129.6 816.9,127.4 819.8,125.3 822.7,123.8 825.6,122.1 828.5,120.8 831.4,119.0 834.3,116.5 837.2,113.5 840.1,111.0 843.0,108.8 845.9,107.4 848.8,106.1 851.7,104.8 854.6,103.4 857.5,101.0 860.4,98.9 863.3,96.4 866.2,93.8 869.1,91.7 872.0,90.0 872.0,272.0" fill="#e0f2fe" opacity="0.55"/>
<polyline points="52.0,271.9 54.9,271.8 89.7,271.1 92.6,270.9 95.5,270.8 104.2,270.7 121.5,270.6 159.2,270.6 162.1,269.9 165.0,269.9 173.7,269.7 176.6,269.6 179.5,269.6 182.4,269.4 188.2,269.3 191.1,268.9 199.8,268.7 211.4,268.5 214.3,268.3 217.2,268.2 240.3,268.1 246.1,268.0 260.6,267.9 263.5,267.9 266.4,267.7 278.0,267.7 280.9,267.2 283.8,266.9 286.7,265.9 289.6,265.8 309.9,265.7 318.6,265.7 324.4,265.6 327.3,265.5 330.2,265.2 333.1,265.1 336.0,265.0 338.9,264.8 341.8,264.6 353.3,264.2 359.1,264.2 370.7,264.1 373.6,263.7 376.5,263.7 379.4,263.5 385.2,263.5 388.1,262.0 391.0,260.6 393.9,260.1 396.8,259.7 399.7,259.6 402.6,259.2 405.5,258.8 408.4,258.4 411.3,258.2 414.2,258.0 420.0,257.8 422.9,257.3 425.8,256.7 428.7,256.1 431.6,255.8 437.4,255.6 443.2,255.5 446.1,255.0 449.0,254.7 451.9,253.7 454.8,253.1 457.7,252.6 460.6,252.0 463.4,251.3 466.3,250.7 469.2,250.0 472.1,249.2 475.0,248.5 477.9,247.9 480.8,247.4 483.7,246.9 486.6,246.4 489.5,246.1 492.4,245.7 495.3,245.4 498.2,245.2 501.1,245.1 506.9,245.0 509.8,243.6 512.7,242.6 515.6,242.4 518.5,242.3 524.3,242.2 527.2,241.9 538.8,241.9 544.6,241.7 553.3,241.7 556.2,240.0 559.1,238.4 562.0,238.0 564.9,236.7 567.8,235.7 570.7,235.1 573.6,234.7 576.5,234.1 579.3,233.8 582.2,233.7 585.1,233.4 588.0,233.2 605.4,232.1 608.3,230.7 611.2,230.5 614.1,230.3 617.0,230.2 637.3,230.1 663.4,228.6 666.3,227.5 669.2,226.1 672.1,224.1 675.0,223.8 677.9,223.1 680.8,222.0 683.7,221.1 686.6,219.2 689.5,216.4 692.4,213.6 695.3,210.3 698.1,206.9 701.0,203.9 703.9,202.0 706.8,199.8 709.7,196.6 712.6,193.8 715.5,191.9 718.4,190.0 721.3,187.3 724.2,185.6 727.1,183.9 730.0,182.4 732.9,181.2 735.8,179.8 738.7,178.8 741.6,177.8 744.5,177.0 747.4,174.4 750.3,172.3 753.2,171.2 756.1,170.8 759.0,170.2 761.9,169.1 764.8,168.2 767.7,166.5 770.6,165.4 773.5,164.4 776.4,164.3 779.3,163.9 782.2,163.1 785.1,161.0 788.0,157.7 790.9,154.2 793.8,150.7 796.7,147.8 799.6,144.5 802.5,140.9 805.4,137.3 808.3,134.0 811.2,131.5 814.0,129.6 816.9,127.4 819.8,125.3 822.7,123.8 825.6,122.1 828.5,120.8 831.4,119.0 834.3,116.5 837.2,113.5 840.1,111.0 843.0,108.8 845.9,107.4 848.8,106.1 851.7,104.8 854.6,103.4 857.5,101.0 860.4,98.9 863.3,96.4 866.2,93.8 869.1,91.7 872.0,90.0" fill="none" stroke="#38bdf8" stroke-width="2.5" stroke-linejoin="round" stroke-linecap="round"/>
<circle cx="872.0" cy="90.0" r="4" fill="#0ea5e9"/>
<text x="866.0" y="80.0" text-anchor="end" font-family="Inter, system-ui, sans-serif" font-size="13" font-weight="700" fill="#334155">2555</text>
<text x="52.0" y="294" text-anchor="middle" font-family="Inter, system-ui, sans-serif" font-size="11" fill="#94a3b8">Jun 10 05:00</text>
<text x="553.3" y="294" text-anchor="middle" font-family="Inter, system-ui, sans-serif" font-size="11" fill="#94a3b8">Jun 17 10:00</text>
<text x="872.0" y="294" text-anchor="middle" font-family="Inter, system-ui, sans-serif" font-size="11" fill="#94a3b8">Jun 22 00:00</text>
</svg>
