<svg xmlns="http://www.w3.org/2000/svg" width="900" height="320" viewBox="0 0 900 320" role="img" aria-labelledby="title desc">
<title id="title">Unsorry proofs over time</title>
<desc id="desc">Cumulative kernel-verified proofs over time, by the hour each proof was merged.</desc>
<rect width="900" height="100%" rx="18" fill="#ffffff"/>
<rect x="0.5" y="0.5" width="899" height="319" rx="18" fill="none" stroke="#e2e8f0"/>
<text x="32" y="44" font-family="Inter, system-ui, sans-serif" font-size="28" font-weight="700" fill="#334155">Unsorry — Proofs Over Time</text>
<text x="32" y="72" font-family="Inter, system-ui, sans-serif" font-size="13" fill="#64748b">2213 cumulative kernel-verified proofs · merged, hourly</text>
<line x1="52" y1="272.0" x2="872" y2="272.0" stroke="#f1f5f9"/>
<text x="44" y="276.0" text-anchor="end" font-family="Inter, system-ui, sans-serif" font-size="11" fill="#94a3b8">0</text>
<line x1="52" y1="226.5" x2="872" y2="226.5" stroke="#f1f5f9"/>
<text x="44" y="230.5" text-anchor="end" font-family="Inter, system-ui, sans-serif" font-size="11" fill="#94a3b8">553</text>
<line x1="52" y1="181.0" x2="872" y2="181.0" stroke="#f1f5f9"/>
<text x="44" y="185.0" text-anchor="end" font-family="Inter, system-ui, sans-serif" font-size="11" fill="#94a3b8">1106</text>
<line x1="52" y1="135.5" x2="872" y2="135.5" stroke="#f1f5f9"/>
<text x="44" y="139.5" text-anchor="end" font-family="Inter, system-ui, sans-serif" font-size="11" fill="#94a3b8">1660</text>
<line x1="52" y1="90.0" x2="872" y2="90.0" stroke="#f1f5f9"/>
<text x="44" y="94.0" text-anchor="end" font-family="Inter, system-ui, sans-serif" font-size="11" fill="#94a3b8">2213</text>
<polygon points="52.0,272.0 52.0,271.9 55.0,271.8 91.3,270.9 94.4,270.7 97.4,270.6 106.5,270.5 124.6,270.4 164.0,270.4 167.0,269.6 170.0,269.5 179.1,269.4 182.1,269.3 185.1,269.2 188.2,269.0 194.2,268.9 197.2,268.5 206.3,268.1 218.4,268.0 221.4,267.7 224.5,267.6 248.7,267.5 254.7,267.4 269.9,267.3 272.9,267.2 275.9,267.1 288.0,267.0 291.0,266.5 294.1,266.1 297.1,265.0 300.1,264.8 321.3,264.8 330.4,264.7 336.4,264.6 339.5,264.5 342.5,264.1 345.5,264.0 348.5,263.9 351.6,263.7 354.6,263.4 366.7,263.0 372.7,263.0 384.8,262.9 387.9,262.5 390.9,262.4 393.9,262.2 400.0,262.1 403.0,260.5 406.0,258.8 409.0,258.3 412.1,257.9 415.1,257.7 418.1,257.3 421.2,256.7 424.2,256.3 427.2,256.0 430.2,255.9 436.3,255.6 439.3,255.0 442.3,254.3 445.4,253.7 448.4,253.2 454.4,253.1 460.5,253.0 463.5,252.4 466.5,252.0 469.6,250.9 472.6,250.2 475.6,249.5 478.6,248.9 481.7,248.2 484.7,247.4 487.7,246.6 490.7,245.7 493.8,244.9 496.8,244.1 499.8,243.6 502.8,243.1 505.9,242.4 508.9,242.1 511.9,241.7 515.0,241.2 518.0,241.1 521.0,240.9 527.1,240.8 530.1,239.2 533.1,238.0 536.1,237.8 539.2,237.7 545.2,237.5 548.2,237.3 560.3,237.2 566.4,237.0 575.5,237.0 578.5,235.1 581.5,233.3 584.5,232.8 587.6,231.3 590.6,230.1 593.6,229.4 596.6,229.0 599.7,228.2 602.7,227.9 605.7,227.8 608.8,227.4 611.8,227.3 629.9,225.9 633.0,224.3 636.0,224.1 639.0,223.8 642.0,223.7 663.2,223.6 690.5,221.9 693.5,220.6 696.5,219.0 699.5,216.7 702.6,216.3 705.6,215.6 708.6,214.3 711.6,213.3 714.7,211.1 717.7,207.8 720.7,204.6 723.7,200.8 726.8,196.8 729.8,193.4 732.8,191.2 735.8,188.7 738.9,184.9 741.9,181.7 744.9,179.6 747.9,177.3 751.0,174.2 754.0,172.2 757.0,170.3 760.0,168.5 763.1,167.2 766.1,165.5 769.1,164.4 772.1,163.3 775.2,162.3 778.2,159.3 781.2,156.9 784.3,155.6 787.3,155.2 790.3,154.5 793.3,153.2 796.4,152.2 799.4,150.2 802.4,149.0 805.4,147.8 808.5,147.7 811.5,147.2 814.5,146.3 817.5,143.9 820.6,140.0 823.6,136.0 826.6,131.9 829.6,128.7 832.7,124.8 835.7,120.7 838.7,116.5 841.7,112.6 844.8,109.8 847.8,107.6 850.8,105.1 853.8,102.6 856.9,100.9 859.9,99.0 862.9,97.5 865.9,95.3 869.0,92.5 872.0,90.0 872.0,272.0" fill="#e0f2fe" opacity="0.55"/>
<polyline points="52.0,271.9 55.0,271.8 91.3,270.9 94.4,270.7 97.4,270.6 106.5,270.5 124.6,270.4 164.0,270.4 167.0,269.6 170.0,269.5 179.1,269.4 182.1,269.3 185.1,269.2 188.2,269.0 194.2,268.9 197.2,268.5 206.3,268.1 218.4,268.0 221.4,267.7 224.5,267.6 248.7,267.5 254.7,267.4 269.9,267.3 272.9,267.2 275.9,267.1 288.0,267.0 291.0,266.5 294.1,266.1 297.1,265.0 300.1,264.8 321.3,264.8 330.4,264.7 336.4,264.6 339.5,264.5 342.5,264.1 345.5,264.0 348.5,263.9 351.6,263.7 354.6,263.4 366.7,263.0 372.7,263.0 384.8,262.9 387.9,262.5 390.9,262.4 393.9,262.2 400.0,262.1 403.0,260.5 406.0,258.8 409.0,258.3 412.1,257.9 415.1,257.7 418.1,257.3 421.2,256.7 424.2,256.3 427.2,256.0 430.2,255.9 436.3,255.6 439.3,255.0 442.3,254.3 445.4,253.7 448.4,253.2 454.4,253.1 460.5,253.0 463.5,252.4 466.5,252.0 469.6,250.9 472.6,250.2 475.6,249.5 478.6,248.9 481.7,248.2 484.7,247.4 487.7,246.6 490.7,245.7 493.8,244.9 496.8,244.1 499.8,243.6 502.8,243.1 505.9,242.4 508.9,242.1 511.9,241.7 515.0,241.2 518.0,241.1 521.0,240.9 527.1,240.8 530.1,239.2 533.1,238.0 536.1,237.8 539.2,237.7 545.2,237.5 548.2,237.3 560.3,237.2 566.4,237.0 575.5,237.0 578.5,235.1 581.5,233.3 584.5,232.8 587.6,231.3 590.6,230.1 593.6,229.4 596.6,229.0 599.7,228.2 602.7,227.9 605.7,227.8 608.8,227.4 611.8,227.3 629.9,225.9 633.0,224.3 636.0,224.1 639.0,223.8 642.0,223.7 663.2,223.6 690.5,221.9 693.5,220.6 696.5,219.0 699.5,216.7 702.6,216.3 705.6,215.6 708.6,214.3 711.6,213.3 714.7,211.1 717.7,207.8 720.7,204.6 723.7,200.8 726.8,196.8 729.8,193.4 732.8,191.2 735.8,188.7 738.9,184.9 741.9,181.7 744.9,179.6 747.9,177.3 751.0,174.2 754.0,172.2 757.0,170.3 760.0,168.5 763.1,167.2 766.1,165.5 769.1,164.4 772.1,163.3 775.2,162.3 778.2,159.3 781.2,156.9 784.3,155.6 787.3,155.2 790.3,154.5 793.3,153.2 796.4,152.2 799.4,150.2 802.4,149.0 805.4,147.8 808.5,147.7 811.5,147.2 814.5,146.3 817.5,143.9 820.6,140.0 823.6,136.0 826.6,131.9 829.6,128.7 832.7,124.8 835.7,120.7 838.7,116.5 841.7,112.6 844.8,109.8 847.8,107.6 850.8,105.1 853.8,102.6 856.9,100.9 859.9,99.0 862.9,97.5 865.9,95.3 869.0,92.5 872.0,90.0" fill="none" stroke="#38bdf8" stroke-width="2.5" stroke-linejoin="round" stroke-linecap="round"/>
<circle cx="872.0" cy="90.0" r="4" fill="#0ea5e9"/>
<text x="866.0" y="80.0" text-anchor="end" font-family="Inter, system-ui, sans-serif" font-size="13" font-weight="700" fill="#334155">2213</text>
<text x="52.0" y="294" text-anchor="middle" font-family="Inter, system-ui, sans-serif" font-size="11" fill="#94a3b8">Jun 10 05:00</text>
<text x="536.1" y="294" text-anchor="middle" font-family="Inter, system-ui, sans-serif" font-size="11" fill="#94a3b8">Jun 16 21:00</text>
<text x="872.0" y="294" text-anchor="middle" font-family="Inter, system-ui, sans-serif" font-size="11" fill="#94a3b8">Jun 21 12:00</text>
</svg>
