<svg xmlns="http://www.w3.org/2000/svg" width="900" height="320" viewBox="0 0 900 320" role="img" aria-labelledby="title desc">
<title id="title">Unsorry proofs over time</title>
<desc id="desc">Cumulative kernel-verified proofs over time, by the hour each proof was merged.</desc>
<rect width="900" height="100%" rx="18" fill="#ffffff"/>
<rect x="0.5" y="0.5" width="899" height="319" rx="18" fill="none" stroke="#e2e8f0"/>
<text x="32" y="44" font-family="Inter, system-ui, sans-serif" font-size="28" font-weight="700" fill="#334155">Unsorry — Proofs Over Time</text>
<text x="32" y="72" font-family="Inter, system-ui, sans-serif" font-size="13" fill="#64748b">2233 cumulative kernel-verified proofs · merged, hourly</text>
<line x1="52" y1="272.0" x2="872" y2="272.0" stroke="#f1f5f9"/>
<text x="44" y="276.0" text-anchor="end" font-family="Inter, system-ui, sans-serif" font-size="11" fill="#94a3b8">0</text>
<line x1="52" y1="226.5" x2="872" y2="226.5" stroke="#f1f5f9"/>
<text x="44" y="230.5" text-anchor="end" font-family="Inter, system-ui, sans-serif" font-size="11" fill="#94a3b8">558</text>
<line x1="52" y1="181.0" x2="872" y2="181.0" stroke="#f1f5f9"/>
<text x="44" y="185.0" text-anchor="end" font-family="Inter, system-ui, sans-serif" font-size="11" fill="#94a3b8">1116</text>
<line x1="52" y1="135.5" x2="872" y2="135.5" stroke="#f1f5f9"/>
<text x="44" y="139.5" text-anchor="end" font-family="Inter, system-ui, sans-serif" font-size="11" fill="#94a3b8">1675</text>
<line x1="52" y1="90.0" x2="872" y2="90.0" stroke="#f1f5f9"/>
<text x="44" y="94.0" text-anchor="end" font-family="Inter, system-ui, sans-serif" font-size="11" fill="#94a3b8">2233</text>
<polygon points="52.0,272.0 52.0,271.9 55.0,271.8 91.2,270.9 94.2,270.7 97.2,270.6 106.3,270.5 124.4,270.5 163.5,270.4 166.6,269.6 169.6,269.6 178.6,269.4 181.6,269.3 184.6,269.2 187.7,269.0 193.7,268.9 196.7,268.5 205.8,268.2 217.8,268.0 220.8,267.8 223.8,267.6 248.0,267.5 254.0,267.4 269.1,267.4 272.1,267.3 275.1,267.1 287.1,267.0 290.2,266.5 293.2,266.1 296.2,265.1 299.2,264.9 320.3,264.8 329.4,264.7 335.4,264.7 338.4,264.6 341.4,264.2 344.4,264.1 347.4,264.0 350.5,263.8 353.5,263.5 365.5,263.1 371.6,263.0 383.6,263.0 386.6,262.5 389.6,262.5 392.7,262.3 398.7,262.2 401.7,260.6 404.7,259.0 407.7,258.4 410.8,258.0 413.8,257.8 416.8,257.4 419.8,256.8 422.8,256.4 425.8,256.2 428.8,256.0 434.9,255.8 437.9,255.1 440.9,254.5 443.9,253.8 446.9,253.4 453.0,253.3 459.0,253.2 462.0,252.6 465.0,252.2 468.0,251.1 471.0,250.4 474.1,249.7 477.1,249.1 480.1,248.4 483.1,247.6 486.1,246.8 489.1,245.9 492.1,245.1 495.2,244.4 498.2,243.9 501.2,243.3 504.2,242.7 507.2,242.3 510.2,241.9 513.2,241.5 516.3,241.4 519.3,241.2 525.3,241.1 528.3,239.5 531.3,238.3 534.4,238.1 537.4,238.0 543.4,237.8 546.4,237.6 558.5,237.5 564.5,237.4 573.5,237.3 576.6,235.4 579.6,233.6 582.6,233.1 585.6,231.7 588.6,230.5 591.6,229.8 594.6,229.4 597.7,228.6 600.7,228.3 603.7,228.2 606.7,227.8 609.7,227.7 627.8,226.4 630.8,224.7 633.8,224.5 636.9,224.2 639.9,224.2 661.0,224.1 688.1,222.4 691.1,221.1 694.1,219.5 697.1,217.2 700.2,216.8 703.2,216.1 706.2,214.8 709.2,213.8 712.2,211.6 715.2,208.3 718.2,205.2 721.3,201.4 724.3,197.5 727.3,194.1 730.3,192.0 733.3,189.4 736.3,185.7 739.4,182.5 742.4,180.4 745.4,178.2 748.4,175.1 751.4,173.1 754.4,171.2 757.4,169.5 760.5,168.2 763.5,166.5 766.5,165.4 769.5,164.3 772.5,163.3 775.5,160.3 778.5,158.0 781.6,156.7 784.6,156.3 787.6,155.5 790.6,154.3 793.6,153.2 796.6,151.3 799.6,150.1 802.7,148.9 805.7,148.8 808.7,148.3 811.7,147.4 814.7,145.0 817.7,141.2 820.8,137.2 823.8,133.2 826.8,129.9 829.8,126.1 832.8,122.0 835.8,117.9 838.8,114.0 841.9,111.3 844.9,109.1 847.9,106.5 850.9,104.1 853.9,102.5 856.9,100.5 859.9,99.0 863.0,96.9 866.0,94.1 869.0,90.7 872.0,90.0 872.0,272.0" fill="#e0f2fe" opacity="0.55"/>
<polyline points="52.0,271.9 55.0,271.8 91.2,270.9 94.2,270.7 97.2,270.6 106.3,270.5 124.4,270.5 163.5,270.4 166.6,269.6 169.6,269.6 178.6,269.4 181.6,269.3 184.6,269.2 187.7,269.0 193.7,268.9 196.7,268.5 205.8,268.2 217.8,268.0 220.8,267.8 223.8,267.6 248.0,267.5 254.0,267.4 269.1,267.4 272.1,267.3 275.1,267.1 287.1,267.0 290.2,266.5 293.2,266.1 296.2,265.1 299.2,264.9 320.3,264.8 329.4,264.7 335.4,264.7 338.4,264.6 341.4,264.2 344.4,264.1 347.4,264.0 350.5,263.8 353.5,263.5 365.5,263.1 371.6,263.0 383.6,263.0 386.6,262.5 389.6,262.5 392.7,262.3 398.7,262.2 401.7,260.6 404.7,259.0 407.7,258.4 410.8,258.0 413.8,257.8 416.8,257.4 419.8,256.8 422.8,256.4 425.8,256.2 428.8,256.0 434.9,255.8 437.9,255.1 440.9,254.5 443.9,253.8 446.9,253.4 453.0,253.3 459.0,253.2 462.0,252.6 465.0,252.2 468.0,251.1 471.0,250.4 474.1,249.7 477.1,249.1 480.1,248.4 483.1,247.6 486.1,246.8 489.1,245.9 492.1,245.1 495.2,244.4 498.2,243.9 501.2,243.3 504.2,242.7 507.2,242.3 510.2,241.9 513.2,241.5 516.3,241.4 519.3,241.2 525.3,241.1 528.3,239.5 531.3,238.3 534.4,238.1 537.4,238.0 543.4,237.8 546.4,237.6 558.5,237.5 564.5,237.4 573.5,237.3 576.6,235.4 579.6,233.6 582.6,233.1 585.6,231.7 588.6,230.5 591.6,229.8 594.6,229.4 597.7,228.6 600.7,228.3 603.7,228.2 606.7,227.8 609.7,227.7 627.8,226.4 630.8,224.7 633.8,224.5 636.9,224.2 639.9,224.2 661.0,224.1 688.1,222.4 691.1,221.1 694.1,219.5 697.1,217.2 700.2,216.8 703.2,216.1 706.2,214.8 709.2,213.8 712.2,211.6 715.2,208.3 718.2,205.2 721.3,201.4 724.3,197.5 727.3,194.1 730.3,192.0 733.3,189.4 736.3,185.7 739.4,182.5 742.4,180.4 745.4,178.2 748.4,175.1 751.4,173.1 754.4,171.2 757.4,169.5 760.5,168.2 763.5,166.5 766.5,165.4 769.5,164.3 772.5,163.3 775.5,160.3 778.5,158.0 781.6,156.7 784.6,156.3 787.6,155.5 790.6,154.3 793.6,153.2 796.6,151.3 799.6,150.1 802.7,148.9 805.7,148.8 808.7,148.3 811.7,147.4 814.7,145.0 817.7,141.2 820.8,137.2 823.8,133.2 826.8,129.9 829.8,126.1 832.8,122.0 835.8,117.9 838.8,114.0 841.9,111.3 844.9,109.1 847.9,106.5 850.9,104.1 853.9,102.5 856.9,100.5 859.9,99.0 863.0,96.9 866.0,94.1 869.0,90.7 872.0,90.0" fill="none" stroke="#38bdf8" stroke-width="2.5" stroke-linejoin="round" stroke-linecap="round"/>
<circle cx="872.0" cy="90.0" r="4" fill="#0ea5e9"/>
<text x="866.0" y="80.0" text-anchor="end" font-family="Inter, system-ui, sans-serif" font-size="13" font-weight="700" fill="#334155">2233</text>
<text x="52.0" y="294" text-anchor="middle" font-family="Inter, system-ui, sans-serif" font-size="11" fill="#94a3b8">Jun 10 05:00</text>
<text x="534.4" y="294" text-anchor="middle" font-family="Inter, system-ui, sans-serif" font-size="11" fill="#94a3b8">Jun 16 21:00</text>
<text x="872.0" y="294" text-anchor="middle" font-family="Inter, system-ui, sans-serif" font-size="11" fill="#94a3b8">Jun 21 13:00</text>
</svg>
