<svg xmlns="http://www.w3.org/2000/svg" width="900" height="320" viewBox="0 0 900 320" role="img" aria-labelledby="title desc">
<title id="title">Unsorry proofs over time</title>
<desc id="desc">Cumulative kernel-verified proofs over time, by the hour each proof was merged.</desc>
<rect width="900" height="100%" rx="18" fill="#ffffff"/>
<rect x="0.5" y="0.5" width="899" height="319" rx="18" fill="none" stroke="#e2e8f0"/>
<text x="32" y="44" font-family="Inter, system-ui, sans-serif" font-size="28" font-weight="700" fill="#334155">Unsorry — Proofs Over Time</text>
<text x="32" y="72" font-family="Inter, system-ui, sans-serif" font-size="13" fill="#64748b">2060 cumulative kernel-verified proofs · merged, hourly</text>
<line x1="52" y1="272.0" x2="872" y2="272.0" stroke="#f1f5f9"/>
<text x="44" y="276.0" text-anchor="end" font-family="Inter, system-ui, sans-serif" font-size="11" fill="#94a3b8">0</text>
<line x1="52" y1="226.5" x2="872" y2="226.5" stroke="#f1f5f9"/>
<text x="44" y="230.5" text-anchor="end" font-family="Inter, system-ui, sans-serif" font-size="11" fill="#94a3b8">515</text>
<line x1="52" y1="181.0" x2="872" y2="181.0" stroke="#f1f5f9"/>
<text x="44" y="185.0" text-anchor="end" font-family="Inter, system-ui, sans-serif" font-size="11" fill="#94a3b8">1030</text>
<line x1="52" y1="135.5" x2="872" y2="135.5" stroke="#f1f5f9"/>
<text x="44" y="139.5" text-anchor="end" font-family="Inter, system-ui, sans-serif" font-size="11" fill="#94a3b8">1545</text>
<line x1="52" y1="90.0" x2="872" y2="90.0" stroke="#f1f5f9"/>
<text x="44" y="94.0" text-anchor="end" font-family="Inter, system-ui, sans-serif" font-size="11" fill="#94a3b8">2060</text>
<polygon points="52.0,272.0 52.0,271.9 55.1,271.7 92.2,270.9 95.3,270.6 98.4,270.5 107.7,270.4 126.3,270.3 166.5,270.2 169.6,269.4 172.7,269.3 182.0,269.2 185.1,269.1 188.2,269.0 191.2,268.7 197.4,268.6 200.5,268.2 209.8,267.8 222.2,267.7 225.3,267.4 228.4,267.2 253.1,267.1 259.3,267.1 274.8,267.0 277.9,266.9 281.0,266.7 293.4,266.6 296.5,266.1 299.5,265.6 302.6,264.5 305.7,264.3 327.4,264.2 336.7,264.1 342.9,264.0 346.0,264.0 349.1,263.5 352.2,263.4 355.2,263.3 358.3,263.1 361.4,262.8 373.8,262.4 380.0,262.3 392.4,262.2 395.5,261.8 398.6,261.7 401.7,261.5 407.8,261.4 410.9,259.6 414.0,257.9 417.1,257.2 420.2,256.8 423.3,256.6 426.4,256.2 429.5,255.6 432.6,255.1 435.7,254.9 438.8,254.7 445.0,254.4 448.1,253.7 451.2,253.0 454.3,252.3 457.4,251.9 463.5,251.7 469.7,251.6 472.8,251.0 475.9,250.5 479.0,249.3 482.1,248.6 485.2,247.9 488.3,247.2 491.4,246.4 494.5,245.6 497.6,244.7 500.7,243.7 503.8,242.8 506.9,242.0 510.0,241.5 513.1,240.9 516.2,240.2 519.2,239.8 522.3,239.4 525.4,239.0 528.5,238.8 531.6,238.6 537.8,238.5 540.9,236.7 544.0,235.5 547.1,235.2 550.2,235.2 556.4,235.0 559.5,234.7 571.8,234.6 578.0,234.5 587.3,234.4 590.4,232.3 593.5,230.4 596.6,229.9 599.7,228.3 602.8,227.0 605.9,226.2 609.0,225.8 612.1,225.0 615.2,224.6 618.3,224.5 621.4,224.1 624.5,223.9 643.0,222.5 646.1,220.8 649.2,220.5 652.3,220.2 655.4,220.1 677.1,220.1 704.9,218.2 708.0,216.8 711.1,215.1 714.2,212.6 717.3,212.2 720.4,211.4 723.5,210.0 726.6,208.9 729.7,206.5 732.8,203.0 735.8,199.6 738.9,195.5 742.0,191.2 745.1,187.5 748.2,185.2 751.3,182.5 754.4,178.4 757.5,175.0 760.6,172.7 763.7,170.3 766.8,167.0 769.9,164.8 773.0,162.7 776.1,160.9 779.2,159.4 782.3,157.6 785.4,156.4 788.5,155.2 791.5,154.1 794.6,151.0 797.7,148.4 800.8,147.0 803.9,146.5 807.0,145.7 810.1,144.4 813.2,143.3 816.3,141.2 819.4,139.8 822.5,138.6 825.6,138.4 828.7,137.9 831.8,136.9 834.9,134.4 838.0,130.2 841.1,125.9 844.2,121.5 847.2,118.0 850.3,113.9 853.4,109.4 856.5,104.9 859.6,100.8 862.7,97.8 865.8,95.4 868.9,92.7 872.0,90.0 872.0,272.0" fill="#e0f2fe" opacity="0.55"/>
<polyline points="52.0,271.9 55.1,271.7 92.2,270.9 95.3,270.6 98.4,270.5 107.7,270.4 126.3,270.3 166.5,270.2 169.6,269.4 172.7,269.3 182.0,269.2 185.1,269.1 188.2,269.0 191.2,268.7 197.4,268.6 200.5,268.2 209.8,267.8 222.2,267.7 225.3,267.4 228.4,267.2 253.1,267.1 259.3,267.1 274.8,267.0 277.9,266.9 281.0,266.7 293.4,266.6 296.5,266.1 299.5,265.6 302.6,264.5 305.7,264.3 327.4,264.2 336.7,264.1 342.9,264.0 346.0,264.0 349.1,263.5 352.2,263.4 355.2,263.3 358.3,263.1 361.4,262.8 373.8,262.4 380.0,262.3 392.4,262.2 395.5,261.8 398.6,261.7 401.7,261.5 407.8,261.4 410.9,259.6 414.0,257.9 417.1,257.2 420.2,256.8 423.3,256.6 426.4,256.2 429.5,255.6 432.6,255.1 435.7,254.9 438.8,254.7 445.0,254.4 448.1,253.7 451.2,253.0 454.3,252.3 457.4,251.9 463.5,251.7 469.7,251.6 472.8,251.0 475.9,250.5 479.0,249.3 482.1,248.6 485.2,247.9 488.3,247.2 491.4,246.4 494.5,245.6 497.6,244.7 500.7,243.7 503.8,242.8 506.9,242.0 510.0,241.5 513.1,240.9 516.2,240.2 519.2,239.8 522.3,239.4 525.4,239.0 528.5,238.8 531.6,238.6 537.8,238.5 540.9,236.7 544.0,235.5 547.1,235.2 550.2,235.2 556.4,235.0 559.5,234.7 571.8,234.6 578.0,234.5 587.3,234.4 590.4,232.3 593.5,230.4 596.6,229.9 599.7,228.3 602.8,227.0 605.9,226.2 609.0,225.8 612.1,225.0 615.2,224.6 618.3,224.5 621.4,224.1 624.5,223.9 643.0,222.5 646.1,220.8 649.2,220.5 652.3,220.2 655.4,220.1 677.1,220.1 704.9,218.2 708.0,216.8 711.1,215.1 714.2,212.6 717.3,212.2 720.4,211.4 723.5,210.0 726.6,208.9 729.7,206.5 732.8,203.0 735.8,199.6 738.9,195.5 742.0,191.2 745.1,187.5 748.2,185.2 751.3,182.5 754.4,178.4 757.5,175.0 760.6,172.7 763.7,170.3 766.8,167.0 769.9,164.8 773.0,162.7 776.1,160.9 779.2,159.4 782.3,157.6 785.4,156.4 788.5,155.2 791.5,154.1 794.6,151.0 797.7,148.4 800.8,147.0 803.9,146.5 807.0,145.7 810.1,144.4 813.2,143.3 816.3,141.2 819.4,139.8 822.5,138.6 825.6,138.4 828.7,137.9 831.8,136.9 834.9,134.4 838.0,130.2 841.1,125.9 844.2,121.5 847.2,118.0 850.3,113.9 853.4,109.4 856.5,104.9 859.6,100.8 862.7,97.8 865.8,95.4 868.9,92.7 872.0,90.0" fill="none" stroke="#38bdf8" stroke-width="2.5" stroke-linejoin="round" stroke-linecap="round"/>
<circle cx="872.0" cy="90.0" r="4" fill="#0ea5e9"/>
<text x="866.0" y="80.0" text-anchor="end" font-family="Inter, system-ui, sans-serif" font-size="13" font-weight="700" fill="#334155">2060</text>
<text x="52.0" y="294" text-anchor="middle" font-family="Inter, system-ui, sans-serif" font-size="11" fill="#94a3b8">Jun 10 05:00</text>
<text x="537.8" y="294" text-anchor="middle" font-family="Inter, system-ui, sans-serif" font-size="11" fill="#94a3b8">Jun 16 18:00</text>
<text x="872.0" y="294" text-anchor="middle" font-family="Inter, system-ui, sans-serif" font-size="11" fill="#94a3b8">Jun 21 06:00</text>
</svg>
