<svg xmlns="http://www.w3.org/2000/svg" width="900" height="320" viewBox="0 0 900 320" role="img" aria-labelledby="title desc">
<title id="title">unsorry proofs over time</title>
<desc id="desc">Cumulative kernel-verified proofs over time, by the hour each proof was merged.</desc>
<rect width="900" height="100%" rx="18" fill="#ffffff"/>
<rect x="0.5" y="0.5" width="899" height="319" rx="18" fill="none" stroke="#e2e8f0"/>
<text x="32" y="44" font-family="Inter, system-ui, sans-serif" font-size="28" font-weight="700" fill="#334155">unsorry — Proofs Over Time</text>
<text x="32" y="72" font-family="Inter, system-ui, sans-serif" font-size="13" fill="#64748b">2712 cumulative kernel-verified proofs · merged, hourly</text>
<line x1="52" y1="272.0" x2="872" y2="272.0" stroke="#f1f5f9"/>
<text x="44" y="276.0" text-anchor="end" font-family="Inter, system-ui, sans-serif" font-size="11" fill="#94a3b8">0</text>
<line x1="52" y1="226.5" x2="872" y2="226.5" stroke="#f1f5f9"/>
<text x="44" y="230.5" text-anchor="end" font-family="Inter, system-ui, sans-serif" font-size="11" fill="#94a3b8">678</text>
<line x1="52" y1="181.0" x2="872" y2="181.0" stroke="#f1f5f9"/>
<text x="44" y="185.0" text-anchor="end" font-family="Inter, system-ui, sans-serif" font-size="11" fill="#94a3b8">1356</text>
<line x1="52" y1="135.5" x2="872" y2="135.5" stroke="#f1f5f9"/>
<text x="44" y="139.5" text-anchor="end" font-family="Inter, system-ui, sans-serif" font-size="11" fill="#94a3b8">2034</text>
<line x1="52" y1="90.0" x2="872" y2="90.0" stroke="#f1f5f9"/>
<text x="44" y="94.0" text-anchor="end" font-family="Inter, system-ui, sans-serif" font-size="11" fill="#94a3b8">2712</text>
<polygon points="52.0,272.0 52.0,271.9 54.7,271.8 87.4,271.1 90.1,270.9 92.9,270.9 101.0,270.8 117.4,270.7 152.8,270.7 155.5,270.1 158.2,270.0 166.4,269.9 169.1,269.8 171.9,269.7 174.6,269.5 180.0,269.4 182.8,269.1 190.9,268.8 201.8,268.7 204.6,268.5 207.3,268.4 229.1,268.3 234.5,268.2 248.1,268.2 250.9,268.1 253.6,268.0 264.5,267.9 267.2,267.5 269.9,267.2 272.7,266.3 275.4,266.2 294.5,266.1 302.6,266.0 308.1,266.0 310.8,265.9 313.5,265.6 316.3,265.5 319.0,265.4 321.7,265.2 324.4,265.0 335.3,264.7 340.8,264.6 351.7,264.6 354.4,264.2 357.1,264.1 359.8,264.0 365.3,263.9 368.0,262.6 370.7,261.3 373.5,260.8 376.2,260.5 378.9,260.3 381.6,260.0 384.4,259.5 387.1,259.2 389.8,259.0 392.5,258.8 398.0,258.6 400.7,258.1 403.4,257.6 406.2,257.0 408.9,256.7 414.3,256.6 419.8,256.5 422.5,256.0 425.2,255.7 427.9,254.8 430.7,254.2 433.4,253.7 436.1,253.1 438.8,252.5 441.6,251.9 444.3,251.3 447.0,250.5 449.7,249.9 452.5,249.2 455.2,248.8 457.9,248.4 460.6,247.8 463.4,247.6 466.1,247.2 468.8,246.9 471.5,246.8 474.3,246.6 479.7,246.6 482.4,245.2 485.2,244.3 487.9,244.1 490.6,244.0 496.1,243.9 498.8,243.7 509.7,243.6 515.1,243.5 523.3,243.4 526.0,241.9 528.7,240.4 531.5,240.0 534.2,238.8 536.9,237.8 539.6,237.2 542.4,236.9 545.1,236.3 547.8,236.0 550.5,235.9 553.3,235.6 556.0,235.5 572.3,234.4 575.1,233.1 577.8,232.9 580.5,232.7 583.2,232.6 602.3,232.5 626.8,231.1 629.5,230.1 632.3,228.8 635.0,226.9 637.7,226.6 640.4,226.0 643.2,224.9 645.9,224.1 648.6,222.3 651.3,219.6 654.1,217.0 656.8,213.9 659.5,210.7 662.2,207.8 665.0,206.1 667.7,204.0 670.4,200.9 673.1,198.3 675.9,196.6 678.6,194.8 681.3,192.2 684.0,190.6 686.8,189.0 689.5,187.6 692.2,186.5 694.9,185.1 697.6,184.2 700.4,183.3 703.1,182.5 705.8,180.1 708.5,178.1 711.3,177.0 714.0,176.7 716.7,176.1 719.4,175.1 722.2,174.2 724.9,172.6 727.6,171.6 730.3,170.7 733.1,170.5 735.8,170.1 738.5,169.4 741.2,167.4 744.0,164.3 746.7,161.0 749.4,157.7 752.1,155.0 754.9,151.9 757.6,148.5 760.3,145.1 763.0,141.9 765.8,139.7 768.5,137.8 771.2,135.8 773.9,133.8 776.7,132.4 779.4,130.8 782.1,129.6 784.8,127.8 787.5,125.5 790.3,122.7 793.0,120.3 795.7,118.3 798.4,116.9 801.2,115.7 803.9,114.5 806.6,113.2 809.3,110.9 812.1,108.9 814.8,106.6 817.5,104.2 820.2,102.1 823.0,100.5 825.7,99.9 828.4,98.9 831.1,98.0 833.9,97.9 836.6,97.7 839.3,97.2 842.0,97.0 844.8,97.0 847.5,96.6 850.2,96.5 858.4,96.4 861.1,96.4 863.8,96.0 866.6,93.2 869.3,90.9 872.0,90.0 872.0,272.0" fill="#e0f2fe" opacity="0.55"/>
<polyline points="52.0,271.9 54.7,271.8 87.4,271.1 90.1,270.9 92.9,270.9 101.0,270.8 117.4,270.7 152.8,270.7 155.5,270.1 158.2,270.0 166.4,269.9 169.1,269.8 171.9,269.7 174.6,269.5 180.0,269.4 182.8,269.1 190.9,268.8 201.8,268.7 204.6,268.5 207.3,268.4 229.1,268.3 234.5,268.2 248.1,268.2 250.9,268.1 253.6,268.0 264.5,267.9 267.2,267.5 269.9,267.2 272.7,266.3 275.4,266.2 294.5,266.1 302.6,266.0 308.1,266.0 310.8,265.9 313.5,265.6 316.3,265.5 319.0,265.4 321.7,265.2 324.4,265.0 335.3,264.7 340.8,264.6 351.7,264.6 354.4,264.2 357.1,264.1 359.8,264.0 365.3,263.9 368.0,262.6 370.7,261.3 373.5,260.8 376.2,260.5 378.9,260.3 381.6,260.0 384.4,259.5 387.1,259.2 389.8,259.0 392.5,258.8 398.0,258.6 400.7,258.1 403.4,257.6 406.2,257.0 408.9,256.7 414.3,256.6 419.8,256.5 422.5,256.0 425.2,255.7 427.9,254.8 430.7,254.2 433.4,253.7 436.1,253.1 438.8,252.5 441.6,251.9 444.3,251.3 447.0,250.5 449.7,249.9 452.5,249.2 455.2,248.8 457.9,248.4 460.6,247.8 463.4,247.6 466.1,247.2 468.8,246.9 471.5,246.8 474.3,246.6 479.7,246.6 482.4,245.2 485.2,244.3 487.9,244.1 490.6,244.0 496.1,243.9 498.8,243.7 509.7,243.6 515.1,243.5 523.3,243.4 526.0,241.9 528.7,240.4 531.5,240.0 534.2,238.8 536.9,237.8 539.6,237.2 542.4,236.9 545.1,236.3 547.8,236.0 550.5,235.9 553.3,235.6 556.0,235.5 572.3,234.4 575.1,233.1 577.8,232.9 580.5,232.7 583.2,232.6 602.3,232.5 626.8,231.1 629.5,230.1 632.3,228.8 635.0,226.9 637.7,226.6 640.4,226.0 643.2,224.9 645.9,224.1 648.6,222.3 651.3,219.6 654.1,217.0 656.8,213.9 659.5,210.7 662.2,207.8 665.0,206.1 667.7,204.0 670.4,200.9 673.1,198.3 675.9,196.6 678.6,194.8 681.3,192.2 684.0,190.6 686.8,189.0 689.5,187.6 692.2,186.5 694.9,185.1 697.6,184.2 700.4,183.3 703.1,182.5 705.8,180.1 708.5,178.1 711.3,177.0 714.0,176.7 716.7,176.1 719.4,175.1 722.2,174.2 724.9,172.6 727.6,171.6 730.3,170.7 733.1,170.5 735.8,170.1 738.5,169.4 741.2,167.4 744.0,164.3 746.7,161.0 749.4,157.7 752.1,155.0 754.9,151.9 757.6,148.5 760.3,145.1 763.0,141.9 765.8,139.7 768.5,137.8 771.2,135.8 773.9,133.8 776.7,132.4 779.4,130.8 782.1,129.6 784.8,127.8 787.5,125.5 790.3,122.7 793.0,120.3 795.7,118.3 798.4,116.9 801.2,115.7 803.9,114.5 806.6,113.2 809.3,110.9 812.1,108.9 814.8,106.6 817.5,104.2 820.2,102.1 823.0,100.5 825.7,99.9 828.4,98.9 831.1,98.0 833.9,97.9 836.6,97.7 839.3,97.2 842.0,97.0 844.8,97.0 847.5,96.6 850.2,96.5 858.4,96.4 861.1,96.4 863.8,96.0 866.6,93.2 869.3,90.9 872.0,90.0" fill="none" stroke="#38bdf8" stroke-width="2.5" stroke-linejoin="round" stroke-linecap="round"/>
<circle cx="872.0" cy="90.0" r="4" fill="#0ea5e9"/>
<text x="866.0" y="80.0" text-anchor="end" font-family="Inter, system-ui, sans-serif" font-size="13" font-weight="700" fill="#334155">2712</text>
<text x="52.0" y="294" text-anchor="middle" font-family="Inter, system-ui, sans-serif" font-size="11" fill="#94a3b8">Jun 10 05:00</text>
<text x="545.1" y="294" text-anchor="middle" font-family="Inter, system-ui, sans-serif" font-size="11" fill="#94a3b8">Jun 17 18:00</text>
<text x="872.0" y="294" text-anchor="middle" font-family="Inter, system-ui, sans-serif" font-size="11" fill="#94a3b8">Jun 22 18:00</text>
</svg>
