<svg xmlns="http://www.w3.org/2000/svg" width="900" height="320" viewBox="0 0 900 320" role="img" aria-labelledby="title desc">
<title id="title">unsorry proofs over time</title>
<desc id="desc">Cumulative kernel-verified proofs over time, by the hour each proof was merged.</desc>
<rect width="900" height="100%" rx="18" fill="#ffffff"/>
<rect x="0.5" y="0.5" width="899" height="319" rx="18" fill="none" stroke="#e2e8f0"/>
<text x="32" y="44" font-family="Inter, system-ui, sans-serif" font-size="28" font-weight="700" fill="#334155">unsorry — Proofs Over Time</text>
<text x="32" y="72" font-family="Inter, system-ui, sans-serif" font-size="13" fill="#64748b">2732 cumulative kernel-verified proofs · merged, hourly</text>
<line x1="52" y1="272.0" x2="872" y2="272.0" stroke="#f1f5f9"/>
<text x="44" y="276.0" text-anchor="end" font-family="Inter, system-ui, sans-serif" font-size="11" fill="#94a3b8">0</text>
<line x1="52" y1="226.5" x2="872" y2="226.5" stroke="#f1f5f9"/>
<text x="44" y="230.5" text-anchor="end" font-family="Inter, system-ui, sans-serif" font-size="11" fill="#94a3b8">683</text>
<line x1="52" y1="181.0" x2="872" y2="181.0" stroke="#f1f5f9"/>
<text x="44" y="185.0" text-anchor="end" font-family="Inter, system-ui, sans-serif" font-size="11" fill="#94a3b8">1366</text>
<line x1="52" y1="135.5" x2="872" y2="135.5" stroke="#f1f5f9"/>
<text x="44" y="139.5" text-anchor="end" font-family="Inter, system-ui, sans-serif" font-size="11" fill="#94a3b8">2049</text>
<line x1="52" y1="90.0" x2="872" y2="90.0" stroke="#f1f5f9"/>
<text x="44" y="94.0" text-anchor="end" font-family="Inter, system-ui, sans-serif" font-size="11" fill="#94a3b8">2732</text>
<polygon points="52.0,272.0 52.0,271.9 54.7,271.8 87.3,271.1 90.0,270.9 92.7,270.9 100.9,270.8 117.2,270.7 152.5,270.7 155.2,270.1 157.9,270.0 166.0,269.9 168.8,269.8 171.5,269.7 174.2,269.5 179.6,269.5 182.3,269.1 190.5,268.9 201.3,268.7 204.1,268.5 206.8,268.4 228.5,268.3 233.9,268.3 247.5,268.2 250.2,268.1 252.9,268.0 263.8,267.9 266.5,267.5 269.2,267.2 271.9,266.3 274.6,266.2 293.7,266.1 301.8,266.1 307.2,266.0 309.9,265.9 312.7,265.6 315.4,265.5 318.1,265.5 320.8,265.3 323.5,265.1 334.4,264.7 339.8,264.7 350.7,264.6 353.4,264.3 356.1,264.2 358.8,264.1 364.3,264.0 367.0,262.7 369.7,261.3 372.4,260.9 375.1,260.5 377.8,260.4 380.5,260.1 383.3,259.6 386.0,259.3 388.7,259.1 391.4,258.9 396.8,258.7 399.5,258.2 402.3,257.7 405.0,257.1 407.7,256.8 413.1,256.7 418.6,256.6 421.3,256.1 424.0,255.8 426.7,254.9 429.4,254.3 432.1,253.8 434.8,253.3 437.6,252.7 440.3,252.1 443.0,251.4 445.7,250.7 448.4,250.0 451.1,249.4 453.9,249.0 456.6,248.6 459.3,248.0 462.0,247.8 464.7,247.4 467.4,247.1 470.1,247.0 472.9,246.8 478.3,246.8 481.0,245.4 483.7,244.5 486.4,244.3 489.2,244.2 494.6,244.1 497.3,243.9 508.2,243.8 513.6,243.7 521.7,243.6 524.5,242.1 527.2,240.6 529.9,240.2 532.6,239.0 535.3,238.1 538.0,237.5 540.7,237.2 543.5,236.6 546.2,236.3 548.9,236.2 551.6,235.9 554.3,235.8 570.6,234.7 573.3,233.4 576.0,233.2 578.8,233.0 581.5,232.9 600.5,232.8 624.9,231.4 627.6,230.4 630.3,229.1 633.1,227.2 635.8,226.9 638.5,226.3 641.2,225.2 643.9,224.4 646.6,222.6 649.4,220.0 652.1,217.4 654.8,214.3 657.5,211.1 660.2,208.3 662.9,206.6 665.6,204.5 668.4,201.5 671.1,198.9 673.8,197.1 676.5,195.3 679.2,192.8 681.9,191.2 684.6,189.6 687.4,188.2 690.1,187.1 692.8,185.7 695.5,184.9 698.2,183.9 700.9,183.1 703.7,180.7 706.4,178.8 709.1,177.7 711.8,177.4 714.5,176.8 717.2,175.8 719.9,174.9 722.7,173.3 725.4,172.3 728.1,171.4 730.8,171.3 733.5,170.9 736.2,170.1 739.0,168.2 741.7,165.1 744.4,161.8 747.1,158.5 749.8,155.9 752.5,152.8 755.2,149.4 758.0,146.0 760.7,142.9 763.4,140.6 766.1,138.8 768.8,136.8 771.5,134.8 774.3,133.4 777.0,131.8 779.7,130.6 782.4,128.9 785.1,126.6 787.8,123.8 790.5,121.4 793.3,119.4 796.0,118.0 798.7,116.8 801.4,115.6 804.1,114.3 806.8,112.1 809.5,110.1 812.3,107.8 815.0,105.4 817.7,103.4 820.4,101.8 823.1,101.1 825.8,100.2 828.6,99.3 831.3,99.1 834.0,99.0 836.7,98.5 839.4,98.3 842.1,98.3 844.8,97.9 847.6,97.8 855.7,97.7 858.4,97.7 861.1,97.3 863.9,94.5 866.6,92.2 869.3,90.1 872.0,90.0 872.0,272.0" fill="#e0f2fe" opacity="0.55"/>
<polyline points="52.0,271.9 54.7,271.8 87.3,271.1 90.0,270.9 92.7,270.9 100.9,270.8 117.2,270.7 152.5,270.7 155.2,270.1 157.9,270.0 166.0,269.9 168.8,269.8 171.5,269.7 174.2,269.5 179.6,269.5 182.3,269.1 190.5,268.9 201.3,268.7 204.1,268.5 206.8,268.4 228.5,268.3 233.9,268.3 247.5,268.2 250.2,268.1 252.9,268.0 263.8,267.9 266.5,267.5 269.2,267.2 271.9,266.3 274.6,266.2 293.7,266.1 301.8,266.1 307.2,266.0 309.9,265.9 312.7,265.6 315.4,265.5 318.1,265.5 320.8,265.3 323.5,265.1 334.4,264.7 339.8,264.7 350.7,264.6 353.4,264.3 356.1,264.2 358.8,264.1 364.3,264.0 367.0,262.7 369.7,261.3 372.4,260.9 375.1,260.5 377.8,260.4 380.5,260.1 383.3,259.6 386.0,259.3 388.7,259.1 391.4,258.9 396.8,258.7 399.5,258.2 402.3,257.7 405.0,257.1 407.7,256.8 413.1,256.7 418.6,256.6 421.3,256.1 424.0,255.8 426.7,254.9 429.4,254.3 432.1,253.8 434.8,253.3 437.6,252.7 440.3,252.1 443.0,251.4 445.7,250.7 448.4,250.0 451.1,249.4 453.9,249.0 456.6,248.6 459.3,248.0 462.0,247.8 464.7,247.4 467.4,247.1 470.1,247.0 472.9,246.8 478.3,246.8 481.0,245.4 483.7,244.5 486.4,244.3 489.2,244.2 494.6,244.1 497.3,243.9 508.2,243.8 513.6,243.7 521.7,243.6 524.5,242.1 527.2,240.6 529.9,240.2 532.6,239.0 535.3,238.1 538.0,237.5 540.7,237.2 543.5,236.6 546.2,236.3 548.9,236.2 551.6,235.9 554.3,235.8 570.6,234.7 573.3,233.4 576.0,233.2 578.8,233.0 581.5,232.9 600.5,232.8 624.9,231.4 627.6,230.4 630.3,229.1 633.1,227.2 635.8,226.9 638.5,226.3 641.2,225.2 643.9,224.4 646.6,222.6 649.4,220.0 652.1,217.4 654.8,214.3 657.5,211.1 660.2,208.3 662.9,206.6 665.6,204.5 668.4,201.5 671.1,198.9 673.8,197.1 676.5,195.3 679.2,192.8 681.9,191.2 684.6,189.6 687.4,188.2 690.1,187.1 692.8,185.7 695.5,184.9 698.2,183.9 700.9,183.1 703.7,180.7 706.4,178.8 709.1,177.7 711.8,177.4 714.5,176.8 717.2,175.8 719.9,174.9 722.7,173.3 725.4,172.3 728.1,171.4 730.8,171.3 733.5,170.9 736.2,170.1 739.0,168.2 741.7,165.1 744.4,161.8 747.1,158.5 749.8,155.9 752.5,152.8 755.2,149.4 758.0,146.0 760.7,142.9 763.4,140.6 766.1,138.8 768.8,136.8 771.5,134.8 774.3,133.4 777.0,131.8 779.7,130.6 782.4,128.9 785.1,126.6 787.8,123.8 790.5,121.4 793.3,119.4 796.0,118.0 798.7,116.8 801.4,115.6 804.1,114.3 806.8,112.1 809.5,110.1 812.3,107.8 815.0,105.4 817.7,103.4 820.4,101.8 823.1,101.1 825.8,100.2 828.6,99.3 831.3,99.1 834.0,99.0 836.7,98.5 839.4,98.3 842.1,98.3 844.8,97.9 847.6,97.8 855.7,97.7 858.4,97.7 861.1,97.3 863.9,94.5 866.6,92.2 869.3,90.1 872.0,90.0" fill="none" stroke="#38bdf8" stroke-width="2.5" stroke-linejoin="round" stroke-linecap="round"/>
<circle cx="872.0" cy="90.0" r="4" fill="#0ea5e9"/>
<text x="866.0" y="80.0" text-anchor="end" font-family="Inter, system-ui, sans-serif" font-size="13" font-weight="700" fill="#334155">2732</text>
<text x="52.0" y="294" text-anchor="middle" font-family="Inter, system-ui, sans-serif" font-size="11" fill="#94a3b8">Jun 10 05:00</text>
<text x="543.5" y="294" text-anchor="middle" font-family="Inter, system-ui, sans-serif" font-size="11" fill="#94a3b8">Jun 17 18:00</text>
<text x="872.0" y="294" text-anchor="middle" font-family="Inter, system-ui, sans-serif" font-size="11" fill="#94a3b8">Jun 22 19:00</text>
</svg>
