<svg xmlns="http://www.w3.org/2000/svg" width="900" height="320" viewBox="0 0 900 320" role="img" aria-labelledby="title desc">
<title id="title">Unsorry proofs over time</title>
<desc id="desc">Cumulative kernel-verified proofs over time, by the hour each proof was merged.</desc>
<rect width="900" height="100%" rx="18" fill="#ffffff"/>
<rect x="0.5" y="0.5" width="899" height="319" rx="18" fill="none" stroke="#e2e8f0"/>
<text x="32" y="44" font-family="Inter, system-ui, sans-serif" font-size="28" font-weight="700" fill="#334155">Unsorry — Proofs Over Time</text>
<text x="32" y="72" font-family="Inter, system-ui, sans-serif" font-size="13" fill="#64748b">2395 cumulative kernel-verified proofs · merged, hourly</text>
<line x1="52" y1="272.0" x2="872" y2="272.0" stroke="#f1f5f9"/>
<text x="44" y="276.0" text-anchor="end" font-family="Inter, system-ui, sans-serif" font-size="11" fill="#94a3b8">0</text>
<line x1="52" y1="226.5" x2="872" y2="226.5" stroke="#f1f5f9"/>
<text x="44" y="230.5" text-anchor="end" font-family="Inter, system-ui, sans-serif" font-size="11" fill="#94a3b8">599</text>
<line x1="52" y1="181.0" x2="872" y2="181.0" stroke="#f1f5f9"/>
<text x="44" y="185.0" text-anchor="end" font-family="Inter, system-ui, sans-serif" font-size="11" fill="#94a3b8">1198</text>
<line x1="52" y1="135.5" x2="872" y2="135.5" stroke="#f1f5f9"/>
<text x="44" y="139.5" text-anchor="end" font-family="Inter, system-ui, sans-serif" font-size="11" fill="#94a3b8">1796</text>
<line x1="52" y1="90.0" x2="872" y2="90.0" stroke="#f1f5f9"/>
<text x="44" y="94.0" text-anchor="end" font-family="Inter, system-ui, sans-serif" font-size="11" fill="#94a3b8">2395</text>
<polygon points="52.0,272.0 52.0,271.9 54.9,271.8 90.3,271.0 93.3,270.8 96.2,270.7 105.1,270.6 122.8,270.6 161.1,270.5 164.1,269.8 167.0,269.7 175.9,269.6 178.8,269.5 181.8,269.4 184.7,269.2 190.6,269.1 193.6,268.7 202.4,268.4 214.2,268.3 217.2,268.0 220.1,267.9 243.7,267.8 249.6,267.7 264.4,267.7 267.3,267.6 270.3,267.4 282.1,267.4 285.0,266.9 288.0,266.5 290.9,265.5 293.9,265.4 314.5,265.3 323.4,265.2 329.3,265.2 332.2,265.1 335.2,264.7 338.1,264.6 341.1,264.6 344.0,264.3 347.0,264.1 358.8,263.7 364.7,263.6 376.5,263.6 379.4,263.2 382.4,263.1 385.3,263.0 391.2,262.9 394.2,261.4 397.1,259.8 400.1,259.3 403.0,258.9 406.0,258.8 408.9,258.4 411.9,257.9 414.8,257.5 417.8,257.3 420.7,257.1 426.6,256.9 429.6,256.3 432.5,255.7 435.5,255.1 438.4,254.7 444.3,254.5 450.2,254.4 453.2,253.9 456.1,253.5 459.1,252.5 462.0,251.9 464.9,251.3 467.9,250.6 470.8,250.0 473.8,249.3 476.7,248.5 479.7,247.7 482.6,246.9 485.6,246.2 488.5,245.8 491.5,245.3 494.4,244.6 497.4,244.3 500.3,244.0 503.3,243.6 506.2,243.4 509.2,243.3 515.1,243.2 518.0,241.7 521.0,240.6 523.9,240.4 526.9,240.3 532.8,240.2 535.7,239.9 547.5,239.9 553.4,239.7 562.3,239.6 565.2,237.9 568.2,236.2 571.1,235.8 574.1,234.4 577.0,233.3 580.0,232.6 582.9,232.3 585.9,231.6 588.8,231.3 591.8,231.1 594.7,230.8 597.7,230.7 615.4,229.4 618.3,227.9 621.3,227.7 624.2,227.5 627.2,227.4 647.8,227.3 674.4,225.7 677.3,224.5 680.3,223.1 683.2,220.9 686.2,220.6 689.1,219.9 692.1,218.7 695.0,217.7 698.0,215.7 700.9,212.7 703.9,209.7 706.8,206.2 709.8,202.5 712.7,199.4 715.7,197.4 718.6,195.0 721.6,191.5 724.5,188.6 727.5,186.6 730.4,184.5 733.4,181.6 736.3,179.8 739.3,178.0 742.2,176.4 745.2,175.2 748.1,173.6 751.1,172.6 754.0,171.5 757.0,170.6 759.9,167.9 762.9,165.7 765.8,164.5 768.8,164.1 771.7,163.4 774.7,162.3 777.6,161.3 780.6,159.5 783.5,158.3 786.5,157.3 789.4,157.1 792.4,156.6 795.3,155.8 798.3,153.6 801.2,150.0 804.2,146.3 807.1,142.6 810.1,139.5 813.0,136.0 816.0,132.2 818.9,128.3 821.9,124.7 824.8,122.1 827.8,120.1 830.7,117.7 833.7,115.5 836.6,113.9 839.6,112.1 842.5,110.7 845.5,108.8 848.4,106.1 851.4,102.9 854.3,100.3 857.3,97.9 860.2,96.4 863.2,95.0 866.1,93.6 869.1,92.1 872.0,90.0 872.0,272.0" fill="#e0f2fe" opacity="0.55"/>
<polyline points="52.0,271.9 54.9,271.8 90.3,271.0 93.3,270.8 96.2,270.7 105.1,270.6 122.8,270.6 161.1,270.5 164.1,269.8 167.0,269.7 175.9,269.6 178.8,269.5 181.8,269.4 184.7,269.2 190.6,269.1 193.6,268.7 202.4,268.4 214.2,268.3 217.2,268.0 220.1,267.9 243.7,267.8 249.6,267.7 264.4,267.7 267.3,267.6 270.3,267.4 282.1,267.4 285.0,266.9 288.0,266.5 290.9,265.5 293.9,265.4 314.5,265.3 323.4,265.2 329.3,265.2 332.2,265.1 335.2,264.7 338.1,264.6 341.1,264.6 344.0,264.3 347.0,264.1 358.8,263.7 364.7,263.6 376.5,263.6 379.4,263.2 382.4,263.1 385.3,263.0 391.2,262.9 394.2,261.4 397.1,259.8 400.1,259.3 403.0,258.9 406.0,258.8 408.9,258.4 411.9,257.9 414.8,257.5 417.8,257.3 420.7,257.1 426.6,256.9 429.6,256.3 432.5,255.7 435.5,255.1 438.4,254.7 444.3,254.5 450.2,254.4 453.2,253.9 456.1,253.5 459.1,252.5 462.0,251.9 464.9,251.3 467.9,250.6 470.8,250.0 473.8,249.3 476.7,248.5 479.7,247.7 482.6,246.9 485.6,246.2 488.5,245.8 491.5,245.3 494.4,244.6 497.4,244.3 500.3,244.0 503.3,243.6 506.2,243.4 509.2,243.3 515.1,243.2 518.0,241.7 521.0,240.6 523.9,240.4 526.9,240.3 532.8,240.2 535.7,239.9 547.5,239.9 553.4,239.7 562.3,239.6 565.2,237.9 568.2,236.2 571.1,235.8 574.1,234.4 577.0,233.3 580.0,232.6 582.9,232.3 585.9,231.6 588.8,231.3 591.8,231.1 594.7,230.8 597.7,230.7 615.4,229.4 618.3,227.9 621.3,227.7 624.2,227.5 627.2,227.4 647.8,227.3 674.4,225.7 677.3,224.5 680.3,223.1 683.2,220.9 686.2,220.6 689.1,219.9 692.1,218.7 695.0,217.7 698.0,215.7 700.9,212.7 703.9,209.7 706.8,206.2 709.8,202.5 712.7,199.4 715.7,197.4 718.6,195.0 721.6,191.5 724.5,188.6 727.5,186.6 730.4,184.5 733.4,181.6 736.3,179.8 739.3,178.0 742.2,176.4 745.2,175.2 748.1,173.6 751.1,172.6 754.0,171.5 757.0,170.6 759.9,167.9 762.9,165.7 765.8,164.5 768.8,164.1 771.7,163.4 774.7,162.3 777.6,161.3 780.6,159.5 783.5,158.3 786.5,157.3 789.4,157.1 792.4,156.6 795.3,155.8 798.3,153.6 801.2,150.0 804.2,146.3 807.1,142.6 810.1,139.5 813.0,136.0 816.0,132.2 818.9,128.3 821.9,124.7 824.8,122.1 827.8,120.1 830.7,117.7 833.7,115.5 836.6,113.9 839.6,112.1 842.5,110.7 845.5,108.8 848.4,106.1 851.4,102.9 854.3,100.3 857.3,97.9 860.2,96.4 863.2,95.0 866.1,93.6 869.1,92.1 872.0,90.0" fill="none" stroke="#38bdf8" stroke-width="2.5" stroke-linejoin="round" stroke-linecap="round"/>
<circle cx="872.0" cy="90.0" r="4" fill="#0ea5e9"/>
<text x="866.0" y="80.0" text-anchor="end" font-family="Inter, system-ui, sans-serif" font-size="13" font-weight="700" fill="#334155">2395</text>
<text x="52.0" y="294" text-anchor="middle" font-family="Inter, system-ui, sans-serif" font-size="11" fill="#94a3b8">Jun 10 05:00</text>
<text x="535.7" y="294" text-anchor="middle" font-family="Inter, system-ui, sans-serif" font-size="11" fill="#94a3b8">Jun 17 01:00</text>
<text x="872.0" y="294" text-anchor="middle" font-family="Inter, system-ui, sans-serif" font-size="11" fill="#94a3b8">Jun 21 19:00</text>
</svg>
