<svg xmlns="http://www.w3.org/2000/svg" width="900" height="320" viewBox="0 0 900 320" role="img" aria-labelledby="title desc">
<title id="title">unsorry proofs over time</title>
<desc id="desc">Cumulative kernel-verified proofs over time, by the hour each proof was merged.</desc>
<rect width="900" height="100%" rx="18" fill="#ffffff"/>
<rect x="0.5" y="0.5" width="899" height="319" rx="18" fill="none" stroke="#e2e8f0"/>
<text x="32" y="44" font-family="Inter, system-ui, sans-serif" font-size="28" font-weight="700" fill="#334155">unsorry — Proofs Over Time</text>
<text x="32" y="72" font-family="Inter, system-ui, sans-serif" font-size="13" fill="#64748b">2697 cumulative kernel-verified proofs · merged, hourly</text>
<line x1="52" y1="272.0" x2="872" y2="272.0" stroke="#f1f5f9"/>
<text x="44" y="276.0" text-anchor="end" font-family="Inter, system-ui, sans-serif" font-size="11" fill="#94a3b8">0</text>
<line x1="52" y1="226.5" x2="872" y2="226.5" stroke="#f1f5f9"/>
<text x="44" y="230.5" text-anchor="end" font-family="Inter, system-ui, sans-serif" font-size="11" fill="#94a3b8">674</text>
<line x1="52" y1="181.0" x2="872" y2="181.0" stroke="#f1f5f9"/>
<text x="44" y="185.0" text-anchor="end" font-family="Inter, system-ui, sans-serif" font-size="11" fill="#94a3b8">1348</text>
<line x1="52" y1="135.5" x2="872" y2="135.5" stroke="#f1f5f9"/>
<text x="44" y="139.5" text-anchor="end" font-family="Inter, system-ui, sans-serif" font-size="11" fill="#94a3b8">2023</text>
<line x1="52" y1="90.0" x2="872" y2="90.0" stroke="#f1f5f9"/>
<text x="44" y="94.0" text-anchor="end" font-family="Inter, system-ui, sans-serif" font-size="11" fill="#94a3b8">2697</text>
<polygon points="52.0,272.0 52.0,271.9 54.7,271.8 87.5,271.1 90.3,270.9 93.0,270.9 101.2,270.8 117.6,270.7 153.1,270.7 155.9,270.0 158.6,270.0 166.8,269.8 169.5,269.8 172.3,269.7 175.0,269.5 180.5,269.4 183.2,269.1 191.4,268.8 202.3,268.7 205.1,268.5 207.8,268.4 229.7,268.3 235.1,268.2 248.8,268.2 251.5,268.1 254.3,268.0 265.2,267.9 267.9,267.5 270.7,267.1 273.4,266.3 276.1,266.1 295.3,266.1 303.5,266.0 308.9,265.9 311.7,265.9 314.4,265.5 317.1,265.5 319.9,265.4 322.6,265.2 325.3,265.0 336.3,264.6 341.7,264.6 352.7,264.5 355.4,264.2 358.1,264.1 360.9,264.0 366.3,263.9 369.1,262.6 371.8,261.2 374.5,260.7 377.3,260.4 380.0,260.3 382.7,259.9 385.5,259.4 388.2,259.1 390.9,258.9 393.7,258.8 399.1,258.6 401.9,258.0 404.6,257.5 407.3,257.0 410.1,256.6 415.5,256.5 421.0,256.4 423.7,255.9 426.5,255.6 429.2,254.7 431.9,254.1 434.7,253.6 437.4,253.0 440.1,252.4 442.9,251.8 445.6,251.1 448.3,250.4 451.1,249.7 453.8,249.1 456.5,248.7 459.3,248.2 462.0,247.7 464.7,247.4 467.5,247.1 470.2,246.8 472.9,246.6 475.7,246.5 481.1,246.4 483.9,245.1 486.6,244.1 489.3,243.9 492.1,243.9 497.5,243.7 500.3,243.5 511.2,243.5 516.7,243.3 524.9,243.3 527.6,241.7 530.3,240.2 533.1,239.8 535.8,238.6 538.5,237.7 541.3,237.0 544.0,236.7 546.7,236.1 549.5,235.8 552.2,235.7 554.9,235.4 557.7,235.3 574.1,234.2 576.8,232.9 579.5,232.7 582.3,232.5 585.0,232.4 604.1,232.3 628.7,230.9 631.5,229.8 634.2,228.5 636.9,226.7 639.7,226.3 642.4,225.7 645.1,224.6 647.9,223.8 650.6,222.0 653.3,219.3 656.1,216.7 658.8,213.6 661.5,210.3 664.3,207.5 667.0,205.7 669.7,203.6 672.5,200.5 675.2,197.9 677.9,196.1 680.7,194.3 683.4,191.8 686.1,190.1 688.9,188.5 691.6,187.1 694.3,186.0 697.1,184.6 699.8,183.7 702.5,182.8 705.3,182.0 708.0,179.5 710.7,177.6 713.5,176.5 716.2,176.2 718.9,175.6 721.7,174.6 724.4,173.7 727.1,172.1 729.9,171.0 732.6,170.1 735.3,170.0 738.1,169.6 740.8,168.8 743.5,166.9 746.3,163.7 749.0,160.4 751.7,157.1 754.5,154.4 757.2,151.2 759.9,147.8 762.7,144.4 765.4,141.2 768.1,138.9 770.9,137.1 773.6,135.0 776.3,133.0 779.1,131.6 781.8,130.0 784.5,128.8 787.3,127.0 790.0,124.7 792.7,121.9 795.5,119.5 798.2,117.4 800.9,116.0 803.7,114.8 806.4,113.6 809.1,112.3 811.9,110.0 814.6,108.0 817.3,105.7 820.1,103.2 822.8,101.2 825.5,99.6 828.3,98.9 831.0,98.0 833.7,97.0 836.5,96.9 839.2,96.7 841.9,96.3 844.7,96.1 847.4,96.0 850.1,95.7 852.9,95.5 861.1,95.5 863.8,95.4 866.5,95.0 869.3,92.2 872.0,90.0 872.0,272.0" fill="#e0f2fe" opacity="0.55"/>
<polyline points="52.0,271.9 54.7,271.8 87.5,271.1 90.3,270.9 93.0,270.9 101.2,270.8 117.6,270.7 153.1,270.7 155.9,270.0 158.6,270.0 166.8,269.8 169.5,269.8 172.3,269.7 175.0,269.5 180.5,269.4 183.2,269.1 191.4,268.8 202.3,268.7 205.1,268.5 207.8,268.4 229.7,268.3 235.1,268.2 248.8,268.2 251.5,268.1 254.3,268.0 265.2,267.9 267.9,267.5 270.7,267.1 273.4,266.3 276.1,266.1 295.3,266.1 303.5,266.0 308.9,265.9 311.7,265.9 314.4,265.5 317.1,265.5 319.9,265.4 322.6,265.2 325.3,265.0 336.3,264.6 341.7,264.6 352.7,264.5 355.4,264.2 358.1,264.1 360.9,264.0 366.3,263.9 369.1,262.6 371.8,261.2 374.5,260.7 377.3,260.4 380.0,260.3 382.7,259.9 385.5,259.4 388.2,259.1 390.9,258.9 393.7,258.8 399.1,258.6 401.9,258.0 404.6,257.5 407.3,257.0 410.1,256.6 415.5,256.5 421.0,256.4 423.7,255.9 426.5,255.6 429.2,254.7 431.9,254.1 434.7,253.6 437.4,253.0 440.1,252.4 442.9,251.8 445.6,251.1 448.3,250.4 451.1,249.7 453.8,249.1 456.5,248.7 459.3,248.2 462.0,247.7 464.7,247.4 467.5,247.1 470.2,246.8 472.9,246.6 475.7,246.5 481.1,246.4 483.9,245.1 486.6,244.1 489.3,243.9 492.1,243.9 497.5,243.7 500.3,243.5 511.2,243.5 516.7,243.3 524.9,243.3 527.6,241.7 530.3,240.2 533.1,239.8 535.8,238.6 538.5,237.7 541.3,237.0 544.0,236.7 546.7,236.1 549.5,235.8 552.2,235.7 554.9,235.4 557.7,235.3 574.1,234.2 576.8,232.9 579.5,232.7 582.3,232.5 585.0,232.4 604.1,232.3 628.7,230.9 631.5,229.8 634.2,228.5 636.9,226.7 639.7,226.3 642.4,225.7 645.1,224.6 647.9,223.8 650.6,222.0 653.3,219.3 656.1,216.7 658.8,213.6 661.5,210.3 664.3,207.5 667.0,205.7 669.7,203.6 672.5,200.5 675.2,197.9 677.9,196.1 680.7,194.3 683.4,191.8 686.1,190.1 688.9,188.5 691.6,187.1 694.3,186.0 697.1,184.6 699.8,183.7 702.5,182.8 705.3,182.0 708.0,179.5 710.7,177.6 713.5,176.5 716.2,176.2 718.9,175.6 721.7,174.6 724.4,173.7 727.1,172.1 729.9,171.0 732.6,170.1 735.3,170.0 738.1,169.6 740.8,168.8 743.5,166.9 746.3,163.7 749.0,160.4 751.7,157.1 754.5,154.4 757.2,151.2 759.9,147.8 762.7,144.4 765.4,141.2 768.1,138.9 770.9,137.1 773.6,135.0 776.3,133.0 779.1,131.6 781.8,130.0 784.5,128.8 787.3,127.0 790.0,124.7 792.7,121.9 795.5,119.5 798.2,117.4 800.9,116.0 803.7,114.8 806.4,113.6 809.1,112.3 811.9,110.0 814.6,108.0 817.3,105.7 820.1,103.2 822.8,101.2 825.5,99.6 828.3,98.9 831.0,98.0 833.7,97.0 836.5,96.9 839.2,96.7 841.9,96.3 844.7,96.1 847.4,96.0 850.1,95.7 852.9,95.5 861.1,95.5 863.8,95.4 866.5,95.0 869.3,92.2 872.0,90.0" fill="none" stroke="#38bdf8" stroke-width="2.5" stroke-linejoin="round" stroke-linecap="round"/>
<circle cx="872.0" cy="90.0" r="4" fill="#0ea5e9"/>
<text x="866.0" y="80.0" text-anchor="end" font-family="Inter, system-ui, sans-serif" font-size="13" font-weight="700" fill="#334155">2697</text>
<text x="52.0" y="294" text-anchor="middle" font-family="Inter, system-ui, sans-serif" font-size="11" fill="#94a3b8">Jun 10 05:00</text>
<text x="544.0" y="294" text-anchor="middle" font-family="Inter, system-ui, sans-serif" font-size="11" fill="#94a3b8">Jun 17 17:00</text>
<text x="872.0" y="294" text-anchor="middle" font-family="Inter, system-ui, sans-serif" font-size="11" fill="#94a3b8">Jun 22 17:00</text>
</svg>
