<svg xmlns="http://www.w3.org/2000/svg" width="900" height="320" viewBox="0 0 900 320" role="img" aria-labelledby="title desc">
<title id="title">Unsorry proofs over time</title>
<desc id="desc">Cumulative kernel-verified proofs over time, by the hour each proof was merged.</desc>
<rect width="900" height="100%" rx="18" fill="#ffffff"/>
<rect x="0.5" y="0.5" width="899" height="319" rx="18" fill="none" stroke="#e2e8f0"/>
<text x="32" y="44" font-family="Inter, system-ui, sans-serif" font-size="28" font-weight="700" fill="#334155">Unsorry — Proofs Over Time</text>
<text x="32" y="72" font-family="Inter, system-ui, sans-serif" font-size="13" fill="#64748b">2033 cumulative kernel-verified proofs · merged, hourly</text>
<line x1="52" y1="272.0" x2="872" y2="272.0" stroke="#f1f5f9"/>
<text x="44" y="276.0" text-anchor="end" font-family="Inter, system-ui, sans-serif" font-size="11" fill="#94a3b8">0</text>
<line x1="52" y1="226.5" x2="872" y2="226.5" stroke="#f1f5f9"/>
<text x="44" y="230.5" text-anchor="end" font-family="Inter, system-ui, sans-serif" font-size="11" fill="#94a3b8">508</text>
<line x1="52" y1="181.0" x2="872" y2="181.0" stroke="#f1f5f9"/>
<text x="44" y="185.0" text-anchor="end" font-family="Inter, system-ui, sans-serif" font-size="11" fill="#94a3b8">1016</text>
<line x1="52" y1="135.5" x2="872" y2="135.5" stroke="#f1f5f9"/>
<text x="44" y="139.5" text-anchor="end" font-family="Inter, system-ui, sans-serif" font-size="11" fill="#94a3b8">1525</text>
<line x1="52" y1="90.0" x2="872" y2="90.0" stroke="#f1f5f9"/>
<text x="44" y="94.0" text-anchor="end" font-family="Inter, system-ui, sans-serif" font-size="11" fill="#94a3b8">2033</text>
<polygon points="52.0,272.0 52.0,271.9 55.1,271.7 92.2,270.8 95.3,270.6 98.4,270.5 107.7,270.4 126.3,270.3 166.5,270.2 169.6,269.4 172.7,269.3 182.0,269.1 185.1,269.0 188.2,269.0 191.2,268.7 197.4,268.6 200.5,268.2 209.8,267.8 222.2,267.6 225.3,267.3 228.4,267.2 253.1,267.1 259.3,267.0 274.8,266.9 277.9,266.8 281.0,266.6 293.4,266.5 296.5,266.0 299.5,265.6 302.6,264.4 305.7,264.2 327.4,264.1 336.7,264.0 342.9,263.9 346.0,263.9 349.1,263.4 352.2,263.3 355.2,263.2 358.3,263.0 361.4,262.7 373.8,262.2 380.0,262.2 392.4,262.1 395.5,261.6 398.6,261.5 401.7,261.3 407.8,261.3 410.9,259.5 414.0,257.7 417.1,257.0 420.2,256.6 423.3,256.4 426.4,256.0 429.5,255.3 432.6,254.9 435.7,254.6 438.8,254.5 445.0,254.2 448.1,253.5 451.2,252.8 454.3,252.0 457.4,251.6 463.5,251.4 469.7,251.3 472.8,250.7 475.9,250.2 479.0,249.0 482.1,248.3 485.2,247.6 488.3,246.8 491.4,246.0 494.5,245.2 497.6,244.3 500.7,243.4 503.8,242.5 506.9,241.7 510.0,241.1 513.1,240.5 516.2,239.8 519.2,239.4 522.3,239.0 525.4,238.5 528.5,238.3 531.6,238.2 537.8,238.1 540.9,236.3 544.0,235.0 547.1,234.8 550.2,234.7 556.4,234.5 559.5,234.2 571.8,234.1 578.0,234.0 587.3,233.9 590.4,231.8 593.5,229.8 596.6,229.3 599.7,227.7 602.8,226.4 605.9,225.6 609.0,225.2 612.1,224.4 615.2,224.0 618.3,223.8 621.4,223.5 624.5,223.3 643.0,221.9 646.1,220.1 649.2,219.8 652.3,219.5 655.4,219.5 677.1,219.4 704.9,217.5 708.0,216.0 711.1,214.3 714.2,211.8 717.3,211.4 720.4,210.6 723.5,209.2 726.6,208.1 729.7,205.7 732.8,202.1 735.8,198.6 738.9,194.5 742.0,190.2 745.1,186.4 748.2,184.1 751.3,181.3 754.4,177.2 757.5,173.7 760.6,171.4 763.7,169.0 766.8,165.6 769.9,163.4 773.0,161.3 776.1,159.4 779.2,157.9 782.3,156.1 785.4,154.9 788.5,153.7 791.5,152.6 794.6,149.4 797.7,146.8 800.8,145.3 803.9,144.9 807.0,144.1 810.1,142.7 813.2,141.6 816.3,139.4 819.4,138.1 822.5,136.8 825.6,136.6 828.7,136.1 831.8,135.1 834.9,132.5 838.0,128.3 841.1,123.9 844.2,119.5 847.2,116.0 850.3,111.8 853.4,107.3 856.5,102.7 859.6,98.5 862.7,95.5 865.8,93.0 868.9,90.3 872.0,90.0 872.0,272.0" fill="#e0f2fe" opacity="0.55"/>
<polyline points="52.0,271.9 55.1,271.7 92.2,270.8 95.3,270.6 98.4,270.5 107.7,270.4 126.3,270.3 166.5,270.2 169.6,269.4 172.7,269.3 182.0,269.1 185.1,269.0 188.2,269.0 191.2,268.7 197.4,268.6 200.5,268.2 209.8,267.8 222.2,267.6 225.3,267.3 228.4,267.2 253.1,267.1 259.3,267.0 274.8,266.9 277.9,266.8 281.0,266.6 293.4,266.5 296.5,266.0 299.5,265.6 302.6,264.4 305.7,264.2 327.4,264.1 336.7,264.0 342.9,263.9 346.0,263.9 349.1,263.4 352.2,263.3 355.2,263.2 358.3,263.0 361.4,262.7 373.8,262.2 380.0,262.2 392.4,262.1 395.5,261.6 398.6,261.5 401.7,261.3 407.8,261.3 410.9,259.5 414.0,257.7 417.1,257.0 420.2,256.6 423.3,256.4 426.4,256.0 429.5,255.3 432.6,254.9 435.7,254.6 438.8,254.5 445.0,254.2 448.1,253.5 451.2,252.8 454.3,252.0 457.4,251.6 463.5,251.4 469.7,251.3 472.8,250.7 475.9,250.2 479.0,249.0 482.1,248.3 485.2,247.6 488.3,246.8 491.4,246.0 494.5,245.2 497.6,244.3 500.7,243.4 503.8,242.5 506.9,241.7 510.0,241.1 513.1,240.5 516.2,239.8 519.2,239.4 522.3,239.0 525.4,238.5 528.5,238.3 531.6,238.2 537.8,238.1 540.9,236.3 544.0,235.0 547.1,234.8 550.2,234.7 556.4,234.5 559.5,234.2 571.8,234.1 578.0,234.0 587.3,233.9 590.4,231.8 593.5,229.8 596.6,229.3 599.7,227.7 602.8,226.4 605.9,225.6 609.0,225.2 612.1,224.4 615.2,224.0 618.3,223.8 621.4,223.5 624.5,223.3 643.0,221.9 646.1,220.1 649.2,219.8 652.3,219.5 655.4,219.5 677.1,219.4 704.9,217.5 708.0,216.0 711.1,214.3 714.2,211.8 717.3,211.4 720.4,210.6 723.5,209.2 726.6,208.1 729.7,205.7 732.8,202.1 735.8,198.6 738.9,194.5 742.0,190.2 745.1,186.4 748.2,184.1 751.3,181.3 754.4,177.2 757.5,173.7 760.6,171.4 763.7,169.0 766.8,165.6 769.9,163.4 773.0,161.3 776.1,159.4 779.2,157.9 782.3,156.1 785.4,154.9 788.5,153.7 791.5,152.6 794.6,149.4 797.7,146.8 800.8,145.3 803.9,144.9 807.0,144.1 810.1,142.7 813.2,141.6 816.3,139.4 819.4,138.1 822.5,136.8 825.6,136.6 828.7,136.1 831.8,135.1 834.9,132.5 838.0,128.3 841.1,123.9 844.2,119.5 847.2,116.0 850.3,111.8 853.4,107.3 856.5,102.7 859.6,98.5 862.7,95.5 865.8,93.0 868.9,90.3 872.0,90.0" fill="none" stroke="#38bdf8" stroke-width="2.5" stroke-linejoin="round" stroke-linecap="round"/>
<circle cx="872.0" cy="90.0" r="4" fill="#0ea5e9"/>
<text x="866.0" y="80.0" text-anchor="end" font-family="Inter, system-ui, sans-serif" font-size="13" font-weight="700" fill="#334155">2033</text>
<text x="52.0" y="294" text-anchor="middle" font-family="Inter, system-ui, sans-serif" font-size="11" fill="#94a3b8">Jun 10 05:00</text>
<text x="537.8" y="294" text-anchor="middle" font-family="Inter, system-ui, sans-serif" font-size="11" fill="#94a3b8">Jun 16 18:00</text>
<text x="872.0" y="294" text-anchor="middle" font-family="Inter, system-ui, sans-serif" font-size="11" fill="#94a3b8">Jun 21 06:00</text>
</svg>
