<svg xmlns="http://www.w3.org/2000/svg" width="900" height="320" viewBox="0 0 900 320" role="img" aria-labelledby="title desc">
<title id="title">Unsorry proofs over time</title>
<desc id="desc">Cumulative kernel-verified proofs over time, by the hour each proof was merged.</desc>
<rect width="900" height="100%" rx="18" fill="#ffffff"/>
<rect x="0.5" y="0.5" width="899" height="319" rx="18" fill="none" stroke="#e2e8f0"/>
<text x="32" y="44" font-family="Inter, system-ui, sans-serif" font-size="28" font-weight="700" fill="#334155">Unsorry — Proofs Over Time</text>
<text x="32" y="72" font-family="Inter, system-ui, sans-serif" font-size="13" fill="#64748b">2447 cumulative kernel-verified proofs · merged, hourly</text>
<line x1="52" y1="272.0" x2="872" y2="272.0" stroke="#f1f5f9"/>
<text x="44" y="276.0" text-anchor="end" font-family="Inter, system-ui, sans-serif" font-size="11" fill="#94a3b8">0</text>
<line x1="52" y1="226.5" x2="872" y2="226.5" stroke="#f1f5f9"/>
<text x="44" y="230.5" text-anchor="end" font-family="Inter, system-ui, sans-serif" font-size="11" fill="#94a3b8">612</text>
<line x1="52" y1="181.0" x2="872" y2="181.0" stroke="#f1f5f9"/>
<text x="44" y="185.0" text-anchor="end" font-family="Inter, system-ui, sans-serif" font-size="11" fill="#94a3b8">1224</text>
<line x1="52" y1="135.5" x2="872" y2="135.5" stroke="#f1f5f9"/>
<text x="44" y="139.5" text-anchor="end" font-family="Inter, system-ui, sans-serif" font-size="11" fill="#94a3b8">1835</text>
<line x1="52" y1="90.0" x2="872" y2="90.0" stroke="#f1f5f9"/>
<text x="44" y="94.0" text-anchor="end" font-family="Inter, system-ui, sans-serif" font-size="11" fill="#94a3b8">2447</text>
<polygon points="52.0,272.0 52.0,271.9 54.9,271.8 90.1,271.0 93.0,270.8 95.9,270.7 104.7,270.7 122.3,270.6 160.4,270.5 163.3,269.8 166.2,269.8 175.0,269.6 177.9,269.5 180.9,269.5 183.8,269.2 189.6,269.2 192.6,268.8 201.4,268.5 213.1,268.4 216.0,268.1 218.9,268.0 242.4,267.9 248.2,267.8 262.9,267.8 265.8,267.7 268.7,267.5 280.4,267.5 283.4,267.0 286.3,266.6 289.2,265.7 292.1,265.5 312.6,265.5 321.4,265.4 327.3,265.3 330.2,265.2 333.1,264.9 336.1,264.8 339.0,264.7 341.9,264.5 344.9,264.3 356.6,263.9 362.4,263.8 374.1,263.7 377.1,263.4 380.0,263.3 382.9,263.1 388.8,263.1 391.7,261.6 394.6,260.1 397.6,259.6 400.5,259.2 403.4,259.1 406.4,258.7 409.3,258.2 412.2,257.8 415.1,257.6 418.1,257.4 423.9,257.2 426.9,256.6 429.8,256.0 432.7,255.4 435.6,255.0 441.5,254.9 447.4,254.8 450.3,254.3 453.2,253.9 456.1,252.9 459.1,252.3 462.0,251.7 464.9,251.1 467.9,250.4 470.8,249.8 473.7,249.0 476.6,248.2 479.6,247.5 482.5,246.8 485.4,246.3 488.4,245.8 491.3,245.2 494.2,244.9 497.1,244.6 500.1,244.2 503.0,244.0 505.9,243.9 511.8,243.8 514.7,242.3 517.6,241.3 520.6,241.1 523.5,241.0 529.4,240.8 532.3,240.6 544.0,240.5 549.9,240.4 558.6,240.3 561.6,238.6 564.5,237.0 567.4,236.5 570.4,235.2 573.3,234.1 576.2,233.5 579.1,233.1 582.1,232.4 585.0,232.1 587.9,232.0 590.9,231.7 593.8,231.5 611.4,230.3 614.3,228.9 617.2,228.6 620.1,228.4 623.1,228.3 643.6,228.3 669.9,226.7 672.9,225.5 675.8,224.1 678.7,222.0 681.6,221.6 684.6,221.0 687.5,219.8 690.4,218.9 693.4,216.9 696.3,213.9 699.2,211.0 702.1,207.6 705.1,204.0 708.0,200.9 710.9,199.0 713.9,196.7 716.8,193.2 719.7,190.3 722.6,188.4 725.6,186.4 728.5,183.6 731.4,181.8 734.4,180.0 737.3,178.4 740.2,177.2 743.1,175.7 746.1,174.7 749.0,173.7 751.9,172.8 754.9,170.1 757.8,167.9 760.7,166.8 763.6,166.4 766.6,165.7 769.5,164.6 772.4,163.6 775.4,161.8 778.3,160.7 781.2,159.7 784.1,159.5 787.1,159.1 790.0,158.3 792.9,156.1 795.9,152.6 798.8,149.0 801.7,145.3 804.6,142.4 807.6,138.9 810.5,135.1 813.4,131.4 816.4,127.9 819.3,125.3 822.2,123.3 825.1,121.0 828.1,118.8 831.0,117.3 833.9,115.5 836.9,114.2 839.8,112.2 842.7,109.6 845.6,106.5 848.6,103.9 851.5,101.6 854.4,100.1 857.4,98.8 860.3,97.4 863.2,96.0 866.1,93.4 869.1,91.3 872.0,90.0 872.0,272.0" fill="#e0f2fe" opacity="0.55"/>
<polyline points="52.0,271.9 54.9,271.8 90.1,271.0 93.0,270.8 95.9,270.7 104.7,270.7 122.3,270.6 160.4,270.5 163.3,269.8 166.2,269.8 175.0,269.6 177.9,269.5 180.9,269.5 183.8,269.2 189.6,269.2 192.6,268.8 201.4,268.5 213.1,268.4 216.0,268.1 218.9,268.0 242.4,267.9 248.2,267.8 262.9,267.8 265.8,267.7 268.7,267.5 280.4,267.5 283.4,267.0 286.3,266.6 289.2,265.7 292.1,265.5 312.6,265.5 321.4,265.4 327.3,265.3 330.2,265.2 333.1,264.9 336.1,264.8 339.0,264.7 341.9,264.5 344.9,264.3 356.6,263.9 362.4,263.8 374.1,263.7 377.1,263.4 380.0,263.3 382.9,263.1 388.8,263.1 391.7,261.6 394.6,260.1 397.6,259.6 400.5,259.2 403.4,259.1 406.4,258.7 409.3,258.2 412.2,257.8 415.1,257.6 418.1,257.4 423.9,257.2 426.9,256.6 429.8,256.0 432.7,255.4 435.6,255.0 441.5,254.9 447.4,254.8 450.3,254.3 453.2,253.9 456.1,252.9 459.1,252.3 462.0,251.7 464.9,251.1 467.9,250.4 470.8,249.8 473.7,249.0 476.6,248.2 479.6,247.5 482.5,246.8 485.4,246.3 488.4,245.8 491.3,245.2 494.2,244.9 497.1,244.6 500.1,244.2 503.0,244.0 505.9,243.9 511.8,243.8 514.7,242.3 517.6,241.3 520.6,241.1 523.5,241.0 529.4,240.8 532.3,240.6 544.0,240.5 549.9,240.4 558.6,240.3 561.6,238.6 564.5,237.0 567.4,236.5 570.4,235.2 573.3,234.1 576.2,233.5 579.1,233.1 582.1,232.4 585.0,232.1 587.9,232.0 590.9,231.7 593.8,231.5 611.4,230.3 614.3,228.9 617.2,228.6 620.1,228.4 623.1,228.3 643.6,228.3 669.9,226.7 672.9,225.5 675.8,224.1 678.7,222.0 681.6,221.6 684.6,221.0 687.5,219.8 690.4,218.9 693.4,216.9 696.3,213.9 699.2,211.0 702.1,207.6 705.1,204.0 708.0,200.9 710.9,199.0 713.9,196.7 716.8,193.2 719.7,190.3 722.6,188.4 725.6,186.4 728.5,183.6 731.4,181.8 734.4,180.0 737.3,178.4 740.2,177.2 743.1,175.7 746.1,174.7 749.0,173.7 751.9,172.8 754.9,170.1 757.8,167.9 760.7,166.8 763.6,166.4 766.6,165.7 769.5,164.6 772.4,163.6 775.4,161.8 778.3,160.7 781.2,159.7 784.1,159.5 787.1,159.1 790.0,158.3 792.9,156.1 795.9,152.6 798.8,149.0 801.7,145.3 804.6,142.4 807.6,138.9 810.5,135.1 813.4,131.4 816.4,127.9 819.3,125.3 822.2,123.3 825.1,121.0 828.1,118.8 831.0,117.3 833.9,115.5 836.9,114.2 839.8,112.2 842.7,109.6 845.6,106.5 848.6,103.9 851.5,101.6 854.4,100.1 857.4,98.8 860.3,97.4 863.2,96.0 866.1,93.4 869.1,91.3 872.0,90.0" fill="none" stroke="#38bdf8" stroke-width="2.5" stroke-linejoin="round" stroke-linecap="round"/>
<circle cx="872.0" cy="90.0" r="4" fill="#0ea5e9"/>
<text x="866.0" y="80.0" text-anchor="end" font-family="Inter, system-ui, sans-serif" font-size="13" font-weight="700" fill="#334155">2447</text>
<text x="52.0" y="294" text-anchor="middle" font-family="Inter, system-ui, sans-serif" font-size="11" fill="#94a3b8">Jun 10 05:00</text>
<text x="544.0" y="294" text-anchor="middle" font-family="Inter, system-ui, sans-serif" font-size="11" fill="#94a3b8">Jun 17 05:00</text>
<text x="872.0" y="294" text-anchor="middle" font-family="Inter, system-ui, sans-serif" font-size="11" fill="#94a3b8">Jun 21 21:00</text>
</svg>
