<svg xmlns="http://www.w3.org/2000/svg" width="900" height="320" viewBox="0 0 900 320" role="img" aria-labelledby="title desc">
<title id="title">Unsorry proofs over time</title>
<desc id="desc">Cumulative kernel-verified proofs over time, by the hour each proof was merged.</desc>
<rect width="900" height="100%" rx="18" fill="#ffffff"/>
<rect x="0.5" y="0.5" width="899" height="319" rx="18" fill="none" stroke="#e2e8f0"/>
<text x="32" y="44" font-family="Inter, system-ui, sans-serif" font-size="28" font-weight="700" fill="#334155">Unsorry — Proofs Over Time</text>
<text x="32" y="72" font-family="Inter, system-ui, sans-serif" font-size="13" fill="#64748b">2287 cumulative kernel-verified proofs · merged, hourly</text>
<line x1="52" y1="272.0" x2="872" y2="272.0" stroke="#f1f5f9"/>
<text x="44" y="276.0" text-anchor="end" font-family="Inter, system-ui, sans-serif" font-size="11" fill="#94a3b8">0</text>
<line x1="52" y1="226.5" x2="872" y2="226.5" stroke="#f1f5f9"/>
<text x="44" y="230.5" text-anchor="end" font-family="Inter, system-ui, sans-serif" font-size="11" fill="#94a3b8">572</text>
<line x1="52" y1="181.0" x2="872" y2="181.0" stroke="#f1f5f9"/>
<text x="44" y="185.0" text-anchor="end" font-family="Inter, system-ui, sans-serif" font-size="11" fill="#94a3b8">1144</text>
<line x1="52" y1="135.5" x2="872" y2="135.5" stroke="#f1f5f9"/>
<text x="44" y="139.5" text-anchor="end" font-family="Inter, system-ui, sans-serif" font-size="11" fill="#94a3b8">1715</text>
<line x1="52" y1="90.0" x2="872" y2="90.0" stroke="#f1f5f9"/>
<text x="44" y="94.0" text-anchor="end" font-family="Inter, system-ui, sans-serif" font-size="11" fill="#94a3b8">2287</text>
<polygon points="52.0,272.0 52.0,271.9 55.0,271.8 91.0,271.0 94.1,270.7 97.1,270.6 106.1,270.6 124.1,270.5 163.1,270.4 166.1,269.7 169.1,269.6 178.2,269.5 181.2,269.4 184.2,269.3 187.2,269.1 193.2,269.0 196.2,268.6 205.2,268.3 217.2,268.1 220.2,267.9 223.2,267.7 247.2,267.6 253.2,267.5 268.3,267.5 271.3,267.4 274.3,267.2 286.3,267.1 289.3,266.7 292.3,266.3 295.3,265.2 298.3,265.1 319.3,265.0 328.3,264.9 334.3,264.8 337.3,264.8 340.4,264.4 343.4,264.3 346.4,264.2 349.4,264.0 352.4,263.7 364.4,263.3 370.4,263.2 382.4,263.2 385.4,262.8 388.4,262.7 391.4,262.5 397.4,262.5 400.4,260.9 403.4,259.3 406.4,258.7 409.4,258.3 412.4,258.2 415.4,257.8 418.4,257.2 421.5,256.8 424.5,256.6 427.5,256.4 433.5,256.2 436.5,255.5 439.5,254.9 442.5,254.3 445.5,253.9 451.5,253.7 457.5,253.6 460.5,253.1 463.5,252.7 466.5,251.5 469.5,250.9 472.5,250.3 475.5,249.6 478.5,248.9 481.5,248.2 484.5,247.4 487.5,246.5 490.5,245.7 493.5,245.0 496.5,244.5 499.5,244.0 502.5,243.4 505.6,243.0 508.6,242.6 511.6,242.2 514.6,242.1 517.6,241.9 523.6,241.8 526.6,240.2 529.6,239.1 532.6,238.9 535.6,238.8 541.6,238.7 544.6,238.4 556.6,238.3 562.6,238.2 571.6,238.1 574.6,236.3 577.6,234.5 580.6,234.0 583.6,232.6 586.7,231.5 589.7,230.8 592.7,230.4 595.7,229.7 598.7,229.3 601.7,229.2 604.7,228.9 607.7,228.7 625.7,227.4 628.7,225.8 631.7,225.6 634.7,225.4 637.7,225.3 658.7,225.2 685.8,223.5 688.8,222.3 691.8,220.8 694.8,218.5 697.8,218.1 700.8,217.4 703.8,216.1 706.8,215.2 709.8,213.0 712.8,209.8 715.8,206.7 718.8,203.1 721.8,199.3 724.8,195.9 727.8,193.9 730.8,191.4 733.8,187.7 736.8,184.6 739.8,182.6 742.8,180.4 745.8,177.4 748.8,175.5 751.9,173.6 754.9,171.9 757.9,170.6 760.9,168.9 763.9,167.9 766.9,166.8 769.9,165.8 772.9,163.0 775.9,160.7 778.9,159.4 781.9,159.0 784.9,158.3 787.9,157.1 790.9,156.1 793.9,154.1 796.9,152.9 799.9,151.8 802.9,151.7 805.9,151.2 808.9,150.3 811.9,148.0 814.9,144.3 817.9,140.4 820.9,136.5 823.9,133.3 826.9,129.6 829.9,125.6 833.0,121.5 836.0,117.8 839.0,115.1 842.0,112.9 845.0,110.5 848.0,108.1 851.0,106.5 854.0,104.6 857.0,103.1 860.0,101.1 863.0,98.3 866.0,94.9 869.0,92.1 872.0,90.0 872.0,272.0" fill="#e0f2fe" opacity="0.55"/>
<polyline points="52.0,271.9 55.0,271.8 91.0,271.0 94.1,270.7 97.1,270.6 106.1,270.6 124.1,270.5 163.1,270.4 166.1,269.7 169.1,269.6 178.2,269.5 181.2,269.4 184.2,269.3 187.2,269.1 193.2,269.0 196.2,268.6 205.2,268.3 217.2,268.1 220.2,267.9 223.2,267.7 247.2,267.6 253.2,267.5 268.3,267.5 271.3,267.4 274.3,267.2 286.3,267.1 289.3,266.7 292.3,266.3 295.3,265.2 298.3,265.1 319.3,265.0 328.3,264.9 334.3,264.8 337.3,264.8 340.4,264.4 343.4,264.3 346.4,264.2 349.4,264.0 352.4,263.7 364.4,263.3 370.4,263.2 382.4,263.2 385.4,262.8 388.4,262.7 391.4,262.5 397.4,262.5 400.4,260.9 403.4,259.3 406.4,258.7 409.4,258.3 412.4,258.2 415.4,257.8 418.4,257.2 421.5,256.8 424.5,256.6 427.5,256.4 433.5,256.2 436.5,255.5 439.5,254.9 442.5,254.3 445.5,253.9 451.5,253.7 457.5,253.6 460.5,253.1 463.5,252.7 466.5,251.5 469.5,250.9 472.5,250.3 475.5,249.6 478.5,248.9 481.5,248.2 484.5,247.4 487.5,246.5 490.5,245.7 493.5,245.0 496.5,244.5 499.5,244.0 502.5,243.4 505.6,243.0 508.6,242.6 511.6,242.2 514.6,242.1 517.6,241.9 523.6,241.8 526.6,240.2 529.6,239.1 532.6,238.9 535.6,238.8 541.6,238.7 544.6,238.4 556.6,238.3 562.6,238.2 571.6,238.1 574.6,236.3 577.6,234.5 580.6,234.0 583.6,232.6 586.7,231.5 589.7,230.8 592.7,230.4 595.7,229.7 598.7,229.3 601.7,229.2 604.7,228.9 607.7,228.7 625.7,227.4 628.7,225.8 631.7,225.6 634.7,225.4 637.7,225.3 658.7,225.2 685.8,223.5 688.8,222.3 691.8,220.8 694.8,218.5 697.8,218.1 700.8,217.4 703.8,216.1 706.8,215.2 709.8,213.0 712.8,209.8 715.8,206.7 718.8,203.1 721.8,199.3 724.8,195.9 727.8,193.9 730.8,191.4 733.8,187.7 736.8,184.6 739.8,182.6 742.8,180.4 745.8,177.4 748.8,175.5 751.9,173.6 754.9,171.9 757.9,170.6 760.9,168.9 763.9,167.9 766.9,166.8 769.9,165.8 772.9,163.0 775.9,160.7 778.9,159.4 781.9,159.0 784.9,158.3 787.9,157.1 790.9,156.1 793.9,154.1 796.9,152.9 799.9,151.8 802.9,151.7 805.9,151.2 808.9,150.3 811.9,148.0 814.9,144.3 817.9,140.4 820.9,136.5 823.9,133.3 826.9,129.6 829.9,125.6 833.0,121.5 836.0,117.8 839.0,115.1 842.0,112.9 845.0,110.5 848.0,108.1 851.0,106.5 854.0,104.6 857.0,103.1 860.0,101.1 863.0,98.3 866.0,94.9 869.0,92.1 872.0,90.0" fill="none" stroke="#38bdf8" stroke-width="2.5" stroke-linejoin="round" stroke-linecap="round"/>
<circle cx="872.0" cy="90.0" r="4" fill="#0ea5e9"/>
<text x="866.0" y="80.0" text-anchor="end" font-family="Inter, system-ui, sans-serif" font-size="13" font-weight="700" fill="#334155">2287</text>
<text x="52.0" y="294" text-anchor="middle" font-family="Inter, system-ui, sans-serif" font-size="11" fill="#94a3b8">Jun 10 05:00</text>
<text x="535.6" y="294" text-anchor="middle" font-family="Inter, system-ui, sans-serif" font-size="11" fill="#94a3b8">Jun 16 22:00</text>
<text x="872.0" y="294" text-anchor="middle" font-family="Inter, system-ui, sans-serif" font-size="11" fill="#94a3b8">Jun 21 14:00</text>
</svg>
