<svg xmlns="http://www.w3.org/2000/svg" width="900" height="320" viewBox="0 0 900 320" role="img" aria-labelledby="title desc">
<title id="title">Unsorry proofs over time</title>
<desc id="desc">Cumulative kernel-verified proofs over time, by the hour each proof was merged.</desc>
<rect width="900" height="100%" rx="18" fill="#ffffff"/>
<rect x="0.5" y="0.5" width="899" height="319" rx="18" fill="none" stroke="#e2e8f0"/>
<text x="32" y="44" font-family="Inter, system-ui, sans-serif" font-size="28" font-weight="700" fill="#334155">Unsorry — Proofs Over Time</text>
<text x="32" y="72" font-family="Inter, system-ui, sans-serif" font-size="13" fill="#64748b">2363 cumulative kernel-verified proofs · merged, hourly</text>
<line x1="52" y1="272.0" x2="872" y2="272.0" stroke="#f1f5f9"/>
<text x="44" y="276.0" text-anchor="end" font-family="Inter, system-ui, sans-serif" font-size="11" fill="#94a3b8">0</text>
<line x1="52" y1="226.5" x2="872" y2="226.5" stroke="#f1f5f9"/>
<text x="44" y="230.5" text-anchor="end" font-family="Inter, system-ui, sans-serif" font-size="11" fill="#94a3b8">591</text>
<line x1="52" y1="181.0" x2="872" y2="181.0" stroke="#f1f5f9"/>
<text x="44" y="185.0" text-anchor="end" font-family="Inter, system-ui, sans-serif" font-size="11" fill="#94a3b8">1182</text>
<line x1="52" y1="135.5" x2="872" y2="135.5" stroke="#f1f5f9"/>
<text x="44" y="139.5" text-anchor="end" font-family="Inter, system-ui, sans-serif" font-size="11" fill="#94a3b8">1772</text>
<line x1="52" y1="90.0" x2="872" y2="90.0" stroke="#f1f5f9"/>
<text x="44" y="94.0" text-anchor="end" font-family="Inter, system-ui, sans-serif" font-size="11" fill="#94a3b8">2363</text>
<polygon points="52.0,272.0 52.0,271.9 55.0,271.8 90.5,271.0 93.4,270.8 96.4,270.7 105.3,270.6 123.0,270.5 161.5,270.5 164.5,269.8 167.5,269.7 176.3,269.5 179.3,269.5 182.3,269.4 185.2,269.2 191.1,269.1 194.1,268.7 203.0,268.4 214.8,268.2 217.8,268.0 220.7,267.8 244.4,267.8 250.3,267.7 265.1,267.6 268.1,267.5 271.1,267.4 282.9,267.3 285.9,266.8 288.8,266.5 291.8,265.5 294.7,265.3 315.5,265.2 324.3,265.1 330.3,265.1 333.2,265.0 336.2,264.6 339.1,264.5 342.1,264.5 345.1,264.2 348.0,264.0 359.9,263.6 365.8,263.5 377.6,263.5 380.6,263.1 383.6,263.0 386.5,262.8 392.4,262.8 395.4,261.2 398.4,259.7 401.3,259.1 404.3,258.8 407.2,258.6 410.2,258.2 413.2,257.7 416.1,257.3 419.1,257.1 422.0,256.9 428.0,256.7 430.9,256.1 433.9,255.4 436.8,254.8 439.8,254.4 445.7,254.3 451.6,254.2 454.6,253.7 457.6,253.3 460.5,252.2 463.5,251.6 466.4,251.0 469.4,250.4 472.4,249.7 475.3,249.0 478.3,248.2 481.2,247.4 484.2,246.6 487.2,245.9 490.1,245.4 493.1,244.9 496.0,244.3 499.0,244.0 502.0,243.6 504.9,243.2 507.9,243.0 510.8,242.9 516.8,242.8 519.7,241.3 522.7,240.2 525.6,240.0 528.6,239.9 534.5,239.7 537.5,239.5 549.3,239.4 555.2,239.3 564.1,239.2 567.1,237.4 570.1,235.7 573.0,235.3 576.0,233.9 578.9,232.8 581.9,232.1 584.9,231.7 587.8,231.0 590.8,230.7 593.7,230.6 596.7,230.3 599.7,230.1 617.4,228.9 620.4,227.3 623.3,227.1 626.3,226.9 629.3,226.8 650.0,226.7 676.6,225.1 679.6,223.9 682.5,222.4 685.5,220.2 688.5,219.9 691.4,219.2 694.4,217.9 697.3,217.0 700.3,214.9 703.3,211.8 706.2,208.8 709.2,205.3 712.1,201.6 715.1,198.4 718.1,196.4 721.0,194.0 724.0,190.4 726.9,187.4 729.9,185.4 732.9,183.3 735.8,180.4 738.8,178.6 741.7,176.7 744.7,175.1 747.7,173.9 750.6,172.3 753.6,171.3 756.5,170.2 759.5,169.3 762.5,166.5 765.4,164.2 768.4,163.0 771.4,162.6 774.3,161.9 777.3,160.8 780.2,159.8 783.2,157.9 786.2,156.8 789.1,155.7 792.1,155.5 795.0,155.1 798.0,154.2 801.0,152.0 803.9,148.4 806.9,144.6 809.8,140.8 812.8,137.8 815.8,134.1 818.7,130.3 821.7,126.4 824.6,122.7 827.6,120.1 830.6,118.0 833.5,115.6 836.5,113.3 839.4,111.8 842.4,109.9 845.4,108.6 848.3,106.6 851.3,103.9 854.2,100.6 857.2,97.9 860.2,95.5 863.1,94.0 866.1,92.6 869.0,91.2 872.0,90.0 872.0,272.0" fill="#e0f2fe" opacity="0.55"/>
<polyline points="52.0,271.9 55.0,271.8 90.5,271.0 93.4,270.8 96.4,270.7 105.3,270.6 123.0,270.5 161.5,270.5 164.5,269.8 167.5,269.7 176.3,269.5 179.3,269.5 182.3,269.4 185.2,269.2 191.1,269.1 194.1,268.7 203.0,268.4 214.8,268.2 217.8,268.0 220.7,267.8 244.4,267.8 250.3,267.7 265.1,267.6 268.1,267.5 271.1,267.4 282.9,267.3 285.9,266.8 288.8,266.5 291.8,265.5 294.7,265.3 315.5,265.2 324.3,265.1 330.3,265.1 333.2,265.0 336.2,264.6 339.1,264.5 342.1,264.5 345.1,264.2 348.0,264.0 359.9,263.6 365.8,263.5 377.6,263.5 380.6,263.1 383.6,263.0 386.5,262.8 392.4,262.8 395.4,261.2 398.4,259.7 401.3,259.1 404.3,258.8 407.2,258.6 410.2,258.2 413.2,257.7 416.1,257.3 419.1,257.1 422.0,256.9 428.0,256.7 430.9,256.1 433.9,255.4 436.8,254.8 439.8,254.4 445.7,254.3 451.6,254.2 454.6,253.7 457.6,253.3 460.5,252.2 463.5,251.6 466.4,251.0 469.4,250.4 472.4,249.7 475.3,249.0 478.3,248.2 481.2,247.4 484.2,246.6 487.2,245.9 490.1,245.4 493.1,244.9 496.0,244.3 499.0,244.0 502.0,243.6 504.9,243.2 507.9,243.0 510.8,242.9 516.8,242.8 519.7,241.3 522.7,240.2 525.6,240.0 528.6,239.9 534.5,239.7 537.5,239.5 549.3,239.4 555.2,239.3 564.1,239.2 567.1,237.4 570.1,235.7 573.0,235.3 576.0,233.9 578.9,232.8 581.9,232.1 584.9,231.7 587.8,231.0 590.8,230.7 593.7,230.6 596.7,230.3 599.7,230.1 617.4,228.9 620.4,227.3 623.3,227.1 626.3,226.9 629.3,226.8 650.0,226.7 676.6,225.1 679.6,223.9 682.5,222.4 685.5,220.2 688.5,219.9 691.4,219.2 694.4,217.9 697.3,217.0 700.3,214.9 703.3,211.8 706.2,208.8 709.2,205.3 712.1,201.6 715.1,198.4 718.1,196.4 721.0,194.0 724.0,190.4 726.9,187.4 729.9,185.4 732.9,183.3 735.8,180.4 738.8,178.6 741.7,176.7 744.7,175.1 747.7,173.9 750.6,172.3 753.6,171.3 756.5,170.2 759.5,169.3 762.5,166.5 765.4,164.2 768.4,163.0 771.4,162.6 774.3,161.9 777.3,160.8 780.2,159.8 783.2,157.9 786.2,156.8 789.1,155.7 792.1,155.5 795.0,155.1 798.0,154.2 801.0,152.0 803.9,148.4 806.9,144.6 809.8,140.8 812.8,137.8 815.8,134.1 818.7,130.3 821.7,126.4 824.6,122.7 827.6,120.1 830.6,118.0 833.5,115.6 836.5,113.3 839.4,111.8 842.4,109.9 845.4,108.6 848.3,106.6 851.3,103.9 854.2,100.6 857.2,97.9 860.2,95.5 863.1,94.0 866.1,92.6 869.0,91.2 872.0,90.0" fill="none" stroke="#38bdf8" stroke-width="2.5" stroke-linejoin="round" stroke-linecap="round"/>
<circle cx="872.0" cy="90.0" r="4" fill="#0ea5e9"/>
<text x="866.0" y="80.0" text-anchor="end" font-family="Inter, system-ui, sans-serif" font-size="13" font-weight="700" fill="#334155">2363</text>
<text x="52.0" y="294" text-anchor="middle" font-family="Inter, system-ui, sans-serif" font-size="11" fill="#94a3b8">Jun 10 05:00</text>
<text x="537.5" y="294" text-anchor="middle" font-family="Inter, system-ui, sans-serif" font-size="11" fill="#94a3b8">Jun 17 01:00</text>
<text x="872.0" y="294" text-anchor="middle" font-family="Inter, system-ui, sans-serif" font-size="11" fill="#94a3b8">Jun 21 18:00</text>
</svg>
