<svg xmlns="http://www.w3.org/2000/svg" width="900" height="320" viewBox="0 0 900 320" role="img" aria-labelledby="title desc">
<title id="title">unsorry proofs over time</title>
<desc id="desc">Cumulative kernel-verified proofs over time, by the hour each proof was merged.</desc>
<rect width="900" height="100%" rx="18" fill="#ffffff"/>
<rect x="0.5" y="0.5" width="899" height="319" rx="18" fill="none" stroke="#e2e8f0"/>
<text x="32" y="44" font-family="Inter, system-ui, sans-serif" font-size="28" font-weight="700" fill="#334155">unsorry — Proofs Over Time</text>
<text x="32" y="72" font-family="Inter, system-ui, sans-serif" font-size="13" fill="#64748b">2740 cumulative kernel-verified proofs · merged, hourly</text>
<line x1="52" y1="272.0" x2="872" y2="272.0" stroke="#f1f5f9"/>
<text x="44" y="276.0" text-anchor="end" font-family="Inter, system-ui, sans-serif" font-size="11" fill="#94a3b8">0</text>
<line x1="52" y1="226.5" x2="872" y2="226.5" stroke="#f1f5f9"/>
<text x="44" y="230.5" text-anchor="end" font-family="Inter, system-ui, sans-serif" font-size="11" fill="#94a3b8">685</text>
<line x1="52" y1="181.0" x2="872" y2="181.0" stroke="#f1f5f9"/>
<text x="44" y="185.0" text-anchor="end" font-family="Inter, system-ui, sans-serif" font-size="11" fill="#94a3b8">1370</text>
<line x1="52" y1="135.5" x2="872" y2="135.5" stroke="#f1f5f9"/>
<text x="44" y="139.5" text-anchor="end" font-family="Inter, system-ui, sans-serif" font-size="11" fill="#94a3b8">2055</text>
<line x1="52" y1="90.0" x2="872" y2="90.0" stroke="#f1f5f9"/>
<text x="44" y="94.0" text-anchor="end" font-family="Inter, system-ui, sans-serif" font-size="11" fill="#94a3b8">2740</text>
<polygon points="52.0,272.0 52.0,271.9 54.7,271.8 87.3,271.1 90.0,270.9 92.7,270.9 100.9,270.8 117.2,270.7 152.5,270.7 155.2,270.1 157.9,270.0 166.0,269.9 168.8,269.8 171.5,269.7 174.2,269.5 179.6,269.5 182.3,269.1 190.5,268.9 201.3,268.7 204.1,268.5 206.8,268.4 228.5,268.3 233.9,268.3 247.5,268.2 250.2,268.1 252.9,268.0 263.8,267.9 266.5,267.5 269.2,267.2 271.9,266.4 274.6,266.2 293.7,266.2 301.8,266.1 307.2,266.0 309.9,266.0 312.7,265.6 315.4,265.6 318.1,265.5 320.8,265.3 323.5,265.1 334.4,264.8 339.8,264.7 350.7,264.6 353.4,264.3 356.1,264.2 358.8,264.1 364.3,264.0 367.0,262.7 369.7,261.4 372.4,260.9 375.1,260.6 377.8,260.4 380.5,260.1 383.3,259.6 386.0,259.3 388.7,259.1 391.4,259.0 396.8,258.8 399.5,258.3 402.3,257.7 405.0,257.2 407.7,256.9 413.1,256.7 418.6,256.7 421.3,256.2 424.0,255.9 426.7,254.9 429.4,254.4 432.1,253.9 434.8,253.3 437.6,252.7 440.3,252.1 443.0,251.5 445.7,250.7 448.4,250.1 451.1,249.5 453.9,249.1 456.6,248.6 459.3,248.1 462.0,247.8 464.7,247.5 467.4,247.2 470.1,247.0 472.9,246.9 478.3,246.8 481.0,245.5 483.7,244.6 486.4,244.4 489.2,244.3 494.6,244.2 497.3,244.0 508.2,243.9 513.6,243.8 521.7,243.7 524.5,242.2 527.2,240.7 529.9,240.3 532.6,239.1 535.3,238.2 538.0,237.6 540.7,237.3 543.5,236.7 546.2,236.4 548.9,236.3 551.6,236.0 554.3,235.9 570.6,234.8 573.3,233.5 576.0,233.3 578.8,233.1 581.5,233.0 600.5,232.9 624.9,231.5 627.6,230.5 630.3,229.2 633.1,227.4 635.8,227.0 638.5,226.4 641.2,225.4 643.9,224.6 646.6,222.8 649.4,220.1 652.1,217.5 654.8,214.5 657.5,211.3 660.2,208.5 662.9,206.8 665.6,204.7 668.4,201.7 671.1,199.1 673.8,197.3 676.5,195.5 679.2,193.0 681.9,191.4 684.6,189.8 687.4,188.4 690.1,187.4 692.8,186.0 695.5,185.1 698.2,184.2 700.9,183.4 703.7,181.0 706.4,179.1 709.1,178.0 711.8,177.7 714.5,177.1 717.2,176.1 719.9,175.2 722.7,173.6 725.4,172.6 728.1,171.7 730.8,171.6 733.5,171.2 736.2,170.4 739.0,168.5 741.7,165.4 744.4,162.1 747.1,158.9 749.8,156.2 752.5,153.1 755.2,149.8 758.0,146.4 760.7,143.3 763.4,141.0 766.1,139.2 768.8,137.2 771.5,135.2 774.3,133.8 777.0,132.2 779.7,131.0 782.4,129.3 785.1,127.0 787.8,124.2 790.5,121.9 793.3,119.8 796.0,118.5 798.7,117.3 801.4,116.1 804.1,114.8 806.8,112.5 809.5,110.6 812.3,108.3 815.0,105.9 817.7,103.9 820.4,102.3 823.1,101.6 825.8,100.7 828.6,99.8 831.3,99.6 834.0,99.5 836.7,99.0 839.4,98.8 842.1,98.8 844.8,98.4 847.6,98.3 855.7,98.2 858.4,98.2 861.1,97.8 863.9,95.0 866.6,92.7 869.3,90.7 872.0,90.0 872.0,272.0" fill="#e0f2fe" opacity="0.55"/>
<polyline points="52.0,271.9 54.7,271.8 87.3,271.1 90.0,270.9 92.7,270.9 100.9,270.8 117.2,270.7 152.5,270.7 155.2,270.1 157.9,270.0 166.0,269.9 168.8,269.8 171.5,269.7 174.2,269.5 179.6,269.5 182.3,269.1 190.5,268.9 201.3,268.7 204.1,268.5 206.8,268.4 228.5,268.3 233.9,268.3 247.5,268.2 250.2,268.1 252.9,268.0 263.8,267.9 266.5,267.5 269.2,267.2 271.9,266.4 274.6,266.2 293.7,266.2 301.8,266.1 307.2,266.0 309.9,266.0 312.7,265.6 315.4,265.6 318.1,265.5 320.8,265.3 323.5,265.1 334.4,264.8 339.8,264.7 350.7,264.6 353.4,264.3 356.1,264.2 358.8,264.1 364.3,264.0 367.0,262.7 369.7,261.4 372.4,260.9 375.1,260.6 377.8,260.4 380.5,260.1 383.3,259.6 386.0,259.3 388.7,259.1 391.4,259.0 396.8,258.8 399.5,258.3 402.3,257.7 405.0,257.2 407.7,256.9 413.1,256.7 418.6,256.7 421.3,256.2 424.0,255.9 426.7,254.9 429.4,254.4 432.1,253.9 434.8,253.3 437.6,252.7 440.3,252.1 443.0,251.5 445.7,250.7 448.4,250.1 451.1,249.5 453.9,249.1 456.6,248.6 459.3,248.1 462.0,247.8 464.7,247.5 467.4,247.2 470.1,247.0 472.9,246.9 478.3,246.8 481.0,245.5 483.7,244.6 486.4,244.4 489.2,244.3 494.6,244.2 497.3,244.0 508.2,243.9 513.6,243.8 521.7,243.7 524.5,242.2 527.2,240.7 529.9,240.3 532.6,239.1 535.3,238.2 538.0,237.6 540.7,237.3 543.5,236.7 546.2,236.4 548.9,236.3 551.6,236.0 554.3,235.9 570.6,234.8 573.3,233.5 576.0,233.3 578.8,233.1 581.5,233.0 600.5,232.9 624.9,231.5 627.6,230.5 630.3,229.2 633.1,227.4 635.8,227.0 638.5,226.4 641.2,225.4 643.9,224.6 646.6,222.8 649.4,220.1 652.1,217.5 654.8,214.5 657.5,211.3 660.2,208.5 662.9,206.8 665.6,204.7 668.4,201.7 671.1,199.1 673.8,197.3 676.5,195.5 679.2,193.0 681.9,191.4 684.6,189.8 687.4,188.4 690.1,187.4 692.8,186.0 695.5,185.1 698.2,184.2 700.9,183.4 703.7,181.0 706.4,179.1 709.1,178.0 711.8,177.7 714.5,177.1 717.2,176.1 719.9,175.2 722.7,173.6 725.4,172.6 728.1,171.7 730.8,171.6 733.5,171.2 736.2,170.4 739.0,168.5 741.7,165.4 744.4,162.1 747.1,158.9 749.8,156.2 752.5,153.1 755.2,149.8 758.0,146.4 760.7,143.3 763.4,141.0 766.1,139.2 768.8,137.2 771.5,135.2 774.3,133.8 777.0,132.2 779.7,131.0 782.4,129.3 785.1,127.0 787.8,124.2 790.5,121.9 793.3,119.8 796.0,118.5 798.7,117.3 801.4,116.1 804.1,114.8 806.8,112.5 809.5,110.6 812.3,108.3 815.0,105.9 817.7,103.9 820.4,102.3 823.1,101.6 825.8,100.7 828.6,99.8 831.3,99.6 834.0,99.5 836.7,99.0 839.4,98.8 842.1,98.8 844.8,98.4 847.6,98.3 855.7,98.2 858.4,98.2 861.1,97.8 863.9,95.0 866.6,92.7 869.3,90.7 872.0,90.0" fill="none" stroke="#38bdf8" stroke-width="2.5" stroke-linejoin="round" stroke-linecap="round"/>
<circle cx="872.0" cy="90.0" r="4" fill="#0ea5e9"/>
<text x="866.0" y="80.0" text-anchor="end" font-family="Inter, system-ui, sans-serif" font-size="13" font-weight="700" fill="#334155">2740</text>
<text x="52.0" y="294" text-anchor="middle" font-family="Inter, system-ui, sans-serif" font-size="11" fill="#94a3b8">Jun 10 05:00</text>
<text x="543.5" y="294" text-anchor="middle" font-family="Inter, system-ui, sans-serif" font-size="11" fill="#94a3b8">Jun 17 18:00</text>
<text x="872.0" y="294" text-anchor="middle" font-family="Inter, system-ui, sans-serif" font-size="11" fill="#94a3b8">Jun 22 19:00</text>
</svg>
