<svg xmlns="http://www.w3.org/2000/svg" width="900" height="320" viewBox="0 0 900 320" role="img" aria-labelledby="title desc">
<title id="title">Unsorry proofs over time</title>
<desc id="desc">Cumulative kernel-verified proofs over time, by the hour each proof was merged.</desc>
<rect width="900" height="100%" rx="18" fill="#ffffff"/>
<rect x="0.5" y="0.5" width="899" height="319" rx="18" fill="none" stroke="#e2e8f0"/>
<text x="32" y="44" font-family="Inter, system-ui, sans-serif" font-size="28" font-weight="700" fill="#334155">Unsorry — Proofs Over Time</text>
<text x="32" y="72" font-family="Inter, system-ui, sans-serif" font-size="13" fill="#64748b">2160 cumulative kernel-verified proofs · merged, hourly</text>
<line x1="52" y1="272.0" x2="872" y2="272.0" stroke="#f1f5f9"/>
<text x="44" y="276.0" text-anchor="end" font-family="Inter, system-ui, sans-serif" font-size="11" fill="#94a3b8">0</text>
<line x1="52" y1="226.5" x2="872" y2="226.5" stroke="#f1f5f9"/>
<text x="44" y="230.5" text-anchor="end" font-family="Inter, system-ui, sans-serif" font-size="11" fill="#94a3b8">540</text>
<line x1="52" y1="181.0" x2="872" y2="181.0" stroke="#f1f5f9"/>
<text x="44" y="185.0" text-anchor="end" font-family="Inter, system-ui, sans-serif" font-size="11" fill="#94a3b8">1080</text>
<line x1="52" y1="135.5" x2="872" y2="135.5" stroke="#f1f5f9"/>
<text x="44" y="139.5" text-anchor="end" font-family="Inter, system-ui, sans-serif" font-size="11" fill="#94a3b8">1620</text>
<line x1="52" y1="90.0" x2="872" y2="90.0" stroke="#f1f5f9"/>
<text x="44" y="94.0" text-anchor="end" font-family="Inter, system-ui, sans-serif" font-size="11" fill="#94a3b8">2160</text>
<polygon points="52.0,272.0 52.0,271.9 55.0,271.7 91.5,270.9 94.5,270.7 97.6,270.6 106.7,270.5 124.9,270.4 164.4,270.3 167.4,269.6 170.4,269.5 179.6,269.3 182.6,269.2 185.6,269.1 188.7,268.9 194.7,268.8 197.8,268.4 206.9,268.0 219.0,267.9 222.1,267.6 225.1,267.4 249.4,267.4 255.5,267.3 270.7,267.2 273.7,267.1 276.7,266.9 288.9,266.9 291.9,266.4 295.0,265.9 298.0,264.8 301.0,264.7 322.3,264.6 331.4,264.5 337.5,264.4 340.5,264.3 343.6,263.9 346.6,263.8 349.6,263.7 352.7,263.5 355.7,263.2 367.9,262.8 373.9,262.7 386.1,262.6 389.1,262.2 392.1,262.1 395.2,262.0 401.3,261.9 404.3,260.2 407.3,258.5 410.4,257.9 413.4,257.5 416.4,257.3 419.5,256.9 422.5,256.3 425.6,255.9 428.6,255.7 431.6,255.5 437.7,255.2 440.7,254.6 443.8,253.9 446.8,253.2 449.9,252.8 455.9,252.6 462.0,252.5 465.0,251.9 468.1,251.5 471.1,250.3 474.1,249.7 477.2,249.0 480.2,248.3 483.3,247.6 486.3,246.8 489.3,246.0 492.4,245.0 495.4,244.2 498.4,243.4 501.5,242.9 504.5,242.3 507.6,241.7 510.6,241.3 513.6,240.9 516.7,240.5 519.7,240.3 522.7,240.2 528.8,240.1 531.9,238.4 534.9,237.2 537.9,236.9 541.0,236.9 547.0,236.7 550.1,236.4 562.2,236.4 568.3,236.2 577.4,236.1 580.4,234.2 583.5,232.3 586.5,231.8 589.6,230.3 592.6,229.1 595.6,228.4 598.7,227.9 601.7,227.2 604.7,226.8 607.8,226.7 610.8,226.3 613.9,226.2 632.1,224.8 635.1,223.1 638.1,222.9 641.2,222.6 644.2,222.5 665.5,222.5 692.8,220.7 695.9,219.3 698.9,217.7 701.9,215.4 705.0,215.0 708.0,214.2 711.0,212.8 714.1,211.8 717.1,209.6 720.1,206.2 723.2,202.9 726.2,199.0 729.3,195.0 732.3,191.4 735.3,189.3 738.4,186.6 741.4,182.8 744.4,179.5 747.5,177.3 750.5,175.0 753.6,171.8 756.6,169.8 759.6,167.8 762.7,166.0 765.7,164.7 768.7,162.9 771.8,161.8 774.8,160.6 777.9,159.6 780.9,156.6 783.9,154.1 787.0,152.8 790.0,152.4 793.0,151.6 796.1,150.3 799.1,149.2 802.1,147.2 805.2,145.9 808.2,144.8 811.3,144.6 814.3,144.1 817.3,143.2 820.4,140.7 823.4,136.8 826.4,132.6 829.5,128.5 832.5,125.1 835.6,121.2 838.6,117.0 841.6,112.7 844.7,108.7 847.7,105.8 850.7,103.6 853.8,101.0 856.8,98.4 859.9,96.7 862.9,94.7 865.9,93.2 869.0,91.0 872.0,90.0 872.0,272.0" fill="#e0f2fe" opacity="0.55"/>
<polyline points="52.0,271.9 55.0,271.7 91.5,270.9 94.5,270.7 97.6,270.6 106.7,270.5 124.9,270.4 164.4,270.3 167.4,269.6 170.4,269.5 179.6,269.3 182.6,269.2 185.6,269.1 188.7,268.9 194.7,268.8 197.8,268.4 206.9,268.0 219.0,267.9 222.1,267.6 225.1,267.4 249.4,267.4 255.5,267.3 270.7,267.2 273.7,267.1 276.7,266.9 288.9,266.9 291.9,266.4 295.0,265.9 298.0,264.8 301.0,264.7 322.3,264.6 331.4,264.5 337.5,264.4 340.5,264.3 343.6,263.9 346.6,263.8 349.6,263.7 352.7,263.5 355.7,263.2 367.9,262.8 373.9,262.7 386.1,262.6 389.1,262.2 392.1,262.1 395.2,262.0 401.3,261.9 404.3,260.2 407.3,258.5 410.4,257.9 413.4,257.5 416.4,257.3 419.5,256.9 422.5,256.3 425.6,255.9 428.6,255.7 431.6,255.5 437.7,255.2 440.7,254.6 443.8,253.9 446.8,253.2 449.9,252.8 455.9,252.6 462.0,252.5 465.0,251.9 468.1,251.5 471.1,250.3 474.1,249.7 477.2,249.0 480.2,248.3 483.3,247.6 486.3,246.8 489.3,246.0 492.4,245.0 495.4,244.2 498.4,243.4 501.5,242.9 504.5,242.3 507.6,241.7 510.6,241.3 513.6,240.9 516.7,240.5 519.7,240.3 522.7,240.2 528.8,240.1 531.9,238.4 534.9,237.2 537.9,236.9 541.0,236.9 547.0,236.7 550.1,236.4 562.2,236.4 568.3,236.2 577.4,236.1 580.4,234.2 583.5,232.3 586.5,231.8 589.6,230.3 592.6,229.1 595.6,228.4 598.7,227.9 601.7,227.2 604.7,226.8 607.8,226.7 610.8,226.3 613.9,226.2 632.1,224.8 635.1,223.1 638.1,222.9 641.2,222.6 644.2,222.5 665.5,222.5 692.8,220.7 695.9,219.3 698.9,217.7 701.9,215.4 705.0,215.0 708.0,214.2 711.0,212.8 714.1,211.8 717.1,209.6 720.1,206.2 723.2,202.9 726.2,199.0 729.3,195.0 732.3,191.4 735.3,189.3 738.4,186.6 741.4,182.8 744.4,179.5 747.5,177.3 750.5,175.0 753.6,171.8 756.6,169.8 759.6,167.8 762.7,166.0 765.7,164.7 768.7,162.9 771.8,161.8 774.8,160.6 777.9,159.6 780.9,156.6 783.9,154.1 787.0,152.8 790.0,152.4 793.0,151.6 796.1,150.3 799.1,149.2 802.1,147.2 805.2,145.9 808.2,144.8 811.3,144.6 814.3,144.1 817.3,143.2 820.4,140.7 823.4,136.8 826.4,132.6 829.5,128.5 832.5,125.1 835.6,121.2 838.6,117.0 841.6,112.7 844.7,108.7 847.7,105.8 850.7,103.6 853.8,101.0 856.8,98.4 859.9,96.7 862.9,94.7 865.9,93.2 869.0,91.0 872.0,90.0" fill="none" stroke="#38bdf8" stroke-width="2.5" stroke-linejoin="round" stroke-linecap="round"/>
<circle cx="872.0" cy="90.0" r="4" fill="#0ea5e9"/>
<text x="866.0" y="80.0" text-anchor="end" font-family="Inter, system-ui, sans-serif" font-size="13" font-weight="700" fill="#334155">2160</text>
<text x="52.0" y="294" text-anchor="middle" font-family="Inter, system-ui, sans-serif" font-size="11" fill="#94a3b8">Jun 10 05:00</text>
<text x="534.9" y="294" text-anchor="middle" font-family="Inter, system-ui, sans-serif" font-size="11" fill="#94a3b8">Jun 16 20:00</text>
<text x="872.0" y="294" text-anchor="middle" font-family="Inter, system-ui, sans-serif" font-size="11" fill="#94a3b8">Jun 21 11:00</text>
</svg>
