<svg xmlns="http://www.w3.org/2000/svg" width="900" height="320" viewBox="0 0 900 320" role="img" aria-labelledby="title desc">
<title id="title">Unsorry proofs over time</title>
<desc id="desc">Cumulative kernel-verified proofs over time, by the hour each proof was merged.</desc>
<rect width="900" height="100%" rx="18" fill="#ffffff"/>
<rect x="0.5" y="0.5" width="899" height="319" rx="18" fill="none" stroke="#e2e8f0"/>
<text x="32" y="44" font-family="Inter, system-ui, sans-serif" font-size="28" font-weight="700" fill="#334155">Unsorry — Proofs Over Time</text>
<text x="32" y="72" font-family="Inter, system-ui, sans-serif" font-size="13" fill="#64748b">2594 cumulative kernel-verified proofs · merged, hourly</text>
<line x1="52" y1="272.0" x2="872" y2="272.0" stroke="#f1f5f9"/>
<text x="44" y="276.0" text-anchor="end" font-family="Inter, system-ui, sans-serif" font-size="11" fill="#94a3b8">0</text>
<line x1="52" y1="226.5" x2="872" y2="226.5" stroke="#f1f5f9"/>
<text x="44" y="230.5" text-anchor="end" font-family="Inter, system-ui, sans-serif" font-size="11" fill="#94a3b8">648</text>
<line x1="52" y1="181.0" x2="872" y2="181.0" stroke="#f1f5f9"/>
<text x="44" y="185.0" text-anchor="end" font-family="Inter, system-ui, sans-serif" font-size="11" fill="#94a3b8">1297</text>
<line x1="52" y1="135.5" x2="872" y2="135.5" stroke="#f1f5f9"/>
<text x="44" y="139.5" text-anchor="end" font-family="Inter, system-ui, sans-serif" font-size="11" fill="#94a3b8">1946</text>
<line x1="52" y1="90.0" x2="872" y2="90.0" stroke="#f1f5f9"/>
<text x="44" y="94.0" text-anchor="end" font-family="Inter, system-ui, sans-serif" font-size="11" fill="#94a3b8">2594</text>
<polygon points="52.0,272.0 52.0,271.9 54.9,271.8 89.1,271.1 92.0,270.9 94.9,270.8 103.4,270.7 120.6,270.7 157.7,270.6 160.6,270.0 163.4,269.9 172.0,269.8 174.9,269.7 177.7,269.6 180.6,269.4 186.3,269.3 189.1,269.0 197.7,268.7 209.1,268.6 212.0,268.4 214.9,268.2 237.7,268.1 243.4,268.1 257.7,268.0 260.6,267.9 263.4,267.8 274.9,267.7 277.7,267.3 280.6,266.9 283.4,266.0 286.3,265.9 306.3,265.8 314.9,265.8 320.6,265.7 323.4,265.6 326.3,265.3 329.1,265.2 332.0,265.1 334.9,264.9 337.7,264.7 349.1,264.4 354.9,264.3 366.3,264.2 369.1,263.9 372.0,263.8 374.9,263.7 380.6,263.6 383.4,262.2 386.3,260.8 389.1,260.3 392.0,259.9 394.9,259.8 397.7,259.4 400.6,258.9 403.4,258.6 406.3,258.4 409.1,258.2 414.9,258.0 417.7,257.5 420.6,256.9 423.4,256.4 426.3,256.0 432.0,255.9 437.7,255.8 440.6,255.3 443.4,255.0 446.3,254.0 449.1,253.4 452.0,252.8 454.9,252.3 457.7,251.7 460.6,251.0 463.4,250.3 466.3,249.5 469.1,248.8 472.0,248.2 474.9,247.8 477.7,247.3 480.6,246.7 483.4,246.5 486.3,246.1 489.1,245.8 492.0,245.6 494.9,245.5 500.6,245.4 503.4,244.0 506.3,243.0 509.1,242.8 512.0,242.7 517.7,242.6 520.6,242.4 532.0,242.3 537.7,242.2 546.3,242.1 549.1,240.5 552.0,239.0 554.9,238.5 557.7,237.3 560.6,236.3 563.4,235.7 566.3,235.3 569.1,234.7 572.0,234.4 574.9,234.3 577.7,234.0 580.6,233.8 597.7,232.7 600.6,231.3 603.4,231.1 606.3,230.9 609.1,230.8 629.1,230.7 654.9,229.3 657.7,228.1 660.6,226.8 663.4,224.9 666.3,224.5 669.1,223.9 672.0,222.7 674.9,221.9 677.7,220.0 680.6,217.2 683.4,214.5 686.3,211.2 689.1,207.9 692.0,204.9 694.9,203.1 697.7,200.9 700.6,197.7 703.4,195.0 706.3,193.1 709.1,191.2 712.0,188.6 714.9,186.9 717.7,185.2 720.6,183.7 723.4,182.6 726.3,181.1 729.1,180.2 732.0,179.2 734.9,178.4 737.7,175.9 740.6,173.8 743.4,172.7 746.3,172.4 749.1,171.7 752.0,170.7 754.9,169.8 757.7,168.1 760.6,167.0 763.4,166.1 766.3,165.9 769.1,165.5 772.0,164.7 774.9,162.7 777.7,159.4 780.6,156.0 783.4,152.5 786.3,149.7 789.1,146.4 792.0,142.9 794.9,139.3 797.7,136.0 800.6,133.6 803.4,131.7 806.3,129.6 809.1,127.5 812.0,126.1 814.9,124.4 817.7,123.1 820.6,121.3 823.4,118.8 826.3,115.9 829.1,113.4 832.0,111.3 834.9,109.9 837.7,108.6 840.6,107.3 843.4,105.9 846.3,103.5 849.1,101.5 852.0,99.1 854.9,96.5 857.7,94.4 860.6,92.7 863.4,92.0 866.3,91.1 869.1,90.1 872.0,90.0 872.0,272.0" fill="#e0f2fe" opacity="0.55"/>
<polyline points="52.0,271.9 54.9,271.8 89.1,271.1 92.0,270.9 94.9,270.8 103.4,270.7 120.6,270.7 157.7,270.6 160.6,270.0 163.4,269.9 172.0,269.8 174.9,269.7 177.7,269.6 180.6,269.4 186.3,269.3 189.1,269.0 197.7,268.7 209.1,268.6 212.0,268.4 214.9,268.2 237.7,268.1 243.4,268.1 257.7,268.0 260.6,267.9 263.4,267.8 274.9,267.7 277.7,267.3 280.6,266.9 283.4,266.0 286.3,265.9 306.3,265.8 314.9,265.8 320.6,265.7 323.4,265.6 326.3,265.3 329.1,265.2 332.0,265.1 334.9,264.9 337.7,264.7 349.1,264.4 354.9,264.3 366.3,264.2 369.1,263.9 372.0,263.8 374.9,263.7 380.6,263.6 383.4,262.2 386.3,260.8 389.1,260.3 392.0,259.9 394.9,259.8 397.7,259.4 400.6,258.9 403.4,258.6 406.3,258.4 409.1,258.2 414.9,258.0 417.7,257.5 420.6,256.9 423.4,256.4 426.3,256.0 432.0,255.9 437.7,255.8 440.6,255.3 443.4,255.0 446.3,254.0 449.1,253.4 452.0,252.8 454.9,252.3 457.7,251.7 460.6,251.0 463.4,250.3 466.3,249.5 469.1,248.8 472.0,248.2 474.9,247.8 477.7,247.3 480.6,246.7 483.4,246.5 486.3,246.1 489.1,245.8 492.0,245.6 494.9,245.5 500.6,245.4 503.4,244.0 506.3,243.0 509.1,242.8 512.0,242.7 517.7,242.6 520.6,242.4 532.0,242.3 537.7,242.2 546.3,242.1 549.1,240.5 552.0,239.0 554.9,238.5 557.7,237.3 560.6,236.3 563.4,235.7 566.3,235.3 569.1,234.7 572.0,234.4 574.9,234.3 577.7,234.0 580.6,233.8 597.7,232.7 600.6,231.3 603.4,231.1 606.3,230.9 609.1,230.8 629.1,230.7 654.9,229.3 657.7,228.1 660.6,226.8 663.4,224.9 666.3,224.5 669.1,223.9 672.0,222.7 674.9,221.9 677.7,220.0 680.6,217.2 683.4,214.5 686.3,211.2 689.1,207.9 692.0,204.9 694.9,203.1 697.7,200.9 700.6,197.7 703.4,195.0 706.3,193.1 709.1,191.2 712.0,188.6 714.9,186.9 717.7,185.2 720.6,183.7 723.4,182.6 726.3,181.1 729.1,180.2 732.0,179.2 734.9,178.4 737.7,175.9 740.6,173.8 743.4,172.7 746.3,172.4 749.1,171.7 752.0,170.7 754.9,169.8 757.7,168.1 760.6,167.0 763.4,166.1 766.3,165.9 769.1,165.5 772.0,164.7 774.9,162.7 777.7,159.4 780.6,156.0 783.4,152.5 786.3,149.7 789.1,146.4 792.0,142.9 794.9,139.3 797.7,136.0 800.6,133.6 803.4,131.7 806.3,129.6 809.1,127.5 812.0,126.1 814.9,124.4 817.7,123.1 820.6,121.3 823.4,118.8 826.3,115.9 829.1,113.4 832.0,111.3 834.9,109.9 837.7,108.6 840.6,107.3 843.4,105.9 846.3,103.5 849.1,101.5 852.0,99.1 854.9,96.5 857.7,94.4 860.6,92.7 863.4,92.0 866.3,91.1 869.1,90.1 872.0,90.0" fill="none" stroke="#38bdf8" stroke-width="2.5" stroke-linejoin="round" stroke-linecap="round"/>
<circle cx="872.0" cy="90.0" r="4" fill="#0ea5e9"/>
<text x="866.0" y="80.0" text-anchor="end" font-family="Inter, system-ui, sans-serif" font-size="13" font-weight="700" fill="#334155">2594</text>
<text x="52.0" y="294" text-anchor="middle" font-family="Inter, system-ui, sans-serif" font-size="11" fill="#94a3b8">Jun 10 05:00</text>
<text x="552.0" y="294" text-anchor="middle" font-family="Inter, system-ui, sans-serif" font-size="11" fill="#94a3b8">Jun 17 12:00</text>
<text x="872.0" y="294" text-anchor="middle" font-family="Inter, system-ui, sans-serif" font-size="11" fill="#94a3b8">Jun 22 04:00</text>
</svg>
