<svg xmlns="http://www.w3.org/2000/svg" width="900" height="320" viewBox="0 0 900 320" role="img" aria-labelledby="title desc">
<title id="title">Unsorry proofs over time</title>
<desc id="desc">Cumulative kernel-verified proofs over time, by the hour each proof was merged.</desc>
<rect width="900" height="100%" rx="18" fill="#ffffff"/>
<rect x="0.5" y="0.5" width="899" height="319" rx="18" fill="none" stroke="#e2e8f0"/>
<text x="32" y="44" font-family="Inter, system-ui, sans-serif" font-size="28" font-weight="700" fill="#334155">Unsorry — Proofs Over Time</text>
<text x="32" y="72" font-family="Inter, system-ui, sans-serif" font-size="13" fill="#64748b">2040 cumulative kernel-verified proofs · merged, hourly</text>
<line x1="52" y1="272.0" x2="872" y2="272.0" stroke="#f1f5f9"/>
<text x="44" y="276.0" text-anchor="end" font-family="Inter, system-ui, sans-serif" font-size="11" fill="#94a3b8">0</text>
<line x1="52" y1="226.5" x2="872" y2="226.5" stroke="#f1f5f9"/>
<text x="44" y="230.5" text-anchor="end" font-family="Inter, system-ui, sans-serif" font-size="11" fill="#94a3b8">510</text>
<line x1="52" y1="181.0" x2="872" y2="181.0" stroke="#f1f5f9"/>
<text x="44" y="185.0" text-anchor="end" font-family="Inter, system-ui, sans-serif" font-size="11" fill="#94a3b8">1020</text>
<line x1="52" y1="135.5" x2="872" y2="135.5" stroke="#f1f5f9"/>
<text x="44" y="139.5" text-anchor="end" font-family="Inter, system-ui, sans-serif" font-size="11" fill="#94a3b8">1530</text>
<line x1="52" y1="90.0" x2="872" y2="90.0" stroke="#f1f5f9"/>
<text x="44" y="94.0" text-anchor="end" font-family="Inter, system-ui, sans-serif" font-size="11" fill="#94a3b8">2040</text>
<polygon points="52.0,272.0 52.0,271.9 55.1,271.7 92.2,270.8 95.3,270.6 98.4,270.5 107.7,270.4 126.3,270.3 166.5,270.2 169.6,269.4 172.7,269.3 182.0,269.1 185.1,269.1 188.2,269.0 191.2,268.7 197.4,268.6 200.5,268.2 209.8,267.8 222.2,267.6 225.3,267.4 228.4,267.2 253.1,267.1 259.3,267.0 274.8,266.9 277.9,266.8 281.0,266.6 293.4,266.6 296.5,266.0 299.5,265.6 302.6,264.4 305.7,264.2 327.4,264.1 336.7,264.1 342.9,264.0 346.0,263.9 349.1,263.4 352.2,263.3 355.2,263.3 358.3,263.0 361.4,262.7 373.8,262.3 380.0,262.2 392.4,262.1 395.5,261.7 398.6,261.6 401.7,261.4 407.8,261.3 410.9,259.5 414.0,257.7 417.1,257.1 420.2,256.7 423.3,256.5 426.4,256.0 429.5,255.4 432.6,255.0 435.7,254.7 438.8,254.5 445.0,254.2 448.1,253.5 451.2,252.8 454.3,252.1 457.4,251.7 463.5,251.5 469.7,251.4 472.8,250.8 475.9,250.3 479.0,249.1 482.1,248.4 485.2,247.6 488.3,246.9 491.4,246.1 494.5,245.3 497.6,244.4 500.7,243.5 503.8,242.6 506.9,241.8 510.0,241.2 513.1,240.6 516.2,239.9 519.2,239.5 522.3,239.1 525.4,238.6 528.5,238.5 531.6,238.3 537.8,238.2 540.9,236.4 544.0,235.2 547.1,234.9 550.2,234.8 556.4,234.6 559.5,234.4 571.8,234.3 578.0,234.1 587.3,234.0 590.4,231.9 593.5,230.0 596.6,229.4 599.7,227.8 602.8,226.6 605.9,225.8 609.0,225.3 612.1,224.5 615.2,224.2 618.3,224.0 621.4,223.6 624.5,223.5 643.0,222.0 646.1,220.3 649.2,220.0 652.3,219.7 655.4,219.6 677.1,219.5 704.9,217.7 708.0,216.2 711.1,214.5 714.2,212.0 717.3,211.6 720.4,210.8 723.5,209.4 726.6,208.3 729.7,205.9 732.8,202.3 735.8,198.8 738.9,194.7 742.0,190.5 745.1,186.7 748.2,184.4 751.3,181.6 754.4,177.5 757.5,174.0 760.6,171.7 763.7,169.3 766.8,165.9 769.9,163.8 773.0,161.6 776.1,159.8 779.2,158.3 782.3,156.5 785.4,155.3 788.5,154.1 791.5,153.0 794.6,149.8 797.7,147.2 800.8,145.8 803.9,145.3 807.0,144.5 810.1,143.2 813.2,142.0 816.3,139.9 819.4,138.5 822.5,137.3 825.6,137.1 828.7,136.6 831.8,135.6 834.9,133.0 838.0,128.8 841.1,124.4 844.2,120.1 847.2,116.5 850.3,112.3 853.4,107.8 856.5,103.3 859.6,99.1 862.7,96.1 865.8,93.7 868.9,90.9 872.0,90.0 872.0,272.0" fill="#e0f2fe" opacity="0.55"/>
<polyline points="52.0,271.9 55.1,271.7 92.2,270.8 95.3,270.6 98.4,270.5 107.7,270.4 126.3,270.3 166.5,270.2 169.6,269.4 172.7,269.3 182.0,269.1 185.1,269.1 188.2,269.0 191.2,268.7 197.4,268.6 200.5,268.2 209.8,267.8 222.2,267.6 225.3,267.4 228.4,267.2 253.1,267.1 259.3,267.0 274.8,266.9 277.9,266.8 281.0,266.6 293.4,266.6 296.5,266.0 299.5,265.6 302.6,264.4 305.7,264.2 327.4,264.1 336.7,264.1 342.9,264.0 346.0,263.9 349.1,263.4 352.2,263.3 355.2,263.3 358.3,263.0 361.4,262.7 373.8,262.3 380.0,262.2 392.4,262.1 395.5,261.7 398.6,261.6 401.7,261.4 407.8,261.3 410.9,259.5 414.0,257.7 417.1,257.1 420.2,256.7 423.3,256.5 426.4,256.0 429.5,255.4 432.6,255.0 435.7,254.7 438.8,254.5 445.0,254.2 448.1,253.5 451.2,252.8 454.3,252.1 457.4,251.7 463.5,251.5 469.7,251.4 472.8,250.8 475.9,250.3 479.0,249.1 482.1,248.4 485.2,247.6 488.3,246.9 491.4,246.1 494.5,245.3 497.6,244.4 500.7,243.5 503.8,242.6 506.9,241.8 510.0,241.2 513.1,240.6 516.2,239.9 519.2,239.5 522.3,239.1 525.4,238.6 528.5,238.5 531.6,238.3 537.8,238.2 540.9,236.4 544.0,235.2 547.1,234.9 550.2,234.8 556.4,234.6 559.5,234.4 571.8,234.3 578.0,234.1 587.3,234.0 590.4,231.9 593.5,230.0 596.6,229.4 599.7,227.8 602.8,226.6 605.9,225.8 609.0,225.3 612.1,224.5 615.2,224.2 618.3,224.0 621.4,223.6 624.5,223.5 643.0,222.0 646.1,220.3 649.2,220.0 652.3,219.7 655.4,219.6 677.1,219.5 704.9,217.7 708.0,216.2 711.1,214.5 714.2,212.0 717.3,211.6 720.4,210.8 723.5,209.4 726.6,208.3 729.7,205.9 732.8,202.3 735.8,198.8 738.9,194.7 742.0,190.5 745.1,186.7 748.2,184.4 751.3,181.6 754.4,177.5 757.5,174.0 760.6,171.7 763.7,169.3 766.8,165.9 769.9,163.8 773.0,161.6 776.1,159.8 779.2,158.3 782.3,156.5 785.4,155.3 788.5,154.1 791.5,153.0 794.6,149.8 797.7,147.2 800.8,145.8 803.9,145.3 807.0,144.5 810.1,143.2 813.2,142.0 816.3,139.9 819.4,138.5 822.5,137.3 825.6,137.1 828.7,136.6 831.8,135.6 834.9,133.0 838.0,128.8 841.1,124.4 844.2,120.1 847.2,116.5 850.3,112.3 853.4,107.8 856.5,103.3 859.6,99.1 862.7,96.1 865.8,93.7 868.9,90.9 872.0,90.0" fill="none" stroke="#38bdf8" stroke-width="2.5" stroke-linejoin="round" stroke-linecap="round"/>
<circle cx="872.0" cy="90.0" r="4" fill="#0ea5e9"/>
<text x="866.0" y="80.0" text-anchor="end" font-family="Inter, system-ui, sans-serif" font-size="13" font-weight="700" fill="#334155">2040</text>
<text x="52.0" y="294" text-anchor="middle" font-family="Inter, system-ui, sans-serif" font-size="11" fill="#94a3b8">Jun 10 05:00</text>
<text x="537.8" y="294" text-anchor="middle" font-family="Inter, system-ui, sans-serif" font-size="11" fill="#94a3b8">Jun 16 18:00</text>
<text x="872.0" y="294" text-anchor="middle" font-family="Inter, system-ui, sans-serif" font-size="11" fill="#94a3b8">Jun 21 06:00</text>
</svg>
