<svg xmlns="http://www.w3.org/2000/svg" width="900" height="320" viewBox="0 0 900 320" role="img" aria-labelledby="title desc">
<title id="title">Unsorry proofs over time</title>
<desc id="desc">Cumulative kernel-verified proofs over time, by the hour each proof was merged.</desc>
<rect width="900" height="100%" rx="18" fill="#ffffff"/>
<rect x="0.5" y="0.5" width="899" height="319" rx="18" fill="none" stroke="#e2e8f0"/>
<text x="32" y="44" font-family="Inter, system-ui, sans-serif" font-size="28" font-weight="700" fill="#334155">Unsorry — Proofs Over Time</text>
<text x="32" y="72" font-family="Inter, system-ui, sans-serif" font-size="13" fill="#64748b">2135 cumulative kernel-verified proofs · merged, hourly</text>
<line x1="52" y1="272.0" x2="872" y2="272.0" stroke="#f1f5f9"/>
<text x="44" y="276.0" text-anchor="end" font-family="Inter, system-ui, sans-serif" font-size="11" fill="#94a3b8">0</text>
<line x1="52" y1="226.5" x2="872" y2="226.5" stroke="#f1f5f9"/>
<text x="44" y="230.5" text-anchor="end" font-family="Inter, system-ui, sans-serif" font-size="11" fill="#94a3b8">534</text>
<line x1="52" y1="181.0" x2="872" y2="181.0" stroke="#f1f5f9"/>
<text x="44" y="185.0" text-anchor="end" font-family="Inter, system-ui, sans-serif" font-size="11" fill="#94a3b8">1068</text>
<line x1="52" y1="135.5" x2="872" y2="135.5" stroke="#f1f5f9"/>
<text x="44" y="139.5" text-anchor="end" font-family="Inter, system-ui, sans-serif" font-size="11" fill="#94a3b8">1601</text>
<line x1="52" y1="90.0" x2="872" y2="90.0" stroke="#f1f5f9"/>
<text x="44" y="94.0" text-anchor="end" font-family="Inter, system-ui, sans-serif" font-size="11" fill="#94a3b8">2135</text>
<polygon points="52.0,272.0 52.0,271.9 55.0,271.7 91.6,270.9 94.7,270.6 97.7,270.6 106.9,270.5 125.2,270.4 164.8,270.3 167.8,269.5 170.9,269.4 180.0,269.3 183.1,269.2 186.1,269.1 189.2,268.8 195.3,268.8 198.3,268.3 207.5,268.0 219.7,267.8 222.7,267.6 225.8,267.4 250.1,267.3 256.2,267.2 271.5,267.1 274.5,267.1 277.6,266.9 289.8,266.8 292.8,266.3 295.9,265.9 298.9,264.8 302.0,264.6 323.3,264.5 332.4,264.4 338.5,264.3 341.6,264.2 344.6,263.8 347.7,263.7 350.7,263.6 353.8,263.4 356.8,263.1 369.0,262.7 375.1,262.6 387.3,262.5 390.4,262.1 393.4,262.0 396.5,261.9 402.6,261.8 405.6,260.1 408.7,258.4 411.7,257.8 414.8,257.3 417.8,257.2 420.8,256.7 423.9,256.1 426.9,255.7 430.0,255.5 433.0,255.3 439.1,255.0 442.2,254.4 445.2,253.7 448.3,253.0 451.3,252.6 457.4,252.4 463.5,252.3 466.6,251.7 469.6,251.3 472.7,250.1 475.7,249.4 478.8,248.7 481.8,248.0 484.9,247.3 487.9,246.5 491.0,245.7 494.0,244.7 497.1,243.9 500.1,243.1 503.2,242.6 506.2,242.0 509.2,241.3 512.3,241.0 515.3,240.5 518.4,240.1 521.4,239.9 524.5,239.8 530.6,239.7 533.6,238.0 536.7,236.8 539.7,236.5 542.8,236.5 548.9,236.3 551.9,236.0 564.1,235.9 570.2,235.8 579.4,235.7 582.4,233.7 585.5,231.8 588.5,231.3 591.6,229.8 594.6,228.6 597.7,227.8 600.7,227.4 603.7,226.6 606.8,226.3 609.8,226.1 612.9,225.8 615.9,225.6 634.2,224.3 637.3,222.6 640.3,222.3 643.4,222.0 646.4,222.0 667.8,221.9 695.2,220.1 698.2,218.7 701.3,217.1 704.3,214.7 707.4,214.3 710.4,213.5 713.5,212.2 716.5,211.1 719.6,208.8 722.6,205.4 725.7,202.1 728.7,198.2 731.8,194.1 734.8,190.5 737.9,188.3 740.9,185.6 744.0,181.7 747.0,178.4 750.1,176.2 753.1,173.9 756.2,170.6 759.2,168.6 762.3,166.6 765.3,164.8 768.4,163.4 771.4,161.6 774.5,160.5 777.5,159.3 780.6,158.3 783.6,155.2 786.6,152.7 789.7,151.4 792.7,151.0 795.8,150.2 798.8,148.9 801.9,147.8 804.9,145.8 808.0,144.5 811.0,143.3 814.1,143.1 817.1,142.6 820.2,141.7 823.2,139.2 826.3,135.2 829.3,131.0 832.4,126.8 835.4,123.4 838.5,119.4 841.5,115.1 844.6,110.8 847.6,106.8 850.7,103.9 853.7,101.6 856.8,99.0 859.8,96.4 862.9,94.7 865.9,92.6 869.0,91.1 872.0,90.0 872.0,272.0" fill="#e0f2fe" opacity="0.55"/>
<polyline points="52.0,271.9 55.0,271.7 91.6,270.9 94.7,270.6 97.7,270.6 106.9,270.5 125.2,270.4 164.8,270.3 167.8,269.5 170.9,269.4 180.0,269.3 183.1,269.2 186.1,269.1 189.2,268.8 195.3,268.8 198.3,268.3 207.5,268.0 219.7,267.8 222.7,267.6 225.8,267.4 250.1,267.3 256.2,267.2 271.5,267.1 274.5,267.1 277.6,266.9 289.8,266.8 292.8,266.3 295.9,265.9 298.9,264.8 302.0,264.6 323.3,264.5 332.4,264.4 338.5,264.3 341.6,264.2 344.6,263.8 347.7,263.7 350.7,263.6 353.8,263.4 356.8,263.1 369.0,262.7 375.1,262.6 387.3,262.5 390.4,262.1 393.4,262.0 396.5,261.9 402.6,261.8 405.6,260.1 408.7,258.4 411.7,257.8 414.8,257.3 417.8,257.2 420.8,256.7 423.9,256.1 426.9,255.7 430.0,255.5 433.0,255.3 439.1,255.0 442.2,254.4 445.2,253.7 448.3,253.0 451.3,252.6 457.4,252.4 463.5,252.3 466.6,251.7 469.6,251.3 472.7,250.1 475.7,249.4 478.8,248.7 481.8,248.0 484.9,247.3 487.9,246.5 491.0,245.7 494.0,244.7 497.1,243.9 500.1,243.1 503.2,242.6 506.2,242.0 509.2,241.3 512.3,241.0 515.3,240.5 518.4,240.1 521.4,239.9 524.5,239.8 530.6,239.7 533.6,238.0 536.7,236.8 539.7,236.5 542.8,236.5 548.9,236.3 551.9,236.0 564.1,235.9 570.2,235.8 579.4,235.7 582.4,233.7 585.5,231.8 588.5,231.3 591.6,229.8 594.6,228.6 597.7,227.8 600.7,227.4 603.7,226.6 606.8,226.3 609.8,226.1 612.9,225.8 615.9,225.6 634.2,224.3 637.3,222.6 640.3,222.3 643.4,222.0 646.4,222.0 667.8,221.9 695.2,220.1 698.2,218.7 701.3,217.1 704.3,214.7 707.4,214.3 710.4,213.5 713.5,212.2 716.5,211.1 719.6,208.8 722.6,205.4 725.7,202.1 728.7,198.2 731.8,194.1 734.8,190.5 737.9,188.3 740.9,185.6 744.0,181.7 747.0,178.4 750.1,176.2 753.1,173.9 756.2,170.6 759.2,168.6 762.3,166.6 765.3,164.8 768.4,163.4 771.4,161.6 774.5,160.5 777.5,159.3 780.6,158.3 783.6,155.2 786.6,152.7 789.7,151.4 792.7,151.0 795.8,150.2 798.8,148.9 801.9,147.8 804.9,145.8 808.0,144.5 811.0,143.3 814.1,143.1 817.1,142.6 820.2,141.7 823.2,139.2 826.3,135.2 829.3,131.0 832.4,126.8 835.4,123.4 838.5,119.4 841.5,115.1 844.6,110.8 847.6,106.8 850.7,103.9 853.7,101.6 856.8,99.0 859.8,96.4 862.9,94.7 865.9,92.6 869.0,91.1 872.0,90.0" fill="none" stroke="#38bdf8" stroke-width="2.5" stroke-linejoin="round" stroke-linecap="round"/>
<circle cx="872.0" cy="90.0" r="4" fill="#0ea5e9"/>
<text x="866.0" y="80.0" text-anchor="end" font-family="Inter, system-ui, sans-serif" font-size="13" font-weight="700" fill="#334155">2135</text>
<text x="52.0" y="294" text-anchor="middle" font-family="Inter, system-ui, sans-serif" font-size="11" fill="#94a3b8">Jun 10 05:00</text>
<text x="536.7" y="294" text-anchor="middle" font-family="Inter, system-ui, sans-serif" font-size="11" fill="#94a3b8">Jun 16 20:00</text>
<text x="872.0" y="294" text-anchor="middle" font-family="Inter, system-ui, sans-serif" font-size="11" fill="#94a3b8">Jun 21 10:00</text>
</svg>
