<svg xmlns="http://www.w3.org/2000/svg" width="900" height="320" viewBox="0 0 900 320" role="img" aria-labelledby="title desc">
<title id="title">Unsorry proofs over time</title>
<desc id="desc">Cumulative kernel-verified proofs over time, by the hour each proof was merged.</desc>
<rect width="900" height="100%" rx="18" fill="#ffffff"/>
<rect x="0.5" y="0.5" width="899" height="319" rx="18" fill="none" stroke="#e2e8f0"/>
<text x="32" y="44" font-family="Inter, system-ui, sans-serif" font-size="28" font-weight="700" fill="#334155">Unsorry — Proofs Over Time</text>
<text x="32" y="72" font-family="Inter, system-ui, sans-serif" font-size="13" fill="#64748b">2000 cumulative kernel-verified proofs · merged, hourly</text>
<line x1="52" y1="272.0" x2="872" y2="272.0" stroke="#f1f5f9"/>
<text x="44" y="276.0" text-anchor="end" font-family="Inter, system-ui, sans-serif" font-size="11" fill="#94a3b8">0</text>
<line x1="52" y1="226.5" x2="872" y2="226.5" stroke="#f1f5f9"/>
<text x="44" y="230.5" text-anchor="end" font-family="Inter, system-ui, sans-serif" font-size="11" fill="#94a3b8">500</text>
<line x1="52" y1="181.0" x2="872" y2="181.0" stroke="#f1f5f9"/>
<text x="44" y="185.0" text-anchor="end" font-family="Inter, system-ui, sans-serif" font-size="11" fill="#94a3b8">1000</text>
<line x1="52" y1="135.5" x2="872" y2="135.5" stroke="#f1f5f9"/>
<text x="44" y="139.5" text-anchor="end" font-family="Inter, system-ui, sans-serif" font-size="11" fill="#94a3b8">1500</text>
<line x1="52" y1="90.0" x2="872" y2="90.0" stroke="#f1f5f9"/>
<text x="44" y="94.0" text-anchor="end" font-family="Inter, system-ui, sans-serif" font-size="11" fill="#94a3b8">2000</text>
<polygon points="52.0,272.0 52.0,271.9 55.1,271.7 92.4,270.8 95.5,270.5 98.6,270.5 107.9,270.4 126.5,270.3 166.9,270.2 170.0,269.4 173.1,269.3 182.5,269.1 185.6,269.0 188.7,268.9 191.8,268.6 198.0,268.5 201.1,268.1 210.4,267.7 222.8,267.5 225.9,267.3 229.0,267.1 253.9,267.0 260.1,266.9 275.6,266.8 278.7,266.7 281.8,266.5 294.3,266.4 297.4,265.9 300.5,265.4 303.6,264.3 306.7,264.1 328.4,264.0 337.8,263.9 344.0,263.8 347.1,263.7 350.2,263.3 353.3,263.2 356.4,263.1 359.5,262.8 362.6,262.5 375.0,262.1 381.2,262.0 393.7,261.9 396.8,261.4 399.9,261.4 403.0,261.2 409.2,261.1 412.3,259.3 415.4,257.4 418.5,256.8 421.6,256.3 424.7,256.2 427.8,255.7 430.9,255.1 434.0,254.6 437.2,254.3 440.3,254.2 446.5,253.9 449.6,253.2 452.7,252.4 455.8,251.7 458.9,251.3 465.1,251.1 471.3,251.0 474.4,250.3 477.5,249.9 480.6,248.6 483.7,247.9 486.8,247.2 490.0,246.4 493.1,245.6 496.2,244.8 499.3,243.9 502.4,242.9 505.5,242.0 508.6,241.2 511.7,240.6 514.8,240.0 517.9,239.2 521.0,238.9 524.1,238.4 527.2,238.0 530.3,237.8 533.4,237.6 539.7,237.5 542.8,235.7 545.9,234.4 549.0,234.1 552.1,234.1 558.3,233.9 561.4,233.6 573.8,233.5 580.0,233.3 589.3,233.2 592.5,231.1 595.6,229.1 598.7,228.6 601.8,227.0 604.9,225.7 608.0,224.9 611.1,224.4 614.2,223.6 617.3,223.2 620.4,223.0 623.5,222.7 626.6,222.5 645.3,221.0 648.4,219.2 651.5,218.9 654.6,218.7 657.7,218.6 679.4,218.5 707.4,216.6 710.5,215.1 713.6,213.4 716.7,210.8 719.8,210.4 722.9,209.6 726.0,208.1 729.1,207.0 732.2,204.6 735.3,200.9 738.4,197.4 741.5,193.2 744.7,188.8 747.8,185.0 750.9,182.6 754.0,179.8 757.1,175.6 760.2,172.1 763.3,169.7 766.4,167.3 769.5,163.8 772.6,161.6 775.7,159.4 778.8,157.5 781.9,156.1 785.0,154.2 788.1,153.0 791.2,151.7 794.3,150.6 797.5,147.3 800.6,144.7 803.7,143.2 806.8,142.8 809.9,142.0 813.0,140.6 816.1,139.4 819.2,137.2 822.3,135.9 825.4,134.6 828.5,134.4 831.6,133.9 834.7,132.9 837.8,130.2 840.9,125.9 844.0,121.5 847.2,117.0 850.3,113.4 853.4,109.1 856.5,104.6 859.6,99.9 862.7,95.6 865.8,92.5 868.9,90.1 872.0,90.0 872.0,272.0" fill="#e0f2fe" opacity="0.55"/>
<polyline points="52.0,271.9 55.1,271.7 92.4,270.8 95.5,270.5 98.6,270.5 107.9,270.4 126.5,270.3 166.9,270.2 170.0,269.4 173.1,269.3 182.5,269.1 185.6,269.0 188.7,268.9 191.8,268.6 198.0,268.5 201.1,268.1 210.4,267.7 222.8,267.5 225.9,267.3 229.0,267.1 253.9,267.0 260.1,266.9 275.6,266.8 278.7,266.7 281.8,266.5 294.3,266.4 297.4,265.9 300.5,265.4 303.6,264.3 306.7,264.1 328.4,264.0 337.8,263.9 344.0,263.8 347.1,263.7 350.2,263.3 353.3,263.2 356.4,263.1 359.5,262.8 362.6,262.5 375.0,262.1 381.2,262.0 393.7,261.9 396.8,261.4 399.9,261.4 403.0,261.2 409.2,261.1 412.3,259.3 415.4,257.4 418.5,256.8 421.6,256.3 424.7,256.2 427.8,255.7 430.9,255.1 434.0,254.6 437.2,254.3 440.3,254.2 446.5,253.9 449.6,253.2 452.7,252.4 455.8,251.7 458.9,251.3 465.1,251.1 471.3,251.0 474.4,250.3 477.5,249.9 480.6,248.6 483.7,247.9 486.8,247.2 490.0,246.4 493.1,245.6 496.2,244.8 499.3,243.9 502.4,242.9 505.5,242.0 508.6,241.2 511.7,240.6 514.8,240.0 517.9,239.2 521.0,238.9 524.1,238.4 527.2,238.0 530.3,237.8 533.4,237.6 539.7,237.5 542.8,235.7 545.9,234.4 549.0,234.1 552.1,234.1 558.3,233.9 561.4,233.6 573.8,233.5 580.0,233.3 589.3,233.2 592.5,231.1 595.6,229.1 598.7,228.6 601.8,227.0 604.9,225.7 608.0,224.9 611.1,224.4 614.2,223.6 617.3,223.2 620.4,223.0 623.5,222.7 626.6,222.5 645.3,221.0 648.4,219.2 651.5,218.9 654.6,218.7 657.7,218.6 679.4,218.5 707.4,216.6 710.5,215.1 713.6,213.4 716.7,210.8 719.8,210.4 722.9,209.6 726.0,208.1 729.1,207.0 732.2,204.6 735.3,200.9 738.4,197.4 741.5,193.2 744.7,188.8 747.8,185.0 750.9,182.6 754.0,179.8 757.1,175.6 760.2,172.1 763.3,169.7 766.4,167.3 769.5,163.8 772.6,161.6 775.7,159.4 778.8,157.5 781.9,156.1 785.0,154.2 788.1,153.0 791.2,151.7 794.3,150.6 797.5,147.3 800.6,144.7 803.7,143.2 806.8,142.8 809.9,142.0 813.0,140.6 816.1,139.4 819.2,137.2 822.3,135.9 825.4,134.6 828.5,134.4 831.6,133.9 834.7,132.9 837.8,130.2 840.9,125.9 844.0,121.5 847.2,117.0 850.3,113.4 853.4,109.1 856.5,104.6 859.6,99.9 862.7,95.6 865.8,92.5 868.9,90.1 872.0,90.0" fill="none" stroke="#38bdf8" stroke-width="2.5" stroke-linejoin="round" stroke-linecap="round"/>
<circle cx="872.0" cy="90.0" r="4" fill="#0ea5e9"/>
<text x="866.0" y="80.0" text-anchor="end" font-family="Inter, system-ui, sans-serif" font-size="13" font-weight="700" fill="#334155">2000</text>
<text x="52.0" y="294" text-anchor="middle" font-family="Inter, system-ui, sans-serif" font-size="11" fill="#94a3b8">Jun 10 05:00</text>
<text x="533.4" y="294" text-anchor="middle" font-family="Inter, system-ui, sans-serif" font-size="11" fill="#94a3b8">Jun 16 16:00</text>
<text x="872.0" y="294" text-anchor="middle" font-family="Inter, system-ui, sans-serif" font-size="11" fill="#94a3b8">Jun 21 05:00</text>
</svg>
