<svg xmlns="http://www.w3.org/2000/svg" width="900" height="320" viewBox="0 0 900 320" role="img" aria-labelledby="title desc">
<title id="title">Unsorry proofs over time</title>
<desc id="desc">Cumulative kernel-verified proofs over time, by the hour each proof was merged.</desc>
<rect width="900" height="100%" rx="18" fill="#ffffff"/>
<rect x="0.5" y="0.5" width="899" height="319" rx="18" fill="none" stroke="#e2e8f0"/>
<text x="32" y="44" font-family="Inter, system-ui, sans-serif" font-size="28" font-weight="700" fill="#334155">Unsorry — Proofs Over Time</text>
<text x="32" y="72" font-family="Inter, system-ui, sans-serif" font-size="13" fill="#64748b">2063 cumulative kernel-verified proofs · merged, hourly</text>
<line x1="52" y1="272.0" x2="872" y2="272.0" stroke="#f1f5f9"/>
<text x="44" y="276.0" text-anchor="end" font-family="Inter, system-ui, sans-serif" font-size="11" fill="#94a3b8">0</text>
<line x1="52" y1="226.5" x2="872" y2="226.5" stroke="#f1f5f9"/>
<text x="44" y="230.5" text-anchor="end" font-family="Inter, system-ui, sans-serif" font-size="11" fill="#94a3b8">516</text>
<line x1="52" y1="181.0" x2="872" y2="181.0" stroke="#f1f5f9"/>
<text x="44" y="185.0" text-anchor="end" font-family="Inter, system-ui, sans-serif" font-size="11" fill="#94a3b8">1032</text>
<line x1="52" y1="135.5" x2="872" y2="135.5" stroke="#f1f5f9"/>
<text x="44" y="139.5" text-anchor="end" font-family="Inter, system-ui, sans-serif" font-size="11" fill="#94a3b8">1547</text>
<line x1="52" y1="90.0" x2="872" y2="90.0" stroke="#f1f5f9"/>
<text x="44" y="94.0" text-anchor="end" font-family="Inter, system-ui, sans-serif" font-size="11" fill="#94a3b8">2063</text>
<polygon points="52.0,272.0 52.0,271.9 55.1,271.7 92.1,270.9 95.2,270.6 98.2,270.5 107.5,270.4 126.0,270.3 166.1,270.2 169.1,269.4 172.2,269.4 181.5,269.2 184.6,269.1 187.6,269.0 190.7,268.7 196.9,268.6 200.0,268.2 209.2,267.9 221.5,267.7 224.6,267.4 227.7,267.2 252.4,267.1 258.5,267.1 274.0,267.0 277.0,266.9 280.1,266.7 292.5,266.6 295.5,266.1 298.6,265.6 301.7,264.5 304.8,264.3 326.4,264.2 335.6,264.1 341.8,264.1 344.9,264.0 347.9,263.5 351.0,263.4 354.1,263.4 357.2,263.1 360.3,262.8 372.6,262.4 378.8,262.3 391.1,262.2 394.2,261.8 397.3,261.7 400.3,261.5 406.5,261.4 409.6,259.6 412.7,257.9 415.8,257.3 418.8,256.8 421.9,256.6 425.0,256.2 428.1,255.6 431.2,255.1 434.3,254.9 437.3,254.7 443.5,254.4 446.6,253.7 449.7,253.0 452.8,252.3 455.8,251.9 462.0,251.7 468.2,251.6 471.2,251.0 474.3,250.6 477.4,249.3 480.5,248.6 483.6,247.9 486.7,247.2 489.7,246.4 492.8,245.6 495.9,244.7 499.0,243.8 502.1,242.9 505.2,242.1 508.2,241.6 511.3,240.9 514.4,240.2 517.5,239.9 520.6,239.4 523.7,239.0 526.7,238.8 529.8,238.7 536.0,238.6 539.1,236.8 542.2,235.6 545.2,235.3 548.3,235.2 554.5,235.0 557.6,234.8 569.9,234.7 576.1,234.5 585.3,234.4 588.4,232.4 591.5,230.4 594.6,229.9 597.6,228.3 600.7,227.1 603.8,226.3 606.9,225.9 610.0,225.1 613.1,224.7 616.1,224.5 619.2,224.2 622.3,224.0 640.8,222.6 643.9,220.8 647.0,220.6 650.0,220.3 653.1,220.2 674.7,220.1 702.5,218.3 705.5,216.9 708.6,215.2 711.7,212.7 714.8,212.3 717.9,211.5 720.9,210.1 724.0,209.0 727.1,206.6 730.2,203.1 733.3,199.7 736.4,195.6 739.4,191.4 742.5,187.7 745.6,185.4 748.7,182.6 751.8,178.6 754.9,175.1 757.9,172.8 761.0,170.5 764.1,167.1 767.2,165.0 770.3,162.9 773.4,161.0 776.4,159.6 779.5,157.8 782.6,156.6 785.7,155.4 788.8,154.3 791.8,151.1 794.9,148.6 798.0,147.2 801.1,146.7 804.2,145.9 807.3,144.6 810.3,143.5 813.4,141.3 816.5,140.0 819.6,138.8 822.7,138.6 825.8,138.1 828.8,137.1 831.9,134.6 835.0,130.4 838.1,126.1 841.2,121.8 844.3,118.2 847.3,114.1 850.4,109.7 853.5,105.2 856.6,101.0 859.7,98.0 862.8,95.6 865.8,92.9 868.9,90.3 872.0,90.0 872.0,272.0" fill="#e0f2fe" opacity="0.55"/>
<polyline points="52.0,271.9 55.1,271.7 92.1,270.9 95.2,270.6 98.2,270.5 107.5,270.4 126.0,270.3 166.1,270.2 169.1,269.4 172.2,269.4 181.5,269.2 184.6,269.1 187.6,269.0 190.7,268.7 196.9,268.6 200.0,268.2 209.2,267.9 221.5,267.7 224.6,267.4 227.7,267.2 252.4,267.1 258.5,267.1 274.0,267.0 277.0,266.9 280.1,266.7 292.5,266.6 295.5,266.1 298.6,265.6 301.7,264.5 304.8,264.3 326.4,264.2 335.6,264.1 341.8,264.1 344.9,264.0 347.9,263.5 351.0,263.4 354.1,263.4 357.2,263.1 360.3,262.8 372.6,262.4 378.8,262.3 391.1,262.2 394.2,261.8 397.3,261.7 400.3,261.5 406.5,261.4 409.6,259.6 412.7,257.9 415.8,257.3 418.8,256.8 421.9,256.6 425.0,256.2 428.1,255.6 431.2,255.1 434.3,254.9 437.3,254.7 443.5,254.4 446.6,253.7 449.7,253.0 452.8,252.3 455.8,251.9 462.0,251.7 468.2,251.6 471.2,251.0 474.3,250.6 477.4,249.3 480.5,248.6 483.6,247.9 486.7,247.2 489.7,246.4 492.8,245.6 495.9,244.7 499.0,243.8 502.1,242.9 505.2,242.1 508.2,241.6 511.3,240.9 514.4,240.2 517.5,239.9 520.6,239.4 523.7,239.0 526.7,238.8 529.8,238.7 536.0,238.6 539.1,236.8 542.2,235.6 545.2,235.3 548.3,235.2 554.5,235.0 557.6,234.8 569.9,234.7 576.1,234.5 585.3,234.4 588.4,232.4 591.5,230.4 594.6,229.9 597.6,228.3 600.7,227.1 603.8,226.3 606.9,225.9 610.0,225.1 613.1,224.7 616.1,224.5 619.2,224.2 622.3,224.0 640.8,222.6 643.9,220.8 647.0,220.6 650.0,220.3 653.1,220.2 674.7,220.1 702.5,218.3 705.5,216.9 708.6,215.2 711.7,212.7 714.8,212.3 717.9,211.5 720.9,210.1 724.0,209.0 727.1,206.6 730.2,203.1 733.3,199.7 736.4,195.6 739.4,191.4 742.5,187.7 745.6,185.4 748.7,182.6 751.8,178.6 754.9,175.1 757.9,172.8 761.0,170.5 764.1,167.1 767.2,165.0 770.3,162.9 773.4,161.0 776.4,159.6 779.5,157.8 782.6,156.6 785.7,155.4 788.8,154.3 791.8,151.1 794.9,148.6 798.0,147.2 801.1,146.7 804.2,145.9 807.3,144.6 810.3,143.5 813.4,141.3 816.5,140.0 819.6,138.8 822.7,138.6 825.8,138.1 828.8,137.1 831.9,134.6 835.0,130.4 838.1,126.1 841.2,121.8 844.3,118.2 847.3,114.1 850.4,109.7 853.5,105.2 856.6,101.0 859.7,98.0 862.8,95.6 865.8,92.9 868.9,90.3 872.0,90.0" fill="none" stroke="#38bdf8" stroke-width="2.5" stroke-linejoin="round" stroke-linecap="round"/>
<circle cx="872.0" cy="90.0" r="4" fill="#0ea5e9"/>
<text x="866.0" y="80.0" text-anchor="end" font-family="Inter, system-ui, sans-serif" font-size="13" font-weight="700" fill="#334155">2063</text>
<text x="52.0" y="294" text-anchor="middle" font-family="Inter, system-ui, sans-serif" font-size="11" fill="#94a3b8">Jun 10 05:00</text>
<text x="536.0" y="294" text-anchor="middle" font-family="Inter, system-ui, sans-serif" font-size="11" fill="#94a3b8">Jun 16 18:00</text>
<text x="872.0" y="294" text-anchor="middle" font-family="Inter, system-ui, sans-serif" font-size="11" fill="#94a3b8">Jun 21 07:00</text>
</svg>
