<svg xmlns="http://www.w3.org/2000/svg" width="900" height="320" viewBox="0 0 900 320" role="img" aria-labelledby="title desc">
<title id="title">Unsorry proofs over time</title>
<desc id="desc">Cumulative kernel-verified proofs over time, by the hour each proof was merged.</desc>
<rect width="900" height="100%" rx="18" fill="#ffffff"/>
<rect x="0.5" y="0.5" width="899" height="319" rx="18" fill="none" stroke="#e2e8f0"/>
<text x="32" y="44" font-family="Inter, system-ui, sans-serif" font-size="28" font-weight="700" fill="#334155">Unsorry — Proofs Over Time</text>
<text x="32" y="72" font-family="Inter, system-ui, sans-serif" font-size="13" fill="#64748b">1976 cumulative kernel-verified proofs · merged, hourly</text>
<line x1="52" y1="272.0" x2="872" y2="272.0" stroke="#f1f5f9"/>
<text x="44" y="276.0" text-anchor="end" font-family="Inter, system-ui, sans-serif" font-size="11" fill="#94a3b8">0</text>
<line x1="52" y1="226.5" x2="872" y2="226.5" stroke="#f1f5f9"/>
<text x="44" y="230.5" text-anchor="end" font-family="Inter, system-ui, sans-serif" font-size="11" fill="#94a3b8">494</text>
<line x1="52" y1="181.0" x2="872" y2="181.0" stroke="#f1f5f9"/>
<text x="44" y="185.0" text-anchor="end" font-family="Inter, system-ui, sans-serif" font-size="11" fill="#94a3b8">988</text>
<line x1="52" y1="135.5" x2="872" y2="135.5" stroke="#f1f5f9"/>
<text x="44" y="139.5" text-anchor="end" font-family="Inter, system-ui, sans-serif" font-size="11" fill="#94a3b8">1482</text>
<line x1="52" y1="90.0" x2="872" y2="90.0" stroke="#f1f5f9"/>
<text x="44" y="94.0" text-anchor="end" font-family="Inter, system-ui, sans-serif" font-size="11" fill="#94a3b8">1976</text>
<polygon points="52.0,272.0 52.0,271.9 55.1,271.7 92.5,270.8 95.7,270.5 98.8,270.4 108.1,270.3 126.8,270.2 167.4,270.2 170.5,269.3 173.6,269.2 183.0,269.1 186.1,269.0 189.2,268.9 192.3,268.6 198.5,268.5 201.7,268.0 211.0,267.7 223.5,267.5 226.6,267.2 229.7,267.0 254.7,266.9 260.9,266.8 276.5,266.8 279.6,266.7 282.7,266.5 295.2,266.4 298.3,265.8 301.4,265.4 304.5,264.2 307.7,264.0 329.5,263.9 338.8,263.8 345.1,263.7 348.2,263.6 351.3,263.2 354.4,263.1 357.6,263.0 360.7,262.7 363.8,262.4 376.3,262.0 382.5,261.9 395.0,261.8 398.1,261.3 401.2,261.2 404.3,261.0 410.6,260.9 413.7,259.1 416.8,257.3 419.9,256.6 423.0,256.2 426.1,256.0 429.3,255.5 432.4,254.9 435.5,254.4 438.6,254.1 441.7,253.9 448.0,253.7 451.1,252.9 454.2,252.2 457.3,251.5 460.4,251.0 466.7,250.8 472.9,250.7 476.0,250.1 479.1,249.6 482.3,248.3 485.4,247.6 488.5,246.9 491.6,246.1 494.7,245.3 497.9,244.5 501.0,243.5 504.1,242.5 507.2,241.6 510.3,240.8 513.4,240.2 516.6,239.6 519.7,238.8 522.8,238.5 525.9,238.0 529.0,237.6 532.2,237.4 535.3,237.2 541.5,237.1 544.6,235.2 547.7,234.0 550.9,233.7 554.0,233.6 560.2,233.4 563.3,233.1 575.8,233.0 582.0,232.9 591.4,232.8 594.5,230.6 597.6,228.6 600.7,228.1 603.9,226.4 607.0,225.1 610.1,224.3 613.2,223.8 616.3,223.0 619.5,222.6 622.6,222.4 625.7,222.1 628.8,221.9 647.5,220.4 650.6,218.6 653.7,218.3 656.9,218.0 660.0,217.9 681.8,217.8 709.9,215.9 713.0,214.4 716.1,212.7 719.2,210.1 722.3,209.6 725.5,208.8 728.6,207.3 731.7,206.2 734.8,203.8 737.9,200.1 741.0,196.5 744.2,192.2 747.3,187.8 750.4,183.9 753.5,181.6 756.6,178.7 759.8,174.5 762.9,170.9 766.0,168.5 769.1,166.0 772.2,162.5 775.3,160.3 778.5,158.1 781.6,156.1 784.7,154.7 787.8,152.7 790.9,151.5 794.1,150.2 797.2,149.1 800.3,145.8 803.4,143.1 806.5,141.7 809.6,141.2 812.8,140.4 815.9,139.0 819.0,137.8 822.1,135.6 825.2,134.2 828.3,132.9 831.5,132.7 834.6,132.2 837.7,131.2 840.8,128.5 843.9,124.2 847.1,119.7 850.2,115.1 853.3,111.5 856.4,107.1 859.5,102.5 862.6,97.8 865.8,93.5 868.9,90.4 872.0,90.0 872.0,272.0" fill="#e0f2fe" opacity="0.55"/>
<polyline points="52.0,271.9 55.1,271.7 92.5,270.8 95.7,270.5 98.8,270.4 108.1,270.3 126.8,270.2 167.4,270.2 170.5,269.3 173.6,269.2 183.0,269.1 186.1,269.0 189.2,268.9 192.3,268.6 198.5,268.5 201.7,268.0 211.0,267.7 223.5,267.5 226.6,267.2 229.7,267.0 254.7,266.9 260.9,266.8 276.5,266.8 279.6,266.7 282.7,266.5 295.2,266.4 298.3,265.8 301.4,265.4 304.5,264.2 307.7,264.0 329.5,263.9 338.8,263.8 345.1,263.7 348.2,263.6 351.3,263.2 354.4,263.1 357.6,263.0 360.7,262.7 363.8,262.4 376.3,262.0 382.5,261.9 395.0,261.8 398.1,261.3 401.2,261.2 404.3,261.0 410.6,260.9 413.7,259.1 416.8,257.3 419.9,256.6 423.0,256.2 426.1,256.0 429.3,255.5 432.4,254.9 435.5,254.4 438.6,254.1 441.7,253.9 448.0,253.7 451.1,252.9 454.2,252.2 457.3,251.5 460.4,251.0 466.7,250.8 472.9,250.7 476.0,250.1 479.1,249.6 482.3,248.3 485.4,247.6 488.5,246.9 491.6,246.1 494.7,245.3 497.9,244.5 501.0,243.5 504.1,242.5 507.2,241.6 510.3,240.8 513.4,240.2 516.6,239.6 519.7,238.8 522.8,238.5 525.9,238.0 529.0,237.6 532.2,237.4 535.3,237.2 541.5,237.1 544.6,235.2 547.7,234.0 550.9,233.7 554.0,233.6 560.2,233.4 563.3,233.1 575.8,233.0 582.0,232.9 591.4,232.8 594.5,230.6 597.6,228.6 600.7,228.1 603.9,226.4 607.0,225.1 610.1,224.3 613.2,223.8 616.3,223.0 619.5,222.6 622.6,222.4 625.7,222.1 628.8,221.9 647.5,220.4 650.6,218.6 653.7,218.3 656.9,218.0 660.0,217.9 681.8,217.8 709.9,215.9 713.0,214.4 716.1,212.7 719.2,210.1 722.3,209.6 725.5,208.8 728.6,207.3 731.7,206.2 734.8,203.8 737.9,200.1 741.0,196.5 744.2,192.2 747.3,187.8 750.4,183.9 753.5,181.6 756.6,178.7 759.8,174.5 762.9,170.9 766.0,168.5 769.1,166.0 772.2,162.5 775.3,160.3 778.5,158.1 781.6,156.1 784.7,154.7 787.8,152.7 790.9,151.5 794.1,150.2 797.2,149.1 800.3,145.8 803.4,143.1 806.5,141.7 809.6,141.2 812.8,140.4 815.9,139.0 819.0,137.8 822.1,135.6 825.2,134.2 828.3,132.9 831.5,132.7 834.6,132.2 837.7,131.2 840.8,128.5 843.9,124.2 847.1,119.7 850.2,115.1 853.3,111.5 856.4,107.1 859.5,102.5 862.6,97.8 865.8,93.5 868.9,90.4 872.0,90.0" fill="none" stroke="#38bdf8" stroke-width="2.5" stroke-linejoin="round" stroke-linecap="round"/>
<circle cx="872.0" cy="90.0" r="4" fill="#0ea5e9"/>
<text x="866.0" y="80.0" text-anchor="end" font-family="Inter, system-ui, sans-serif" font-size="13" font-weight="700" fill="#334155">1976</text>
<text x="52.0" y="294" text-anchor="middle" font-family="Inter, system-ui, sans-serif" font-size="11" fill="#94a3b8">Jun 10 05:00</text>
<text x="535.3" y="294" text-anchor="middle" font-family="Inter, system-ui, sans-serif" font-size="11" fill="#94a3b8">Jun 16 16:00</text>
<text x="872.0" y="294" text-anchor="middle" font-family="Inter, system-ui, sans-serif" font-size="11" fill="#94a3b8">Jun 21 04:00</text>
</svg>
