<svg xmlns="http://www.w3.org/2000/svg" width="900" height="320" viewBox="0 0 900 320" role="img" aria-labelledby="title desc">
<title id="title">unsorry proofs over time</title>
<desc id="desc">Cumulative kernel-verified proofs over time, by the hour each proof was merged.</desc>
<rect width="900" height="100%" rx="18" fill="#ffffff"/>
<rect x="0.5" y="0.5" width="899" height="319" rx="18" fill="none" stroke="#e2e8f0"/>
<text x="32" y="44" font-family="Inter, system-ui, sans-serif" font-size="28" font-weight="700" fill="#334155">unsorry — Proofs Over Time</text>
<text x="32" y="72" font-family="Inter, system-ui, sans-serif" font-size="13" fill="#64748b">2607 cumulative kernel-verified proofs · merged, hourly</text>
<line x1="52" y1="272.0" x2="872" y2="272.0" stroke="#f1f5f9"/>
<text x="44" y="276.0" text-anchor="end" font-family="Inter, system-ui, sans-serif" font-size="11" fill="#94a3b8">0</text>
<line x1="52" y1="226.5" x2="872" y2="226.5" stroke="#f1f5f9"/>
<text x="44" y="230.5" text-anchor="end" font-family="Inter, system-ui, sans-serif" font-size="11" fill="#94a3b8">652</text>
<line x1="52" y1="181.0" x2="872" y2="181.0" stroke="#f1f5f9"/>
<text x="44" y="185.0" text-anchor="end" font-family="Inter, system-ui, sans-serif" font-size="11" fill="#94a3b8">1304</text>
<line x1="52" y1="135.5" x2="872" y2="135.5" stroke="#f1f5f9"/>
<text x="44" y="139.5" text-anchor="end" font-family="Inter, system-ui, sans-serif" font-size="11" fill="#94a3b8">1955</text>
<line x1="52" y1="90.0" x2="872" y2="90.0" stroke="#f1f5f9"/>
<text x="44" y="94.0" text-anchor="end" font-family="Inter, system-ui, sans-serif" font-size="11" fill="#94a3b8">2607</text>
<polygon points="52.0,272.0 52.0,271.9 54.8,271.8 88.8,271.1 91.6,270.9 94.4,270.8 102.9,270.7 119.9,270.7 156.6,270.6 159.4,270.0 162.3,269.9 170.8,269.8 173.6,269.7 176.4,269.6 179.2,269.4 184.9,269.3 187.7,269.0 196.2,268.7 207.5,268.6 210.3,268.4 213.2,268.2 235.8,268.2 241.4,268.1 255.6,268.0 258.4,268.0 261.2,267.8 272.6,267.7 275.4,267.3 278.2,267.0 281.0,266.1 283.9,265.9 303.7,265.9 312.1,265.8 317.8,265.7 320.6,265.6 323.4,265.3 326.3,265.2 329.1,265.2 331.9,264.9 334.8,264.7 346.1,264.4 351.7,264.3 363.0,264.3 365.9,263.9 368.7,263.8 371.5,263.7 377.2,263.6 380.0,262.2 382.8,260.8 385.7,260.3 388.5,260.0 391.3,259.9 394.1,259.5 397.0,259.0 399.8,258.7 402.6,258.5 405.4,258.3 411.1,258.1 413.9,257.5 416.8,257.0 419.6,256.4 422.4,256.1 428.1,255.9 433.7,255.9 436.6,255.4 439.4,255.0 442.2,254.1 445.0,253.5 447.9,252.9 450.7,252.4 453.5,251.8 456.3,251.1 459.2,250.4 462.0,249.7 464.8,249.0 467.7,248.3 470.5,247.9 473.3,247.4 476.1,246.9 479.0,246.6 481.8,246.2 484.6,245.9 487.4,245.8 490.3,245.6 495.9,245.5 498.8,244.1 501.6,243.2 504.4,243.0 507.2,242.9 512.9,242.7 515.7,242.5 527.0,242.5 532.7,242.3 541.2,242.3 544.0,240.7 546.8,239.1 549.7,238.7 552.5,237.4 555.3,236.5 558.1,235.8 561.0,235.5 563.8,234.9 566.6,234.6 569.4,234.4 572.3,234.2 575.1,234.0 592.1,232.9 594.9,231.5 597.7,231.3 600.6,231.1 603.4,231.0 623.2,231.0 648.6,229.5 651.4,228.4 654.3,227.0 657.1,225.1 659.9,224.7 662.8,224.1 665.6,223.0 668.4,222.2 671.2,220.3 674.1,217.5 676.9,214.8 679.7,211.5 682.6,208.2 685.4,205.3 688.2,203.4 691.0,201.3 693.9,198.1 696.7,195.3 699.5,193.5 702.3,191.6 705.2,189.0 708.0,187.3 710.8,185.6 713.7,184.2 716.5,183.1 719.3,181.6 722.1,180.7 725.0,179.7 727.8,178.9 730.6,176.4 733.4,174.3 736.3,173.2 739.1,172.9 741.9,172.2 744.8,171.2 747.6,170.3 750.4,168.6 753.2,167.6 756.1,166.6 758.9,166.4 761.7,166.0 764.6,165.3 767.4,163.2 770.2,160.0 773.0,156.5 775.9,153.1 778.7,150.3 781.5,147.0 784.3,143.5 787.2,140.0 790.0,136.7 792.8,134.3 795.7,132.4 798.5,130.3 801.3,128.2 804.1,126.8 807.0,125.1 809.8,123.9 812.6,122.0 815.4,119.6 818.3,116.7 821.1,114.2 823.9,112.1 826.8,110.7 829.6,109.4 832.4,108.2 835.2,106.8 838.1,104.4 840.9,102.4 843.7,99.9 846.6,97.4 849.4,95.3 852.2,93.6 855.0,92.9 857.9,92.0 860.7,91.0 863.5,90.8 866.3,90.7 869.2,90.2 872.0,90.0 872.0,272.0" fill="#e0f2fe" opacity="0.55"/>
<polyline points="52.0,271.9 54.8,271.8 88.8,271.1 91.6,270.9 94.4,270.8 102.9,270.7 119.9,270.7 156.6,270.6 159.4,270.0 162.3,269.9 170.8,269.8 173.6,269.7 176.4,269.6 179.2,269.4 184.9,269.3 187.7,269.0 196.2,268.7 207.5,268.6 210.3,268.4 213.2,268.2 235.8,268.2 241.4,268.1 255.6,268.0 258.4,268.0 261.2,267.8 272.6,267.7 275.4,267.3 278.2,267.0 281.0,266.1 283.9,265.9 303.7,265.9 312.1,265.8 317.8,265.7 320.6,265.6 323.4,265.3 326.3,265.2 329.1,265.2 331.9,264.9 334.8,264.7 346.1,264.4 351.7,264.3 363.0,264.3 365.9,263.9 368.7,263.8 371.5,263.7 377.2,263.6 380.0,262.2 382.8,260.8 385.7,260.3 388.5,260.0 391.3,259.9 394.1,259.5 397.0,259.0 399.8,258.7 402.6,258.5 405.4,258.3 411.1,258.1 413.9,257.5 416.8,257.0 419.6,256.4 422.4,256.1 428.1,255.9 433.7,255.9 436.6,255.4 439.4,255.0 442.2,254.1 445.0,253.5 447.9,252.9 450.7,252.4 453.5,251.8 456.3,251.1 459.2,250.4 462.0,249.7 464.8,249.0 467.7,248.3 470.5,247.9 473.3,247.4 476.1,246.9 479.0,246.6 481.8,246.2 484.6,245.9 487.4,245.8 490.3,245.6 495.9,245.5 498.8,244.1 501.6,243.2 504.4,243.0 507.2,242.9 512.9,242.7 515.7,242.5 527.0,242.5 532.7,242.3 541.2,242.3 544.0,240.7 546.8,239.1 549.7,238.7 552.5,237.4 555.3,236.5 558.1,235.8 561.0,235.5 563.8,234.9 566.6,234.6 569.4,234.4 572.3,234.2 575.1,234.0 592.1,232.9 594.9,231.5 597.7,231.3 600.6,231.1 603.4,231.0 623.2,231.0 648.6,229.5 651.4,228.4 654.3,227.0 657.1,225.1 659.9,224.7 662.8,224.1 665.6,223.0 668.4,222.2 671.2,220.3 674.1,217.5 676.9,214.8 679.7,211.5 682.6,208.2 685.4,205.3 688.2,203.4 691.0,201.3 693.9,198.1 696.7,195.3 699.5,193.5 702.3,191.6 705.2,189.0 708.0,187.3 710.8,185.6 713.7,184.2 716.5,183.1 719.3,181.6 722.1,180.7 725.0,179.7 727.8,178.9 730.6,176.4 733.4,174.3 736.3,173.2 739.1,172.9 741.9,172.2 744.8,171.2 747.6,170.3 750.4,168.6 753.2,167.6 756.1,166.6 758.9,166.4 761.7,166.0 764.6,165.3 767.4,163.2 770.2,160.0 773.0,156.5 775.9,153.1 778.7,150.3 781.5,147.0 784.3,143.5 787.2,140.0 790.0,136.7 792.8,134.3 795.7,132.4 798.5,130.3 801.3,128.2 804.1,126.8 807.0,125.1 809.8,123.9 812.6,122.0 815.4,119.6 818.3,116.7 821.1,114.2 823.9,112.1 826.8,110.7 829.6,109.4 832.4,108.2 835.2,106.8 838.1,104.4 840.9,102.4 843.7,99.9 846.6,97.4 849.4,95.3 852.2,93.6 855.0,92.9 857.9,92.0 860.7,91.0 863.5,90.8 866.3,90.7 869.2,90.2 872.0,90.0" fill="none" stroke="#38bdf8" stroke-width="2.5" stroke-linejoin="round" stroke-linecap="round"/>
<circle cx="872.0" cy="90.0" r="4" fill="#0ea5e9"/>
<text x="866.0" y="80.0" text-anchor="end" font-family="Inter, system-ui, sans-serif" font-size="13" font-weight="700" fill="#334155">2607</text>
<text x="52.0" y="294" text-anchor="middle" font-family="Inter, system-ui, sans-serif" font-size="11" fill="#94a3b8">Jun 10 05:00</text>
<text x="549.7" y="294" text-anchor="middle" font-family="Inter, system-ui, sans-serif" font-size="11" fill="#94a3b8">Jun 17 13:00</text>
<text x="872.0" y="294" text-anchor="middle" font-family="Inter, system-ui, sans-serif" font-size="11" fill="#94a3b8">Jun 22 07:00</text>
</svg>
