<svg xmlns="http://www.w3.org/2000/svg" width="900" height="320" viewBox="0 0 900 320" role="img" aria-labelledby="title desc">
<title id="title">Unsorry proofs over time</title>
<desc id="desc">Cumulative kernel-verified proofs over time, by the hour each proof was merged.</desc>
<rect width="900" height="100%" rx="18" fill="#ffffff"/>
<rect x="0.5" y="0.5" width="899" height="319" rx="18" fill="none" stroke="#e2e8f0"/>
<text x="32" y="44" font-family="Inter, system-ui, sans-serif" font-size="28" font-weight="700" fill="#334155">Unsorry — Proofs Over Time</text>
<text x="32" y="72" font-family="Inter, system-ui, sans-serif" font-size="13" fill="#64748b">2069 cumulative kernel-verified proofs · merged, hourly</text>
<line x1="52" y1="272.0" x2="872" y2="272.0" stroke="#f1f5f9"/>
<text x="44" y="276.0" text-anchor="end" font-family="Inter, system-ui, sans-serif" font-size="11" fill="#94a3b8">0</text>
<line x1="52" y1="226.5" x2="872" y2="226.5" stroke="#f1f5f9"/>
<text x="44" y="230.5" text-anchor="end" font-family="Inter, system-ui, sans-serif" font-size="11" fill="#94a3b8">517</text>
<line x1="52" y1="181.0" x2="872" y2="181.0" stroke="#f1f5f9"/>
<text x="44" y="185.0" text-anchor="end" font-family="Inter, system-ui, sans-serif" font-size="11" fill="#94a3b8">1034</text>
<line x1="52" y1="135.5" x2="872" y2="135.5" stroke="#f1f5f9"/>
<text x="44" y="139.5" text-anchor="end" font-family="Inter, system-ui, sans-serif" font-size="11" fill="#94a3b8">1552</text>
<line x1="52" y1="90.0" x2="872" y2="90.0" stroke="#f1f5f9"/>
<text x="44" y="94.0" text-anchor="end" font-family="Inter, system-ui, sans-serif" font-size="11" fill="#94a3b8">2069</text>
<polygon points="52.0,272.0 52.0,271.9 55.1,271.7 92.1,270.9 95.2,270.6 98.2,270.5 107.5,270.4 126.0,270.3 166.1,270.2 169.1,269.4 172.2,269.4 181.5,269.2 184.6,269.1 187.6,269.0 190.7,268.7 196.9,268.7 200.0,268.2 209.2,267.9 221.5,267.7 224.6,267.4 227.7,267.2 252.4,267.2 258.5,267.1 274.0,267.0 277.0,266.9 280.1,266.7 292.5,266.6 295.5,266.1 298.6,265.7 301.7,264.5 304.8,264.3 326.4,264.3 335.6,264.2 341.8,264.1 344.9,264.0 347.9,263.6 351.0,263.5 354.1,263.4 357.2,263.1 360.3,262.9 372.6,262.4 378.8,262.3 391.1,262.2 394.2,261.8 397.3,261.7 400.3,261.5 406.5,261.4 409.6,259.7 412.7,257.9 415.8,257.3 418.8,256.9 421.9,256.7 425.0,256.3 428.1,255.6 431.2,255.2 434.3,254.9 437.3,254.8 443.5,254.5 446.6,253.8 449.7,253.1 452.8,252.4 455.8,251.9 462.0,251.8 468.2,251.7 471.2,251.1 474.3,250.6 477.4,249.4 480.5,248.7 483.6,248.0 486.7,247.3 489.7,246.5 492.8,245.7 495.9,244.8 499.0,243.9 502.1,243.0 505.2,242.2 508.2,241.7 511.3,241.0 514.4,240.3 517.5,240.0 520.6,239.5 523.7,239.1 526.7,238.9 529.8,238.7 536.0,238.7 539.1,236.9 542.2,235.7 545.2,235.4 548.3,235.3 554.5,235.1 557.6,234.9 569.9,234.8 576.1,234.6 585.3,234.5 588.4,232.5 591.5,230.6 594.6,230.0 597.6,228.5 600.7,227.2 603.8,226.4 606.9,226.0 610.0,225.2 613.1,224.9 616.1,224.7 619.2,224.3 622.3,224.1 640.8,222.7 643.9,221.0 647.0,220.7 650.0,220.5 653.1,220.4 674.7,220.3 702.5,218.4 705.5,217.0 708.6,215.4 711.7,212.9 714.8,212.4 717.9,211.7 720.9,210.2 724.0,209.2 727.1,206.8 730.2,203.3 733.3,199.9 736.4,195.8 739.4,191.6 742.5,187.9 745.6,185.6 748.7,182.9 751.8,178.8 754.9,175.4 757.9,173.1 761.0,170.8 764.1,167.4 767.2,165.3 770.3,163.2 773.4,161.3 776.4,159.9 779.5,158.1 782.6,156.9 785.7,155.7 788.8,154.7 791.8,151.5 794.9,148.9 798.0,147.5 801.1,147.1 804.2,146.3 807.3,145.0 810.3,143.8 813.4,141.7 816.5,140.4 819.6,139.2 822.7,139.0 825.8,138.5 828.8,137.5 831.9,135.0 835.0,130.8 838.1,126.5 841.2,122.2 844.3,118.7 847.3,114.5 850.4,110.1 853.5,105.7 856.6,101.5 859.7,98.5 862.8,96.2 865.8,93.4 868.9,90.8 872.0,90.0 872.0,272.0" fill="#e0f2fe" opacity="0.55"/>
<polyline points="52.0,271.9 55.1,271.7 92.1,270.9 95.2,270.6 98.2,270.5 107.5,270.4 126.0,270.3 166.1,270.2 169.1,269.4 172.2,269.4 181.5,269.2 184.6,269.1 187.6,269.0 190.7,268.7 196.9,268.7 200.0,268.2 209.2,267.9 221.5,267.7 224.6,267.4 227.7,267.2 252.4,267.2 258.5,267.1 274.0,267.0 277.0,266.9 280.1,266.7 292.5,266.6 295.5,266.1 298.6,265.7 301.7,264.5 304.8,264.3 326.4,264.3 335.6,264.2 341.8,264.1 344.9,264.0 347.9,263.6 351.0,263.5 354.1,263.4 357.2,263.1 360.3,262.9 372.6,262.4 378.8,262.3 391.1,262.2 394.2,261.8 397.3,261.7 400.3,261.5 406.5,261.4 409.6,259.7 412.7,257.9 415.8,257.3 418.8,256.9 421.9,256.7 425.0,256.3 428.1,255.6 431.2,255.2 434.3,254.9 437.3,254.8 443.5,254.5 446.6,253.8 449.7,253.1 452.8,252.4 455.8,251.9 462.0,251.8 468.2,251.7 471.2,251.1 474.3,250.6 477.4,249.4 480.5,248.7 483.6,248.0 486.7,247.3 489.7,246.5 492.8,245.7 495.9,244.8 499.0,243.9 502.1,243.0 505.2,242.2 508.2,241.7 511.3,241.0 514.4,240.3 517.5,240.0 520.6,239.5 523.7,239.1 526.7,238.9 529.8,238.7 536.0,238.7 539.1,236.9 542.2,235.7 545.2,235.4 548.3,235.3 554.5,235.1 557.6,234.9 569.9,234.8 576.1,234.6 585.3,234.5 588.4,232.5 591.5,230.6 594.6,230.0 597.6,228.5 600.7,227.2 603.8,226.4 606.9,226.0 610.0,225.2 613.1,224.9 616.1,224.7 619.2,224.3 622.3,224.1 640.8,222.7 643.9,221.0 647.0,220.7 650.0,220.5 653.1,220.4 674.7,220.3 702.5,218.4 705.5,217.0 708.6,215.4 711.7,212.9 714.8,212.4 717.9,211.7 720.9,210.2 724.0,209.2 727.1,206.8 730.2,203.3 733.3,199.9 736.4,195.8 739.4,191.6 742.5,187.9 745.6,185.6 748.7,182.9 751.8,178.8 754.9,175.4 757.9,173.1 761.0,170.8 764.1,167.4 767.2,165.3 770.3,163.2 773.4,161.3 776.4,159.9 779.5,158.1 782.6,156.9 785.7,155.7 788.8,154.7 791.8,151.5 794.9,148.9 798.0,147.5 801.1,147.1 804.2,146.3 807.3,145.0 810.3,143.8 813.4,141.7 816.5,140.4 819.6,139.2 822.7,139.0 825.8,138.5 828.8,137.5 831.9,135.0 835.0,130.8 838.1,126.5 841.2,122.2 844.3,118.7 847.3,114.5 850.4,110.1 853.5,105.7 856.6,101.5 859.7,98.5 862.8,96.2 865.8,93.4 868.9,90.8 872.0,90.0" fill="none" stroke="#38bdf8" stroke-width="2.5" stroke-linejoin="round" stroke-linecap="round"/>
<circle cx="872.0" cy="90.0" r="4" fill="#0ea5e9"/>
<text x="866.0" y="80.0" text-anchor="end" font-family="Inter, system-ui, sans-serif" font-size="13" font-weight="700" fill="#334155">2069</text>
<text x="52.0" y="294" text-anchor="middle" font-family="Inter, system-ui, sans-serif" font-size="11" fill="#94a3b8">Jun 10 05:00</text>
<text x="536.0" y="294" text-anchor="middle" font-family="Inter, system-ui, sans-serif" font-size="11" fill="#94a3b8">Jun 16 18:00</text>
<text x="872.0" y="294" text-anchor="middle" font-family="Inter, system-ui, sans-serif" font-size="11" fill="#94a3b8">Jun 21 07:00</text>
</svg>
