<svg xmlns="http://www.w3.org/2000/svg" width="900" height="320" viewBox="0 0 900 320" role="img" aria-labelledby="title desc">
<title id="title">Unsorry proofs over time</title>
<desc id="desc">Cumulative kernel-verified proofs over time, by the hour each proof was merged.</desc>
<rect width="900" height="100%" rx="18" fill="#ffffff"/>
<rect x="0.5" y="0.5" width="899" height="319" rx="18" fill="none" stroke="#e2e8f0"/>
<text x="32" y="44" font-family="Inter, system-ui, sans-serif" font-size="28" font-weight="700" fill="#334155">Unsorry — Proofs Over Time</text>
<text x="32" y="72" font-family="Inter, system-ui, sans-serif" font-size="13" fill="#64748b">2260 cumulative kernel-verified proofs · merged, hourly</text>
<line x1="52" y1="272.0" x2="872" y2="272.0" stroke="#f1f5f9"/>
<text x="44" y="276.0" text-anchor="end" font-family="Inter, system-ui, sans-serif" font-size="11" fill="#94a3b8">0</text>
<line x1="52" y1="226.5" x2="872" y2="226.5" stroke="#f1f5f9"/>
<text x="44" y="230.5" text-anchor="end" font-family="Inter, system-ui, sans-serif" font-size="11" fill="#94a3b8">565</text>
<line x1="52" y1="181.0" x2="872" y2="181.0" stroke="#f1f5f9"/>
<text x="44" y="185.0" text-anchor="end" font-family="Inter, system-ui, sans-serif" font-size="11" fill="#94a3b8">1130</text>
<line x1="52" y1="135.5" x2="872" y2="135.5" stroke="#f1f5f9"/>
<text x="44" y="139.5" text-anchor="end" font-family="Inter, system-ui, sans-serif" font-size="11" fill="#94a3b8">1695</text>
<line x1="52" y1="90.0" x2="872" y2="90.0" stroke="#f1f5f9"/>
<text x="44" y="94.0" text-anchor="end" font-family="Inter, system-ui, sans-serif" font-size="11" fill="#94a3b8">2260</text>
<polygon points="52.0,272.0 52.0,271.9 55.0,271.8 91.2,271.0 94.2,270.7 97.2,270.6 106.3,270.6 124.4,270.5 163.5,270.4 166.6,269.7 169.6,269.6 178.6,269.4 181.6,269.3 184.6,269.3 187.7,269.0 193.7,268.9 196.7,268.5 205.8,268.2 217.8,268.1 220.8,267.8 223.8,267.7 248.0,267.6 254.0,267.5 269.1,267.4 272.1,267.3 275.1,267.2 287.1,267.1 290.2,266.6 293.2,266.2 296.2,265.2 299.2,265.0 320.3,264.9 329.4,264.8 335.4,264.8 338.4,264.7 341.4,264.3 344.4,264.2 347.4,264.1 350.5,263.9 353.5,263.6 365.5,263.2 371.6,263.1 383.6,263.1 386.6,262.7 389.6,262.6 392.7,262.4 398.7,262.3 401.7,260.7 404.7,259.1 407.7,258.6 410.8,258.1 413.8,258.0 416.8,257.6 419.8,257.0 422.8,256.6 425.8,256.4 428.8,256.2 434.9,256.0 437.9,255.3 440.9,254.7 443.9,254.0 446.9,253.6 453.0,253.5 459.0,253.4 462.0,252.8 465.0,252.4 468.0,251.3 471.0,250.7 474.1,250.0 477.1,249.4 480.1,248.6 483.1,247.9 486.1,247.1 489.1,246.2 492.1,245.4 495.2,244.7 498.2,244.2 501.2,243.7 504.2,243.0 507.2,242.7 510.2,242.3 513.2,241.9 516.3,241.7 519.3,241.6 525.3,241.5 528.3,239.9 531.3,238.7 534.4,238.5 537.4,238.4 543.4,238.3 546.4,238.0 558.5,237.9 564.5,237.8 573.5,237.7 576.6,235.8 579.6,234.1 582.6,233.6 585.6,232.1 588.6,231.0 591.6,230.3 594.6,229.9 597.7,229.2 600.7,228.8 603.7,228.7 606.7,228.4 609.7,228.2 627.8,226.9 630.8,225.3 633.8,225.1 636.9,224.8 639.9,224.7 661.0,224.6 688.1,223.0 691.1,221.7 694.1,220.1 697.1,217.9 700.2,217.5 703.2,216.8 706.2,215.5 709.2,214.5 712.2,212.3 715.2,209.1 718.2,206.0 721.3,202.3 724.3,198.4 727.3,195.0 730.3,192.9 733.3,190.4 736.3,186.7 739.4,183.6 742.4,181.5 745.4,179.3 748.4,176.2 751.4,174.3 754.4,172.4 757.4,170.7 760.5,169.4 763.5,167.7 766.5,166.7 769.5,165.5 772.5,164.6 775.5,161.7 778.5,159.3 781.6,158.0 784.6,157.6 787.6,156.9 790.6,155.7 793.6,154.7 796.6,152.7 799.6,151.5 802.7,150.4 805.7,150.2 808.7,149.8 811.7,148.9 814.7,146.5 817.7,142.7 820.8,138.8 823.8,134.9 826.8,131.6 829.8,127.8 832.8,123.8 835.8,119.7 838.8,115.9 841.9,113.2 844.9,111.0 847.9,108.5 850.9,106.1 853.9,104.5 856.9,102.6 859.9,101.1 863.0,99.0 866.0,96.2 869.0,92.8 872.0,90.0 872.0,272.0" fill="#e0f2fe" opacity="0.55"/>
<polyline points="52.0,271.9 55.0,271.8 91.2,271.0 94.2,270.7 97.2,270.6 106.3,270.6 124.4,270.5 163.5,270.4 166.6,269.7 169.6,269.6 178.6,269.4 181.6,269.3 184.6,269.3 187.7,269.0 193.7,268.9 196.7,268.5 205.8,268.2 217.8,268.1 220.8,267.8 223.8,267.7 248.0,267.6 254.0,267.5 269.1,267.4 272.1,267.3 275.1,267.2 287.1,267.1 290.2,266.6 293.2,266.2 296.2,265.2 299.2,265.0 320.3,264.9 329.4,264.8 335.4,264.8 338.4,264.7 341.4,264.3 344.4,264.2 347.4,264.1 350.5,263.9 353.5,263.6 365.5,263.2 371.6,263.1 383.6,263.1 386.6,262.7 389.6,262.6 392.7,262.4 398.7,262.3 401.7,260.7 404.7,259.1 407.7,258.6 410.8,258.1 413.8,258.0 416.8,257.6 419.8,257.0 422.8,256.6 425.8,256.4 428.8,256.2 434.9,256.0 437.9,255.3 440.9,254.7 443.9,254.0 446.9,253.6 453.0,253.5 459.0,253.4 462.0,252.8 465.0,252.4 468.0,251.3 471.0,250.7 474.1,250.0 477.1,249.4 480.1,248.6 483.1,247.9 486.1,247.1 489.1,246.2 492.1,245.4 495.2,244.7 498.2,244.2 501.2,243.7 504.2,243.0 507.2,242.7 510.2,242.3 513.2,241.9 516.3,241.7 519.3,241.6 525.3,241.5 528.3,239.9 531.3,238.7 534.4,238.5 537.4,238.4 543.4,238.3 546.4,238.0 558.5,237.9 564.5,237.8 573.5,237.7 576.6,235.8 579.6,234.1 582.6,233.6 585.6,232.1 588.6,231.0 591.6,230.3 594.6,229.9 597.7,229.2 600.7,228.8 603.7,228.7 606.7,228.4 609.7,228.2 627.8,226.9 630.8,225.3 633.8,225.1 636.9,224.8 639.9,224.7 661.0,224.6 688.1,223.0 691.1,221.7 694.1,220.1 697.1,217.9 700.2,217.5 703.2,216.8 706.2,215.5 709.2,214.5 712.2,212.3 715.2,209.1 718.2,206.0 721.3,202.3 724.3,198.4 727.3,195.0 730.3,192.9 733.3,190.4 736.3,186.7 739.4,183.6 742.4,181.5 745.4,179.3 748.4,176.2 751.4,174.3 754.4,172.4 757.4,170.7 760.5,169.4 763.5,167.7 766.5,166.7 769.5,165.5 772.5,164.6 775.5,161.7 778.5,159.3 781.6,158.0 784.6,157.6 787.6,156.9 790.6,155.7 793.6,154.7 796.6,152.7 799.6,151.5 802.7,150.4 805.7,150.2 808.7,149.8 811.7,148.9 814.7,146.5 817.7,142.7 820.8,138.8 823.8,134.9 826.8,131.6 829.8,127.8 832.8,123.8 835.8,119.7 838.8,115.9 841.9,113.2 844.9,111.0 847.9,108.5 850.9,106.1 853.9,104.5 856.9,102.6 859.9,101.1 863.0,99.0 866.0,96.2 869.0,92.8 872.0,90.0" fill="none" stroke="#38bdf8" stroke-width="2.5" stroke-linejoin="round" stroke-linecap="round"/>
<circle cx="872.0" cy="90.0" r="4" fill="#0ea5e9"/>
<text x="866.0" y="80.0" text-anchor="end" font-family="Inter, system-ui, sans-serif" font-size="13" font-weight="700" fill="#334155">2260</text>
<text x="52.0" y="294" text-anchor="middle" font-family="Inter, system-ui, sans-serif" font-size="11" fill="#94a3b8">Jun 10 05:00</text>
<text x="534.4" y="294" text-anchor="middle" font-family="Inter, system-ui, sans-serif" font-size="11" fill="#94a3b8">Jun 16 21:00</text>
<text x="872.0" y="294" text-anchor="middle" font-family="Inter, system-ui, sans-serif" font-size="11" fill="#94a3b8">Jun 21 13:00</text>
</svg>
