<svg xmlns="http://www.w3.org/2000/svg" width="900" height="320" viewBox="0 0 900 320" role="img" aria-labelledby="title desc">
<title id="title">Unsorry proofs over time</title>
<desc id="desc">Cumulative kernel-verified proofs over time, by the hour each proof was merged.</desc>
<rect width="900" height="100%" rx="18" fill="#ffffff"/>
<rect x="0.5" y="0.5" width="899" height="319" rx="18" fill="none" stroke="#e2e8f0"/>
<text x="32" y="44" font-family="Inter, system-ui, sans-serif" font-size="28" font-weight="700" fill="#334155">Unsorry — Proofs Over Time</text>
<text x="32" y="72" font-family="Inter, system-ui, sans-serif" font-size="13" fill="#64748b">2574 cumulative kernel-verified proofs · merged, hourly</text>
<line x1="52" y1="272.0" x2="872" y2="272.0" stroke="#f1f5f9"/>
<text x="44" y="276.0" text-anchor="end" font-family="Inter, system-ui, sans-serif" font-size="11" fill="#94a3b8">0</text>
<line x1="52" y1="226.5" x2="872" y2="226.5" stroke="#f1f5f9"/>
<text x="44" y="230.5" text-anchor="end" font-family="Inter, system-ui, sans-serif" font-size="11" fill="#94a3b8">644</text>
<line x1="52" y1="181.0" x2="872" y2="181.0" stroke="#f1f5f9"/>
<text x="44" y="185.0" text-anchor="end" font-family="Inter, system-ui, sans-serif" font-size="11" fill="#94a3b8">1287</text>
<line x1="52" y1="135.5" x2="872" y2="135.5" stroke="#f1f5f9"/>
<text x="44" y="139.5" text-anchor="end" font-family="Inter, system-ui, sans-serif" font-size="11" fill="#94a3b8">1930</text>
<line x1="52" y1="90.0" x2="872" y2="90.0" stroke="#f1f5f9"/>
<text x="44" y="94.0" text-anchor="end" font-family="Inter, system-ui, sans-serif" font-size="11" fill="#94a3b8">2574</text>
<polygon points="52.0,272.0 52.0,271.9 54.9,271.8 89.4,271.1 92.3,270.9 95.2,270.8 103.8,270.7 121.1,270.7 158.5,270.6 161.3,269.9 164.2,269.9 172.8,269.7 175.7,269.7 178.6,269.6 181.5,269.4 187.2,269.3 190.1,269.0 198.7,268.7 210.2,268.5 213.1,268.3 216.0,268.2 239.0,268.1 244.8,268.0 259.2,268.0 262.0,267.9 264.9,267.8 276.4,267.7 279.3,267.3 282.2,266.9 285.1,266.0 287.9,265.8 308.1,265.8 316.7,265.7 322.5,265.6 325.3,265.6 328.2,265.2 331.1,265.1 334.0,265.1 336.8,264.9 339.7,264.6 351.2,264.3 357.0,264.2 368.5,264.2 371.4,263.8 374.2,263.7 377.1,263.6 382.9,263.5 385.8,262.1 388.6,260.7 391.5,260.2 394.4,259.8 397.3,259.7 400.1,259.3 403.0,258.8 405.9,258.5 408.8,258.3 411.6,258.1 417.4,257.9 420.3,257.4 423.2,256.8 426.0,256.2 428.9,255.9 434.7,255.7 440.4,255.7 443.3,255.2 446.2,254.8 449.1,253.8 451.9,253.3 454.8,252.7 457.7,252.1 460.6,251.5 463.4,250.9 466.3,250.2 469.2,249.4 472.1,248.7 474.9,248.0 477.8,247.6 480.7,247.1 483.6,246.5 486.5,246.3 489.3,245.9 492.2,245.6 495.1,245.4 498.0,245.3 503.7,245.2 506.6,243.8 509.5,242.8 512.4,242.6 515.2,242.5 521.0,242.4 523.9,242.2 535.4,242.1 541.1,241.9 549.8,241.9 552.6,240.3 555.5,238.7 558.4,238.3 561.3,237.0 564.1,236.0 567.0,235.4 569.9,235.0 572.8,234.4 575.6,234.1 578.5,234.0 581.4,233.7 584.3,233.5 601.5,232.4 604.4,231.0 607.3,230.8 610.2,230.6 613.1,230.5 633.2,230.4 659.1,228.9 662.0,227.8 664.8,226.5 667.7,224.5 670.6,224.1 673.5,223.5 676.4,222.4 679.2,221.5 682.1,219.6 685.0,216.8 687.9,214.0 690.7,210.8 693.6,207.4 696.5,204.4 699.4,202.6 702.2,200.4 705.1,197.1 708.0,194.4 710.9,192.5 713.8,190.6 716.6,187.9 719.5,186.2 722.4,184.5 725.3,183.1 728.1,181.9 731.0,180.4 733.9,179.5 736.8,178.5 739.6,177.7 742.5,175.1 745.4,173.1 748.3,171.9 751.2,171.6 754.0,171.0 756.9,169.9 759.8,169.0 762.7,167.3 765.5,166.2 768.4,165.2 771.3,165.1 774.2,164.7 777.1,163.9 779.9,161.8 782.8,158.5 785.7,155.1 788.6,151.6 791.4,148.8 794.3,145.4 797.2,141.9 800.1,138.3 802.9,135.0 805.8,132.6 808.7,130.7 811.6,128.5 814.5,126.3 817.3,124.9 820.2,123.2 823.1,122.0 826.0,120.1 828.8,117.6 831.7,114.7 834.6,112.2 837.5,110.0 840.4,108.6 843.2,107.3 846.1,106.1 849.0,104.6 851.9,102.2 854.7,100.2 857.6,97.7 860.5,95.2 863.4,93.0 866.2,91.3 869.1,90.6 872.0,90.0 872.0,272.0" fill="#e0f2fe" opacity="0.55"/>
<polyline points="52.0,271.9 54.9,271.8 89.4,271.1 92.3,270.9 95.2,270.8 103.8,270.7 121.1,270.7 158.5,270.6 161.3,269.9 164.2,269.9 172.8,269.7 175.7,269.7 178.6,269.6 181.5,269.4 187.2,269.3 190.1,269.0 198.7,268.7 210.2,268.5 213.1,268.3 216.0,268.2 239.0,268.1 244.8,268.0 259.2,268.0 262.0,267.9 264.9,267.8 276.4,267.7 279.3,267.3 282.2,266.9 285.1,266.0 287.9,265.8 308.1,265.8 316.7,265.7 322.5,265.6 325.3,265.6 328.2,265.2 331.1,265.1 334.0,265.1 336.8,264.9 339.7,264.6 351.2,264.3 357.0,264.2 368.5,264.2 371.4,263.8 374.2,263.7 377.1,263.6 382.9,263.5 385.8,262.1 388.6,260.7 391.5,260.2 394.4,259.8 397.3,259.7 400.1,259.3 403.0,258.8 405.9,258.5 408.8,258.3 411.6,258.1 417.4,257.9 420.3,257.4 423.2,256.8 426.0,256.2 428.9,255.9 434.7,255.7 440.4,255.7 443.3,255.2 446.2,254.8 449.1,253.8 451.9,253.3 454.8,252.7 457.7,252.1 460.6,251.5 463.4,250.9 466.3,250.2 469.2,249.4 472.1,248.7 474.9,248.0 477.8,247.6 480.7,247.1 483.6,246.5 486.5,246.3 489.3,245.9 492.2,245.6 495.1,245.4 498.0,245.3 503.7,245.2 506.6,243.8 509.5,242.8 512.4,242.6 515.2,242.5 521.0,242.4 523.9,242.2 535.4,242.1 541.1,241.9 549.8,241.9 552.6,240.3 555.5,238.7 558.4,238.3 561.3,237.0 564.1,236.0 567.0,235.4 569.9,235.0 572.8,234.4 575.6,234.1 578.5,234.0 581.4,233.7 584.3,233.5 601.5,232.4 604.4,231.0 607.3,230.8 610.2,230.6 613.1,230.5 633.2,230.4 659.1,228.9 662.0,227.8 664.8,226.5 667.7,224.5 670.6,224.1 673.5,223.5 676.4,222.4 679.2,221.5 682.1,219.6 685.0,216.8 687.9,214.0 690.7,210.8 693.6,207.4 696.5,204.4 699.4,202.6 702.2,200.4 705.1,197.1 708.0,194.4 710.9,192.5 713.8,190.6 716.6,187.9 719.5,186.2 722.4,184.5 725.3,183.1 728.1,181.9 731.0,180.4 733.9,179.5 736.8,178.5 739.6,177.7 742.5,175.1 745.4,173.1 748.3,171.9 751.2,171.6 754.0,171.0 756.9,169.9 759.8,169.0 762.7,167.3 765.5,166.2 768.4,165.2 771.3,165.1 774.2,164.7 777.1,163.9 779.9,161.8 782.8,158.5 785.7,155.1 788.6,151.6 791.4,148.8 794.3,145.4 797.2,141.9 800.1,138.3 802.9,135.0 805.8,132.6 808.7,130.7 811.6,128.5 814.5,126.3 817.3,124.9 820.2,123.2 823.1,122.0 826.0,120.1 828.8,117.6 831.7,114.7 834.6,112.2 837.5,110.0 840.4,108.6 843.2,107.3 846.1,106.1 849.0,104.6 851.9,102.2 854.7,100.2 857.6,97.7 860.5,95.2 863.4,93.0 866.2,91.3 869.1,90.6 872.0,90.0" fill="none" stroke="#38bdf8" stroke-width="2.5" stroke-linejoin="round" stroke-linecap="round"/>
<circle cx="872.0" cy="90.0" r="4" fill="#0ea5e9"/>
<text x="866.0" y="80.0" text-anchor="end" font-family="Inter, system-ui, sans-serif" font-size="13" font-weight="700" fill="#334155">2574</text>
<text x="52.0" y="294" text-anchor="middle" font-family="Inter, system-ui, sans-serif" font-size="11" fill="#94a3b8">Jun 10 05:00</text>
<text x="552.6" y="294" text-anchor="middle" font-family="Inter, system-ui, sans-serif" font-size="11" fill="#94a3b8">Jun 17 11:00</text>
<text x="872.0" y="294" text-anchor="middle" font-family="Inter, system-ui, sans-serif" font-size="11" fill="#94a3b8">Jun 22 02:00</text>
</svg>
