<svg xmlns="http://www.w3.org/2000/svg" width="900" height="320" viewBox="0 0 900 320" role="img" aria-labelledby="title desc">
<title id="title">Unsorry proofs over time</title>
<desc id="desc">Cumulative kernel-verified proofs over time, by the hour each proof was merged.</desc>
<rect width="900" height="100%" rx="18" fill="#ffffff"/>
<rect x="0.5" y="0.5" width="899" height="319" rx="18" fill="none" stroke="#e2e8f0"/>
<text x="32" y="44" font-family="Inter, system-ui, sans-serif" font-size="28" font-weight="700" fill="#334155">Unsorry — Proofs Over Time</text>
<text x="32" y="72" font-family="Inter, system-ui, sans-serif" font-size="13" fill="#64748b">2347 cumulative kernel-verified proofs · merged, hourly</text>
<line x1="52" y1="272.0" x2="872" y2="272.0" stroke="#f1f5f9"/>
<text x="44" y="276.0" text-anchor="end" font-family="Inter, system-ui, sans-serif" font-size="11" fill="#94a3b8">0</text>
<line x1="52" y1="226.5" x2="872" y2="226.5" stroke="#f1f5f9"/>
<text x="44" y="230.5" text-anchor="end" font-family="Inter, system-ui, sans-serif" font-size="11" fill="#94a3b8">587</text>
<line x1="52" y1="181.0" x2="872" y2="181.0" stroke="#f1f5f9"/>
<text x="44" y="185.0" text-anchor="end" font-family="Inter, system-ui, sans-serif" font-size="11" fill="#94a3b8">1174</text>
<line x1="52" y1="135.5" x2="872" y2="135.5" stroke="#f1f5f9"/>
<text x="44" y="139.5" text-anchor="end" font-family="Inter, system-ui, sans-serif" font-size="11" fill="#94a3b8">1760</text>
<line x1="52" y1="90.0" x2="872" y2="90.0" stroke="#f1f5f9"/>
<text x="44" y="94.0" text-anchor="end" font-family="Inter, system-ui, sans-serif" font-size="11" fill="#94a3b8">2347</text>
<polygon points="52.0,272.0 52.0,271.9 55.0,271.8 90.6,271.0 93.6,270.8 96.6,270.7 105.5,270.6 123.3,270.5 161.9,270.4 164.9,269.8 167.9,269.7 176.8,269.5 179.8,269.4 182.7,269.4 185.7,269.1 191.6,269.1 194.6,268.7 203.5,268.4 215.4,268.2 218.4,268.0 221.3,267.8 245.1,267.7 251.1,267.7 265.9,267.6 268.9,267.5 271.9,267.3 283.7,267.3 286.7,266.8 289.7,266.4 292.7,265.4 295.6,265.3 316.4,265.2 325.3,265.1 331.3,265.0 334.2,264.9 337.2,264.6 340.2,264.5 343.2,264.4 346.1,264.2 349.1,263.9 361.0,263.5 366.9,263.5 378.8,263.4 381.8,263.0 384.8,262.9 387.7,262.8 393.7,262.7 396.6,261.1 399.6,259.6 402.6,259.0 405.6,258.7 408.5,258.5 411.5,258.1 414.5,257.6 417.4,257.2 420.4,257.0 423.4,256.8 429.3,256.6 432.3,255.9 435.3,255.3 438.2,254.7 441.2,254.3 447.1,254.2 453.1,254.1 456.1,253.5 459.0,253.2 462.0,252.1 465.0,251.5 467.9,250.8 470.9,250.2 473.9,249.5 476.9,248.8 479.8,248.0 482.8,247.2 485.8,246.4 488.7,245.7 491.7,245.2 494.7,244.7 497.7,244.1 500.6,243.8 503.6,243.4 506.6,243.0 509.5,242.8 512.5,242.7 518.4,242.6 521.4,241.1 524.4,240.0 527.4,239.7 530.3,239.7 536.3,239.5 539.2,239.3 551.1,239.2 557.1,239.0 566.0,239.0 569.0,237.2 571.9,235.5 574.9,235.0 577.9,233.6 580.8,232.5 583.8,231.8 586.8,231.4 589.8,230.7 592.7,230.4 595.7,230.3 598.7,230.0 601.6,229.8 619.5,228.6 622.4,227.0 625.4,226.8 628.4,226.6 631.3,226.5 652.1,226.4 678.9,224.8 681.9,223.5 684.8,222.1 687.8,219.9 690.8,219.5 693.7,218.8 696.7,217.6 699.7,216.6 702.7,214.5 705.6,211.4 708.6,208.4 711.6,204.8 714.5,201.1 717.5,197.9 720.5,195.9 723.4,193.4 726.4,189.9 729.4,186.9 732.4,184.8 735.3,182.7 738.3,179.8 741.3,177.9 744.2,176.1 747.2,174.4 750.2,173.2 753.2,171.6 756.1,170.6 759.1,169.5 762.1,168.6 765.0,165.8 768.0,163.5 771.0,162.3 774.0,161.9 776.9,161.2 779.9,160.0 782.9,159.0 785.8,157.2 788.8,156.0 791.8,154.9 794.8,154.8 797.7,154.3 800.7,153.4 803.7,151.2 806.6,147.5 809.6,143.7 812.6,139.9 815.6,136.8 818.5,133.2 821.5,129.3 824.5,125.4 827.4,121.7 830.4,119.1 833.4,117.0 836.3,114.6 839.3,112.3 842.3,110.7 845.3,108.8 848.2,107.4 851.2,105.4 854.2,102.7 857.1,99.5 860.1,96.7 863.1,94.3 866.1,92.8 869.0,91.4 872.0,90.0 872.0,272.0" fill="#e0f2fe" opacity="0.55"/>
<polyline points="52.0,271.9 55.0,271.8 90.6,271.0 93.6,270.8 96.6,270.7 105.5,270.6 123.3,270.5 161.9,270.4 164.9,269.8 167.9,269.7 176.8,269.5 179.8,269.4 182.7,269.4 185.7,269.1 191.6,269.1 194.6,268.7 203.5,268.4 215.4,268.2 218.4,268.0 221.3,267.8 245.1,267.7 251.1,267.7 265.9,267.6 268.9,267.5 271.9,267.3 283.7,267.3 286.7,266.8 289.7,266.4 292.7,265.4 295.6,265.3 316.4,265.2 325.3,265.1 331.3,265.0 334.2,264.9 337.2,264.6 340.2,264.5 343.2,264.4 346.1,264.2 349.1,263.9 361.0,263.5 366.9,263.5 378.8,263.4 381.8,263.0 384.8,262.9 387.7,262.8 393.7,262.7 396.6,261.1 399.6,259.6 402.6,259.0 405.6,258.7 408.5,258.5 411.5,258.1 414.5,257.6 417.4,257.2 420.4,257.0 423.4,256.8 429.3,256.6 432.3,255.9 435.3,255.3 438.2,254.7 441.2,254.3 447.1,254.2 453.1,254.1 456.1,253.5 459.0,253.2 462.0,252.1 465.0,251.5 467.9,250.8 470.9,250.2 473.9,249.5 476.9,248.8 479.8,248.0 482.8,247.2 485.8,246.4 488.7,245.7 491.7,245.2 494.7,244.7 497.7,244.1 500.6,243.8 503.6,243.4 506.6,243.0 509.5,242.8 512.5,242.7 518.4,242.6 521.4,241.1 524.4,240.0 527.4,239.7 530.3,239.7 536.3,239.5 539.2,239.3 551.1,239.2 557.1,239.0 566.0,239.0 569.0,237.2 571.9,235.5 574.9,235.0 577.9,233.6 580.8,232.5 583.8,231.8 586.8,231.4 589.8,230.7 592.7,230.4 595.7,230.3 598.7,230.0 601.6,229.8 619.5,228.6 622.4,227.0 625.4,226.8 628.4,226.6 631.3,226.5 652.1,226.4 678.9,224.8 681.9,223.5 684.8,222.1 687.8,219.9 690.8,219.5 693.7,218.8 696.7,217.6 699.7,216.6 702.7,214.5 705.6,211.4 708.6,208.4 711.6,204.8 714.5,201.1 717.5,197.9 720.5,195.9 723.4,193.4 726.4,189.9 729.4,186.9 732.4,184.8 735.3,182.7 738.3,179.8 741.3,177.9 744.2,176.1 747.2,174.4 750.2,173.2 753.2,171.6 756.1,170.6 759.1,169.5 762.1,168.6 765.0,165.8 768.0,163.5 771.0,162.3 774.0,161.9 776.9,161.2 779.9,160.0 782.9,159.0 785.8,157.2 788.8,156.0 791.8,154.9 794.8,154.8 797.7,154.3 800.7,153.4 803.7,151.2 806.6,147.5 809.6,143.7 812.6,139.9 815.6,136.8 818.5,133.2 821.5,129.3 824.5,125.4 827.4,121.7 830.4,119.1 833.4,117.0 836.3,114.6 839.3,112.3 842.3,110.7 845.3,108.8 848.2,107.4 851.2,105.4 854.2,102.7 857.1,99.5 860.1,96.7 863.1,94.3 866.1,92.8 869.0,91.4 872.0,90.0" fill="none" stroke="#38bdf8" stroke-width="2.5" stroke-linejoin="round" stroke-linecap="round"/>
<circle cx="872.0" cy="90.0" r="4" fill="#0ea5e9"/>
<text x="866.0" y="80.0" text-anchor="end" font-family="Inter, system-ui, sans-serif" font-size="13" font-weight="700" fill="#334155">2347</text>
<text x="52.0" y="294" text-anchor="middle" font-family="Inter, system-ui, sans-serif" font-size="11" fill="#94a3b8">Jun 10 05:00</text>
<text x="536.3" y="294" text-anchor="middle" font-family="Inter, system-ui, sans-serif" font-size="11" fill="#94a3b8">Jun 17 00:00</text>
<text x="872.0" y="294" text-anchor="middle" font-family="Inter, system-ui, sans-serif" font-size="11" fill="#94a3b8">Jun 21 17:00</text>
</svg>
