<svg xmlns="http://www.w3.org/2000/svg" width="900" height="320" viewBox="0 0 900 320" role="img" aria-labelledby="title desc">
<title id="title">Unsorry proofs over time</title>
<desc id="desc">Cumulative kernel-verified proofs over time, by the hour each proof was merged.</desc>
<rect width="900" height="100%" rx="18" fill="#ffffff"/>
<rect x="0.5" y="0.5" width="899" height="319" rx="18" fill="none" stroke="#e2e8f0"/>
<text x="32" y="44" font-family="Inter, system-ui, sans-serif" font-size="28" font-weight="700" fill="#334155">Unsorry — Proofs Over Time</text>
<text x="32" y="72" font-family="Inter, system-ui, sans-serif" font-size="13" fill="#64748b">2320 cumulative kernel-verified proofs · merged, hourly</text>
<line x1="52" y1="272.0" x2="872" y2="272.0" stroke="#f1f5f9"/>
<text x="44" y="276.0" text-anchor="end" font-family="Inter, system-ui, sans-serif" font-size="11" fill="#94a3b8">0</text>
<line x1="52" y1="226.5" x2="872" y2="226.5" stroke="#f1f5f9"/>
<text x="44" y="230.5" text-anchor="end" font-family="Inter, system-ui, sans-serif" font-size="11" fill="#94a3b8">580</text>
<line x1="52" y1="181.0" x2="872" y2="181.0" stroke="#f1f5f9"/>
<text x="44" y="185.0" text-anchor="end" font-family="Inter, system-ui, sans-serif" font-size="11" fill="#94a3b8">1160</text>
<line x1="52" y1="135.5" x2="872" y2="135.5" stroke="#f1f5f9"/>
<text x="44" y="139.5" text-anchor="end" font-family="Inter, system-ui, sans-serif" font-size="11" fill="#94a3b8">1740</text>
<line x1="52" y1="90.0" x2="872" y2="90.0" stroke="#f1f5f9"/>
<text x="44" y="94.0" text-anchor="end" font-family="Inter, system-ui, sans-serif" font-size="11" fill="#94a3b8">2320</text>
<polygon points="52.0,272.0 52.0,271.9 55.0,271.8 90.8,271.0 93.7,270.7 96.7,270.7 105.7,270.6 123.6,270.5 162.3,270.4 165.3,269.7 168.3,269.6 177.2,269.5 180.2,269.4 183.2,269.3 186.2,269.1 192.1,269.0 195.1,268.6 204.1,268.3 216.0,268.2 219.0,267.9 222.0,267.8 245.8,267.7 251.8,267.6 266.7,267.5 269.7,267.4 272.7,267.3 284.6,267.2 287.6,266.7 290.5,266.4 293.5,265.3 296.5,265.2 317.4,265.1 326.3,265.0 332.3,264.9 335.3,264.9 338.3,264.5 341.2,264.4 344.2,264.3 347.2,264.1 350.2,263.8 362.1,263.4 368.1,263.4 380.0,263.3 383.0,262.9 386.0,262.8 388.9,262.7 394.9,262.6 397.9,261.0 400.9,259.4 403.9,258.9 406.8,258.5 409.8,258.4 412.8,258.0 415.8,257.4 418.8,257.0 421.7,256.8 424.7,256.6 430.7,256.4 433.7,255.8 436.7,255.1 439.6,254.5 442.6,254.1 448.6,254.0 454.5,253.9 457.5,253.3 460.5,252.9 463.5,251.8 466.5,251.2 469.5,250.6 472.4,250.0 475.4,249.2 478.4,248.5 481.4,247.8 484.4,246.9 487.3,246.1 490.3,245.4 493.3,244.9 496.3,244.4 499.3,243.8 502.3,243.4 505.2,243.1 508.2,242.7 511.2,242.5 514.2,242.3 520.1,242.3 523.1,240.7 526.1,239.6 529.1,239.4 532.1,239.3 538.0,239.1 541.0,238.9 552.9,238.8 558.9,238.7 567.9,238.6 570.8,236.8 573.8,235.1 576.8,234.6 579.8,233.2 582.8,232.1 585.7,231.4 588.7,231.0 591.7,230.3 594.7,230.0 597.7,229.8 600.7,229.5 603.6,229.3 621.5,228.1 624.5,226.5 627.5,226.3 630.5,226.0 633.5,226.0 654.3,225.9 681.2,224.2 684.1,223.0 687.1,221.5 690.1,219.3 693.1,218.9 696.1,218.2 699.1,216.9 702.0,216.0 705.0,213.9 708.0,210.7 711.0,207.7 714.0,204.1 716.9,200.3 719.9,197.0 722.9,195.0 725.9,192.5 728.9,188.9 731.9,185.9 734.8,183.8 737.8,181.7 740.8,178.7 743.8,176.8 746.8,175.0 749.7,173.3 752.7,172.1 755.7,170.4 758.7,169.4 761.7,168.3 764.7,167.4 767.6,164.5 770.6,162.3 773.6,161.0 776.6,160.6 779.6,159.9 782.5,158.7 785.5,157.7 788.5,155.8 791.5,154.6 794.5,153.5 797.5,153.4 800.4,152.9 803.4,152.1 806.4,149.8 809.4,146.1 812.4,142.2 815.3,138.4 818.3,135.3 821.3,131.6 824.3,127.7 827.3,123.7 830.3,120.0 833.2,117.3 836.2,115.2 839.2,112.8 842.2,110.4 845.2,108.8 848.1,106.9 851.1,105.5 854.1,103.5 857.1,100.7 860.1,97.5 863.1,94.7 866.0,92.3 869.0,90.7 872.0,90.0 872.0,272.0" fill="#e0f2fe" opacity="0.55"/>
<polyline points="52.0,271.9 55.0,271.8 90.8,271.0 93.7,270.7 96.7,270.7 105.7,270.6 123.6,270.5 162.3,270.4 165.3,269.7 168.3,269.6 177.2,269.5 180.2,269.4 183.2,269.3 186.2,269.1 192.1,269.0 195.1,268.6 204.1,268.3 216.0,268.2 219.0,267.9 222.0,267.8 245.8,267.7 251.8,267.6 266.7,267.5 269.7,267.4 272.7,267.3 284.6,267.2 287.6,266.7 290.5,266.4 293.5,265.3 296.5,265.2 317.4,265.1 326.3,265.0 332.3,264.9 335.3,264.9 338.3,264.5 341.2,264.4 344.2,264.3 347.2,264.1 350.2,263.8 362.1,263.4 368.1,263.4 380.0,263.3 383.0,262.9 386.0,262.8 388.9,262.7 394.9,262.6 397.9,261.0 400.9,259.4 403.9,258.9 406.8,258.5 409.8,258.4 412.8,258.0 415.8,257.4 418.8,257.0 421.7,256.8 424.7,256.6 430.7,256.4 433.7,255.8 436.7,255.1 439.6,254.5 442.6,254.1 448.6,254.0 454.5,253.9 457.5,253.3 460.5,252.9 463.5,251.8 466.5,251.2 469.5,250.6 472.4,250.0 475.4,249.2 478.4,248.5 481.4,247.8 484.4,246.9 487.3,246.1 490.3,245.4 493.3,244.9 496.3,244.4 499.3,243.8 502.3,243.4 505.2,243.1 508.2,242.7 511.2,242.5 514.2,242.3 520.1,242.3 523.1,240.7 526.1,239.6 529.1,239.4 532.1,239.3 538.0,239.1 541.0,238.9 552.9,238.8 558.9,238.7 567.9,238.6 570.8,236.8 573.8,235.1 576.8,234.6 579.8,233.2 582.8,232.1 585.7,231.4 588.7,231.0 591.7,230.3 594.7,230.0 597.7,229.8 600.7,229.5 603.6,229.3 621.5,228.1 624.5,226.5 627.5,226.3 630.5,226.0 633.5,226.0 654.3,225.9 681.2,224.2 684.1,223.0 687.1,221.5 690.1,219.3 693.1,218.9 696.1,218.2 699.1,216.9 702.0,216.0 705.0,213.9 708.0,210.7 711.0,207.7 714.0,204.1 716.9,200.3 719.9,197.0 722.9,195.0 725.9,192.5 728.9,188.9 731.9,185.9 734.8,183.8 737.8,181.7 740.8,178.7 743.8,176.8 746.8,175.0 749.7,173.3 752.7,172.1 755.7,170.4 758.7,169.4 761.7,168.3 764.7,167.4 767.6,164.5 770.6,162.3 773.6,161.0 776.6,160.6 779.6,159.9 782.5,158.7 785.5,157.7 788.5,155.8 791.5,154.6 794.5,153.5 797.5,153.4 800.4,152.9 803.4,152.1 806.4,149.8 809.4,146.1 812.4,142.2 815.3,138.4 818.3,135.3 821.3,131.6 824.3,127.7 827.3,123.7 830.3,120.0 833.2,117.3 836.2,115.2 839.2,112.8 842.2,110.4 845.2,108.8 848.1,106.9 851.1,105.5 854.1,103.5 857.1,100.7 860.1,97.5 863.1,94.7 866.0,92.3 869.0,90.7 872.0,90.0" fill="none" stroke="#38bdf8" stroke-width="2.5" stroke-linejoin="round" stroke-linecap="round"/>
<circle cx="872.0" cy="90.0" r="4" fill="#0ea5e9"/>
<text x="866.0" y="80.0" text-anchor="end" font-family="Inter, system-ui, sans-serif" font-size="13" font-weight="700" fill="#334155">2320</text>
<text x="52.0" y="294" text-anchor="middle" font-family="Inter, system-ui, sans-serif" font-size="11" fill="#94a3b8">Jun 10 05:00</text>
<text x="538.0" y="294" text-anchor="middle" font-family="Inter, system-ui, sans-serif" font-size="11" fill="#94a3b8">Jun 17 00:00</text>
<text x="872.0" y="294" text-anchor="middle" font-family="Inter, system-ui, sans-serif" font-size="11" fill="#94a3b8">Jun 21 16:00</text>
</svg>
