<svg xmlns="http://www.w3.org/2000/svg" width="900" height="320" viewBox="0 0 900 320" role="img" aria-labelledby="title desc">
<title id="title">unsorry proofs over time</title>
<desc id="desc">Cumulative kernel-verified proofs over time, by the hour each proof was merged.</desc>
<rect width="900" height="100%" rx="18" fill="#ffffff"/>
<rect x="0.5" y="0.5" width="899" height="319" rx="18" fill="none" stroke="#e2e8f0"/>
<text x="32" y="44" font-family="Inter, system-ui, sans-serif" font-size="28" font-weight="700" fill="#334155">unsorry — Proofs Over Time</text>
<text x="32" y="72" font-family="Inter, system-ui, sans-serif" font-size="13" fill="#64748b">2616 cumulative kernel-verified proofs · merged, hourly</text>
<line x1="52" y1="272.0" x2="872" y2="272.0" stroke="#f1f5f9"/>
<text x="44" y="276.0" text-anchor="end" font-family="Inter, system-ui, sans-serif" font-size="11" fill="#94a3b8">0</text>
<line x1="52" y1="226.5" x2="872" y2="226.5" stroke="#f1f5f9"/>
<text x="44" y="230.5" text-anchor="end" font-family="Inter, system-ui, sans-serif" font-size="11" fill="#94a3b8">654</text>
<line x1="52" y1="181.0" x2="872" y2="181.0" stroke="#f1f5f9"/>
<text x="44" y="185.0" text-anchor="end" font-family="Inter, system-ui, sans-serif" font-size="11" fill="#94a3b8">1308</text>
<line x1="52" y1="135.5" x2="872" y2="135.5" stroke="#f1f5f9"/>
<text x="44" y="139.5" text-anchor="end" font-family="Inter, system-ui, sans-serif" font-size="11" fill="#94a3b8">1962</text>
<line x1="52" y1="90.0" x2="872" y2="90.0" stroke="#f1f5f9"/>
<text x="44" y="94.0" text-anchor="end" font-family="Inter, system-ui, sans-serif" font-size="11" fill="#94a3b8">2616</text>
<polygon points="52.0,272.0 52.0,271.9 54.8,271.8 88.0,271.1 90.8,270.9 93.6,270.8 101.9,270.7 118.5,270.7 154.5,270.6 157.3,270.0 160.0,269.9 168.4,269.8 171.1,269.7 173.9,269.6 176.7,269.4 182.2,269.4 185.0,269.0 193.3,268.7 204.4,268.6 207.1,268.4 209.9,268.2 232.1,268.2 237.6,268.1 251.5,268.0 254.2,268.0 257.0,267.8 268.1,267.8 270.9,267.3 273.6,267.0 276.4,266.1 279.2,265.9 298.6,265.9 306.9,265.8 312.4,265.7 315.2,265.7 317.9,265.3 320.7,265.3 323.5,265.2 326.3,265.0 329.0,264.8 340.1,264.4 345.6,264.3 356.7,264.3 359.5,263.9 362.3,263.9 365.0,263.7 370.6,263.7 373.4,262.3 376.1,260.9 378.9,260.4 381.7,260.0 384.4,259.9 387.2,259.5 390.0,259.1 392.7,258.7 395.5,258.5 398.3,258.4 403.8,258.2 406.6,257.6 409.4,257.0 412.1,256.5 414.9,256.1 420.4,256.0 426.0,255.9 428.8,255.4 431.5,255.1 434.3,254.1 437.1,253.6 439.8,253.0 442.6,252.5 445.4,251.8 448.1,251.2 450.9,250.5 453.7,249.7 456.5,249.0 459.2,248.4 462.0,248.0 464.8,247.5 467.5,247.0 470.3,246.7 473.1,246.3 475.9,246.0 478.6,245.8 481.4,245.7 486.9,245.6 489.7,244.2 492.5,243.3 495.2,243.1 498.0,243.0 503.6,242.8 506.3,242.6 517.4,242.6 522.9,242.4 531.3,242.4 534.0,240.8 536.8,239.2 539.6,238.8 542.3,237.6 545.1,236.6 547.9,236.0 550.6,235.6 553.4,235.0 556.2,234.7 559.0,234.6 561.7,234.3 564.5,234.2 581.1,233.0 583.9,231.6 586.7,231.4 589.4,231.2 592.2,231.2 611.6,231.1 636.5,229.6 639.3,228.5 642.1,227.2 644.8,225.2 647.6,224.9 650.4,224.3 653.1,223.2 655.9,222.3 658.7,220.4 661.5,217.7 664.2,215.0 667.0,211.8 669.8,208.4 672.5,205.5 675.3,203.7 678.1,201.5 680.9,198.3 683.6,195.6 686.4,193.8 689.2,191.9 691.9,189.3 694.7,187.6 697.5,185.9 700.2,184.5 703.0,183.4 705.8,181.9 708.6,181.0 711.3,180.0 714.1,179.2 716.9,176.7 719.6,174.7 722.4,173.6 725.2,173.2 727.9,172.6 730.7,171.5 733.5,170.6 736.3,169.0 739.0,167.9 741.8,166.9 744.6,166.8 747.3,166.4 750.1,165.6 752.9,163.6 755.6,160.3 758.4,156.9 761.2,153.5 764.0,150.7 766.7,147.5 769.5,144.0 772.3,140.4 775.0,137.2 777.8,134.8 780.6,132.9 783.4,130.8 786.1,128.7 788.9,127.3 791.7,125.6 794.4,124.4 797.2,122.6 800.0,120.1 802.7,117.2 805.5,114.8 808.3,112.6 811.1,111.2 813.8,110.0 816.6,108.7 819.4,107.3 822.1,105.0 824.9,102.9 827.7,100.5 830.4,98.0 833.2,95.9 836.0,94.2 838.8,93.5 841.5,92.6 844.3,91.6 847.1,91.5 849.8,91.3 852.6,90.8 855.4,90.6 858.1,90.6 860.9,90.2 863.7,90.1 872.0,90.0 872.0,272.0" fill="#e0f2fe" opacity="0.55"/>
<polyline points="52.0,271.9 54.8,271.8 88.0,271.1 90.8,270.9 93.6,270.8 101.9,270.7 118.5,270.7 154.5,270.6 157.3,270.0 160.0,269.9 168.4,269.8 171.1,269.7 173.9,269.6 176.7,269.4 182.2,269.4 185.0,269.0 193.3,268.7 204.4,268.6 207.1,268.4 209.9,268.2 232.1,268.2 237.6,268.1 251.5,268.0 254.2,268.0 257.0,267.8 268.1,267.8 270.9,267.3 273.6,267.0 276.4,266.1 279.2,265.9 298.6,265.9 306.9,265.8 312.4,265.7 315.2,265.7 317.9,265.3 320.7,265.3 323.5,265.2 326.3,265.0 329.0,264.8 340.1,264.4 345.6,264.3 356.7,264.3 359.5,263.9 362.3,263.9 365.0,263.7 370.6,263.7 373.4,262.3 376.1,260.9 378.9,260.4 381.7,260.0 384.4,259.9 387.2,259.5 390.0,259.1 392.7,258.7 395.5,258.5 398.3,258.4 403.8,258.2 406.6,257.6 409.4,257.0 412.1,256.5 414.9,256.1 420.4,256.0 426.0,255.9 428.8,255.4 431.5,255.1 434.3,254.1 437.1,253.6 439.8,253.0 442.6,252.5 445.4,251.8 448.1,251.2 450.9,250.5 453.7,249.7 456.5,249.0 459.2,248.4 462.0,248.0 464.8,247.5 467.5,247.0 470.3,246.7 473.1,246.3 475.9,246.0 478.6,245.8 481.4,245.7 486.9,245.6 489.7,244.2 492.5,243.3 495.2,243.1 498.0,243.0 503.6,242.8 506.3,242.6 517.4,242.6 522.9,242.4 531.3,242.4 534.0,240.8 536.8,239.2 539.6,238.8 542.3,237.6 545.1,236.6 547.9,236.0 550.6,235.6 553.4,235.0 556.2,234.7 559.0,234.6 561.7,234.3 564.5,234.2 581.1,233.0 583.9,231.6 586.7,231.4 589.4,231.2 592.2,231.2 611.6,231.1 636.5,229.6 639.3,228.5 642.1,227.2 644.8,225.2 647.6,224.9 650.4,224.3 653.1,223.2 655.9,222.3 658.7,220.4 661.5,217.7 664.2,215.0 667.0,211.8 669.8,208.4 672.5,205.5 675.3,203.7 678.1,201.5 680.9,198.3 683.6,195.6 686.4,193.8 689.2,191.9 691.9,189.3 694.7,187.6 697.5,185.9 700.2,184.5 703.0,183.4 705.8,181.9 708.6,181.0 711.3,180.0 714.1,179.2 716.9,176.7 719.6,174.7 722.4,173.6 725.2,173.2 727.9,172.6 730.7,171.5 733.5,170.6 736.3,169.0 739.0,167.9 741.8,166.9 744.6,166.8 747.3,166.4 750.1,165.6 752.9,163.6 755.6,160.3 758.4,156.9 761.2,153.5 764.0,150.7 766.7,147.5 769.5,144.0 772.3,140.4 775.0,137.2 777.8,134.8 780.6,132.9 783.4,130.8 786.1,128.7 788.9,127.3 791.7,125.6 794.4,124.4 797.2,122.6 800.0,120.1 802.7,117.2 805.5,114.8 808.3,112.6 811.1,111.2 813.8,110.0 816.6,108.7 819.4,107.3 822.1,105.0 824.9,102.9 827.7,100.5 830.4,98.0 833.2,95.9 836.0,94.2 838.8,93.5 841.5,92.6 844.3,91.6 847.1,91.5 849.8,91.3 852.6,90.8 855.4,90.6 858.1,90.6 860.9,90.2 863.7,90.1 872.0,90.0" fill="none" stroke="#38bdf8" stroke-width="2.5" stroke-linejoin="round" stroke-linecap="round"/>
<circle cx="872.0" cy="90.0" r="4" fill="#0ea5e9"/>
<text x="866.0" y="80.0" text-anchor="end" font-family="Inter, system-ui, sans-serif" font-size="13" font-weight="700" fill="#334155">2616</text>
<text x="52.0" y="294" text-anchor="middle" font-family="Inter, system-ui, sans-serif" font-size="11" fill="#94a3b8">Jun 10 05:00</text>
<text x="545.1" y="294" text-anchor="middle" font-family="Inter, system-ui, sans-serif" font-size="11" fill="#94a3b8">Jun 17 15:00</text>
<text x="872.0" y="294" text-anchor="middle" font-family="Inter, system-ui, sans-serif" font-size="11" fill="#94a3b8">Jun 22 13:00</text>
</svg>
