<svg xmlns="http://www.w3.org/2000/svg" width="900" height="320" viewBox="0 0 900 320" role="img" aria-labelledby="title desc">
<title id="title">Unsorry proofs over time</title>
<desc id="desc">Cumulative kernel-verified proofs over time, by the hour each proof was merged.</desc>
<rect width="900" height="100%" rx="18" fill="#ffffff"/>
<rect x="0.5" y="0.5" width="899" height="319" rx="18" fill="none" stroke="#e2e8f0"/>
<text x="32" y="44" font-family="Inter, system-ui, sans-serif" font-size="28" font-weight="700" fill="#334155">Unsorry — Proofs Over Time</text>
<text x="32" y="72" font-family="Inter, system-ui, sans-serif" font-size="13" fill="#64748b">1940 cumulative kernel-verified proofs · merged, hourly</text>
<line x1="52" y1="272.0" x2="872" y2="272.0" stroke="#f1f5f9"/>
<text x="44" y="276.0" text-anchor="end" font-family="Inter, system-ui, sans-serif" font-size="11" fill="#94a3b8">0</text>
<line x1="52" y1="226.5" x2="872" y2="226.5" stroke="#f1f5f9"/>
<text x="44" y="230.5" text-anchor="end" font-family="Inter, system-ui, sans-serif" font-size="11" fill="#94a3b8">485</text>
<line x1="52" y1="181.0" x2="872" y2="181.0" stroke="#f1f5f9"/>
<text x="44" y="185.0" text-anchor="end" font-family="Inter, system-ui, sans-serif" font-size="11" fill="#94a3b8">970</text>
<line x1="52" y1="135.5" x2="872" y2="135.5" stroke="#f1f5f9"/>
<text x="44" y="139.5" text-anchor="end" font-family="Inter, system-ui, sans-serif" font-size="11" fill="#94a3b8">1455</text>
<line x1="52" y1="90.0" x2="872" y2="90.0" stroke="#f1f5f9"/>
<text x="44" y="94.0" text-anchor="end" font-family="Inter, system-ui, sans-serif" font-size="11" fill="#94a3b8">1940</text>
<polygon points="52.0,272.0 52.0,271.9 55.1,271.7 92.7,270.8 95.8,270.5 98.9,270.4 108.3,270.3 127.1,270.2 167.8,270.1 170.9,269.3 174.1,269.2 183.5,269.0 186.6,268.9 189.7,268.8 192.8,268.5 199.1,268.4 202.2,268.0 211.6,267.6 224.1,267.4 227.3,267.1 230.4,266.9 255.4,266.8 261.7,266.7 277.3,266.7 280.5,266.6 283.6,266.4 296.1,266.3 299.3,265.7 302.4,265.2 305.5,264.0 308.6,263.8 330.5,263.7 339.9,263.7 346.2,263.6 349.3,263.5 352.5,263.0 355.6,262.9 358.7,262.8 361.8,262.5 365.0,262.2 377.5,261.8 383.8,261.7 396.3,261.6 399.4,261.1 402.5,261.0 405.7,260.8 411.9,260.7 415.1,258.9 418.2,257.0 421.3,256.3 424.4,255.9 427.6,255.7 430.7,255.2 433.8,254.6 437.0,254.1 440.1,253.8 443.2,253.6 449.5,253.3 452.6,252.6 455.7,251.8 458.9,251.1 462.0,250.6 468.3,250.4 474.5,250.3 477.6,249.7 480.8,249.2 483.9,247.9 487.0,247.1 490.2,246.4 493.3,245.6 496.4,244.8 499.6,243.9 502.7,243.0 505.8,242.0 508.9,241.0 512.1,240.2 515.2,239.6 518.3,239.0 521.5,238.2 524.6,237.9 527.7,237.4 530.9,236.9 534.0,236.7 537.1,236.5 543.4,236.4 546.5,234.6 549.6,233.3 552.8,233.0 555.9,232.9 562.2,232.7 565.3,232.4 577.8,232.3 584.1,232.1 593.5,232.0 596.6,229.9 599.7,227.8 602.8,227.3 606.0,225.6 609.1,224.2 612.2,223.4 615.4,222.9 618.5,222.1 621.6,221.7 624.7,221.5 627.9,221.2 631.0,221.0 649.8,219.5 652.9,217.6 656.0,217.3 659.2,217.0 662.3,216.9 684.2,216.8 712.4,214.9 715.5,213.4 718.6,211.6 721.8,209.0 724.9,208.5 728.0,207.6 731.2,206.1 734.3,205.0 737.4,202.5 740.5,198.7 743.7,195.1 746.8,190.8 749.9,186.3 753.1,182.3 756.2,179.9 759.3,177.0 762.5,172.7 765.6,169.0 768.7,166.6 771.8,164.0 775.0,160.5 778.1,158.2 781.2,156.0 784.4,154.0 787.5,152.5 790.6,150.5 793.8,149.3 796.9,148.0 800.0,146.9 803.1,143.5 806.3,140.8 809.4,139.3 812.5,138.8 815.7,137.9 818.8,136.5 821.9,135.3 825.1,133.1 828.2,131.7 831.3,130.3 834.4,130.2 837.6,129.6 840.7,128.6 843.8,125.8 847.0,121.4 850.1,116.8 853.2,112.2 856.4,108.5 859.5,104.1 862.6,99.4 865.7,94.6 868.9,90.2 872.0,90.0 872.0,272.0" fill="#e0f2fe" opacity="0.55"/>
<polyline points="52.0,271.9 55.1,271.7 92.7,270.8 95.8,270.5 98.9,270.4 108.3,270.3 127.1,270.2 167.8,270.1 170.9,269.3 174.1,269.2 183.5,269.0 186.6,268.9 189.7,268.8 192.8,268.5 199.1,268.4 202.2,268.0 211.6,267.6 224.1,267.4 227.3,267.1 230.4,266.9 255.4,266.8 261.7,266.7 277.3,266.7 280.5,266.6 283.6,266.4 296.1,266.3 299.3,265.7 302.4,265.2 305.5,264.0 308.6,263.8 330.5,263.7 339.9,263.7 346.2,263.6 349.3,263.5 352.5,263.0 355.6,262.9 358.7,262.8 361.8,262.5 365.0,262.2 377.5,261.8 383.8,261.7 396.3,261.6 399.4,261.1 402.5,261.0 405.7,260.8 411.9,260.7 415.1,258.9 418.2,257.0 421.3,256.3 424.4,255.9 427.6,255.7 430.7,255.2 433.8,254.6 437.0,254.1 440.1,253.8 443.2,253.6 449.5,253.3 452.6,252.6 455.7,251.8 458.9,251.1 462.0,250.6 468.3,250.4 474.5,250.3 477.6,249.7 480.8,249.2 483.9,247.9 487.0,247.1 490.2,246.4 493.3,245.6 496.4,244.8 499.6,243.9 502.7,243.0 505.8,242.0 508.9,241.0 512.1,240.2 515.2,239.6 518.3,239.0 521.5,238.2 524.6,237.9 527.7,237.4 530.9,236.9 534.0,236.7 537.1,236.5 543.4,236.4 546.5,234.6 549.6,233.3 552.8,233.0 555.9,232.9 562.2,232.7 565.3,232.4 577.8,232.3 584.1,232.1 593.5,232.0 596.6,229.9 599.7,227.8 602.8,227.3 606.0,225.6 609.1,224.2 612.2,223.4 615.4,222.9 618.5,222.1 621.6,221.7 624.7,221.5 627.9,221.2 631.0,221.0 649.8,219.5 652.9,217.6 656.0,217.3 659.2,217.0 662.3,216.9 684.2,216.8 712.4,214.9 715.5,213.4 718.6,211.6 721.8,209.0 724.9,208.5 728.0,207.6 731.2,206.1 734.3,205.0 737.4,202.5 740.5,198.7 743.7,195.1 746.8,190.8 749.9,186.3 753.1,182.3 756.2,179.9 759.3,177.0 762.5,172.7 765.6,169.0 768.7,166.6 771.8,164.0 775.0,160.5 778.1,158.2 781.2,156.0 784.4,154.0 787.5,152.5 790.6,150.5 793.8,149.3 796.9,148.0 800.0,146.9 803.1,143.5 806.3,140.8 809.4,139.3 812.5,138.8 815.7,137.9 818.8,136.5 821.9,135.3 825.1,133.1 828.2,131.7 831.3,130.3 834.4,130.2 837.6,129.6 840.7,128.6 843.8,125.8 847.0,121.4 850.1,116.8 853.2,112.2 856.4,108.5 859.5,104.1 862.6,99.4 865.7,94.6 868.9,90.2 872.0,90.0" fill="none" stroke="#38bdf8" stroke-width="2.5" stroke-linejoin="round" stroke-linecap="round"/>
<circle cx="872.0" cy="90.0" r="4" fill="#0ea5e9"/>
<text x="866.0" y="80.0" text-anchor="end" font-family="Inter, system-ui, sans-serif" font-size="13" font-weight="700" fill="#334155">1940</text>
<text x="52.0" y="294" text-anchor="middle" font-family="Inter, system-ui, sans-serif" font-size="11" fill="#94a3b8">Jun 10 05:00</text>
<text x="534.0" y="294" text-anchor="middle" font-family="Inter, system-ui, sans-serif" font-size="11" fill="#94a3b8">Jun 16 15:00</text>
<text x="872.0" y="294" text-anchor="middle" font-family="Inter, system-ui, sans-serif" font-size="11" fill="#94a3b8">Jun 21 03:00</text>
</svg>
