<svg xmlns="http://www.w3.org/2000/svg" width="900" height="320" viewBox="0 0 900 320" role="img" aria-labelledby="title desc">
<title id="title">Unsorry proofs over time</title>
<desc id="desc">Cumulative kernel-verified proofs over time, by the hour each proof was merged.</desc>
<rect width="900" height="100%" rx="18" fill="#ffffff"/>
<rect x="0.5" y="0.5" width="899" height="319" rx="18" fill="none" stroke="#e2e8f0"/>
<text x="32" y="44" font-family="Inter, system-ui, sans-serif" font-size="28" font-weight="700" fill="#334155">Unsorry — Proofs Over Time</text>
<text x="32" y="72" font-family="Inter, system-ui, sans-serif" font-size="13" fill="#64748b">2147 cumulative kernel-verified proofs · merged, hourly</text>
<line x1="52" y1="272.0" x2="872" y2="272.0" stroke="#f1f5f9"/>
<text x="44" y="276.0" text-anchor="end" font-family="Inter, system-ui, sans-serif" font-size="11" fill="#94a3b8">0</text>
<line x1="52" y1="226.5" x2="872" y2="226.5" stroke="#f1f5f9"/>
<text x="44" y="230.5" text-anchor="end" font-family="Inter, system-ui, sans-serif" font-size="11" fill="#94a3b8">537</text>
<line x1="52" y1="181.0" x2="872" y2="181.0" stroke="#f1f5f9"/>
<text x="44" y="185.0" text-anchor="end" font-family="Inter, system-ui, sans-serif" font-size="11" fill="#94a3b8">1074</text>
<line x1="52" y1="135.5" x2="872" y2="135.5" stroke="#f1f5f9"/>
<text x="44" y="139.5" text-anchor="end" font-family="Inter, system-ui, sans-serif" font-size="11" fill="#94a3b8">1610</text>
<line x1="52" y1="90.0" x2="872" y2="90.0" stroke="#f1f5f9"/>
<text x="44" y="94.0" text-anchor="end" font-family="Inter, system-ui, sans-serif" font-size="11" fill="#94a3b8">2147</text>
<polygon points="52.0,272.0 52.0,271.9 55.0,271.7 91.6,270.9 94.7,270.6 97.7,270.6 106.9,270.5 125.2,270.4 164.8,270.3 167.8,269.5 170.9,269.5 180.0,269.3 183.1,269.2 186.1,269.1 189.2,268.9 195.3,268.8 198.3,268.4 207.5,268.0 219.7,267.8 222.7,267.6 225.8,267.4 250.1,267.3 256.2,267.3 271.5,267.2 274.5,267.1 277.6,266.9 289.8,266.8 292.8,266.3 295.9,265.9 298.9,264.8 302.0,264.6 323.3,264.5 332.4,264.5 338.5,264.4 341.6,264.3 344.6,263.9 347.7,263.8 350.7,263.7 353.8,263.4 356.8,263.2 369.0,262.8 375.1,262.7 387.3,262.6 390.4,262.2 393.4,262.1 396.5,261.9 402.6,261.8 405.6,260.1 408.7,258.4 411.7,257.8 414.8,257.4 417.8,257.3 420.8,256.8 423.9,256.2 426.9,255.8 430.0,255.6 433.0,255.4 439.1,255.1 442.2,254.5 445.2,253.8 448.3,253.1 451.3,252.7 457.4,252.5 463.5,252.4 466.6,251.8 469.6,251.4 472.7,250.2 475.7,249.5 478.8,248.9 481.8,248.2 484.9,247.4 487.9,246.7 491.0,245.8 494.0,244.9 497.1,244.0 500.1,243.3 503.2,242.8 506.2,242.2 509.2,241.5 512.3,241.1 515.3,240.7 518.4,240.3 521.4,240.1 524.5,240.0 530.6,239.9 533.6,238.2 536.7,237.0 539.7,236.7 542.8,236.7 548.9,236.5 551.9,236.2 564.1,236.1 570.2,236.0 579.4,235.9 582.4,233.9 585.5,232.1 588.5,231.6 591.6,230.0 594.6,228.9 597.7,228.1 600.7,227.7 603.7,226.9 606.8,226.6 609.8,226.4 612.9,226.1 615.9,225.9 634.2,224.5 637.3,222.8 640.3,222.6 643.4,222.3 646.4,222.2 667.8,222.2 695.2,220.4 698.2,219.0 701.3,217.4 704.3,215.0 707.4,214.6 710.4,213.8 713.5,212.5 716.5,211.5 719.6,209.2 722.6,205.8 725.7,202.5 728.7,198.6 731.8,194.5 734.8,191.0 737.9,188.8 740.9,186.1 744.0,182.2 747.0,178.9 750.1,176.7 753.1,174.4 756.2,171.2 759.2,169.2 762.3,167.1 765.3,165.4 768.4,164.0 771.4,162.2 774.5,161.1 777.5,159.9 780.6,158.9 783.6,155.9 786.6,153.4 789.7,152.1 792.7,151.6 795.8,150.9 798.8,149.6 801.9,148.5 804.9,146.5 808.0,145.2 811.0,144.0 814.1,143.8 817.1,143.3 820.2,142.4 823.2,139.9 826.3,135.9 829.3,131.8 832.4,127.6 835.4,124.2 838.5,120.3 841.5,116.0 844.6,111.7 847.6,107.7 850.7,104.8 853.7,102.5 856.8,99.9 859.8,97.4 862.9,95.7 865.9,93.6 869.0,92.1 872.0,90.0 872.0,272.0" fill="#e0f2fe" opacity="0.55"/>
<polyline points="52.0,271.9 55.0,271.7 91.6,270.9 94.7,270.6 97.7,270.6 106.9,270.5 125.2,270.4 164.8,270.3 167.8,269.5 170.9,269.5 180.0,269.3 183.1,269.2 186.1,269.1 189.2,268.9 195.3,268.8 198.3,268.4 207.5,268.0 219.7,267.8 222.7,267.6 225.8,267.4 250.1,267.3 256.2,267.3 271.5,267.2 274.5,267.1 277.6,266.9 289.8,266.8 292.8,266.3 295.9,265.9 298.9,264.8 302.0,264.6 323.3,264.5 332.4,264.5 338.5,264.4 341.6,264.3 344.6,263.9 347.7,263.8 350.7,263.7 353.8,263.4 356.8,263.2 369.0,262.8 375.1,262.7 387.3,262.6 390.4,262.2 393.4,262.1 396.5,261.9 402.6,261.8 405.6,260.1 408.7,258.4 411.7,257.8 414.8,257.4 417.8,257.3 420.8,256.8 423.9,256.2 426.9,255.8 430.0,255.6 433.0,255.4 439.1,255.1 442.2,254.5 445.2,253.8 448.3,253.1 451.3,252.7 457.4,252.5 463.5,252.4 466.6,251.8 469.6,251.4 472.7,250.2 475.7,249.5 478.8,248.9 481.8,248.2 484.9,247.4 487.9,246.7 491.0,245.8 494.0,244.9 497.1,244.0 500.1,243.3 503.2,242.8 506.2,242.2 509.2,241.5 512.3,241.1 515.3,240.7 518.4,240.3 521.4,240.1 524.5,240.0 530.6,239.9 533.6,238.2 536.7,237.0 539.7,236.7 542.8,236.7 548.9,236.5 551.9,236.2 564.1,236.1 570.2,236.0 579.4,235.9 582.4,233.9 585.5,232.1 588.5,231.6 591.6,230.0 594.6,228.9 597.7,228.1 600.7,227.7 603.7,226.9 606.8,226.6 609.8,226.4 612.9,226.1 615.9,225.9 634.2,224.5 637.3,222.8 640.3,222.6 643.4,222.3 646.4,222.2 667.8,222.2 695.2,220.4 698.2,219.0 701.3,217.4 704.3,215.0 707.4,214.6 710.4,213.8 713.5,212.5 716.5,211.5 719.6,209.2 722.6,205.8 725.7,202.5 728.7,198.6 731.8,194.5 734.8,191.0 737.9,188.8 740.9,186.1 744.0,182.2 747.0,178.9 750.1,176.7 753.1,174.4 756.2,171.2 759.2,169.2 762.3,167.1 765.3,165.4 768.4,164.0 771.4,162.2 774.5,161.1 777.5,159.9 780.6,158.9 783.6,155.9 786.6,153.4 789.7,152.1 792.7,151.6 795.8,150.9 798.8,149.6 801.9,148.5 804.9,146.5 808.0,145.2 811.0,144.0 814.1,143.8 817.1,143.3 820.2,142.4 823.2,139.9 826.3,135.9 829.3,131.8 832.4,127.6 835.4,124.2 838.5,120.3 841.5,116.0 844.6,111.7 847.6,107.7 850.7,104.8 853.7,102.5 856.8,99.9 859.8,97.4 862.9,95.7 865.9,93.6 869.0,92.1 872.0,90.0" fill="none" stroke="#38bdf8" stroke-width="2.5" stroke-linejoin="round" stroke-linecap="round"/>
<circle cx="872.0" cy="90.0" r="4" fill="#0ea5e9"/>
<text x="866.0" y="80.0" text-anchor="end" font-family="Inter, system-ui, sans-serif" font-size="13" font-weight="700" fill="#334155">2147</text>
<text x="52.0" y="294" text-anchor="middle" font-family="Inter, system-ui, sans-serif" font-size="11" fill="#94a3b8">Jun 10 05:00</text>
<text x="536.7" y="294" text-anchor="middle" font-family="Inter, system-ui, sans-serif" font-size="11" fill="#94a3b8">Jun 16 20:00</text>
<text x="872.0" y="294" text-anchor="middle" font-family="Inter, system-ui, sans-serif" font-size="11" fill="#94a3b8">Jun 21 10:00</text>
</svg>
