<svg xmlns="http://www.w3.org/2000/svg" width="900" height="320" viewBox="0 0 900 320" role="img" aria-labelledby="title desc">
<title id="title">Unsorry proofs over time</title>
<desc id="desc">Cumulative kernel-verified proofs over time, by the hour each proof was merged.</desc>
<rect width="900" height="100%" rx="18" fill="#ffffff"/>
<rect x="0.5" y="0.5" width="899" height="319" rx="18" fill="none" stroke="#e2e8f0"/>
<text x="32" y="44" font-family="Inter, system-ui, sans-serif" font-size="28" font-weight="700" fill="#334155">Unsorry — Proofs Over Time</text>
<text x="32" y="72" font-family="Inter, system-ui, sans-serif" font-size="13" fill="#64748b">2431 cumulative kernel-verified proofs · merged, hourly</text>
<line x1="52" y1="272.0" x2="872" y2="272.0" stroke="#f1f5f9"/>
<text x="44" y="276.0" text-anchor="end" font-family="Inter, system-ui, sans-serif" font-size="11" fill="#94a3b8">0</text>
<line x1="52" y1="226.5" x2="872" y2="226.5" stroke="#f1f5f9"/>
<text x="44" y="230.5" text-anchor="end" font-family="Inter, system-ui, sans-serif" font-size="11" fill="#94a3b8">608</text>
<line x1="52" y1="181.0" x2="872" y2="181.0" stroke="#f1f5f9"/>
<text x="44" y="185.0" text-anchor="end" font-family="Inter, system-ui, sans-serif" font-size="11" fill="#94a3b8">1216</text>
<line x1="52" y1="135.5" x2="872" y2="135.5" stroke="#f1f5f9"/>
<text x="44" y="139.5" text-anchor="end" font-family="Inter, system-ui, sans-serif" font-size="11" fill="#94a3b8">1823</text>
<line x1="52" y1="90.0" x2="872" y2="90.0" stroke="#f1f5f9"/>
<text x="44" y="94.0" text-anchor="end" font-family="Inter, system-ui, sans-serif" font-size="11" fill="#94a3b8">2431</text>
<polygon points="52.0,272.0 52.0,271.9 54.9,271.8 90.1,271.0 93.0,270.8 95.9,270.7 104.7,270.7 122.3,270.6 160.4,270.5 163.3,269.8 166.2,269.8 175.0,269.6 177.9,269.5 180.9,269.5 183.8,269.2 189.6,269.2 192.6,268.8 201.4,268.5 213.1,268.3 216.0,268.1 218.9,268.0 242.4,267.9 248.2,267.8 262.9,267.7 265.8,267.7 268.7,267.5 280.4,267.4 283.4,267.0 286.3,266.6 289.2,265.6 292.1,265.5 312.6,265.4 321.4,265.3 327.3,265.3 330.2,265.2 333.1,264.8 336.1,264.7 339.0,264.7 341.9,264.4 344.9,264.2 356.6,263.8 362.4,263.8 374.1,263.7 377.1,263.3 380.0,263.2 382.9,263.1 388.8,263.0 391.7,261.5 394.6,260.0 397.6,259.5 400.5,259.1 403.4,259.0 406.4,258.6 409.3,258.1 412.2,257.7 415.1,257.5 418.1,257.3 423.9,257.1 426.9,256.5 429.8,255.9 432.7,255.3 435.6,254.9 441.5,254.8 447.4,254.7 450.3,254.2 453.2,253.8 456.1,252.8 459.1,252.2 462.0,251.6 464.9,251.0 467.9,250.3 470.8,249.6 473.7,248.9 476.6,248.0 479.6,247.3 482.5,246.6 485.4,246.2 488.4,245.6 491.3,245.0 494.2,244.7 497.1,244.4 500.1,244.0 503.0,243.9 505.9,243.7 511.8,243.6 514.7,242.1 517.6,241.1 520.6,240.9 523.5,240.8 529.4,240.6 532.3,240.4 544.0,240.3 549.9,240.2 558.6,240.1 561.6,238.4 564.5,236.7 567.4,236.3 570.4,234.9 573.3,233.9 576.2,233.2 579.1,232.8 582.1,232.2 585.0,231.9 587.9,231.7 590.9,231.4 593.8,231.3 611.4,230.1 614.3,228.6 617.2,228.4 620.1,228.1 623.1,228.1 643.6,228.0 669.9,226.4 672.9,225.2 675.8,223.8 678.7,221.7 681.6,221.3 684.6,220.6 687.5,219.4 690.4,218.5 693.4,216.5 696.3,213.5 699.2,210.6 702.1,207.2 705.1,203.6 708.0,200.4 710.9,198.5 713.9,196.2 716.8,192.7 719.7,189.8 722.6,187.9 725.6,185.8 728.5,183.0 731.4,181.2 734.4,179.4 737.3,177.8 740.2,176.6 743.1,175.0 746.1,174.1 749.0,173.0 751.9,172.1 754.9,169.4 757.8,167.3 760.7,166.1 763.6,165.7 766.6,165.0 769.5,163.9 772.4,162.9 775.4,161.1 778.3,160.0 781.2,159.0 784.1,158.8 787.1,158.4 790.0,157.5 792.9,155.4 795.9,151.8 798.8,148.2 801.7,144.5 804.6,141.5 807.6,138.0 810.5,134.2 813.4,130.4 816.4,126.9 819.3,124.4 822.2,122.3 825.1,120.0 828.1,117.8 831.0,116.3 833.9,114.5 836.9,113.1 839.8,111.2 842.7,108.6 845.6,105.4 848.6,102.8 851.5,100.5 854.4,99.0 857.4,97.6 860.3,96.3 863.2,94.8 866.1,92.2 869.1,90.1 872.0,90.0 872.0,272.0" fill="#e0f2fe" opacity="0.55"/>
<polyline points="52.0,271.9 54.9,271.8 90.1,271.0 93.0,270.8 95.9,270.7 104.7,270.7 122.3,270.6 160.4,270.5 163.3,269.8 166.2,269.8 175.0,269.6 177.9,269.5 180.9,269.5 183.8,269.2 189.6,269.2 192.6,268.8 201.4,268.5 213.1,268.3 216.0,268.1 218.9,268.0 242.4,267.9 248.2,267.8 262.9,267.7 265.8,267.7 268.7,267.5 280.4,267.4 283.4,267.0 286.3,266.6 289.2,265.6 292.1,265.5 312.6,265.4 321.4,265.3 327.3,265.3 330.2,265.2 333.1,264.8 336.1,264.7 339.0,264.7 341.9,264.4 344.9,264.2 356.6,263.8 362.4,263.8 374.1,263.7 377.1,263.3 380.0,263.2 382.9,263.1 388.8,263.0 391.7,261.5 394.6,260.0 397.6,259.5 400.5,259.1 403.4,259.0 406.4,258.6 409.3,258.1 412.2,257.7 415.1,257.5 418.1,257.3 423.9,257.1 426.9,256.5 429.8,255.9 432.7,255.3 435.6,254.9 441.5,254.8 447.4,254.7 450.3,254.2 453.2,253.8 456.1,252.8 459.1,252.2 462.0,251.6 464.9,251.0 467.9,250.3 470.8,249.6 473.7,248.9 476.6,248.0 479.6,247.3 482.5,246.6 485.4,246.2 488.4,245.6 491.3,245.0 494.2,244.7 497.1,244.4 500.1,244.0 503.0,243.9 505.9,243.7 511.8,243.6 514.7,242.1 517.6,241.1 520.6,240.9 523.5,240.8 529.4,240.6 532.3,240.4 544.0,240.3 549.9,240.2 558.6,240.1 561.6,238.4 564.5,236.7 567.4,236.3 570.4,234.9 573.3,233.9 576.2,233.2 579.1,232.8 582.1,232.2 585.0,231.9 587.9,231.7 590.9,231.4 593.8,231.3 611.4,230.1 614.3,228.6 617.2,228.4 620.1,228.1 623.1,228.1 643.6,228.0 669.9,226.4 672.9,225.2 675.8,223.8 678.7,221.7 681.6,221.3 684.6,220.6 687.5,219.4 690.4,218.5 693.4,216.5 696.3,213.5 699.2,210.6 702.1,207.2 705.1,203.6 708.0,200.4 710.9,198.5 713.9,196.2 716.8,192.7 719.7,189.8 722.6,187.9 725.6,185.8 728.5,183.0 731.4,181.2 734.4,179.4 737.3,177.8 740.2,176.6 743.1,175.0 746.1,174.1 749.0,173.0 751.9,172.1 754.9,169.4 757.8,167.3 760.7,166.1 763.6,165.7 766.6,165.0 769.5,163.9 772.4,162.9 775.4,161.1 778.3,160.0 781.2,159.0 784.1,158.8 787.1,158.4 790.0,157.5 792.9,155.4 795.9,151.8 798.8,148.2 801.7,144.5 804.6,141.5 807.6,138.0 810.5,134.2 813.4,130.4 816.4,126.9 819.3,124.4 822.2,122.3 825.1,120.0 828.1,117.8 831.0,116.3 833.9,114.5 836.9,113.1 839.8,111.2 842.7,108.6 845.6,105.4 848.6,102.8 851.5,100.5 854.4,99.0 857.4,97.6 860.3,96.3 863.2,94.8 866.1,92.2 869.1,90.1 872.0,90.0" fill="none" stroke="#38bdf8" stroke-width="2.5" stroke-linejoin="round" stroke-linecap="round"/>
<circle cx="872.0" cy="90.0" r="4" fill="#0ea5e9"/>
<text x="866.0" y="80.0" text-anchor="end" font-family="Inter, system-ui, sans-serif" font-size="13" font-weight="700" fill="#334155">2431</text>
<text x="52.0" y="294" text-anchor="middle" font-family="Inter, system-ui, sans-serif" font-size="11" fill="#94a3b8">Jun 10 05:00</text>
<text x="544.0" y="294" text-anchor="middle" font-family="Inter, system-ui, sans-serif" font-size="11" fill="#94a3b8">Jun 17 05:00</text>
<text x="872.0" y="294" text-anchor="middle" font-family="Inter, system-ui, sans-serif" font-size="11" fill="#94a3b8">Jun 21 21:00</text>
</svg>
