<svg xmlns="http://www.w3.org/2000/svg" width="900" height="320" viewBox="0 0 900 320" role="img" aria-labelledby="title desc">
<title id="title">Unsorry proofs over time</title>
<desc id="desc">Cumulative kernel-verified proofs over time, by the hour each proof was merged.</desc>
<rect width="900" height="100%" rx="18" fill="#ffffff"/>
<rect x="0.5" y="0.5" width="899" height="319" rx="18" fill="none" stroke="#e2e8f0"/>
<text x="32" y="44" font-family="Inter, system-ui, sans-serif" font-size="28" font-weight="700" fill="#334155">Unsorry — Proofs Over Time</text>
<text x="32" y="72" font-family="Inter, system-ui, sans-serif" font-size="13" fill="#64748b">2593 cumulative kernel-verified proofs · merged, hourly</text>
<line x1="52" y1="272.0" x2="872" y2="272.0" stroke="#f1f5f9"/>
<text x="44" y="276.0" text-anchor="end" font-family="Inter, system-ui, sans-serif" font-size="11" fill="#94a3b8">0</text>
<line x1="52" y1="226.5" x2="872" y2="226.5" stroke="#f1f5f9"/>
<text x="44" y="230.5" text-anchor="end" font-family="Inter, system-ui, sans-serif" font-size="11" fill="#94a3b8">648</text>
<line x1="52" y1="181.0" x2="872" y2="181.0" stroke="#f1f5f9"/>
<text x="44" y="185.0" text-anchor="end" font-family="Inter, system-ui, sans-serif" font-size="11" fill="#94a3b8">1296</text>
<line x1="52" y1="135.5" x2="872" y2="135.5" stroke="#f1f5f9"/>
<text x="44" y="139.5" text-anchor="end" font-family="Inter, system-ui, sans-serif" font-size="11" fill="#94a3b8">1945</text>
<line x1="52" y1="90.0" x2="872" y2="90.0" stroke="#f1f5f9"/>
<text x="44" y="94.0" text-anchor="end" font-family="Inter, system-ui, sans-serif" font-size="11" fill="#94a3b8">2593</text>
<polygon points="52.0,272.0 52.0,271.9 54.9,271.8 89.3,271.1 92.1,270.9 95.0,270.8 103.6,270.7 120.8,270.7 158.1,270.6 161.0,270.0 163.8,269.9 172.4,269.8 175.3,269.7 178.2,269.6 181.0,269.4 186.8,269.3 189.6,269.0 198.2,268.7 209.7,268.6 212.6,268.4 215.4,268.2 238.4,268.1 244.1,268.1 258.4,268.0 261.3,267.9 264.2,267.8 275.6,267.7 278.5,267.3 281.4,266.9 284.2,266.0 287.1,265.9 307.2,265.8 315.8,265.8 321.5,265.7 324.4,265.6 327.2,265.3 330.1,265.2 333.0,265.1 335.8,264.9 338.7,264.7 350.2,264.3 355.9,264.3 367.4,264.2 370.3,263.9 373.1,263.8 376.0,263.6 381.7,263.6 384.6,262.2 387.5,260.8 390.3,260.3 393.2,259.9 396.1,259.8 398.9,259.4 401.8,258.9 404.7,258.6 407.5,258.4 410.4,258.2 416.1,258.0 419.0,257.5 421.9,256.9 424.7,256.3 427.6,256.0 433.3,255.9 439.1,255.8 441.9,255.3 444.8,254.9 447.7,254.0 450.5,253.4 453.4,252.8 456.3,252.3 459.1,251.6 462.0,251.0 464.9,250.3 467.7,249.5 470.6,248.8 473.5,248.2 476.3,247.8 479.2,247.3 482.1,246.7 484.9,246.5 487.8,246.1 490.7,245.7 493.5,245.6 496.4,245.5 502.1,245.4 505.0,244.0 507.9,243.0 510.7,242.8 513.6,242.7 519.3,242.6 522.2,242.4 533.7,242.3 539.4,242.2 548.0,242.1 550.9,240.5 553.7,238.9 556.6,238.5 559.5,237.3 562.3,236.3 565.2,235.6 568.1,235.3 571.0,234.7 573.8,234.4 576.7,234.2 579.6,234.0 582.4,233.8 599.6,232.7 602.5,231.3 605.4,231.1 608.2,230.9 611.1,230.8 631.2,230.7 657.0,229.3 659.8,228.1 662.7,226.8 665.6,224.8 668.4,224.5 671.3,223.9 674.2,222.7 677.0,221.9 679.9,220.0 682.8,217.2 685.6,214.4 688.5,211.2 691.4,207.8 694.2,204.9 697.1,203.1 700.0,200.9 702.8,197.7 705.7,194.9 708.6,193.1 711.4,191.2 714.3,188.5 717.2,186.9 720.0,185.2 722.9,183.7 725.8,182.6 728.6,181.1 731.5,180.2 734.4,179.2 737.2,178.4 740.1,175.8 743.0,173.8 745.8,172.7 748.7,172.3 751.6,171.7 754.4,170.6 757.3,169.7 760.2,168.1 763.0,167.0 765.9,166.0 768.8,165.9 771.7,165.5 774.5,164.7 777.4,162.6 780.3,159.3 783.1,155.9 786.0,152.5 788.9,149.7 791.7,146.4 794.6,142.9 797.5,139.3 800.3,136.0 803.2,133.6 806.1,131.7 808.9,129.5 811.8,127.4 814.7,126.0 817.5,124.3 820.4,123.1 823.3,121.2 826.1,118.8 829.0,115.8 831.9,113.4 834.7,111.2 837.6,109.8 840.5,108.5 843.3,107.3 846.2,105.9 849.1,103.5 851.9,101.4 854.8,99.0 857.7,96.5 860.5,94.4 863.4,92.7 866.3,92.0 869.1,91.0 872.0,90.0 872.0,272.0" fill="#e0f2fe" opacity="0.55"/>
<polyline points="52.0,271.9 54.9,271.8 89.3,271.1 92.1,270.9 95.0,270.8 103.6,270.7 120.8,270.7 158.1,270.6 161.0,270.0 163.8,269.9 172.4,269.8 175.3,269.7 178.2,269.6 181.0,269.4 186.8,269.3 189.6,269.0 198.2,268.7 209.7,268.6 212.6,268.4 215.4,268.2 238.4,268.1 244.1,268.1 258.4,268.0 261.3,267.9 264.2,267.8 275.6,267.7 278.5,267.3 281.4,266.9 284.2,266.0 287.1,265.9 307.2,265.8 315.8,265.8 321.5,265.7 324.4,265.6 327.2,265.3 330.1,265.2 333.0,265.1 335.8,264.9 338.7,264.7 350.2,264.3 355.9,264.3 367.4,264.2 370.3,263.9 373.1,263.8 376.0,263.6 381.7,263.6 384.6,262.2 387.5,260.8 390.3,260.3 393.2,259.9 396.1,259.8 398.9,259.4 401.8,258.9 404.7,258.6 407.5,258.4 410.4,258.2 416.1,258.0 419.0,257.5 421.9,256.9 424.7,256.3 427.6,256.0 433.3,255.9 439.1,255.8 441.9,255.3 444.8,254.9 447.7,254.0 450.5,253.4 453.4,252.8 456.3,252.3 459.1,251.6 462.0,251.0 464.9,250.3 467.7,249.5 470.6,248.8 473.5,248.2 476.3,247.8 479.2,247.3 482.1,246.7 484.9,246.5 487.8,246.1 490.7,245.7 493.5,245.6 496.4,245.5 502.1,245.4 505.0,244.0 507.9,243.0 510.7,242.8 513.6,242.7 519.3,242.6 522.2,242.4 533.7,242.3 539.4,242.2 548.0,242.1 550.9,240.5 553.7,238.9 556.6,238.5 559.5,237.3 562.3,236.3 565.2,235.6 568.1,235.3 571.0,234.7 573.8,234.4 576.7,234.2 579.6,234.0 582.4,233.8 599.6,232.7 602.5,231.3 605.4,231.1 608.2,230.9 611.1,230.8 631.2,230.7 657.0,229.3 659.8,228.1 662.7,226.8 665.6,224.8 668.4,224.5 671.3,223.9 674.2,222.7 677.0,221.9 679.9,220.0 682.8,217.2 685.6,214.4 688.5,211.2 691.4,207.8 694.2,204.9 697.1,203.1 700.0,200.9 702.8,197.7 705.7,194.9 708.6,193.1 711.4,191.2 714.3,188.5 717.2,186.9 720.0,185.2 722.9,183.7 725.8,182.6 728.6,181.1 731.5,180.2 734.4,179.2 737.2,178.4 740.1,175.8 743.0,173.8 745.8,172.7 748.7,172.3 751.6,171.7 754.4,170.6 757.3,169.7 760.2,168.1 763.0,167.0 765.9,166.0 768.8,165.9 771.7,165.5 774.5,164.7 777.4,162.6 780.3,159.3 783.1,155.9 786.0,152.5 788.9,149.7 791.7,146.4 794.6,142.9 797.5,139.3 800.3,136.0 803.2,133.6 806.1,131.7 808.9,129.5 811.8,127.4 814.7,126.0 817.5,124.3 820.4,123.1 823.3,121.2 826.1,118.8 829.0,115.8 831.9,113.4 834.7,111.2 837.6,109.8 840.5,108.5 843.3,107.3 846.2,105.9 849.1,103.5 851.9,101.4 854.8,99.0 857.7,96.5 860.5,94.4 863.4,92.7 866.3,92.0 869.1,91.0 872.0,90.0" fill="none" stroke="#38bdf8" stroke-width="2.5" stroke-linejoin="round" stroke-linecap="round"/>
<circle cx="872.0" cy="90.0" r="4" fill="#0ea5e9"/>
<text x="866.0" y="80.0" text-anchor="end" font-family="Inter, system-ui, sans-serif" font-size="13" font-weight="700" fill="#334155">2593</text>
<text x="52.0" y="294" text-anchor="middle" font-family="Inter, system-ui, sans-serif" font-size="11" fill="#94a3b8">Jun 10 05:00</text>
<text x="550.9" y="294" text-anchor="middle" font-family="Inter, system-ui, sans-serif" font-size="11" fill="#94a3b8">Jun 17 11:00</text>
<text x="872.0" y="294" text-anchor="middle" font-family="Inter, system-ui, sans-serif" font-size="11" fill="#94a3b8">Jun 22 03:00</text>
</svg>
