<svg xmlns="http://www.w3.org/2000/svg" width="900" height="320" viewBox="0 0 900 320" role="img" aria-labelledby="title desc">
<title id="title">unsorry proofs over time</title>
<desc id="desc">Cumulative kernel-verified proofs over time, by the hour each proof was merged.</desc>
<rect width="900" height="100%" rx="18" fill="#ffffff"/>
<rect x="0.5" y="0.5" width="899" height="319" rx="18" fill="none" stroke="#e2e8f0"/>
<text x="32" y="44" font-family="Inter, system-ui, sans-serif" font-size="28" font-weight="700" fill="#334155">unsorry — Proofs Over Time</text>
<text x="32" y="72" font-family="Inter, system-ui, sans-serif" font-size="13" fill="#64748b">2617 cumulative kernel-verified proofs · merged, hourly</text>
<line x1="52" y1="272.0" x2="872" y2="272.0" stroke="#f1f5f9"/>
<text x="44" y="276.0" text-anchor="end" font-family="Inter, system-ui, sans-serif" font-size="11" fill="#94a3b8">0</text>
<line x1="52" y1="226.5" x2="872" y2="226.5" stroke="#f1f5f9"/>
<text x="44" y="230.5" text-anchor="end" font-family="Inter, system-ui, sans-serif" font-size="11" fill="#94a3b8">654</text>
<line x1="52" y1="181.0" x2="872" y2="181.0" stroke="#f1f5f9"/>
<text x="44" y="185.0" text-anchor="end" font-family="Inter, system-ui, sans-serif" font-size="11" fill="#94a3b8">1308</text>
<line x1="52" y1="135.5" x2="872" y2="135.5" stroke="#f1f5f9"/>
<text x="44" y="139.5" text-anchor="end" font-family="Inter, system-ui, sans-serif" font-size="11" fill="#94a3b8">1963</text>
<line x1="52" y1="90.0" x2="872" y2="90.0" stroke="#f1f5f9"/>
<text x="44" y="94.0" text-anchor="end" font-family="Inter, system-ui, sans-serif" font-size="11" fill="#94a3b8">2617</text>
<polygon points="52.0,272.0 52.0,271.9 54.8,271.8 87.9,271.1 90.7,270.9 93.4,270.8 101.7,270.7 118.3,270.7 154.2,270.6 156.9,270.0 159.7,269.9 168.0,269.8 170.7,269.7 173.5,269.6 176.2,269.4 181.8,269.4 184.5,269.0 192.8,268.7 203.9,268.6 206.6,268.4 209.4,268.2 231.5,268.2 237.0,268.1 250.8,268.0 253.5,268.0 256.3,267.8 267.4,267.8 270.1,267.3 272.9,267.0 275.6,266.1 278.4,265.9 297.7,265.9 306.0,265.8 311.5,265.7 314.3,265.7 317.1,265.3 319.8,265.3 322.6,265.2 325.3,265.0 328.1,264.8 339.1,264.4 344.7,264.4 355.7,264.3 358.5,263.9 361.2,263.9 364.0,263.7 369.5,263.7 372.3,262.3 375.0,260.9 377.8,260.4 380.6,260.0 383.3,259.9 386.1,259.6 388.8,259.1 391.6,258.7 394.4,258.5 397.1,258.4 402.6,258.2 405.4,257.6 408.2,257.0 410.9,256.5 413.7,256.1 419.2,256.0 424.7,255.9 427.5,255.4 430.2,255.1 433.0,254.1 435.8,253.6 438.5,253.0 441.3,252.5 444.1,251.8 446.8,251.2 449.6,250.5 452.3,249.7 455.1,249.1 457.9,248.4 460.6,248.0 463.4,247.5 466.1,247.0 468.9,246.7 471.7,246.3 474.4,246.0 477.2,245.9 479.9,245.7 485.5,245.6 488.2,244.3 491.0,243.3 493.8,243.1 496.5,243.0 502.0,242.9 504.8,242.7 515.8,242.6 521.4,242.4 529.6,242.4 532.4,240.8 535.2,239.2 537.9,238.8 540.7,237.6 543.4,236.6 546.2,236.0 549.0,235.6 551.7,235.0 554.5,234.7 557.3,234.6 560.0,234.3 562.8,234.2 579.3,233.1 582.1,231.7 584.9,231.5 587.6,231.2 590.4,231.2 609.7,231.1 634.6,229.6 637.3,228.5 640.1,227.2 642.8,225.3 645.6,224.9 648.4,224.3 651.1,223.2 653.9,222.3 656.6,220.5 659.4,217.7 662.2,215.0 664.9,211.8 667.7,208.4 670.5,205.5 673.2,203.7 676.0,201.6 678.7,198.4 681.5,195.6 684.3,193.8 687.0,192.0 689.8,189.3 692.5,187.6 695.3,186.0 698.1,184.5 700.8,183.4 703.6,181.9 706.3,181.0 709.1,180.1 711.9,179.2 714.6,176.7 717.4,174.7 720.1,173.6 722.9,173.2 725.7,172.6 728.4,171.6 731.2,170.7 734.0,169.0 736.7,168.0 739.5,167.0 742.2,166.8 745.0,166.4 747.8,165.7 750.5,163.6 753.3,160.4 756.0,157.0 758.8,153.6 761.6,150.8 764.3,147.5 767.1,144.0 769.8,140.5 772.6,137.2 775.4,134.9 778.1,133.0 780.9,130.8 783.6,128.7 786.4,127.3 789.2,125.7 791.9,124.4 794.7,122.6 797.5,120.2 800.2,117.3 803.0,114.8 805.7,112.7 808.5,111.3 811.3,110.0 814.0,108.8 816.8,107.4 819.5,105.0 822.3,103.0 825.1,100.6 827.8,98.1 830.6,96.0 833.3,94.3 836.1,93.6 838.9,92.6 841.6,91.7 844.4,91.5 847.2,91.4 849.9,90.9 852.7,90.7 855.4,90.6 858.2,90.3 861.0,90.1 869.2,90.1 872.0,90.0 872.0,272.0" fill="#e0f2fe" opacity="0.55"/>
<polyline points="52.0,271.9 54.8,271.8 87.9,271.1 90.7,270.9 93.4,270.8 101.7,270.7 118.3,270.7 154.2,270.6 156.9,270.0 159.7,269.9 168.0,269.8 170.7,269.7 173.5,269.6 176.2,269.4 181.8,269.4 184.5,269.0 192.8,268.7 203.9,268.6 206.6,268.4 209.4,268.2 231.5,268.2 237.0,268.1 250.8,268.0 253.5,268.0 256.3,267.8 267.4,267.8 270.1,267.3 272.9,267.0 275.6,266.1 278.4,265.9 297.7,265.9 306.0,265.8 311.5,265.7 314.3,265.7 317.1,265.3 319.8,265.3 322.6,265.2 325.3,265.0 328.1,264.8 339.1,264.4 344.7,264.4 355.7,264.3 358.5,263.9 361.2,263.9 364.0,263.7 369.5,263.7 372.3,262.3 375.0,260.9 377.8,260.4 380.6,260.0 383.3,259.9 386.1,259.6 388.8,259.1 391.6,258.7 394.4,258.5 397.1,258.4 402.6,258.2 405.4,257.6 408.2,257.0 410.9,256.5 413.7,256.1 419.2,256.0 424.7,255.9 427.5,255.4 430.2,255.1 433.0,254.1 435.8,253.6 438.5,253.0 441.3,252.5 444.1,251.8 446.8,251.2 449.6,250.5 452.3,249.7 455.1,249.1 457.9,248.4 460.6,248.0 463.4,247.5 466.1,247.0 468.9,246.7 471.7,246.3 474.4,246.0 477.2,245.9 479.9,245.7 485.5,245.6 488.2,244.3 491.0,243.3 493.8,243.1 496.5,243.0 502.0,242.9 504.8,242.7 515.8,242.6 521.4,242.4 529.6,242.4 532.4,240.8 535.2,239.2 537.9,238.8 540.7,237.6 543.4,236.6 546.2,236.0 549.0,235.6 551.7,235.0 554.5,234.7 557.3,234.6 560.0,234.3 562.8,234.2 579.3,233.1 582.1,231.7 584.9,231.5 587.6,231.2 590.4,231.2 609.7,231.1 634.6,229.6 637.3,228.5 640.1,227.2 642.8,225.3 645.6,224.9 648.4,224.3 651.1,223.2 653.9,222.3 656.6,220.5 659.4,217.7 662.2,215.0 664.9,211.8 667.7,208.4 670.5,205.5 673.2,203.7 676.0,201.6 678.7,198.4 681.5,195.6 684.3,193.8 687.0,192.0 689.8,189.3 692.5,187.6 695.3,186.0 698.1,184.5 700.8,183.4 703.6,181.9 706.3,181.0 709.1,180.1 711.9,179.2 714.6,176.7 717.4,174.7 720.1,173.6 722.9,173.2 725.7,172.6 728.4,171.6 731.2,170.7 734.0,169.0 736.7,168.0 739.5,167.0 742.2,166.8 745.0,166.4 747.8,165.7 750.5,163.6 753.3,160.4 756.0,157.0 758.8,153.6 761.6,150.8 764.3,147.5 767.1,144.0 769.8,140.5 772.6,137.2 775.4,134.9 778.1,133.0 780.9,130.8 783.6,128.7 786.4,127.3 789.2,125.7 791.9,124.4 794.7,122.6 797.5,120.2 800.2,117.3 803.0,114.8 805.7,112.7 808.5,111.3 811.3,110.0 814.0,108.8 816.8,107.4 819.5,105.0 822.3,103.0 825.1,100.6 827.8,98.1 830.6,96.0 833.3,94.3 836.1,93.6 838.9,92.6 841.6,91.7 844.4,91.5 847.2,91.4 849.9,90.9 852.7,90.7 855.4,90.6 858.2,90.3 861.0,90.1 869.2,90.1 872.0,90.0" fill="none" stroke="#38bdf8" stroke-width="2.5" stroke-linejoin="round" stroke-linecap="round"/>
<circle cx="872.0" cy="90.0" r="4" fill="#0ea5e9"/>
<text x="866.0" y="80.0" text-anchor="end" font-family="Inter, system-ui, sans-serif" font-size="13" font-weight="700" fill="#334155">2617</text>
<text x="52.0" y="294" text-anchor="middle" font-family="Inter, system-ui, sans-serif" font-size="11" fill="#94a3b8">Jun 10 05:00</text>
<text x="546.2" y="294" text-anchor="middle" font-family="Inter, system-ui, sans-serif" font-size="11" fill="#94a3b8">Jun 17 16:00</text>
<text x="872.0" y="294" text-anchor="middle" font-family="Inter, system-ui, sans-serif" font-size="11" fill="#94a3b8">Jun 22 14:00</text>
</svg>
