<svg xmlns="http://www.w3.org/2000/svg" width="900" height="320" viewBox="0 0 900 320" role="img" aria-labelledby="title desc">
<title id="title">unsorry proofs over time</title>
<desc id="desc">Cumulative kernel-verified proofs over time, by the hour each proof was merged.</desc>
<rect width="900" height="100%" rx="18" fill="#ffffff"/>
<rect x="0.5" y="0.5" width="899" height="319" rx="18" fill="none" stroke="#e2e8f0"/>
<text x="32" y="44" font-family="Inter, system-ui, sans-serif" font-size="28" font-weight="700" fill="#334155">unsorry — Proofs Over Time</text>
<text x="32" y="72" font-family="Inter, system-ui, sans-serif" font-size="13" fill="#64748b">2685 cumulative kernel-verified proofs · merged, hourly</text>
<line x1="52" y1="272.0" x2="872" y2="272.0" stroke="#f1f5f9"/>
<text x="44" y="276.0" text-anchor="end" font-family="Inter, system-ui, sans-serif" font-size="11" fill="#94a3b8">0</text>
<line x1="52" y1="226.5" x2="872" y2="226.5" stroke="#f1f5f9"/>
<text x="44" y="230.5" text-anchor="end" font-family="Inter, system-ui, sans-serif" font-size="11" fill="#94a3b8">671</text>
<line x1="52" y1="181.0" x2="872" y2="181.0" stroke="#f1f5f9"/>
<text x="44" y="185.0" text-anchor="end" font-family="Inter, system-ui, sans-serif" font-size="11" fill="#94a3b8">1342</text>
<line x1="52" y1="135.5" x2="872" y2="135.5" stroke="#f1f5f9"/>
<text x="44" y="139.5" text-anchor="end" font-family="Inter, system-ui, sans-serif" font-size="11" fill="#94a3b8">2014</text>
<line x1="52" y1="90.0" x2="872" y2="90.0" stroke="#f1f5f9"/>
<text x="44" y="94.0" text-anchor="end" font-family="Inter, system-ui, sans-serif" font-size="11" fill="#94a3b8">2685</text>
<polygon points="52.0,272.0 52.0,271.9 54.7,271.8 87.5,271.1 90.3,270.9 93.0,270.8 101.2,270.8 117.6,270.7 153.1,270.6 155.9,270.0 158.6,270.0 166.8,269.8 169.5,269.8 172.3,269.7 175.0,269.5 180.5,269.4 183.2,269.1 191.4,268.8 202.3,268.7 205.1,268.5 207.8,268.3 229.7,268.3 235.1,268.2 248.8,268.1 251.5,268.1 254.3,267.9 265.2,267.9 267.9,267.5 270.7,267.1 273.4,266.2 276.1,266.1 295.3,266.0 303.5,266.0 308.9,265.9 311.7,265.8 314.4,265.5 317.1,265.4 319.9,265.4 322.6,265.2 325.3,265.0 336.3,264.6 341.7,264.5 352.7,264.5 355.4,264.1 358.1,264.1 360.9,263.9 366.3,263.9 369.1,262.5 371.8,261.2 374.5,260.7 377.3,260.3 380.0,260.2 382.7,259.9 385.5,259.4 388.2,259.1 390.9,258.8 393.7,258.7 399.1,258.5 401.9,258.0 404.6,257.4 407.3,256.9 410.1,256.5 415.5,256.4 421.0,256.3 423.7,255.9 426.5,255.5 429.2,254.6 431.9,254.0 434.7,253.5 437.4,253.0 440.1,252.3 442.9,251.7 445.6,251.1 448.3,250.3 451.1,249.6 453.8,249.0 456.5,248.6 459.3,248.1 462.0,247.6 464.7,247.3 467.5,247.0 470.2,246.6 472.9,246.5 475.7,246.4 481.1,246.3 483.9,245.0 486.6,244.0 489.3,243.8 492.1,243.7 497.5,243.6 500.3,243.4 511.2,243.3 516.7,243.2 524.9,243.1 527.6,241.6 530.3,240.1 533.1,239.7 535.8,238.4 538.5,237.5 541.3,236.9 544.0,236.5 546.7,235.9 549.5,235.7 552.2,235.5 554.9,235.3 557.7,235.1 574.1,234.0 576.8,232.7 579.5,232.5 582.3,232.3 585.0,232.2 604.1,232.1 628.7,230.7 631.5,229.6 634.2,228.3 636.9,226.4 639.7,226.1 642.4,225.5 645.1,224.4 647.9,223.6 650.6,221.8 653.3,219.1 656.1,216.4 658.8,213.3 661.5,210.0 664.3,207.2 667.0,205.4 669.7,203.3 672.5,200.2 675.2,197.6 677.9,195.8 680.7,194.0 683.4,191.4 686.1,189.8 688.9,188.2 691.6,186.7 694.3,185.6 697.1,184.2 699.8,183.3 702.5,182.4 705.3,181.6 708.0,179.1 710.7,177.2 713.5,176.1 716.2,175.7 718.9,175.1 721.7,174.1 724.4,173.2 727.1,171.6 729.9,170.6 732.6,169.6 735.3,169.5 738.1,169.1 740.8,168.4 743.5,166.4 746.3,163.2 749.0,159.9 751.7,156.6 754.5,153.9 757.2,150.7 759.9,147.3 762.7,143.8 765.4,140.6 768.1,138.3 770.9,136.5 773.6,134.4 776.3,132.4 779.1,131.0 781.8,129.4 784.5,128.2 787.3,126.4 790.0,124.0 792.7,121.2 795.5,118.8 798.2,116.7 800.9,115.4 803.7,114.1 806.4,112.9 809.1,111.6 811.9,109.3 814.6,107.3 817.3,104.9 820.1,102.5 822.8,100.4 825.5,98.8 828.3,98.1 831.0,97.2 833.7,96.2 836.5,96.1 839.2,96.0 841.9,95.5 844.7,95.3 847.4,95.2 850.1,94.9 852.9,94.7 861.1,94.7 863.8,94.6 866.5,94.2 869.3,91.4 872.0,90.0 872.0,272.0" fill="#e0f2fe" opacity="0.55"/>
<polyline points="52.0,271.9 54.7,271.8 87.5,271.1 90.3,270.9 93.0,270.8 101.2,270.8 117.6,270.7 153.1,270.6 155.9,270.0 158.6,270.0 166.8,269.8 169.5,269.8 172.3,269.7 175.0,269.5 180.5,269.4 183.2,269.1 191.4,268.8 202.3,268.7 205.1,268.5 207.8,268.3 229.7,268.3 235.1,268.2 248.8,268.1 251.5,268.1 254.3,267.9 265.2,267.9 267.9,267.5 270.7,267.1 273.4,266.2 276.1,266.1 295.3,266.0 303.5,266.0 308.9,265.9 311.7,265.8 314.4,265.5 317.1,265.4 319.9,265.4 322.6,265.2 325.3,265.0 336.3,264.6 341.7,264.5 352.7,264.5 355.4,264.1 358.1,264.1 360.9,263.9 366.3,263.9 369.1,262.5 371.8,261.2 374.5,260.7 377.3,260.3 380.0,260.2 382.7,259.9 385.5,259.4 388.2,259.1 390.9,258.8 393.7,258.7 399.1,258.5 401.9,258.0 404.6,257.4 407.3,256.9 410.1,256.5 415.5,256.4 421.0,256.3 423.7,255.9 426.5,255.5 429.2,254.6 431.9,254.0 434.7,253.5 437.4,253.0 440.1,252.3 442.9,251.7 445.6,251.1 448.3,250.3 451.1,249.6 453.8,249.0 456.5,248.6 459.3,248.1 462.0,247.6 464.7,247.3 467.5,247.0 470.2,246.6 472.9,246.5 475.7,246.4 481.1,246.3 483.9,245.0 486.6,244.0 489.3,243.8 492.1,243.7 497.5,243.6 500.3,243.4 511.2,243.3 516.7,243.2 524.9,243.1 527.6,241.6 530.3,240.1 533.1,239.7 535.8,238.4 538.5,237.5 541.3,236.9 544.0,236.5 546.7,235.9 549.5,235.7 552.2,235.5 554.9,235.3 557.7,235.1 574.1,234.0 576.8,232.7 579.5,232.5 582.3,232.3 585.0,232.2 604.1,232.1 628.7,230.7 631.5,229.6 634.2,228.3 636.9,226.4 639.7,226.1 642.4,225.5 645.1,224.4 647.9,223.6 650.6,221.8 653.3,219.1 656.1,216.4 658.8,213.3 661.5,210.0 664.3,207.2 667.0,205.4 669.7,203.3 672.5,200.2 675.2,197.6 677.9,195.8 680.7,194.0 683.4,191.4 686.1,189.8 688.9,188.2 691.6,186.7 694.3,185.6 697.1,184.2 699.8,183.3 702.5,182.4 705.3,181.6 708.0,179.1 710.7,177.2 713.5,176.1 716.2,175.7 718.9,175.1 721.7,174.1 724.4,173.2 727.1,171.6 729.9,170.6 732.6,169.6 735.3,169.5 738.1,169.1 740.8,168.4 743.5,166.4 746.3,163.2 749.0,159.9 751.7,156.6 754.5,153.9 757.2,150.7 759.9,147.3 762.7,143.8 765.4,140.6 768.1,138.3 770.9,136.5 773.6,134.4 776.3,132.4 779.1,131.0 781.8,129.4 784.5,128.2 787.3,126.4 790.0,124.0 792.7,121.2 795.5,118.8 798.2,116.7 800.9,115.4 803.7,114.1 806.4,112.9 809.1,111.6 811.9,109.3 814.6,107.3 817.3,104.9 820.1,102.5 822.8,100.4 825.5,98.8 828.3,98.1 831.0,97.2 833.7,96.2 836.5,96.1 839.2,96.0 841.9,95.5 844.7,95.3 847.4,95.2 850.1,94.9 852.9,94.7 861.1,94.7 863.8,94.6 866.5,94.2 869.3,91.4 872.0,90.0" fill="none" stroke="#38bdf8" stroke-width="2.5" stroke-linejoin="round" stroke-linecap="round"/>
<circle cx="872.0" cy="90.0" r="4" fill="#0ea5e9"/>
<text x="866.0" y="80.0" text-anchor="end" font-family="Inter, system-ui, sans-serif" font-size="13" font-weight="700" fill="#334155">2685</text>
<text x="52.0" y="294" text-anchor="middle" font-family="Inter, system-ui, sans-serif" font-size="11" fill="#94a3b8">Jun 10 05:00</text>
<text x="544.0" y="294" text-anchor="middle" font-family="Inter, system-ui, sans-serif" font-size="11" fill="#94a3b8">Jun 17 17:00</text>
<text x="872.0" y="294" text-anchor="middle" font-family="Inter, system-ui, sans-serif" font-size="11" fill="#94a3b8">Jun 22 17:00</text>
</svg>
