<svg xmlns="http://www.w3.org/2000/svg" width="900" height="320" viewBox="0 0 900 320" role="img" aria-labelledby="title desc">
<title id="title">Unsorry proofs over time</title>
<desc id="desc">Cumulative kernel-verified proofs over time, by the hour each proof was merged.</desc>
<rect width="900" height="100%" rx="18" fill="#ffffff"/>
<rect x="0.5" y="0.5" width="899" height="319" rx="18" fill="none" stroke="#e2e8f0"/>
<text x="32" y="44" font-family="Inter, system-ui, sans-serif" font-size="28" font-weight="700" fill="#334155">Unsorry — Proofs Over Time</text>
<text x="32" y="72" font-family="Inter, system-ui, sans-serif" font-size="13" fill="#64748b">2104 cumulative kernel-verified proofs · merged, hourly</text>
<line x1="52" y1="272.0" x2="872" y2="272.0" stroke="#f1f5f9"/>
<text x="44" y="276.0" text-anchor="end" font-family="Inter, system-ui, sans-serif" font-size="11" fill="#94a3b8">0</text>
<line x1="52" y1="226.5" x2="872" y2="226.5" stroke="#f1f5f9"/>
<text x="44" y="230.5" text-anchor="end" font-family="Inter, system-ui, sans-serif" font-size="11" fill="#94a3b8">526</text>
<line x1="52" y1="181.0" x2="872" y2="181.0" stroke="#f1f5f9"/>
<text x="44" y="185.0" text-anchor="end" font-family="Inter, system-ui, sans-serif" font-size="11" fill="#94a3b8">1052</text>
<line x1="52" y1="135.5" x2="872" y2="135.5" stroke="#f1f5f9"/>
<text x="44" y="139.5" text-anchor="end" font-family="Inter, system-ui, sans-serif" font-size="11" fill="#94a3b8">1578</text>
<line x1="52" y1="90.0" x2="872" y2="90.0" stroke="#f1f5f9"/>
<text x="44" y="94.0" text-anchor="end" font-family="Inter, system-ui, sans-serif" font-size="11" fill="#94a3b8">2104</text>
<polygon points="52.0,272.0 52.0,271.9 55.1,271.7 91.9,270.9 95.0,270.6 98.1,270.5 107.3,270.4 125.7,270.4 165.6,270.3 168.7,269.5 171.8,269.4 181.0,269.2 184.1,269.1 187.1,269.1 190.2,268.8 196.3,268.7 199.4,268.3 208.6,267.9 220.9,267.8 224.0,267.5 227.1,267.3 251.6,267.2 257.8,267.2 273.1,267.1 276.2,267.0 279.3,266.8 291.6,266.7 294.6,266.2 297.7,265.8 300.8,264.6 303.8,264.5 325.3,264.4 334.5,264.3 340.7,264.2 343.8,264.1 346.8,263.7 349.9,263.6 353.0,263.5 356.0,263.3 359.1,263.0 371.4,262.6 377.5,262.5 389.8,262.4 392.9,262.0 396.0,261.9 399.0,261.7 405.2,261.6 408.3,259.9 411.3,258.2 414.4,257.6 417.5,257.1 420.5,256.9 423.6,256.5 426.7,255.9 429.8,255.5 432.8,255.2 435.9,255.0 442.0,254.8 445.1,254.1 448.2,253.4 451.3,252.7 454.3,252.3 460.5,252.1 466.6,252.0 469.7,251.4 472.7,251.0 475.8,249.8 478.9,249.1 482.0,248.4 485.0,247.7 488.1,246.9 491.2,246.1 494.2,245.3 497.3,244.3 500.4,243.5 503.5,242.7 506.5,242.2 509.6,241.6 512.7,240.9 515.7,240.5 518.8,240.1 521.9,239.6 525.0,239.5 528.0,239.3 534.2,239.2 537.2,237.5 540.3,236.3 543.4,236.0 546.5,235.9 552.6,235.8 555.7,235.5 568.0,235.4 574.1,235.2 583.3,235.2 586.4,233.2 589.5,231.3 592.5,230.7 595.6,229.2 598.7,228.0 601.7,227.2 604.8,226.8 607.9,226.0 611.0,225.6 614.0,225.5 617.1,225.1 620.2,224.9 638.6,223.6 641.7,221.8 644.7,221.6 647.8,221.3 650.9,221.2 672.4,221.1 700.0,219.3 703.1,217.9 706.2,216.3 709.2,213.9 712.3,213.4 715.4,212.7 718.4,211.3 721.5,210.2 724.6,207.9 727.7,204.4 730.7,201.1 733.8,197.1 736.9,192.9 739.9,189.3 743.0,187.1 746.1,184.4 749.2,180.4 752.2,177.0 755.3,174.8 758.4,172.4 761.4,169.1 764.5,167.1 767.6,165.0 770.7,163.2 773.7,161.8 776.8,160.0 779.9,158.9 782.9,157.6 786.0,156.6 789.1,153.5 792.1,151.0 795.2,149.6 798.3,149.2 801.4,148.4 804.4,147.1 807.5,146.0 810.6,143.9 813.6,142.6 816.7,141.4 819.8,141.2 822.9,140.7 825.9,139.7 829.0,137.2 832.1,133.2 835.1,128.9 838.2,124.7 841.3,121.2 844.4,117.2 847.4,112.8 850.5,108.4 853.6,104.4 856.6,101.4 859.7,99.1 862.8,96.4 865.9,93.8 868.9,92.1 872.0,90.0 872.0,272.0" fill="#e0f2fe" opacity="0.55"/>
<polyline points="52.0,271.9 55.1,271.7 91.9,270.9 95.0,270.6 98.1,270.5 107.3,270.4 125.7,270.4 165.6,270.3 168.7,269.5 171.8,269.4 181.0,269.2 184.1,269.1 187.1,269.1 190.2,268.8 196.3,268.7 199.4,268.3 208.6,267.9 220.9,267.8 224.0,267.5 227.1,267.3 251.6,267.2 257.8,267.2 273.1,267.1 276.2,267.0 279.3,266.8 291.6,266.7 294.6,266.2 297.7,265.8 300.8,264.6 303.8,264.5 325.3,264.4 334.5,264.3 340.7,264.2 343.8,264.1 346.8,263.7 349.9,263.6 353.0,263.5 356.0,263.3 359.1,263.0 371.4,262.6 377.5,262.5 389.8,262.4 392.9,262.0 396.0,261.9 399.0,261.7 405.2,261.6 408.3,259.9 411.3,258.2 414.4,257.6 417.5,257.1 420.5,256.9 423.6,256.5 426.7,255.9 429.8,255.5 432.8,255.2 435.9,255.0 442.0,254.8 445.1,254.1 448.2,253.4 451.3,252.7 454.3,252.3 460.5,252.1 466.6,252.0 469.7,251.4 472.7,251.0 475.8,249.8 478.9,249.1 482.0,248.4 485.0,247.7 488.1,246.9 491.2,246.1 494.2,245.3 497.3,244.3 500.4,243.5 503.5,242.7 506.5,242.2 509.6,241.6 512.7,240.9 515.7,240.5 518.8,240.1 521.9,239.6 525.0,239.5 528.0,239.3 534.2,239.2 537.2,237.5 540.3,236.3 543.4,236.0 546.5,235.9 552.6,235.8 555.7,235.5 568.0,235.4 574.1,235.2 583.3,235.2 586.4,233.2 589.5,231.3 592.5,230.7 595.6,229.2 598.7,228.0 601.7,227.2 604.8,226.8 607.9,226.0 611.0,225.6 614.0,225.5 617.1,225.1 620.2,224.9 638.6,223.6 641.7,221.8 644.7,221.6 647.8,221.3 650.9,221.2 672.4,221.1 700.0,219.3 703.1,217.9 706.2,216.3 709.2,213.9 712.3,213.4 715.4,212.7 718.4,211.3 721.5,210.2 724.6,207.9 727.7,204.4 730.7,201.1 733.8,197.1 736.9,192.9 739.9,189.3 743.0,187.1 746.1,184.4 749.2,180.4 752.2,177.0 755.3,174.8 758.4,172.4 761.4,169.1 764.5,167.1 767.6,165.0 770.7,163.2 773.7,161.8 776.8,160.0 779.9,158.9 782.9,157.6 786.0,156.6 789.1,153.5 792.1,151.0 795.2,149.6 798.3,149.2 801.4,148.4 804.4,147.1 807.5,146.0 810.6,143.9 813.6,142.6 816.7,141.4 819.8,141.2 822.9,140.7 825.9,139.7 829.0,137.2 832.1,133.2 835.1,128.9 838.2,124.7 841.3,121.2 844.4,117.2 847.4,112.8 850.5,108.4 853.6,104.4 856.6,101.4 859.7,99.1 862.8,96.4 865.9,93.8 868.9,92.1 872.0,90.0" fill="none" stroke="#38bdf8" stroke-width="2.5" stroke-linejoin="round" stroke-linecap="round"/>
<circle cx="872.0" cy="90.0" r="4" fill="#0ea5e9"/>
<text x="866.0" y="80.0" text-anchor="end" font-family="Inter, system-ui, sans-serif" font-size="13" font-weight="700" fill="#334155">2104</text>
<text x="52.0" y="294" text-anchor="middle" font-family="Inter, system-ui, sans-serif" font-size="11" fill="#94a3b8">Jun 10 05:00</text>
<text x="537.2" y="294" text-anchor="middle" font-family="Inter, system-ui, sans-serif" font-size="11" fill="#94a3b8">Jun 16 19:00</text>
<text x="872.0" y="294" text-anchor="middle" font-family="Inter, system-ui, sans-serif" font-size="11" fill="#94a3b8">Jun 21 08:00</text>
</svg>
