<svg xmlns="http://www.w3.org/2000/svg" width="900" height="320" viewBox="0 0 900 320" role="img" aria-labelledby="title desc">
<title id="title">Unsorry proofs over time</title>
<desc id="desc">Cumulative kernel-verified proofs over time, by the hour each proof was merged.</desc>
<rect width="900" height="100%" rx="18" fill="#ffffff"/>
<rect x="0.5" y="0.5" width="899" height="319" rx="18" fill="none" stroke="#e2e8f0"/>
<text x="32" y="44" font-family="Inter, system-ui, sans-serif" font-size="28" font-weight="700" fill="#334155">Unsorry — Proofs Over Time</text>
<text x="32" y="72" font-family="Inter, system-ui, sans-serif" font-size="13" fill="#64748b">1991 cumulative kernel-verified proofs · merged, hourly</text>
<line x1="52" y1="272.0" x2="872" y2="272.0" stroke="#f1f5f9"/>
<text x="44" y="276.0" text-anchor="end" font-family="Inter, system-ui, sans-serif" font-size="11" fill="#94a3b8">0</text>
<line x1="52" y1="226.5" x2="872" y2="226.5" stroke="#f1f5f9"/>
<text x="44" y="230.5" text-anchor="end" font-family="Inter, system-ui, sans-serif" font-size="11" fill="#94a3b8">498</text>
<line x1="52" y1="181.0" x2="872" y2="181.0" stroke="#f1f5f9"/>
<text x="44" y="185.0" text-anchor="end" font-family="Inter, system-ui, sans-serif" font-size="11" fill="#94a3b8">996</text>
<line x1="52" y1="135.5" x2="872" y2="135.5" stroke="#f1f5f9"/>
<text x="44" y="139.5" text-anchor="end" font-family="Inter, system-ui, sans-serif" font-size="11" fill="#94a3b8">1493</text>
<line x1="52" y1="90.0" x2="872" y2="90.0" stroke="#f1f5f9"/>
<text x="44" y="94.0" text-anchor="end" font-family="Inter, system-ui, sans-serif" font-size="11" fill="#94a3b8">1991</text>
<polygon points="52.0,272.0 52.0,271.9 55.1,271.7 92.5,270.8 95.7,270.5 98.8,270.4 108.1,270.4 126.8,270.3 167.4,270.2 170.5,269.3 173.6,269.3 183.0,269.1 186.1,269.0 189.2,268.9 192.3,268.6 198.5,268.5 201.7,268.1 211.0,267.7 223.5,267.5 226.6,267.2 229.7,267.1 254.7,267.0 260.9,266.9 276.5,266.8 279.6,266.7 282.7,266.5 295.2,266.4 298.3,265.9 301.4,265.4 304.5,264.2 307.7,264.0 329.5,264.0 338.8,263.9 345.1,263.8 348.2,263.7 351.3,263.2 354.4,263.1 357.6,263.0 360.7,262.8 363.8,262.5 376.3,262.0 382.5,261.9 395.0,261.9 398.1,261.4 401.2,261.3 404.3,261.1 410.6,261.0 413.7,259.2 416.8,257.4 419.9,256.7 423.0,256.3 426.1,256.1 429.3,255.6 432.4,255.0 435.5,254.5 438.6,254.3 441.7,254.1 448.0,253.8 451.1,253.1 454.2,252.3 457.3,251.6 460.4,251.2 466.7,251.0 472.9,250.9 476.0,250.2 479.1,249.8 482.3,248.5 485.4,247.8 488.5,247.0 491.6,246.3 494.7,245.5 497.9,244.7 501.0,243.8 504.1,242.7 507.2,241.8 510.3,241.0 513.4,240.5 516.6,239.8 519.7,239.1 522.8,238.7 525.9,238.3 529.0,237.8 532.2,237.6 535.3,237.4 541.5,237.4 544.6,235.5 547.7,234.2 550.9,234.0 554.0,233.9 560.2,233.7 563.3,233.4 575.8,233.3 582.0,233.2 591.4,233.1 594.5,231.0 597.6,228.9 600.7,228.4 603.9,226.8 607.0,225.5 610.1,224.6 613.2,224.2 616.3,223.4 619.5,223.0 622.6,222.8 625.7,222.5 628.8,222.3 647.5,220.8 650.6,219.0 653.7,218.7 656.9,218.4 660.0,218.3 681.8,218.3 709.9,216.3 713.0,214.9 716.1,213.1 719.2,210.6 722.3,210.1 725.5,209.3 728.6,207.8 731.7,206.7 734.8,204.3 737.9,200.6 741.0,197.0 744.2,192.8 747.3,188.5 750.4,184.6 753.5,182.2 756.6,179.4 759.8,175.2 762.9,171.6 766.0,169.3 769.1,166.8 772.2,163.3 775.3,161.1 778.5,158.9 781.6,157.0 784.7,155.5 787.8,153.6 790.9,152.4 794.1,151.2 797.2,150.1 800.3,146.8 803.4,144.1 806.5,142.7 809.6,142.2 812.8,141.4 815.9,140.0 819.0,138.8 822.1,136.6 825.2,135.2 828.3,134.0 831.5,133.8 834.6,133.2 837.7,132.2 840.8,129.6 843.9,125.3 847.1,120.8 850.2,116.3 853.3,112.7 856.4,108.4 859.5,103.8 862.6,99.1 865.8,94.8 868.9,91.7 872.0,90.0 872.0,272.0" fill="#e0f2fe" opacity="0.55"/>
<polyline points="52.0,271.9 55.1,271.7 92.5,270.8 95.7,270.5 98.8,270.4 108.1,270.4 126.8,270.3 167.4,270.2 170.5,269.3 173.6,269.3 183.0,269.1 186.1,269.0 189.2,268.9 192.3,268.6 198.5,268.5 201.7,268.1 211.0,267.7 223.5,267.5 226.6,267.2 229.7,267.1 254.7,267.0 260.9,266.9 276.5,266.8 279.6,266.7 282.7,266.5 295.2,266.4 298.3,265.9 301.4,265.4 304.5,264.2 307.7,264.0 329.5,264.0 338.8,263.9 345.1,263.8 348.2,263.7 351.3,263.2 354.4,263.1 357.6,263.0 360.7,262.8 363.8,262.5 376.3,262.0 382.5,261.9 395.0,261.9 398.1,261.4 401.2,261.3 404.3,261.1 410.6,261.0 413.7,259.2 416.8,257.4 419.9,256.7 423.0,256.3 426.1,256.1 429.3,255.6 432.4,255.0 435.5,254.5 438.6,254.3 441.7,254.1 448.0,253.8 451.1,253.1 454.2,252.3 457.3,251.6 460.4,251.2 466.7,251.0 472.9,250.9 476.0,250.2 479.1,249.8 482.3,248.5 485.4,247.8 488.5,247.0 491.6,246.3 494.7,245.5 497.9,244.7 501.0,243.8 504.1,242.7 507.2,241.8 510.3,241.0 513.4,240.5 516.6,239.8 519.7,239.1 522.8,238.7 525.9,238.3 529.0,237.8 532.2,237.6 535.3,237.4 541.5,237.4 544.6,235.5 547.7,234.2 550.9,234.0 554.0,233.9 560.2,233.7 563.3,233.4 575.8,233.3 582.0,233.2 591.4,233.1 594.5,231.0 597.6,228.9 600.7,228.4 603.9,226.8 607.0,225.5 610.1,224.6 613.2,224.2 616.3,223.4 619.5,223.0 622.6,222.8 625.7,222.5 628.8,222.3 647.5,220.8 650.6,219.0 653.7,218.7 656.9,218.4 660.0,218.3 681.8,218.3 709.9,216.3 713.0,214.9 716.1,213.1 719.2,210.6 722.3,210.1 725.5,209.3 728.6,207.8 731.7,206.7 734.8,204.3 737.9,200.6 741.0,197.0 744.2,192.8 747.3,188.5 750.4,184.6 753.5,182.2 756.6,179.4 759.8,175.2 762.9,171.6 766.0,169.3 769.1,166.8 772.2,163.3 775.3,161.1 778.5,158.9 781.6,157.0 784.7,155.5 787.8,153.6 790.9,152.4 794.1,151.2 797.2,150.1 800.3,146.8 803.4,144.1 806.5,142.7 809.6,142.2 812.8,141.4 815.9,140.0 819.0,138.8 822.1,136.6 825.2,135.2 828.3,134.0 831.5,133.8 834.6,133.2 837.7,132.2 840.8,129.6 843.9,125.3 847.1,120.8 850.2,116.3 853.3,112.7 856.4,108.4 859.5,103.8 862.6,99.1 865.8,94.8 868.9,91.7 872.0,90.0" fill="none" stroke="#38bdf8" stroke-width="2.5" stroke-linejoin="round" stroke-linecap="round"/>
<circle cx="872.0" cy="90.0" r="4" fill="#0ea5e9"/>
<text x="866.0" y="80.0" text-anchor="end" font-family="Inter, system-ui, sans-serif" font-size="13" font-weight="700" fill="#334155">1991</text>
<text x="52.0" y="294" text-anchor="middle" font-family="Inter, system-ui, sans-serif" font-size="11" fill="#94a3b8">Jun 10 05:00</text>
<text x="535.3" y="294" text-anchor="middle" font-family="Inter, system-ui, sans-serif" font-size="11" fill="#94a3b8">Jun 16 16:00</text>
<text x="872.0" y="294" text-anchor="middle" font-family="Inter, system-ui, sans-serif" font-size="11" fill="#94a3b8">Jun 21 04:00</text>
</svg>
