<svg xmlns="http://www.w3.org/2000/svg" width="900" height="320" viewBox="0 0 900 320" role="img" aria-labelledby="title desc">
<title id="title">Unsorry proofs over time</title>
<desc id="desc">Cumulative kernel-verified proofs over time, by the hour each proof was merged.</desc>
<rect width="900" height="100%" rx="18" fill="#ffffff"/>
<rect x="0.5" y="0.5" width="899" height="319" rx="18" fill="none" stroke="#e2e8f0"/>
<text x="32" y="44" font-family="Inter, system-ui, sans-serif" font-size="28" font-weight="700" fill="#334155">Unsorry — Proofs Over Time</text>
<text x="32" y="72" font-family="Inter, system-ui, sans-serif" font-size="13" fill="#64748b">2116 cumulative kernel-verified proofs · merged, hourly</text>
<line x1="52" y1="272.0" x2="872" y2="272.0" stroke="#f1f5f9"/>
<text x="44" y="276.0" text-anchor="end" font-family="Inter, system-ui, sans-serif" font-size="11" fill="#94a3b8">0</text>
<line x1="52" y1="226.5" x2="872" y2="226.5" stroke="#f1f5f9"/>
<text x="44" y="230.5" text-anchor="end" font-family="Inter, system-ui, sans-serif" font-size="11" fill="#94a3b8">529</text>
<line x1="52" y1="181.0" x2="872" y2="181.0" stroke="#f1f5f9"/>
<text x="44" y="185.0" text-anchor="end" font-family="Inter, system-ui, sans-serif" font-size="11" fill="#94a3b8">1058</text>
<line x1="52" y1="135.5" x2="872" y2="135.5" stroke="#f1f5f9"/>
<text x="44" y="139.5" text-anchor="end" font-family="Inter, system-ui, sans-serif" font-size="11" fill="#94a3b8">1587</text>
<line x1="52" y1="90.0" x2="872" y2="90.0" stroke="#f1f5f9"/>
<text x="44" y="94.0" text-anchor="end" font-family="Inter, system-ui, sans-serif" font-size="11" fill="#94a3b8">2116</text>
<polygon points="52.0,272.0 52.0,271.9 55.1,271.7 91.8,270.9 94.8,270.6 97.9,270.5 107.1,270.5 125.4,270.4 165.2,270.3 168.3,269.5 171.3,269.4 180.5,269.2 183.6,269.2 186.6,269.1 189.7,268.8 195.8,268.7 198.9,268.3 208.0,268.0 220.3,267.8 223.3,267.5 226.4,267.4 250.9,267.3 257.0,267.2 272.3,267.1 275.4,267.0 278.4,266.8 290.7,266.8 293.7,266.2 296.8,265.8 299.8,264.7 302.9,264.5 324.3,264.4 333.5,264.3 339.6,264.3 342.7,264.2 345.7,263.7 348.8,263.7 351.9,263.6 354.9,263.3 358.0,263.1 370.2,262.6 376.3,262.5 388.6,262.5 391.6,262.0 394.7,261.9 397.7,261.8 403.9,261.7 406.9,260.0 410.0,258.2 413.0,257.6 416.1,257.2 419.2,257.0 422.2,256.6 425.3,256.0 428.3,255.6 431.4,255.3 434.5,255.1 440.6,254.9 443.6,254.2 446.7,253.5 449.8,252.8 452.8,252.4 458.9,252.2 465.1,252.1 468.1,251.5 471.2,251.1 474.2,249.9 477.3,249.2 480.4,248.5 483.4,247.8 486.5,247.1 489.5,246.3 492.6,245.4 495.7,244.5 498.7,243.6 501.8,242.8 504.8,242.3 507.9,241.7 511.0,241.0 514.0,240.7 517.1,240.3 520.1,239.8 523.2,239.7 526.3,239.5 532.4,239.4 535.4,237.7 538.5,236.5 541.6,236.2 544.6,236.1 550.7,236.0 553.8,235.7 566.0,235.6 572.1,235.4 581.3,235.4 584.4,233.4 587.4,231.5 590.5,231.0 593.6,229.4 596.6,228.2 599.7,227.4 602.7,227.0 605.8,226.2 608.9,225.9 611.9,225.7 615.0,225.4 618.0,225.2 636.4,223.8 639.5,222.1 642.5,221.9 645.6,221.6 648.6,221.5 670.1,221.4 697.6,219.6 700.7,218.2 703.7,216.6 706.8,214.2 709.8,213.8 712.9,213.0 716.0,211.6 719.0,210.6 722.1,208.3 725.1,204.8 728.2,201.5 731.3,197.5 734.3,193.4 737.4,189.8 740.4,187.5 743.5,184.9 746.6,180.9 749.6,177.6 752.7,175.3 755.7,173.0 758.8,169.7 761.9,167.7 764.9,165.6 768.0,163.8 771.0,162.4 774.1,160.6 777.1,159.5 780.2,158.3 783.3,157.3 786.3,154.2 789.4,151.7 792.4,150.3 795.5,149.9 798.6,149.1 801.6,147.8 804.7,146.7 807.7,144.6 810.8,143.3 813.9,142.1 816.9,142.0 820.0,141.4 823.0,140.5 826.1,138.0 829.2,134.0 832.2,129.7 835.3,125.5 838.3,122.1 841.4,118.0 844.5,113.7 847.5,109.4 850.6,105.3 853.6,102.4 856.7,100.1 859.8,97.4 862.8,94.8 865.9,93.1 868.9,91.0 872.0,90.0 872.0,272.0" fill="#e0f2fe" opacity="0.55"/>
<polyline points="52.0,271.9 55.1,271.7 91.8,270.9 94.8,270.6 97.9,270.5 107.1,270.5 125.4,270.4 165.2,270.3 168.3,269.5 171.3,269.4 180.5,269.2 183.6,269.2 186.6,269.1 189.7,268.8 195.8,268.7 198.9,268.3 208.0,268.0 220.3,267.8 223.3,267.5 226.4,267.4 250.9,267.3 257.0,267.2 272.3,267.1 275.4,267.0 278.4,266.8 290.7,266.8 293.7,266.2 296.8,265.8 299.8,264.7 302.9,264.5 324.3,264.4 333.5,264.3 339.6,264.3 342.7,264.2 345.7,263.7 348.8,263.7 351.9,263.6 354.9,263.3 358.0,263.1 370.2,262.6 376.3,262.5 388.6,262.5 391.6,262.0 394.7,261.9 397.7,261.8 403.9,261.7 406.9,260.0 410.0,258.2 413.0,257.6 416.1,257.2 419.2,257.0 422.2,256.6 425.3,256.0 428.3,255.6 431.4,255.3 434.5,255.1 440.6,254.9 443.6,254.2 446.7,253.5 449.8,252.8 452.8,252.4 458.9,252.2 465.1,252.1 468.1,251.5 471.2,251.1 474.2,249.9 477.3,249.2 480.4,248.5 483.4,247.8 486.5,247.1 489.5,246.3 492.6,245.4 495.7,244.5 498.7,243.6 501.8,242.8 504.8,242.3 507.9,241.7 511.0,241.0 514.0,240.7 517.1,240.3 520.1,239.8 523.2,239.7 526.3,239.5 532.4,239.4 535.4,237.7 538.5,236.5 541.6,236.2 544.6,236.1 550.7,236.0 553.8,235.7 566.0,235.6 572.1,235.4 581.3,235.4 584.4,233.4 587.4,231.5 590.5,231.0 593.6,229.4 596.6,228.2 599.7,227.4 602.7,227.0 605.8,226.2 608.9,225.9 611.9,225.7 615.0,225.4 618.0,225.2 636.4,223.8 639.5,222.1 642.5,221.9 645.6,221.6 648.6,221.5 670.1,221.4 697.6,219.6 700.7,218.2 703.7,216.6 706.8,214.2 709.8,213.8 712.9,213.0 716.0,211.6 719.0,210.6 722.1,208.3 725.1,204.8 728.2,201.5 731.3,197.5 734.3,193.4 737.4,189.8 740.4,187.5 743.5,184.9 746.6,180.9 749.6,177.6 752.7,175.3 755.7,173.0 758.8,169.7 761.9,167.7 764.9,165.6 768.0,163.8 771.0,162.4 774.1,160.6 777.1,159.5 780.2,158.3 783.3,157.3 786.3,154.2 789.4,151.7 792.4,150.3 795.5,149.9 798.6,149.1 801.6,147.8 804.7,146.7 807.7,144.6 810.8,143.3 813.9,142.1 816.9,142.0 820.0,141.4 823.0,140.5 826.1,138.0 829.2,134.0 832.2,129.7 835.3,125.5 838.3,122.1 841.4,118.0 844.5,113.7 847.5,109.4 850.6,105.3 853.6,102.4 856.7,100.1 859.8,97.4 862.8,94.8 865.9,93.1 868.9,91.0 872.0,90.0" fill="none" stroke="#38bdf8" stroke-width="2.5" stroke-linejoin="round" stroke-linecap="round"/>
<circle cx="872.0" cy="90.0" r="4" fill="#0ea5e9"/>
<text x="866.0" y="80.0" text-anchor="end" font-family="Inter, system-ui, sans-serif" font-size="13" font-weight="700" fill="#334155">2116</text>
<text x="52.0" y="294" text-anchor="middle" font-family="Inter, system-ui, sans-serif" font-size="11" fill="#94a3b8">Jun 10 05:00</text>
<text x="535.4" y="294" text-anchor="middle" font-family="Inter, system-ui, sans-serif" font-size="11" fill="#94a3b8">Jun 16 19:00</text>
<text x="872.0" y="294" text-anchor="middle" font-family="Inter, system-ui, sans-serif" font-size="11" fill="#94a3b8">Jun 21 09:00</text>
</svg>
