<svg xmlns="http://www.w3.org/2000/svg" width="900" height="320" viewBox="0 0 900 320" role="img" aria-labelledby="title desc">
<title id="title">unsorry proofs over time</title>
<desc id="desc">Cumulative kernel-verified proofs over time, by the hour each proof was merged.</desc>
<rect width="900" height="100%" rx="18" fill="#ffffff"/>
<rect x="0.5" y="0.5" width="899" height="319" rx="18" fill="none" stroke="#e2e8f0"/>
<text x="32" y="44" font-family="Inter, system-ui, sans-serif" font-size="28" font-weight="700" fill="#334155">unsorry — Proofs Over Time</text>
<text x="32" y="72" font-family="Inter, system-ui, sans-serif" font-size="13" fill="#64748b">2812 cumulative kernel-verified proofs · merged, hourly</text>
<line x1="52" y1="272.0" x2="872" y2="272.0" stroke="#f1f5f9"/>
<text x="44" y="276.0" text-anchor="end" font-family="Inter, system-ui, sans-serif" font-size="11" fill="#94a3b8">0</text>
<line x1="52" y1="226.5" x2="872" y2="226.5" stroke="#f1f5f9"/>
<text x="44" y="230.5" text-anchor="end" font-family="Inter, system-ui, sans-serif" font-size="11" fill="#94a3b8">703</text>
<line x1="52" y1="181.0" x2="872" y2="181.0" stroke="#f1f5f9"/>
<text x="44" y="185.0" text-anchor="end" font-family="Inter, system-ui, sans-serif" font-size="11" fill="#94a3b8">1406</text>
<line x1="52" y1="135.5" x2="872" y2="135.5" stroke="#f1f5f9"/>
<text x="44" y="139.5" text-anchor="end" font-family="Inter, system-ui, sans-serif" font-size="11" fill="#94a3b8">2109</text>
<line x1="52" y1="90.0" x2="872" y2="90.0" stroke="#f1f5f9"/>
<text x="44" y="94.0" text-anchor="end" font-family="Inter, system-ui, sans-serif" font-size="11" fill="#94a3b8">2812</text>
<polygon points="52.0,272.0 52.0,271.9 54.7,271.8 87.1,271.2 89.8,271.0 92.5,270.9 100.6,270.8 116.7,270.8 151.8,270.7 154.5,270.1 157.2,270.1 165.3,269.9 168.0,269.9 170.7,269.8 173.4,269.6 178.8,269.5 181.5,269.2 189.6,269.0 200.4,268.8 203.1,268.6 205.8,268.5 227.3,268.4 232.7,268.4 246.2,268.3 248.9,268.2 251.6,268.1 262.4,268.1 265.1,267.7 267.8,267.3 270.5,266.5 273.2,266.4 292.1,266.3 300.2,266.2 305.6,266.2 308.2,266.1 310.9,265.8 313.6,265.7 316.3,265.7 319.0,265.5 321.7,265.3 332.5,264.9 337.9,264.9 348.7,264.8 351.4,264.5 354.1,264.4 356.8,264.3 362.2,264.2 364.9,262.9 367.6,261.6 370.3,261.2 373.0,260.9 375.7,260.7 378.4,260.4 381.1,260.0 383.8,259.6 386.5,259.4 389.2,259.3 394.6,259.1 397.3,258.6 400.0,258.1 402.7,257.6 405.4,257.2 410.8,257.1 416.1,257.0 418.8,256.6 421.5,256.3 424.2,255.4 426.9,254.8 429.6,254.3 432.3,253.8 435.0,253.2 437.7,252.6 440.4,252.0 443.1,251.3 445.8,250.6 448.5,250.1 451.2,249.7 453.9,249.2 456.6,248.7 459.3,248.4 462.0,248.1 464.7,247.8 467.4,247.7 470.1,247.5 475.5,247.5 478.2,246.2 480.9,245.3 483.6,245.1 486.3,245.0 491.7,244.9 494.4,244.7 505.2,244.6 510.6,244.5 518.6,244.4 521.3,242.9 524.0,241.5 526.7,241.1 529.4,240.0 532.1,239.1 534.8,238.5 537.5,238.2 540.2,237.6 542.9,237.3 545.6,237.2 548.3,236.9 551.0,236.8 567.2,235.8 569.9,234.5 572.6,234.3 575.3,234.1 578.0,234.0 596.9,233.9 621.1,232.6 623.8,231.5 626.5,230.3 629.2,228.5 631.9,228.2 634.6,227.6 637.3,226.6 640.0,225.8 642.7,224.0 645.4,221.5 648.1,218.9 650.8,216.0 653.5,212.8 656.2,210.1 658.9,208.4 661.6,206.4 664.3,203.5 667.0,200.9 669.7,199.3 672.4,197.5 675.1,195.0 677.8,193.5 680.5,191.9 683.2,190.6 685.9,189.5 688.6,188.2 691.3,187.3 694.0,186.4 696.7,185.7 699.4,183.3 702.1,181.5 704.8,180.4 707.5,180.1 710.2,179.5 712.9,178.5 715.6,177.7 718.2,176.1 720.9,175.2 723.6,174.3 726.3,174.1 729.0,173.8 731.7,173.0 734.4,171.2 737.1,168.1 739.8,164.9 742.5,161.8 745.2,159.2 747.9,156.1 750.6,152.9 753.3,149.6 756.0,146.6 758.7,144.4 761.4,142.6 764.1,140.6 766.8,138.7 769.5,137.4 772.2,135.8 774.9,134.7 777.6,133.0 780.3,130.7 783.0,128.0 785.7,125.7 788.4,123.7 791.1,122.4 793.8,121.3 796.5,120.1 799.2,118.8 801.9,116.6 804.6,114.7 807.3,112.5 810.0,110.1 812.7,108.2 815.4,106.6 818.1,106.0 820.8,105.1 823.4,104.2 826.1,104.0 828.8,103.9 831.5,103.5 834.2,103.3 836.9,103.2 839.6,102.9 842.3,102.8 850.4,102.7 853.1,102.6 855.8,102.2 858.5,99.6 861.2,97.3 863.9,95.3 866.6,93.0 869.3,91.0 872.0,90.0 872.0,272.0" fill="#e0f2fe" opacity="0.55"/>
<polyline points="52.0,271.9 54.7,271.8 87.1,271.2 89.8,271.0 92.5,270.9 100.6,270.8 116.7,270.8 151.8,270.7 154.5,270.1 157.2,270.1 165.3,269.9 168.0,269.9 170.7,269.8 173.4,269.6 178.8,269.5 181.5,269.2 189.6,269.0 200.4,268.8 203.1,268.6 205.8,268.5 227.3,268.4 232.7,268.4 246.2,268.3 248.9,268.2 251.6,268.1 262.4,268.1 265.1,267.7 267.8,267.3 270.5,266.5 273.2,266.4 292.1,266.3 300.2,266.2 305.6,266.2 308.2,266.1 310.9,265.8 313.6,265.7 316.3,265.7 319.0,265.5 321.7,265.3 332.5,264.9 337.9,264.9 348.7,264.8 351.4,264.5 354.1,264.4 356.8,264.3 362.2,264.2 364.9,262.9 367.6,261.6 370.3,261.2 373.0,260.9 375.7,260.7 378.4,260.4 381.1,260.0 383.8,259.6 386.5,259.4 389.2,259.3 394.6,259.1 397.3,258.6 400.0,258.1 402.7,257.6 405.4,257.2 410.8,257.1 416.1,257.0 418.8,256.6 421.5,256.3 424.2,255.4 426.9,254.8 429.6,254.3 432.3,253.8 435.0,253.2 437.7,252.6 440.4,252.0 443.1,251.3 445.8,250.6 448.5,250.1 451.2,249.7 453.9,249.2 456.6,248.7 459.3,248.4 462.0,248.1 464.7,247.8 467.4,247.7 470.1,247.5 475.5,247.5 478.2,246.2 480.9,245.3 483.6,245.1 486.3,245.0 491.7,244.9 494.4,244.7 505.2,244.6 510.6,244.5 518.6,244.4 521.3,242.9 524.0,241.5 526.7,241.1 529.4,240.0 532.1,239.1 534.8,238.5 537.5,238.2 540.2,237.6 542.9,237.3 545.6,237.2 548.3,236.9 551.0,236.8 567.2,235.8 569.9,234.5 572.6,234.3 575.3,234.1 578.0,234.0 596.9,233.9 621.1,232.6 623.8,231.5 626.5,230.3 629.2,228.5 631.9,228.2 634.6,227.6 637.3,226.6 640.0,225.8 642.7,224.0 645.4,221.5 648.1,218.9 650.8,216.0 653.5,212.8 656.2,210.1 658.9,208.4 661.6,206.4 664.3,203.5 667.0,200.9 669.7,199.3 672.4,197.5 675.1,195.0 677.8,193.5 680.5,191.9 683.2,190.6 685.9,189.5 688.6,188.2 691.3,187.3 694.0,186.4 696.7,185.7 699.4,183.3 702.1,181.5 704.8,180.4 707.5,180.1 710.2,179.5 712.9,178.5 715.6,177.7 718.2,176.1 720.9,175.2 723.6,174.3 726.3,174.1 729.0,173.8 731.7,173.0 734.4,171.2 737.1,168.1 739.8,164.9 742.5,161.8 745.2,159.2 747.9,156.1 750.6,152.9 753.3,149.6 756.0,146.6 758.7,144.4 761.4,142.6 764.1,140.6 766.8,138.7 769.5,137.4 772.2,135.8 774.9,134.7 777.6,133.0 780.3,130.7 783.0,128.0 785.7,125.7 788.4,123.7 791.1,122.4 793.8,121.3 796.5,120.1 799.2,118.8 801.9,116.6 804.6,114.7 807.3,112.5 810.0,110.1 812.7,108.2 815.4,106.6 818.1,106.0 820.8,105.1 823.4,104.2 826.1,104.0 828.8,103.9 831.5,103.5 834.2,103.3 836.9,103.2 839.6,102.9 842.3,102.8 850.4,102.7 853.1,102.6 855.8,102.2 858.5,99.6 861.2,97.3 863.9,95.3 866.6,93.0 869.3,91.0 872.0,90.0" fill="none" stroke="#38bdf8" stroke-width="2.5" stroke-linejoin="round" stroke-linecap="round"/>
<circle cx="872.0" cy="90.0" r="4" fill="#0ea5e9"/>
<text x="866.0" y="80.0" text-anchor="end" font-family="Inter, system-ui, sans-serif" font-size="13" font-weight="700" fill="#334155">2812</text>
<text x="52.0" y="294" text-anchor="middle" font-family="Inter, system-ui, sans-serif" font-size="11" fill="#94a3b8">Jun 10 05:00</text>
<text x="542.9" y="294" text-anchor="middle" font-family="Inter, system-ui, sans-serif" font-size="11" fill="#94a3b8">Jun 17 19:00</text>
<text x="872.0" y="294" text-anchor="middle" font-family="Inter, system-ui, sans-serif" font-size="11" fill="#94a3b8">Jun 22 21:00</text>
</svg>
