<svg xmlns="http://www.w3.org/2000/svg" width="900" height="320" viewBox="0 0 900 320" role="img" aria-labelledby="title desc">
<title id="title">Unsorry proofs over time</title>
<desc id="desc">Cumulative kernel-verified proofs over time, by the hour each proof was merged.</desc>
<rect width="900" height="100%" rx="18" fill="#ffffff"/>
<rect x="0.5" y="0.5" width="899" height="319" rx="18" fill="none" stroke="#e2e8f0"/>
<text x="32" y="44" font-family="Inter, system-ui, sans-serif" font-size="28" font-weight="700" fill="#334155">Unsorry — Proofs Over Time</text>
<text x="32" y="72" font-family="Inter, system-ui, sans-serif" font-size="13" fill="#64748b">2490 cumulative kernel-verified proofs · merged, hourly</text>
<line x1="52" y1="272.0" x2="872" y2="272.0" stroke="#f1f5f9"/>
<text x="44" y="276.0" text-anchor="end" font-family="Inter, system-ui, sans-serif" font-size="11" fill="#94a3b8">0</text>
<line x1="52" y1="226.5" x2="872" y2="226.5" stroke="#f1f5f9"/>
<text x="44" y="230.5" text-anchor="end" font-family="Inter, system-ui, sans-serif" font-size="11" fill="#94a3b8">622</text>
<line x1="52" y1="181.0" x2="872" y2="181.0" stroke="#f1f5f9"/>
<text x="44" y="185.0" text-anchor="end" font-family="Inter, system-ui, sans-serif" font-size="11" fill="#94a3b8">1245</text>
<line x1="52" y1="135.5" x2="872" y2="135.5" stroke="#f1f5f9"/>
<text x="44" y="139.5" text-anchor="end" font-family="Inter, system-ui, sans-serif" font-size="11" fill="#94a3b8">1868</text>
<line x1="52" y1="90.0" x2="872" y2="90.0" stroke="#f1f5f9"/>
<text x="44" y="94.0" text-anchor="end" font-family="Inter, system-ui, sans-serif" font-size="11" fill="#94a3b8">2490</text>
<polygon points="52.0,272.0 52.0,271.9 54.9,271.8 89.9,271.0 92.9,270.8 95.8,270.8 104.5,270.7 122.0,270.6 160.0,270.5 162.9,269.9 165.8,269.8 174.6,269.7 177.5,269.6 180.4,269.5 183.3,269.3 189.2,269.2 192.1,268.9 200.8,268.6 212.5,268.4 215.4,268.2 218.3,268.1 241.7,268.0 247.5,267.9 262.1,267.8 265.0,267.8 267.9,267.6 279.6,267.5 282.5,267.1 285.5,266.7 288.4,265.8 291.3,265.6 311.7,265.6 320.5,265.5 326.3,265.4 329.2,265.3 332.1,265.0 335.1,264.9 338.0,264.8 340.9,264.6 343.8,264.4 355.5,264.0 361.3,264.0 373.0,263.9 375.9,263.5 378.8,263.4 381.8,263.3 387.6,263.2 390.5,261.8 393.4,260.3 396.3,259.8 399.3,259.4 402.2,259.3 405.1,258.9 408.0,258.4 410.9,258.0 413.9,257.8 416.8,257.7 422.6,257.5 425.5,256.9 428.4,256.3 431.4,255.7 434.3,255.3 440.1,255.2 446.0,255.1 448.9,254.6 451.8,254.2 454.7,253.2 457.6,252.6 460.5,252.0 463.5,251.5 466.4,250.8 469.3,250.1 472.2,249.4 475.1,248.6 478.0,247.9 481.0,247.2 483.9,246.8 486.8,246.3 489.7,245.7 492.6,245.4 495.6,245.0 498.5,244.7 501.4,244.5 504.3,244.4 510.1,244.3 513.1,242.8 516.0,241.8 518.9,241.6 521.8,241.5 527.7,241.4 530.6,241.2 542.2,241.1 548.1,240.9 556.8,240.9 559.8,239.2 562.7,237.6 565.6,237.1 568.5,235.8 571.4,234.8 574.3,234.1 577.3,233.8 580.2,233.1 583.1,232.8 586.0,232.7 588.9,232.4 591.9,232.2 609.4,231.1 612.3,229.6 615.2,229.4 618.1,229.2 621.0,229.1 641.5,229.0 667.7,227.5 670.6,226.3 673.6,224.9 676.5,222.9 679.4,222.5 682.3,221.9 685.2,220.7 688.2,219.8 691.1,217.8 694.0,214.9 696.9,212.1 699.8,208.7 702.7,205.2 705.7,202.1 708.6,200.2 711.5,198.0 714.4,194.6 717.3,191.7 720.3,189.8 723.2,187.9 726.1,185.1 729.0,183.3 731.9,181.6 734.8,180.0 737.8,178.9 740.7,177.3 743.6,176.4 746.5,175.4 749.4,174.5 752.4,171.9 755.3,169.7 758.2,168.6 761.1,168.2 764.0,167.6 766.9,166.5 769.9,165.5 772.8,163.8 775.7,162.7 778.6,161.6 781.5,161.5 784.5,161.0 787.4,160.2 790.3,158.1 793.2,154.7 796.1,151.1 799.0,147.5 802.0,144.6 804.9,141.2 807.8,137.5 810.7,133.8 813.6,130.3 816.6,127.9 819.5,125.9 822.4,123.6 825.3,121.4 828.2,120.0 831.1,118.2 834.1,116.9 837.0,115.0 839.9,112.4 842.8,109.4 845.7,106.8 848.7,104.5 851.6,103.1 854.5,101.8 857.4,100.5 860.3,99.0 863.2,96.5 866.2,94.4 869.1,91.8 872.0,90.0 872.0,272.0" fill="#e0f2fe" opacity="0.55"/>
<polyline points="52.0,271.9 54.9,271.8 89.9,271.0 92.9,270.8 95.8,270.8 104.5,270.7 122.0,270.6 160.0,270.5 162.9,269.9 165.8,269.8 174.6,269.7 177.5,269.6 180.4,269.5 183.3,269.3 189.2,269.2 192.1,268.9 200.8,268.6 212.5,268.4 215.4,268.2 218.3,268.1 241.7,268.0 247.5,267.9 262.1,267.8 265.0,267.8 267.9,267.6 279.6,267.5 282.5,267.1 285.5,266.7 288.4,265.8 291.3,265.6 311.7,265.6 320.5,265.5 326.3,265.4 329.2,265.3 332.1,265.0 335.1,264.9 338.0,264.8 340.9,264.6 343.8,264.4 355.5,264.0 361.3,264.0 373.0,263.9 375.9,263.5 378.8,263.4 381.8,263.3 387.6,263.2 390.5,261.8 393.4,260.3 396.3,259.8 399.3,259.4 402.2,259.3 405.1,258.9 408.0,258.4 410.9,258.0 413.9,257.8 416.8,257.7 422.6,257.5 425.5,256.9 428.4,256.3 431.4,255.7 434.3,255.3 440.1,255.2 446.0,255.1 448.9,254.6 451.8,254.2 454.7,253.2 457.6,252.6 460.5,252.0 463.5,251.5 466.4,250.8 469.3,250.1 472.2,249.4 475.1,248.6 478.0,247.9 481.0,247.2 483.9,246.8 486.8,246.3 489.7,245.7 492.6,245.4 495.6,245.0 498.5,244.7 501.4,244.5 504.3,244.4 510.1,244.3 513.1,242.8 516.0,241.8 518.9,241.6 521.8,241.5 527.7,241.4 530.6,241.2 542.2,241.1 548.1,240.9 556.8,240.9 559.8,239.2 562.7,237.6 565.6,237.1 568.5,235.8 571.4,234.8 574.3,234.1 577.3,233.8 580.2,233.1 583.1,232.8 586.0,232.7 588.9,232.4 591.9,232.2 609.4,231.1 612.3,229.6 615.2,229.4 618.1,229.2 621.0,229.1 641.5,229.0 667.7,227.5 670.6,226.3 673.6,224.9 676.5,222.9 679.4,222.5 682.3,221.9 685.2,220.7 688.2,219.8 691.1,217.8 694.0,214.9 696.9,212.1 699.8,208.7 702.7,205.2 705.7,202.1 708.6,200.2 711.5,198.0 714.4,194.6 717.3,191.7 720.3,189.8 723.2,187.9 726.1,185.1 729.0,183.3 731.9,181.6 734.8,180.0 737.8,178.9 740.7,177.3 743.6,176.4 746.5,175.4 749.4,174.5 752.4,171.9 755.3,169.7 758.2,168.6 761.1,168.2 764.0,167.6 766.9,166.5 769.9,165.5 772.8,163.8 775.7,162.7 778.6,161.6 781.5,161.5 784.5,161.0 787.4,160.2 790.3,158.1 793.2,154.7 796.1,151.1 799.0,147.5 802.0,144.6 804.9,141.2 807.8,137.5 810.7,133.8 813.6,130.3 816.6,127.9 819.5,125.9 822.4,123.6 825.3,121.4 828.2,120.0 831.1,118.2 834.1,116.9 837.0,115.0 839.9,112.4 842.8,109.4 845.7,106.8 848.7,104.5 851.6,103.1 854.5,101.8 857.4,100.5 860.3,99.0 863.2,96.5 866.2,94.4 869.1,91.8 872.0,90.0" fill="none" stroke="#38bdf8" stroke-width="2.5" stroke-linejoin="round" stroke-linecap="round"/>
<circle cx="872.0" cy="90.0" r="4" fill="#0ea5e9"/>
<text x="866.0" y="80.0" text-anchor="end" font-family="Inter, system-ui, sans-serif" font-size="13" font-weight="700" fill="#334155">2490</text>
<text x="52.0" y="294" text-anchor="middle" font-family="Inter, system-ui, sans-serif" font-size="11" fill="#94a3b8">Jun 10 05:00</text>
<text x="548.1" y="294" text-anchor="middle" font-family="Inter, system-ui, sans-serif" font-size="11" fill="#94a3b8">Jun 17 07:00</text>
<text x="872.0" y="294" text-anchor="middle" font-family="Inter, system-ui, sans-serif" font-size="11" fill="#94a3b8">Jun 21 22:00</text>
</svg>
